  0
SECTION
  2
HEADER
  9
$ACADVER
  1
AC1014
  9
$HANDSEED
  5
FFFF
  9
$MEASUREMENT
 70
     1
  0
ENDSEC
  0
SECTION
  2
TABLES
  0
TABLE
  2
VPORT
  5
8
330
0
100
AcDbSymbolTable
 70
     4
  0
VPORT
  5
2E
330
8
100
AcDbSymbolTableRecord
100
AcDbViewportTableRecord
  2
*ACTIVE
 70
     0
 10
0.0
 20
0.0
 11
1.0
 21
1.0
 12
210.0
 22
148.5
 13
0.0
 23
0.0
 14
10.0
 24
10.0
 15
10.0
 25
10.0
 16
0.0
 26
0.0
 36
1.0
 17
0.0
 27
0.0
 37
0.0
 40
341.0
 41
1.24
 42
50.0
 43
0.0
 44
0.0
 50
0.0
 51
0.0
 71
     0
 72
   100
 73
     1
 74
     3
 75
     0
 76
     0
 77
     0
 78
     0
  0
ENDTAB
  0
TABLE
  2
LTYPE
  5
5
330
0
100
AcDbSymbolTable
 70
     1
  0
LTYPE
  5
14
330
5
100
AcDbSymbolTableRecord
100
AcDbLinetypeTableRecord
  2
BYBLOCK
 70
     0
  3

 72
    65
 73
     0
 40
0.0
  0
LTYPE
  5
15
330
5
100
AcDbSymbolTableRecord
100
AcDbLinetypeTableRecord
  2
BYLAYER
 70
     0
  3

 72
    65
 73
     0
 40
0.0
  0
LTYPE
  5
16
330
5
100
AcDbSymbolTableRecord
100
AcDbLinetypeTableRecord
  2
CONTINUOUS
 70
     0
  3
Solid line
 72
    65
 73
     0
 40
0.0
  0
ENDTAB
  0
TABLE
  2
LAYER
  5
2
100
AcDbSymbolTable
 70
1
  0
LAYER
  5
50
100
AcDbSymbolTableRecord
100
AcDbLayerTableRecord
  2
0
 70
0
  6
CONTINUOUS
  0
ENDTAB
  0
TABLE
  2
STYLE
  5
3
330
0
100
AcDbSymbolTable
 70
     1
  0
STYLE
  5
11
330
3
100
AcDbSymbolTableRecord
100
AcDbTextStyleTableRecord
  2
STANDARD
 70
     0
 40
0.0
 41
1.0
 50
0.0
 71
     0
 42
2.5
  3
txt
  4

  0
ENDTAB
  0
TABLE
  2
VIEW
  5
6
330
0
100
AcDbSymbolTable
 70
     0
  0
ENDTAB
  0
TABLE
  2
UCS
  5
7
330
0
100
AcDbSymbolTable
 70
     0
  0
ENDTAB
  0
TABLE
  2
APPID
  5
9
330
0
100
AcDbSymbolTable
 70
     2
  0
APPID
  5
12
330
9
100
AcDbSymbolTableRecord
100
AcDbRegAppTableRecord
  2
ACAD
 70
     0
  0
ENDTAB
  0
TABLE
  2
DIMSTYLE
  5
A
330
0
100
AcDbSymbolTable
 70
     1
  0
DIMSTYLE
105
27
330
A
100
AcDbSymbolTableRecord
100
AcDbDimStyleTableRecord
  2
ISO-25
 70
     0
  3

  4

  5

  6

  7

 40
1.0
 41
2.5
 42
0.625
 43
3.75
 44
1.25
 45
0.0
 46
0.0
 47
0.0
 48
0.0
140
2.5
141
2.5
142
0.0
143
0.03937007874016
144
1.0
145
0.0
146
1.0
147
0.625
 71
     0
 72
     0
 73
     0
 74
     0
 75
     0
 76
     0
 77
     1
 78
     8
170
     0
171
     3
172
     1
173
     0
174
     0
175
     0
176
     0
177
     0
178
     0
270
     2
271
     2
272
     2
273
     2
274
     3
340
11
275
     0
280
     0
281
     0
282
     0
283
     0
284
     8
285
     0
286
     0
287
     3
288
     0
  0
ENDTAB
  0
TABLE
  2
BLOCK_RECORD
  5
1
330
0
100
AcDbSymbolTable
 70
     1
  0
BLOCK_RECORD
  5
1F
330
1
100
AcDbSymbolTableRecord
100
AcDbBlockTableRecord
  2
*MODEL_SPACE
  0
BLOCK_RECORD
  5
1B
330
1
100
AcDbSymbolTableRecord
100
AcDbBlockTableRecord
  2
*PAPER_SPACE
  0
ENDTAB
  0
ENDSEC
  0
SECTION
  2
BLOCKS
  0
BLOCK
  5
20
330
1F
100
AcDbEntity
  8
0
100
AcDbBlockBegin
  2
*MODEL_SPACE
 70
     0
 10
0.0
 20
0.0
 30
0.0
  3
*MODEL_SPACE
  1

  0
ENDBLK
  5
21
330
1F
100
AcDbEntity
  8
0
100
AcDbBlockEnd
  0
BLOCK
  5
1C
330
1B
100
AcDbEntity
 67
     1
  8
0
100
AcDbBlockBegin
  2
*PAPER_SPACE
  1

  0
ENDBLK
  5
1D
330
1B
100
AcDbEntity
 67
     1
  8
0
100
AcDbBlockEnd
  0
ENDSEC
  0
SECTION
  2
ENTITIES
  0
LWPOLYLINE
  5
100
100
AcDbEntity
  8
0
 62
7
100
AcDbPolyline
 90
4
 70
1
 10
177.002017
 20
-163.991065
 30
0.0
 10
285.001953
 20
-163.991065
 30
0.0
 10
285.001953
 20
-195.990970
 30
0.0
 10
177.002017
 20
-195.990970
 30
0.0
  0
LWPOLYLINE
  5
101
100
AcDbEntity
  8
0
 62
7
100
AcDbPolyline
 90
4
 70
1
 10
9.999996
 20
-7.983931
 30
0.0
 10
287.001972
 20
-7.983931
 30
0.0
 10
287.001972
 20
-197.990990
 30
0.0
 10
9.999996
 20
-197.990990
 30
0.0
  0
LWPOLYLINE
  5
102
100
AcDbEntity
  8
0
 62
7
100
AcDbPolyline
 90
4
 70
1
 10
11.999990
 20
-9.983925
 30
0.0
 10
285.001470
 20
-9.983925
 30
0.0
 10
285.001470
 20
-195.990996
 30
0.0
 10
11.999990
 20
-195.990996
 30
0.0
  0
LWPOLYLINE
  5
103
100
AcDbEntity
  8
0
 62
7
100
AcDbPolyline
 90
2
 70
0
 10
59.999823
 20
-9.982883
 30
0.0
 10
59.999823
 20
-7.983905
 30
0.0
  0
LWPOLYLINE
  5
104
100
AcDbEntity
  8
0
 62
7
100
AcDbPolyline
 90
2
 70
0
 10
109.999675
 20
-9.982883
 30
0.0
 10
109.999675
 20
-7.983905
 30
0.0
  0
LWPOLYLINE
  5
105
100
AcDbEntity
  8
0
 62
7
100
AcDbPolyline
 90
2
 70
0
 10
159.999528
 20
-9.982883
 30
0.0
 10
159.999528
 20
-7.983905
 30
0.0
  0
LWPOLYLINE
  5
106
100
AcDbEntity
  8
0
 62
7
100
AcDbPolyline
 90
2
 70
0
 10
209.999380
 20
-9.982883
 30
0.0
 10
209.999380
 20
-7.983905
 30
0.0
  0
LWPOLYLINE
  5
107
100
AcDbEntity
  8
0
 62
7
100
AcDbPolyline
 90
2
 70
0
 10
259.999232
 20
-9.982883
 30
0.0
 10
259.999232
 20
-7.983905
 30
0.0
  0
LWPOLYLINE
  5
108
100
AcDbEntity
  8
0
 62
7
100
AcDbPolyline
 90
2
 70
0
 10
35.989226
 20
-9.571404
 30
0.0
 10
35.247546
 20
-9.571404
 30
0.0
  0
LWPOLYLINE
  5
109
100
AcDbEntity
  8
0
 62
7
100
AcDbPolyline
 90
5
 70
0
 10
35.618386
 20
-9.571404
 30
0.0
 10
35.618386
 20
-8.270925
 30
0.0
 10
35.493926
 20
-8.456345
 30
0.0
 10
35.369466
 20
-8.580805
 30
0.0
 10
35.247546
 20
-8.641765
 30
0.0
  0
LWPOLYLINE
  5
10a
100
AcDbEntity
  8
0
 62
7
100
AcDbPolyline
 90
11
 70
0
 10
85.247399
 20
-8.395385
 30
0.0
 10
85.308359
 20
-8.331885
 30
0.0
 10
85.432819
 20
-8.270925
 30
0.0
 10
85.742698
 20
-8.270925
 30
0.0
 10
85.864618
 20
-8.331885
 30
0.0
 10
85.928118
 20
-8.395385
 30
0.0
 10
85.989078
 20
-8.517305
 30
0.0
 10
85.989078
 20
-8.641765
 30
0.0
 10
85.928118
 20
-8.827184
 30
0.0
 10
85.183899
 20
-9.571404
 30
0.0
 10
85.989078
 20
-9.571404
 30
0.0
  0
LWPOLYLINE
  5
10b
100
AcDbEntity
  8
0
 62
7
100
AcDbPolyline
 90
14
 70
0
 10
135.183751
 20
-8.270925
 30
0.0
 10
135.988930
 20
-8.270925
 30
0.0
 10
135.554591
 20
-8.766224
 30
0.0
 10
135.742551
 20
-8.766224
 30
0.0
 10
135.864471
 20
-8.827184
 30
0.0
 10
135.927971
 20
-8.890684
 30
0.0
 10
135.988930
 20
-9.012604
 30
0.0
 10
135.988930
 20
-9.322484
 30
0.0
 10
135.927971
 20
-9.446944
 30
0.0
 10
135.864471
 20
-9.507904
 30
0.0
 10
135.742551
 20
-9.571404
 30
0.0
 10
135.369171
 20
-9.571404
 30
0.0
 10
135.247251
 20
-9.507904
 30
0.0
 10
135.183751
 20
-9.446944
 30
0.0
  0
LWPOLYLINE
  5
10c
100
AcDbEntity
  8
0
 62
7
100
AcDbPolyline
 90
2
 70
0
 10
185.864323
 20
-8.705265
 30
0.0
 10
185.864323
 20
-9.571404
 30
0.0
  0
LWPOLYLINE
  5
10d
100
AcDbEntity
  8
0
 62
7
100
AcDbPolyline
 90
3
 70
0
 10
185.554443
 20
-8.209965
 30
0.0
 10
185.247104
 20
-9.137064
 30
0.0
 10
186.049743
 20
-9.137064
 30
0.0
  0
LWPOLYLINE
  5
10e
100
AcDbEntity
  8
0
 62
7
100
AcDbPolyline
 90
16
 70
0
 10
235.927675
 20
-8.270925
 30
0.0
 10
235.307916
 20
-8.270925
 30
0.0
 10
235.246956
 20
-8.890684
 30
0.0
 10
235.307916
 20
-8.827184
 30
0.0
 10
235.432376
 20
-8.766224
 30
0.0
 10
235.742255
 20
-8.766224
 30
0.0
 10
235.864175
 20
-8.827184
 30
0.0
 10
235.927675
 20
-8.890684
 30
0.0
 10
235.988635
 20
-9.012604
 30
0.0
 10
235.988635
 20
-9.322484
 30
0.0
 10
235.927675
 20
-9.446944
 30
0.0
 10
235.864175
 20
-9.507904
 30
0.0
 10
235.742255
 20
-9.571404
 30
0.0
 10
235.432376
 20
-9.571404
 30
0.0
 10
235.307916
 20
-9.507904
 30
0.0
 10
235.246956
 20
-9.446944
 30
0.0
  0
LWPOLYLINE
  5
10f
100
AcDbEntity
  8
0
 62
7
100
AcDbPolyline
 90
22
 70
0
 10
285.864028
 20
-8.270925
 30
0.0
 10
285.617648
 20
-8.270925
 30
0.0
 10
285.493188
 20
-8.331885
 30
0.0
 10
285.432228
 20
-8.395385
 30
0.0
 10
285.307768
 20
-8.580805
 30
0.0
 10
285.246808
 20
-8.827184
 30
0.0
 10
285.246808
 20
-9.322484
 30
0.0
 10
285.307768
 20
-9.446944
 30
0.0
 10
285.368728
 20
-9.507904
 30
0.0
 10
285.493188
 20
-9.571404
 30
0.0
 10
285.742108
 20
-9.571404
 30
0.0
 10
285.864028
 20
-9.507904
 30
0.0
 10
285.927528
 20
-9.446944
 30
0.0
 10
285.988488
 20
-9.322484
 30
0.0
 10
285.988488
 20
-9.012604
 30
0.0
 10
285.927528
 20
-8.890684
 30
0.0
 10
285.864028
 20
-8.827184
 30
0.0
 10
285.742108
 20
-8.766224
 30
0.0
 10
285.493188
 20
-8.766224
 30
0.0
 10
285.368728
 20
-8.827184
 30
0.0
 10
285.307768
 20
-8.890684
 30
0.0
 10
285.246808
 20
-9.012604
 30
0.0
  0
LWPOLYLINE
  5
110
100
AcDbEntity
  8
0
 62
7
100
AcDbPolyline
 90
2
 70
0
 10
59.999823
 20
-195.989446
 30
0.0
 10
59.999823
 20
-197.988424
 30
0.0
  0
LWPOLYLINE
  5
111
100
AcDbEntity
  8
0
 62
7
100
AcDbPolyline
 90
2
 70
0
 10
109.999675
 20
-195.989446
 30
0.0
 10
109.999675
 20
-197.988424
 30
0.0
  0
LWPOLYLINE
  5
112
100
AcDbEntity
  8
0
 62
7
100
AcDbPolyline
 90
2
 70
0
 10
159.999528
 20
-195.989446
 30
0.0
 10
159.999528
 20
-197.988424
 30
0.0
  0
LWPOLYLINE
  5
113
100
AcDbEntity
  8
0
 62
7
100
AcDbPolyline
 90
2
 70
0
 10
209.999380
 20
-195.989446
 30
0.0
 10
209.999380
 20
-197.988424
 30
0.0
  0
LWPOLYLINE
  5
114
100
AcDbEntity
  8
0
 62
7
100
AcDbPolyline
 90
2
 70
0
 10
259.999232
 20
-195.989446
 30
0.0
 10
259.999232
 20
-197.988424
 30
0.0
  0
LWPOLYLINE
  5
115
100
AcDbEntity
  8
0
 62
7
100
AcDbPolyline
 90
2
 70
0
 10
35.989226
 20
-197.576945
 30
0.0
 10
35.247546
 20
-197.576945
 30
0.0
  0
LWPOLYLINE
  5
116
100
AcDbEntity
  8
0
 62
7
100
AcDbPolyline
 90
5
 70
0
 10
35.618386
 20
-197.576945
 30
0.0
 10
35.618386
 20
-196.279006
 30
0.0
 10
35.493926
 20
-196.464426
 30
0.0
 10
35.369466
 20
-196.586346
 30
0.0
 10
35.247546
 20
-196.649846
 30
0.0
  0
LWPOLYLINE
  5
117
100
AcDbEntity
  8
0
 62
7
100
AcDbPolyline
 90
11
 70
0
 10
85.247399
 20
-196.400926
 30
0.0
 10
85.308359
 20
-196.339966
 30
0.0
 10
85.432819
 20
-196.279006
 30
0.0
 10
85.742698
 20
-196.279006
 30
0.0
 10
85.864618
 20
-196.339966
 30
0.0
 10
85.928118
 20
-196.400926
 30
0.0
 10
85.989078
 20
-196.525386
 30
0.0
 10
85.989078
 20
-196.649846
 30
0.0
 10
85.928118
 20
-196.835265
 30
0.0
 10
85.183899
 20
-197.576945
 30
0.0
 10
85.989078
 20
-197.576945
 30
0.0
  0
LWPOLYLINE
  5
118
100
AcDbEntity
  8
0
 62
7
100
AcDbPolyline
 90
14
 70
0
 10
135.183751
 20
-196.279006
 30
0.0
 10
135.988930
 20
-196.279006
 30
0.0
 10
135.554591
 20
-196.771765
 30
0.0
 10
135.742551
 20
-196.771765
 30
0.0
 10
135.864471
 20
-196.835265
 30
0.0
 10
135.927971
 20
-196.896225
 30
0.0
 10
135.988930
 20
-197.020685
 30
0.0
 10
135.988930
 20
-197.330565
 30
0.0
 10
135.927971
 20
-197.455025
 30
0.0
 10
135.864471
 20
-197.515985
 30
0.0
 10
135.742551
 20
-197.576945
 30
0.0
 10
135.369171
 20
-197.576945
 30
0.0
 10
135.247251
 20
-197.515985
 30
0.0
 10
135.183751
 20
-197.455025
 30
0.0
  0
LWPOLYLINE
  5
119
100
AcDbEntity
  8
0
 62
7
100
AcDbPolyline
 90
2
 70
0
 10
185.864323
 20
-196.710805
 30
0.0
 10
185.864323
 20
-197.576945
 30
0.0
  0
LWPOLYLINE
  5
11a
100
AcDbEntity
  8
0
 62
7
100
AcDbPolyline
 90
3
 70
0
 10
185.554443
 20
-196.215506
 30
0.0
 10
185.247104
 20
-197.145145
 30
0.0
 10
186.049743
 20
-197.145145
 30
0.0
  0
LWPOLYLINE
  5
11b
100
AcDbEntity
  8
0
 62
7
100
AcDbPolyline
 90
16
 70
0
 10
235.927675
 20
-196.279006
 30
0.0
 10
235.307916
 20
-196.279006
 30
0.0
 10
235.246956
 20
-196.896225
 30
0.0
 10
235.307916
 20
-196.835265
 30
0.0
 10
235.432376
 20
-196.771765
 30
0.0
 10
235.742255
 20
-196.771765
 30
0.0
 10
235.864175
 20
-196.835265
 30
0.0
 10
235.927675
 20
-196.896225
 30
0.0
 10
235.988635
 20
-197.020685
 30
0.0
 10
235.988635
 20
-197.330565
 30
0.0
 10
235.927675
 20
-197.455025
 30
0.0
 10
235.864175
 20
-197.515985
 30
0.0
 10
235.742255
 20
-197.576945
 30
0.0
 10
235.432376
 20
-197.576945
 30
0.0
 10
235.307916
 20
-197.515985
 30
0.0
 10
235.246956
 20
-197.455025
 30
0.0
  0
LWPOLYLINE
  5
11c
100
AcDbEntity
  8
0
 62
7
100
AcDbPolyline
 90
22
 70
0
 10
285.864028
 20
-196.279006
 30
0.0
 10
285.617648
 20
-196.279006
 30
0.0
 10
285.493188
 20
-196.339966
 30
0.0
 10
285.432228
 20
-196.400926
 30
0.0
 10
285.307768
 20
-196.586346
 30
0.0
 10
285.246808
 20
-196.835265
 30
0.0
 10
285.246808
 20
-197.330565
 30
0.0
 10
285.307768
 20
-197.455025
 30
0.0
 10
285.368728
 20
-197.515985
 30
0.0
 10
285.493188
 20
-197.576945
 30
0.0
 10
285.742108
 20
-197.576945
 30
0.0
 10
285.864028
 20
-197.515985
 30
0.0
 10
285.927528
 20
-197.455025
 30
0.0
 10
285.988488
 20
-197.330565
 30
0.0
 10
285.988488
 20
-197.020685
 30
0.0
 10
285.927528
 20
-196.896225
 30
0.0
 10
285.864028
 20
-196.835265
 30
0.0
 10
285.742108
 20
-196.771765
 30
0.0
 10
285.493188
 20
-196.771765
 30
0.0
 10
285.368728
 20
-196.835265
 30
0.0
 10
285.307768
 20
-196.896225
 30
0.0
 10
285.246808
 20
-197.020685
 30
0.0
  0
LWPOLYLINE
  5
11d
100
AcDbEntity
  8
0
 62
7
100
AcDbPolyline
 90
2
 70
0
 10
9.999970
 20
-57.983758
 30
0.0
 10
11.998949
 20
-57.983758
 30
0.0
  0
LWPOLYLINE
  5
11e
100
AcDbEntity
  8
0
 62
7
100
AcDbPolyline
 90
2
 70
0
 10
9.999970
 20
-107.983610
 30
0.0
 10
11.998949
 20
-107.983610
 30
0.0
  0
LWPOLYLINE
  5
11f
100
AcDbEntity
  8
0
 62
7
100
AcDbPolyline
 90
2
 70
0
 10
9.999970
 20
-157.983462
 30
0.0
 10
11.998949
 20
-157.983462
 30
0.0
  0
LWPOLYLINE
  5
120
100
AcDbEntity
  8
0
 62
7
100
AcDbPolyline
 90
2
 70
0
 10
10.688310
 20
-33.198461
 30
0.0
 10
11.308069
 20
-33.198461
 30
0.0
  0
LWPOLYLINE
  5
121
100
AcDbEntity
  8
0
 62
7
100
AcDbPolyline
 90
3
 70
0
 10
10.566390
 20
-33.571841
 30
0.0
 10
10.998190
 20
-32.271362
 30
0.0
 10
11.432529
 20
-33.571841
 30
0.0
  0
LWPOLYLINE
  5
122
100
AcDbEntity
  8
0
 62
7
100
AcDbPolyline
 90
19
 70
0
 10
11.092169
 20
-82.890974
 30
0.0
 10
11.277589
 20
-82.951934
 30
0.0
 10
11.338549
 20
-83.012894
 30
0.0
 10
11.402049
 20
-83.137354
 30
0.0
 10
11.402049
 20
-83.322773
 30
0.0
 10
11.338549
 20
-83.447233
 30
0.0
 10
11.277589
 20
-83.508193
 30
0.0
 10
11.153129
 20
-83.571693
 30
0.0
 10
10.657830
 20
-83.571693
 30
0.0
 10
10.657830
 20
-82.271214
 30
0.0
 10
11.092169
 20
-82.271214
 30
0.0
 10
11.216629
 20
-82.332174
 30
0.0
 10
11.277589
 20
-82.395674
 30
0.0
 10
11.338549
 20
-82.517594
 30
0.0
 10
11.338549
 20
-82.642054
 30
0.0
 10
11.277589
 20
-82.766514
 30
0.0
 10
11.216629
 20
-82.827474
 30
0.0
 10
11.092169
 20
-82.890974
 30
0.0
 10
10.657830
 20
-82.890974
 30
0.0
  0
LWPOLYLINE
  5
123
100
AcDbEntity
  8
0
 62
7
100
AcDbPolyline
 90
16
 70
0
 10
11.402049
 20
-133.447086
 30
0.0
 10
11.338549
 20
-133.508046
 30
0.0
 10
11.153129
 20
-133.571546
 30
0.0
 10
11.028669
 20
-133.571546
 30
0.0
 10
10.843250
 20
-133.508046
 30
0.0
 10
10.721330
 20
-133.386126
 30
0.0
 10
10.657830
 20
-133.261666
 30
0.0
 10
10.596870
 20
-133.012746
 30
0.0
 10
10.596870
 20
-132.827326
 30
0.0
 10
10.657830
 20
-132.580947
 30
0.0
 10
10.721330
 20
-132.456487
 30
0.0
 10
10.843250
 20
-132.332027
 30
0.0
 10
11.028669
 20
-132.271067
 30
0.0
 10
11.153129
 20
-132.271067
 30
0.0
 10
11.338549
 20
-132.332027
 30
0.0
 10
11.402049
 20
-132.395527
 30
0.0
  0
LWPOLYLINE
  5
124
100
AcDbEntity
  8
0
 62
7
100
AcDbPolyline
 90
12
 70
1
 10
10.657830
 20
-183.571398
 30
0.0
 10
10.657830
 20
-182.270919
 30
0.0
 10
10.967710
 20
-182.270919
 30
0.0
 10
11.153129
 20
-182.331879
 30
0.0
 10
11.277589
 20
-182.456339
 30
0.0
 10
11.338549
 20
-182.580799
 30
0.0
 10
11.402049
 20
-182.827179
 30
0.0
 10
11.402049
 20
-183.012599
 30
0.0
 10
11.338549
 20
-183.261518
 30
0.0
 10
11.277589
 20
-183.385978
 30
0.0
 10
11.153129
 20
-183.507898
 30
0.0
 10
10.967710
 20
-183.571398
 30
0.0
  0
LWPOLYLINE
  5
125
100
AcDbEntity
  8
0
 62
7
100
AcDbPolyline
 90
2
 70
0
 10
286.999407
 20
-57.983758
 30
0.0
 10
285.000429
 20
-57.983758
 30
0.0
  0
LWPOLYLINE
  5
126
100
AcDbEntity
  8
0
 62
7
100
AcDbPolyline
 90
2
 70
0
 10
286.999407
 20
-107.983610
 30
0.0
 10
285.000429
 20
-107.983610
 30
0.0
  0
LWPOLYLINE
  5
127
100
AcDbEntity
  8
0
 62
7
100
AcDbPolyline
 90
2
 70
0
 10
286.999407
 20
-157.983462
 30
0.0
 10
285.000429
 20
-157.983462
 30
0.0
  0
LWPOLYLINE
  5
128
100
AcDbEntity
  8
0
 62
7
100
AcDbPolyline
 90
2
 70
0
 10
285.691308
 20
-33.198461
 30
0.0
 10
286.311067
 20
-33.198461
 30
0.0
  0
LWPOLYLINE
  5
129
100
AcDbEntity
  8
0
 62
7
100
AcDbPolyline
 90
3
 70
0
 10
285.566848
 20
-33.571841
 30
0.0
 10
286.001188
 20
-32.271362
 30
0.0
 10
286.432987
 20
-33.571841
 30
0.0
  0
LWPOLYLINE
  5
12a
100
AcDbEntity
  8
0
 62
7
100
AcDbPolyline
 90
19
 70
0
 10
286.092628
 20
-82.890974
 30
0.0
 10
286.278047
 20
-82.951934
 30
0.0
 10
286.341547
 20
-83.012894
 30
0.0
 10
286.402507
 20
-83.137354
 30
0.0
 10
286.402507
 20
-83.322773
 30
0.0
 10
286.341547
 20
-83.447233
 30
0.0
 10
286.278047
 20
-83.508193
 30
0.0
 10
286.156127
 20
-83.571693
 30
0.0
 10
285.660828
 20
-83.571693
 30
0.0
 10
285.660828
 20
-82.271214
 30
0.0
 10
286.092628
 20
-82.271214
 30
0.0
 10
286.217087
 20
-82.332174
 30
0.0
 10
286.278047
 20
-82.395674
 30
0.0
 10
286.341547
 20
-82.517594
 30
0.0
 10
286.341547
 20
-82.642054
 30
0.0
 10
286.278047
 20
-82.766514
 30
0.0
 10
286.217087
 20
-82.827474
 30
0.0
 10
286.092628
 20
-82.890974
 30
0.0
 10
285.660828
 20
-82.890974
 30
0.0
  0
LWPOLYLINE
  5
12b
100
AcDbEntity
  8
0
 62
7
100
AcDbPolyline
 90
16
 70
0
 10
286.402507
 20
-133.447086
 30
0.0
 10
286.341547
 20
-133.508046
 30
0.0
 10
286.156127
 20
-133.571546
 30
0.0
 10
286.031668
 20
-133.571546
 30
0.0
 10
285.846248
 20
-133.508046
 30
0.0
 10
285.721788
 20
-133.386126
 30
0.0
 10
285.660828
 20
-133.261666
 30
0.0
 10
285.597328
 20
-133.012746
 30
0.0
 10
285.597328
 20
-132.827326
 30
0.0
 10
285.660828
 20
-132.580947
 30
0.0
 10
285.721788
 20
-132.456487
 30
0.0
 10
285.846248
 20
-132.332027
 30
0.0
 10
286.031668
 20
-132.271067
 30
0.0
 10
286.156127
 20
-132.271067
 30
0.0
 10
286.341547
 20
-132.332027
 30
0.0
 10
286.402507
 20
-132.395527
 30
0.0
  0
LWPOLYLINE
  5
12c
100
AcDbEntity
  8
0
 62
7
100
AcDbPolyline
 90
12
 70
1
 10
285.660828
 20
-183.571398
 30
0.0
 10
285.660828
 20
-182.270919
 30
0.0
 10
285.970708
 20
-182.270919
 30
0.0
 10
286.156127
 20
-182.331879
 30
0.0
 10
286.278047
 20
-182.456339
 30
0.0
 10
286.341547
 20
-182.580799
 30
0.0
 10
286.402507
 20
-182.827179
 30
0.0
 10
286.402507
 20
-183.012599
 30
0.0
 10
286.341547
 20
-183.261518
 30
0.0
 10
286.278047
 20
-183.385978
 30
0.0
 10
286.156127
 20
-183.507898
 30
0.0
 10
285.970708
 20
-183.571398
 30
0.0
  0
LWPOLYLINE
  5
12d
100
AcDbEntity
  8
0
 62
7
100
AcDbPolyline
 90
12
 70
1
 10
200.357549
 20
-191.767970
 30
0.0
 10
200.357549
 20
-190.269372
 30
0.0
 10
200.715689
 20
-190.269372
 30
0.0
 10
200.929049
 20
-190.340492
 30
0.0
 10
201.071289
 20
-190.482731
 30
0.0
 10
201.142408
 20
-190.624971
 30
0.0
 10
201.216068
 20
-190.911991
 30
0.0
 10
201.216068
 20
-191.125351
 30
0.0
 10
201.142408
 20
-191.412371
 30
0.0
 10
201.071289
 20
-191.554610
 30
0.0
 10
200.929049
 20
-191.696850
 30
0.0
 10
200.715689
 20
-191.767970
 30
0.0
  0
LWPOLYLINE
  5
12e
100
AcDbEntity
  8
0
 62
7
100
AcDbPolyline
 90
6
 70
0
 10
202.501307
 20
-191.767970
 30
0.0
 10
202.501307
 20
-190.983111
 30
0.0
 10
202.430187
 20
-190.840871
 30
0.0
 10
202.285407
 20
-190.767211
 30
0.0
 10
202.000928
 20
-190.767211
 30
0.0
 10
201.858688
 20
-190.840871
 30
0.0
  0
LWPOLYLINE
  5
12f
100
AcDbEntity
  8
0
 62
7
100
AcDbPolyline
 90
10
 70
0
 10
202.501307
 20
-191.696850
 30
0.0
 10
202.359067
 20
-191.767970
 30
0.0
 10
202.000928
 20
-191.767970
 30
0.0
 10
201.858688
 20
-191.696850
 30
0.0
 10
201.787568
 20
-191.554610
 30
0.0
 10
201.787568
 20
-191.412371
 30
0.0
 10
201.858688
 20
-191.267591
 30
0.0
 10
202.000928
 20
-191.196471
 30
0.0
 10
202.359067
 20
-191.196471
 30
0.0
 10
202.501307
 20
-191.125351
 30
0.0
  0
LWPOLYLINE
  5
130
100
AcDbEntity
  8
0
 62
7
100
AcDbPolyline
 90
2
 70
0
 10
203.001687
 20
-190.767211
 30
0.0
 10
203.573186
 20
-190.767211
 30
0.0
  0
LWPOLYLINE
  5
131
100
AcDbEntity
  8
0
 62
7
100
AcDbPolyline
 90
5
 70
0
 10
203.215046
 20
-190.269372
 30
0.0
 10
203.215046
 20
-191.554610
 30
0.0
 10
203.286166
 20
-191.696850
 30
0.0
 10
203.428406
 20
-191.767970
 30
0.0
 10
203.573186
 20
-191.767970
 30
0.0
  0
LWPOLYLINE
  5
132
100
AcDbEntity
  8
0
 62
7
100
AcDbPolyline
 90
13
 70
0
 10
204.642525
 20
-191.696850
 30
0.0
 10
204.500285
 20
-191.767970
 30
0.0
 10
204.215806
 20
-191.767970
 30
0.0
 10
204.071026
 20
-191.696850
 30
0.0
 10
203.999906
 20
-191.554610
 30
0.0
 10
203.999906
 20
-190.983111
 30
0.0
 10
204.071026
 20
-190.840871
 30
0.0
 10
204.215806
 20
-190.767211
 30
0.0
 10
204.500285
 20
-190.767211
 30
0.0
 10
204.642525
 20
-190.840871
 30
0.0
 10
204.716185
 20
-190.983111
 30
0.0
 10
204.716185
 20
-191.125351
 30
0.0
 10
203.999906
 20
-191.267591
 30
0.0
  0
LWPOLYLINE
  5
133
100
AcDbEntity
  8
0
 62
7
100
AcDbPolyline
 90
6
 70
0
 10
205.358804
 20
-191.625730
 30
0.0
 10
205.429924
 20
-191.696850
 30
0.0
 10
205.358804
 20
-191.767970
 30
0.0
 10
205.287684
 20
-191.696850
 30
0.0
 10
205.358804
 20
-191.625730
 30
0.0
 10
205.358804
 20
-191.767970
 30
0.0
  0
LWPOLYLINE
  5
134
100
AcDbEntity
  8
0
 62
7
100
AcDbPolyline
 90
6
 70
0
 10
205.358804
 20
-190.840871
 30
0.0
 10
205.429924
 20
-190.911991
 30
0.0
 10
205.358804
 20
-190.983111
 30
0.0
 10
205.287684
 20
-190.911991
 30
0.0
 10
205.358804
 20
-190.840871
 30
0.0
 10
205.358804
 20
-190.983111
 30
0.0
  0
LWPOLYLINE
  5
135
100
AcDbEntity
  8
0
 62
7
100
AcDbPolyline
 90
2
 70
0
 10
176.999731
 20
-192.489329
 30
0.0
 10
285.000429
 20
-192.489329
 30
0.0
  0
LWPOLYLINE
  5
136
100
AcDbEntity
  8
0
 62
7
100
AcDbPolyline
 90
2
 70
0
 10
178.358630
 20
-194.567048
 30
0.0
 10
178.358630
 20
-193.068449
 30
0.0
  0
LWPOLYLINE
  5
137
100
AcDbEntity
  8
0
 62
7
100
AcDbPolyline
 90
2
 70
0
 10
179.214609
 20
-194.567048
 30
0.0
 10
178.571990
 20
-193.711068
 30
0.0
  0
LWPOLYLINE
  5
138
100
AcDbEntity
  8
0
 62
7
100
AcDbPolyline
 90
2
 70
0
 10
179.214609
 20
-193.068449
 30
0.0
 10
178.358630
 20
-193.924428
 30
0.0
  0
LWPOLYLINE
  5
139
100
AcDbEntity
  8
0
 62
7
100
AcDbPolyline
 90
2
 70
0
 10
179.857229
 20
-194.567048
 30
0.0
 10
179.857229
 20
-193.568828
 30
0.0
  0
LWPOLYLINE
  5
13a
100
AcDbEntity
  8
0
 62
7
100
AcDbPolyline
 90
6
 70
0
 10
179.857229
 20
-193.068449
 30
0.0
 10
179.786109
 20
-193.139569
 30
0.0
 10
179.857229
 20
-193.210689
 30
0.0
 10
179.928349
 20
-193.139569
 30
0.0
 10
179.857229
 20
-193.068449
 30
0.0
 10
179.857229
 20
-193.210689
 30
0.0
  0
LWPOLYLINE
  5
13b
100
AcDbEntity
  8
0
 62
7
100
AcDbPolyline
 90
16
 70
0
 10
181.429487
 20
-194.424808
 30
0.0
 10
181.358367
 20
-194.495928
 30
0.0
 10
181.142467
 20
-194.567048
 30
0.0
 10
181.000228
 20
-194.567048
 30
0.0
 10
180.786868
 20
-194.495928
 30
0.0
 10
180.644628
 20
-194.353688
 30
0.0
 10
180.570968
 20
-194.211448
 30
0.0
 10
180.499848
 20
-193.924428
 30
0.0
 10
180.499848
 20
-193.711068
 30
0.0
 10
180.570968
 20
-193.426589
 30
0.0
 10
180.644628
 20
-193.281809
 30
0.0
 10
180.786868
 20
-193.139569
 30
0.0
 10
181.000228
 20
-193.068449
 30
0.0
 10
181.142467
 20
-193.068449
 30
0.0
 10
181.358367
 20
-193.139569
 30
0.0
 10
181.429487
 20
-193.210689
 30
0.0
  0
LWPOLYLINE
  5
13c
100
AcDbEntity
  8
0
 62
7
100
AcDbPolyline
 90
6
 70
0
 10
182.714726
 20
-194.567048
 30
0.0
 10
182.714726
 20
-193.782188
 30
0.0
 10
182.643606
 20
-193.639948
 30
0.0
 10
182.501366
 20
-193.568828
 30
0.0
 10
182.214346
 20
-193.568828
 30
0.0
 10
182.072107
 20
-193.639948
 30
0.0
  0
LWPOLYLINE
  5
13d
100
AcDbEntity
  8
0
 62
7
100
AcDbPolyline
 90
10
 70
0
 10
182.714726
 20
-194.495928
 30
0.0
 10
182.572486
 20
-194.567048
 30
0.0
 10
182.214346
 20
-194.567048
 30
0.0
 10
182.072107
 20
-194.495928
 30
0.0
 10
182.000987
 20
-194.353688
 30
0.0
 10
182.000987
 20
-194.211448
 30
0.0
 10
182.072107
 20
-194.069208
 30
0.0
 10
182.214346
 20
-193.998088
 30
0.0
 10
182.572486
 20
-193.998088
 30
0.0
 10
182.714726
 20
-193.924428
 30
0.0
  0
LWPOLYLINE
  5
13e
100
AcDbEntity
  8
0
 62
7
100
AcDbPolyline
 90
2
 70
0
 10
184.071085
 20
-194.567048
 30
0.0
 10
184.071085
 20
-193.068449
 30
0.0
  0
LWPOLYLINE
  5
13f
100
AcDbEntity
  8
0
 62
7
100
AcDbPolyline
 90
12
 70
0
 10
184.071085
 20
-194.495928
 30
0.0
 10
183.928845
 20
-194.567048
 30
0.0
 10
183.644365
 20
-194.567048
 30
0.0
 10
183.499585
 20
-194.495928
 30
0.0
 10
183.428465
 20
-194.424808
 30
0.0
 10
183.357345
 20
-194.282568
 30
0.0
 10
183.357345
 20
-193.853308
 30
0.0
 10
183.428465
 20
-193.711068
 30
0.0
 10
183.499585
 20
-193.639948
 30
0.0
 10
183.644365
 20
-193.568828
 30
0.0
 10
183.928845
 20
-193.568828
 30
0.0
 10
184.071085
 20
-193.639948
 30
0.0
  0
LWPOLYLINE
  5
140
100
AcDbEntity
  8
0
 62
7
100
AcDbPolyline
 90
2
 70
0
 10
185.930363
 20
-193.782188
 30
0.0
 10
186.428202
 20
-193.782188
 30
0.0
  0
LWPOLYLINE
  5
141
100
AcDbEntity
  8
0
 62
7
100
AcDbPolyline
 90
4
 70
0
 10
186.644102
 20
-194.567048
 30
0.0
 10
185.930363
 20
-194.567048
 30
0.0
 10
185.930363
 20
-193.068449
 30
0.0
 10
186.644102
 20
-193.068449
 30
0.0
  0
LWPOLYLINE
  5
142
100
AcDbEntity
  8
0
 62
7
100
AcDbPolyline
 90
6
 70
0
 10
187.286722
 20
-194.424808
 30
0.0
 10
187.357842
 20
-194.495928
 30
0.0
 10
187.286722
 20
-194.567048
 30
0.0
 10
187.215602
 20
-194.495928
 30
0.0
 10
187.286722
 20
-194.424808
 30
0.0
 10
187.286722
 20
-194.567048
 30
0.0
  0
LWPOLYLINE
  5
143
100
AcDbEntity
  8
0
 62
7
100
AcDbPolyline
 90
12
 70
1
 10
188.000461
 20
-194.567048
 30
0.0
 10
188.000461
 20
-193.068449
 30
0.0
 10
188.358601
 20
-193.068449
 30
0.0
 10
188.571960
 20
-193.139569
 30
0.0
 10
188.714200
 20
-193.281809
 30
0.0
 10
188.785320
 20
-193.426589
 30
0.0
 10
188.858980
 20
-193.711068
 30
0.0
 10
188.858980
 20
-193.924428
 30
0.0
 10
188.785320
 20
-194.211448
 30
0.0
 10
188.714200
 20
-194.353688
 30
0.0
 10
188.571960
 20
-194.495928
 30
0.0
 10
188.358601
 20
-194.567048
 30
0.0
  0
LWPOLYLINE
  5
144
100
AcDbEntity
  8
0
 62
7
100
AcDbPolyline
 90
6
 70
0
 10
189.501600
 20
-194.424808
 30
0.0
 10
189.572719
 20
-194.495928
 30
0.0
 10
189.501600
 20
-194.567048
 30
0.0
 10
189.430480
 20
-194.495928
 30
0.0
 10
189.501600
 20
-194.424808
 30
0.0
 10
189.501600
 20
-194.567048
 30
0.0
  0
LWPOLYLINE
  5
145
100
AcDbEntity
  8
0
 62
7
100
AcDbPolyline
 90
2
 70
0
 10
190.144219
 20
-194.140328
 30
0.0
 10
190.857958
 20
-194.140328
 30
0.0
  0
LWPOLYLINE
  5
146
100
AcDbEntity
  8
0
 62
7
100
AcDbPolyline
 90
3
 70
0
 10
190.001979
 20
-194.567048
 30
0.0
 10
190.499819
 20
-193.068449
 30
0.0
 10
191.000198
 20
-194.567048
 30
0.0
  0
LWPOLYLINE
  5
147
100
AcDbEntity
  8
0
 62
7
100
AcDbPolyline
 90
6
 70
0
 10
191.500578
 20
-194.424808
 30
0.0
 10
191.571698
 20
-194.495928
 30
0.0
 10
191.500578
 20
-194.567048
 30
0.0
 10
191.429458
 20
-194.495928
 30
0.0
 10
191.500578
 20
-194.424808
 30
0.0
 10
191.500578
 20
-194.567048
 30
0.0
  0
LWPOLYLINE
  5
148
100
AcDbEntity
  8
0
 62
7
100
AcDbPolyline
 90
2
 70
0
 10
194.500315
 20
-194.567048
 30
0.0
 10
194.500315
 20
-193.068449
 30
0.0
  0
LWPOLYLINE
  5
149
100
AcDbEntity
  8
0
 62
7
100
AcDbPolyline
 90
2
 70
0
 10
194.642555
 20
-193.998088
 30
0.0
 10
195.071814
 20
-194.567048
 30
0.0
  0
LWPOLYLINE
  5
14a
100
AcDbEntity
  8
0
 62
7
100
AcDbPolyline
 90
2
 70
0
 10
195.071814
 20
-193.568828
 30
0.0
 10
194.500315
 20
-194.140328
 30
0.0
  0
LWPOLYLINE
  5
14b
100
AcDbEntity
  8
0
 62
7
100
AcDbPolyline
 90
2
 70
0
 10
195.714434
 20
-194.567048
 30
0.0
 10
195.714434
 20
-193.568828
 30
0.0
  0
LWPOLYLINE
  5
14c
100
AcDbEntity
  8
0
 62
7
100
AcDbPolyline
 90
6
 70
0
 10
195.714434
 20
-193.068449
 30
0.0
 10
195.643314
 20
-193.139569
 30
0.0
 10
195.714434
 20
-193.210689
 30
0.0
 10
195.785554
 20
-193.139569
 30
0.0
 10
195.714434
 20
-193.068449
 30
0.0
 10
195.714434
 20
-193.210689
 30
0.0
  0
LWPOLYLINE
  5
14d
100
AcDbEntity
  8
0
 62
7
100
AcDbPolyline
 90
12
 70
0
 10
197.073332
 20
-194.495928
 30
0.0
 10
196.928552
 20
-194.567048
 30
0.0
 10
196.644073
 20
-194.567048
 30
0.0
 10
196.501833
 20
-194.495928
 30
0.0
 10
196.428173
 20
-194.424808
 30
0.0
 10
196.357053
 20
-194.282568
 30
0.0
 10
196.357053
 20
-193.853308
 30
0.0
 10
196.428173
 20
-193.711068
 30
0.0
 10
196.501833
 20
-193.639948
 30
0.0
 10
196.644073
 20
-193.568828
 30
0.0
 10
196.928552
 20
-193.568828
 30
0.0
 10
197.073332
 20
-193.639948
 30
0.0
  0
LWPOLYLINE
  5
14e
100
AcDbEntity
  8
0
 62
7
100
AcDbPolyline
 90
6
 70
0
 10
198.358571
 20
-194.567048
 30
0.0
 10
198.358571
 20
-193.782188
 30
0.0
 10
198.287451
 20
-193.639948
 30
0.0
 10
198.142671
 20
-193.568828
 30
0.0
 10
197.858192
 20
-193.568828
 30
0.0
 10
197.715952
 20
-193.639948
 30
0.0
  0
LWPOLYLINE
  5
14f
100
AcDbEntity
  8
0
 62
7
100
AcDbPolyline
 90
10
 70
0
 10
198.358571
 20
-194.495928
 30
0.0
 10
198.213791
 20
-194.567048
 30
0.0
 10
197.858192
 20
-194.567048
 30
0.0
 10
197.715952
 20
-194.495928
 30
0.0
 10
197.644832
 20
-194.353688
 30
0.0
 10
197.644832
 20
-194.211448
 30
0.0
 10
197.715952
 20
-194.069208
 30
0.0
 10
197.858192
 20
-193.998088
 30
0.0
 10
198.213791
 20
-193.998088
 30
0.0
 10
198.358571
 20
-193.924428
 30
0.0
  0
LWPOLYLINE
  5
150
100
AcDbEntity
  8
0
 62
7
100
AcDbPolyline
 90
2
 70
0
 10
199.714930
 20
-194.567048
 30
0.0
 10
199.714930
 20
-193.068449
 30
0.0
  0
LWPOLYLINE
  5
151
100
AcDbEntity
  8
0
 62
7
100
AcDbPolyline
 90
12
 70
0
 10
199.714930
 20
-194.495928
 30
0.0
 10
199.572690
 20
-194.567048
 30
0.0
 10
199.285670
 20
-194.567048
 30
0.0
 10
199.143430
 20
-194.495928
 30
0.0
 10
199.072310
 20
-194.424808
 30
0.0
 10
199.001190
 20
-194.282568
 30
0.0
 10
199.001190
 20
-193.853308
 30
0.0
 10
199.072310
 20
-193.711068
 30
0.0
 10
199.143430
 20
-193.639948
 30
0.0
 10
199.285670
 20
-193.568828
 30
0.0
 10
199.572690
 20
-193.568828
 30
0.0
 10
199.714930
 20
-193.639948
 30
0.0
  0
LWPOLYLINE
  5
152
100
AcDbEntity
  8
0
 62
7
100
AcDbPolyline
 90
2
 70
0
 10
202.214287
 20
-193.568828
 30
0.0
 10
202.214287
 20
-194.567048
 30
0.0
  0
LWPOLYLINE
  5
153
100
AcDbEntity
  8
0
 62
7
100
AcDbPolyline
 90
3
 70
0
 10
201.858688
 20
-192.997329
 30
0.0
 10
201.500548
 20
-194.069208
 30
0.0
 10
202.430187
 20
-194.069208
 30
0.0
  0
LWPOLYLINE
  5
154
100
AcDbEntity
  8
0
 62
7
100
AcDbPolyline
 90
6
 70
0
 10
203.001687
 20
-194.424808
 30
0.0
 10
203.072807
 20
-194.495928
 30
0.0
 10
203.001687
 20
-194.567048
 30
0.0
 10
202.930567
 20
-194.495928
 30
0.0
 10
203.001687
 20
-194.424808
 30
0.0
 10
203.001687
 20
-194.567048
 30
0.0
  0
LWPOLYLINE
  5
155
100
AcDbEntity
  8
0
 62
7
100
AcDbPolyline
 90
20
 70
1
 10
203.999906
 20
-193.068449
 30
0.0
 10
204.144686
 20
-193.068449
 30
0.0
 10
204.286925
 20
-193.139569
 30
0.0
 10
204.358045
 20
-193.210689
 30
0.0
 10
204.429165
 20
-193.352929
 30
0.0
 10
204.500285
 20
-193.639948
 30
0.0
 10
204.500285
 20
-193.998088
 30
0.0
 10
204.429165
 20
-194.282568
 30
0.0
 10
204.358045
 20
-194.424808
 30
0.0
 10
204.286925
 20
-194.495928
 30
0.0
 10
204.144686
 20
-194.567048
 30
0.0
 10
203.999906
 20
-194.567048
 30
0.0
 10
203.857666
 20
-194.495928
 30
0.0
 10
203.786546
 20
-194.424808
 30
0.0
 10
203.715426
 20
-194.282568
 30
0.0
 10
203.644306
 20
-193.998088
 30
0.0
 10
203.644306
 20
-193.639948
 30
0.0
 10
203.715426
 20
-193.352929
 30
0.0
 10
203.786546
 20
-193.210689
 30
0.0
 10
203.857666
 20
-193.139569
 30
0.0
  0
LWPOLYLINE
  5
156
100
AcDbEntity
  8
0
 62
7
100
AcDbPolyline
 90
6
 70
0
 10
205.142905
 20
-194.424808
 30
0.0
 10
205.214025
 20
-194.495928
 30
0.0
 10
205.142905
 20
-194.567048
 30
0.0
 10
205.071785
 20
-194.495928
 30
0.0
 10
205.142905
 20
-194.424808
 30
0.0
 10
205.142905
 20
-194.567048
 30
0.0
  0
LWPOLYLINE
  5
157
100
AcDbEntity
  8
0
 62
7
100
AcDbPolyline
 90
3
 70
0
 10
205.714404
 20
-193.068449
 30
0.0
 10
206.715163
 20
-193.068449
 30
0.0
 10
206.072544
 20
-194.567048
 30
0.0
  0
LWPOLYLINE
  5
158
100
AcDbEntity
  8
0
 62
7
100
AcDbPolyline
 90
2
 70
0
 10
207.286663
 20
-193.998088
 30
0.0
 10
208.429662
 20
-193.998088
 30
0.0
  0
LWPOLYLINE
  5
159
100
AcDbEntity
  8
0
 62
7
100
AcDbPolyline
 90
13
 70
0
 10
209.714900
 20
-194.495928
 30
0.0
 10
209.572660
 20
-194.567048
 30
0.0
 10
209.285641
 20
-194.567048
 30
0.0
 10
209.143401
 20
-194.495928
 30
0.0
 10
209.072281
 20
-194.353688
 30
0.0
 10
209.072281
 20
-193.782188
 30
0.0
 10
209.143401
 20
-193.639948
 30
0.0
 10
209.285641
 20
-193.568828
 30
0.0
 10
209.572660
 20
-193.568828
 30
0.0
 10
209.714900
 20
-193.639948
 30
0.0
 10
209.786020
 20
-193.782188
 30
0.0
 10
209.786020
 20
-193.924428
 30
0.0
 10
209.072281
 20
-194.069208
 30
0.0
  0
LWPOLYLINE
  5
15a
100
AcDbEntity
  8
0
 62
7
100
AcDbPolyline
 90
11
 70
0
 10
210.357520
 20
-193.210689
 30
0.0
 10
210.428640
 20
-193.139569
 30
0.0
 10
210.573419
 20
-193.068449
 30
0.0
 10
210.929019
 20
-193.068449
 30
0.0
 10
211.071259
 20
-193.139569
 30
0.0
 10
211.142379
 20
-193.210689
 30
0.0
 10
211.216039
 20
-193.352929
 30
0.0
 10
211.216039
 20
-193.497709
 30
0.0
 10
211.142379
 20
-193.711068
 30
0.0
 10
210.286400
 20
-194.567048
 30
0.0
 10
211.216039
 20
-194.567048
 30
0.0
  0
LWPOLYLINE
  5
15b
100
AcDbEntity
  8
0
 62
7
100
AcDbPolyline
 90
2
 70
0
 10
211.858658
 20
-193.998088
 30
0.0
 10
213.001657
 20
-193.998088
 30
0.0
  0
LWPOLYLINE
  5
15c
100
AcDbEntity
  8
0
 62
7
100
AcDbPolyline
 90
22
 70
0
 10
214.358016
 20
-193.068449
 30
0.0
 10
214.070996
 20
-193.068449
 30
0.0
 10
213.928756
 20
-193.139569
 30
0.0
 10
213.857636
 20
-193.210689
 30
0.0
 10
213.715396
 20
-193.426589
 30
0.0
 10
213.644277
 20
-193.711068
 30
0.0
 10
213.644277
 20
-194.282568
 30
0.0
 10
213.715396
 20
-194.424808
 30
0.0
 10
213.786516
 20
-194.495928
 30
0.0
 10
213.928756
 20
-194.567048
 30
0.0
 10
214.215776
 20
-194.567048
 30
0.0
 10
214.358016
 20
-194.495928
 30
0.0
 10
214.429136
 20
-194.424808
 30
0.0
 10
214.500256
 20
-194.282568
 30
0.0
 10
214.500256
 20
-193.924428
 30
0.0
 10
214.429136
 20
-193.782188
 30
0.0
 10
214.358016
 20
-193.711068
 30
0.0
 10
214.215776
 20
-193.639948
 30
0.0
 10
213.928756
 20
-193.639948
 30
0.0
 10
213.786516
 20
-193.711068
 30
0.0
 10
213.715396
 20
-193.782188
 30
0.0
 10
213.644277
 20
-193.924428
 30
0.0
  0
LWPOLYLINE
  5
15d
100
AcDbEntity
  8
0
 62
7
100
AcDbPolyline
 90
14
 70
0
 10
215.000635
 20
-193.068449
 30
0.0
 10
215.930274
 20
-193.068449
 30
0.0
 10
215.429895
 20
-193.639948
 30
0.0
 10
215.643255
 20
-193.639948
 30
0.0
 10
215.785495
 20
-193.711068
 30
0.0
 10
215.856614
 20
-193.782188
 30
0.0
 10
215.930274
 20
-193.924428
 30
0.0
 10
215.930274
 20
-194.282568
 30
0.0
 10
215.856614
 20
-194.424808
 30
0.0
 10
215.785495
 20
-194.495928
 30
0.0
 10
215.643255
 20
-194.567048
 30
0.0
 10
215.213995
 20
-194.567048
 30
0.0
 10
215.071755
 20
-194.495928
 30
0.0
 10
215.000635
 20
-194.424808
 30
0.0
  0
LWPOLYLINE
  5
15e
100
AcDbEntity
  8
0
 62
7
100
AcDbPolyline
 90
3
 70
0
 10
216.428114
 20
-193.068449
 30
0.0
 10
217.428873
 20
-193.068449
 30
0.0
 10
216.786254
 20
-194.567048
 30
0.0
  0
LWPOLYLINE
  5
15f
100
AcDbEntity
  8
0
 62
7
100
AcDbPolyline
 90
22
 70
0
 10
218.642992
 20
-193.068449
 30
0.0
 10
218.358512
 20
-193.068449
 30
0.0
 10
218.216272
 20
-193.139569
 30
0.0
 10
218.142612
 20
-193.210689
 30
0.0
 10
218.000372
 20
-193.426589
 30
0.0
 10
217.929252
 20
-193.711068
 30
0.0
 10
217.929252
 20
-194.282568
 30
0.0
 10
218.000372
 20
-194.424808
 30
0.0
 10
218.071492
 20
-194.495928
 30
0.0
 10
218.216272
 20
-194.567048
 30
0.0
 10
218.500752
 20
-194.567048
 30
0.0
 10
218.642992
 20
-194.495928
 30
0.0
 10
218.714112
 20
-194.424808
 30
0.0
 10
218.785232
 20
-194.282568
 30
0.0
 10
218.785232
 20
-193.924428
 30
0.0
 10
218.714112
 20
-193.782188
 30
0.0
 10
218.642992
 20
-193.711068
 30
0.0
 10
218.500752
 20
-193.639948
 30
0.0
 10
218.216272
 20
-193.639948
 30
0.0
 10
218.071492
 20
-193.711068
 30
0.0
 10
218.000372
 20
-193.782188
 30
0.0
 10
217.929252
 20
-193.924428
 30
0.0
  0
LWPOLYLINE
  5
160
100
AcDbEntity
  8
0
 62
7
100
AcDbPolyline
 90
16
 70
0
 10
220.144130
 20
-193.068449
 30
0.0
 10
219.430391
 20
-193.068449
 30
0.0
 10
219.356731
 20
-193.782188
 30
0.0
 10
219.430391
 20
-193.711068
 30
0.0
 10
219.572631
 20
-193.639948
 30
0.0
 10
219.928231
 20
-193.639948
 30
0.0
 10
220.073010
 20
-193.711068
 30
0.0
 10
220.144130
 20
-193.782188
 30
0.0
 10
220.215250
 20
-193.924428
 30
0.0
 10
220.215250
 20
-194.282568
 30
0.0
 10
220.144130
 20
-194.424808
 30
0.0
 10
220.073010
 20
-194.495928
 30
0.0
 10
219.928231
 20
-194.567048
 30
0.0
 10
219.572631
 20
-194.567048
 30
0.0
 10
219.430391
 20
-194.495928
 30
0.0
 10
219.356731
 20
-194.424808
 30
0.0
  0
LWPOLYLINE
  5
161
100
AcDbEntity
  8
0
 62
7
100
AcDbPolyline
 90
32
 70
0
 10
221.071229
 20
-193.711068
 30
0.0
 10
220.928990
 20
-193.639948
 30
0.0
 10
220.857870
 20
-193.568828
 30
0.0
 10
220.786750
 20
-193.426589
 30
0.0
 10
220.786750
 20
-193.352929
 30
0.0
 10
220.857870
 20
-193.210689
 30
0.0
 10
220.928990
 20
-193.139569
 30
0.0
 10
221.071229
 20
-193.068449
 30
0.0
 10
221.358249
 20
-193.068449
 30
0.0
 10
221.500489
 20
-193.139569
 30
0.0
 10
221.571609
 20
-193.210689
 30
0.0
 10
221.642729
 20
-193.352929
 30
0.0
 10
221.642729
 20
-193.426589
 30
0.0
 10
221.571609
 20
-193.568828
 30
0.0
 10
221.500489
 20
-193.639948
 30
0.0
 10
221.358249
 20
-193.711068
 30
0.0
 10
221.071229
 20
-193.711068
 30
0.0
 10
220.928990
 20
-193.782188
 30
0.0
 10
220.857870
 20
-193.853308
 30
0.0
 10
220.786750
 20
-193.998088
 30
0.0
 10
220.786750
 20
-194.282568
 30
0.0
 10
220.857870
 20
-194.424808
 30
0.0
 10
220.928990
 20
-194.495928
 30
0.0
 10
221.071229
 20
-194.567048
 30
0.0
 10
221.358249
 20
-194.567048
 30
0.0
 10
221.500489
 20
-194.495928
 30
0.0
 10
221.571609
 20
-194.424808
 30
0.0
 10
221.642729
 20
-194.282568
 30
0.0
 10
221.642729
 20
-193.998088
 30
0.0
 10
221.571609
 20
-193.853308
 30
0.0
 10
221.500489
 20
-193.782188
 30
0.0
 10
221.358249
 20
-193.711068
 30
0.0
  0
LWPOLYLINE
  5
162
100
AcDbEntity
  8
0
 62
7
100
AcDbPolyline
 90
2
 70
0
 10
219.072251
 20
-192.809369
 30
0.0
 10
221.929749
 20
-192.809369
 30
0.0
  0
LWPOLYLINE
  5
163
100
AcDbEntity
  8
0
 62
7
100
AcDbPolyline
 90
2
 70
0
 10
222.930508
 20
-193.568828
 30
0.0
 10
222.930508
 20
-194.567048
 30
0.0
  0
LWPOLYLINE
  5
164
100
AcDbEntity
  8
0
 62
7
100
AcDbPolyline
 90
7
 70
0
 10
222.285348
 20
-193.568828
 30
0.0
 10
222.285348
 20
-194.353688
 30
0.0
 10
222.359008
 20
-194.495928
 30
0.0
 10
222.501248
 20
-194.567048
 30
0.0
 10
222.714608
 20
-194.567048
 30
0.0
 10
222.856848
 20
-194.495928
 30
0.0
 10
222.930508
 20
-194.424808
 30
0.0
  0
LWPOLYLINE
  5
165
100
AcDbEntity
  8
0
 62
7
100
AcDbPolyline
 90
2
 70
0
 10
223.644247
 20
-194.567048
 30
0.0
 10
223.644247
 20
-193.068449
 30
0.0
  0
LWPOLYLINE
  5
166
100
AcDbEntity
  8
0
 62
7
100
AcDbPolyline
 90
12
 70
0
 10
223.644247
 20
-193.639948
 30
0.0
 10
223.786487
 20
-193.568828
 30
0.0
 10
224.070967
 20
-193.568828
 30
0.0
 10
224.215746
 20
-193.639948
 30
0.0
 10
224.286866
 20
-193.711068
 30
0.0
 10
224.357986
 20
-193.853308
 30
0.0
 10
224.357986
 20
-194.282568
 30
0.0
 10
224.286866
 20
-194.424808
 30
0.0
 10
224.215746
 20
-194.495928
 30
0.0
 10
224.070967
 20
-194.567048
 30
0.0
 10
223.786487
 20
-194.567048
 30
0.0
 10
223.644247
 20
-194.495928
 30
0.0
  0
LWPOLYLINE
  5
167
100
AcDbEntity
  8
0
 62
7
100
AcDbPolyline
 90
2
 70
0
 10
225.643225
 20
-193.568828
 30
0.0
 10
225.643225
 20
-194.567048
 30
0.0
  0
LWPOLYLINE
  5
168
100
AcDbEntity
  8
0
 62
7
100
AcDbPolyline
 90
7
 70
0
 10
225.000606
 20
-193.568828
 30
0.0
 10
225.000606
 20
-194.353688
 30
0.0
 10
225.071726
 20
-194.495928
 30
0.0
 10
225.213966
 20
-194.567048
 30
0.0
 10
225.429865
 20
-194.567048
 30
0.0
 10
225.572105
 20
-194.495928
 30
0.0
 10
225.643225
 20
-194.424808
 30
0.0
  0
LWPOLYLINE
  5
169
100
AcDbEntity
  8
0
 62
7
100
AcDbPolyline
 90
2
 70
0
 10
226.356964
 20
-193.568828
 30
0.0
 10
226.356964
 20
-194.567048
 30
0.0
  0
LWPOLYLINE
  5
16a
100
AcDbEntity
  8
0
 62
7
100
AcDbPolyline
 90
7
 70
0
 10
226.356964
 20
-193.711068
 30
0.0
 10
226.428084
 20
-193.639948
 30
0.0
 10
226.572864
 20
-193.568828
 30
0.0
 10
226.786224
 20
-193.568828
 30
0.0
 10
226.928464
 20
-193.639948
 30
0.0
 10
226.999584
 20
-193.782188
 30
0.0
 10
226.999584
 20
-194.567048
 30
0.0
  0
LWPOLYLINE
  5
16b
100
AcDbEntity
  8
0
 62
7
100
AcDbPolyline
 90
2
 70
0
 10
227.499963
 20
-193.568828
 30
0.0
 10
228.071463
 20
-193.568828
 30
0.0
  0
LWPOLYLINE
  5
16c
100
AcDbEntity
  8
0
 62
7
100
AcDbPolyline
 90
5
 70
0
 10
227.715863
 20
-193.068449
 30
0.0
 10
227.715863
 20
-194.353688
 30
0.0
 10
227.786983
 20
-194.495928
 30
0.0
 10
227.929223
 20
-194.567048
 30
0.0
 10
228.071463
 20
-194.567048
 30
0.0
  0
LWPOLYLINE
  5
16d
100
AcDbEntity
  8
0
 62
7
100
AcDbPolyline
 90
2
 70
0
 10
229.214462
 20
-193.568828
 30
0.0
 10
229.214462
 20
-194.567048
 30
0.0
  0
LWPOLYLINE
  5
16e
100
AcDbEntity
  8
0
 62
7
100
AcDbPolyline
 90
7
 70
0
 10
228.571842
 20
-193.568828
 30
0.0
 10
228.571842
 20
-194.353688
 30
0.0
 10
228.642962
 20
-194.495928
 30
0.0
 10
228.785202
 20
-194.567048
 30
0.0
 10
229.001102
 20
-194.567048
 30
0.0
 10
229.143342
 20
-194.495928
 30
0.0
 10
229.214462
 20
-194.424808
 30
0.0
  0
LWPOLYLINE
  5
16f
100
AcDbEntity
  8
0
 62
7
100
AcDbPolyline
 90
2
 70
0
 10
230.715600
 20
-194.567048
 30
0.0
 10
229.857081
 20
-194.567048
 30
0.0
  0
LWPOLYLINE
  5
170
100
AcDbEntity
  8
0
 62
7
100
AcDbPolyline
 90
5
 70
0
 10
230.286341
 20
-194.567048
 30
0.0
 10
230.286341
 20
-193.068449
 30
0.0
 10
230.144101
 20
-193.281809
 30
0.0
 10
230.001861
 20
-193.426589
 30
0.0
 10
229.857081
 20
-193.497709
 30
0.0
  0
LWPOLYLINE
  5
171
100
AcDbEntity
  8
0
 62
7
100
AcDbPolyline
 90
22
 70
0
 10
232.000839
 20
-193.068449
 30
0.0
 10
231.713819
 20
-193.068449
 30
0.0
 10
231.571579
 20
-193.139569
 30
0.0
 10
231.500460
 20
-193.210689
 30
0.0
 10
231.358220
 20
-193.426589
 30
0.0
 10
231.287100
 20
-193.711068
 30
0.0
 10
231.287100
 20
-194.282568
 30
0.0
 10
231.358220
 20
-194.424808
 30
0.0
 10
231.429340
 20
-194.495928
 30
0.0
 10
231.571579
 20
-194.567048
 30
0.0
 10
231.858599
 20
-194.567048
 30
0.0
 10
232.000839
 20
-194.495928
 30
0.0
 10
232.071959
 20
-194.424808
 30
0.0
 10
232.143079
 20
-194.282568
 30
0.0
 10
232.143079
 20
-193.924428
 30
0.0
 10
232.071959
 20
-193.782188
 30
0.0
 10
232.000839
 20
-193.711068
 30
0.0
 10
231.858599
 20
-193.639948
 30
0.0
 10
231.571579
 20
-193.639948
 30
0.0
 10
231.429340
 20
-193.711068
 30
0.0
 10
231.358220
 20
-193.782188
 30
0.0
 10
231.287100
 20
-193.924428
 30
0.0
  0
LWPOLYLINE
  5
172
100
AcDbEntity
  8
0
 62
7
100
AcDbPolyline
 90
6
 70
0
 10
232.785698
 20
-194.424808
 30
0.0
 10
232.856818
 20
-194.495928
 30
0.0
 10
232.785698
 20
-194.567048
 30
0.0
 10
232.714578
 20
-194.495928
 30
0.0
 10
232.785698
 20
-194.424808
 30
0.0
 10
232.785698
 20
-194.567048
 30
0.0
  0
LWPOLYLINE
  5
173
100
AcDbEntity
  8
0
 62
7
100
AcDbPolyline
 90
20
 70
1
 10
233.786457
 20
-193.068449
 30
0.0
 10
233.928697
 20
-193.068449
 30
0.0
 10
234.070937
 20
-193.139569
 30
0.0
 10
234.144597
 20
-193.210689
 30
0.0
 10
234.215717
 20
-193.352929
 30
0.0
 10
234.286837
 20
-193.639948
 30
0.0
 10
234.286837
 20
-193.998088
 30
0.0
 10
234.215717
 20
-194.282568
 30
0.0
 10
234.144597
 20
-194.424808
 30
0.0
 10
234.070937
 20
-194.495928
 30
0.0
 10
233.928697
 20
-194.567048
 30
0.0
 10
233.786457
 20
-194.567048
 30
0.0
 10
233.644217
 20
-194.495928
 30
0.0
 10
233.573098
 20
-194.424808
 30
0.0
 10
233.499438
 20
-194.282568
 30
0.0
 10
233.428318
 20
-193.998088
 30
0.0
 10
233.428318
 20
-193.639948
 30
0.0
 10
233.499438
 20
-193.352929
 30
0.0
 10
233.573098
 20
-193.210689
 30
0.0
 10
233.644217
 20
-193.139569
 30
0.0
  0
LWPOLYLINE
  5
174
100
AcDbEntity
  8
0
 62
7
100
AcDbPolyline
 90
2
 70
0
 10
235.572076
 20
-193.568828
 30
0.0
 10
235.572076
 20
-194.567048
 30
0.0
  0
LWPOLYLINE
  5
175
100
AcDbEntity
  8
0
 62
7
100
AcDbPolyline
 90
3
 70
0
 10
235.213936
 20
-192.997329
 30
0.0
 10
234.858336
 20
-194.069208
 30
0.0
 10
235.785435
 20
-194.069208
 30
0.0
  0
LWPOLYLINE
  5
176
100
AcDbEntity
  8
0
 62
7
100
AcDbPolyline
 90
6
 70
0
 10
236.356935
 20
-194.424808
 30
0.0
 10
236.428055
 20
-194.495928
 30
0.0
 10
236.356935
 20
-194.567048
 30
0.0
 10
236.285815
 20
-194.495928
 30
0.0
 10
236.356935
 20
-194.424808
 30
0.0
 10
236.356935
 20
-194.567048
 30
0.0
  0
LWPOLYLINE
  5
177
100
AcDbEntity
  8
0
 62
7
100
AcDbPolyline
 90
2
 70
0
 10
237.858073
 20
-194.567048
 30
0.0
 10
236.999554
 20
-194.567048
 30
0.0
  0
LWPOLYLINE
  5
178
100
AcDbEntity
  8
0
 62
7
100
AcDbPolyline
 90
5
 70
0
 10
237.428814
 20
-194.567048
 30
0.0
 10
237.428814
 20
-193.068449
 30
0.0
 10
237.286574
 20
-193.281809
 30
0.0
 10
237.144334
 20
-193.426589
 30
0.0
 10
236.999554
 20
-193.497709
 30
0.0
  0
LWPOLYLINE
  5
179
100
AcDbEntity
  8
0
 62
7
100
AcDbPolyline
 90
2
 70
0
 10
176.999731
 20
-189.489592
 30
0.0
 10
285.000429
 20
-189.489592
 30
0.0
  0
LWPOLYLINE
  5
17a
100
AcDbEntity
  8
0
 62
7
100
AcDbPolyline
 90
2
 70
0
 10
264.215628
 20
-191.767970
 30
0.0
 10
263.715249
 20
-191.054231
 30
0.0
  0
LWPOLYLINE
  5
17b
100
AcDbEntity
  8
0
 62
7
100
AcDbPolyline
 90
11
 70
0
 10
263.357109
 20
-191.767970
 30
0.0
 10
263.357109
 20
-190.269372
 30
0.0
 10
263.928609
 20
-190.269372
 30
0.0
 10
264.070849
 20
-190.340492
 30
0.0
 10
264.144508
 20
-190.411611
 30
0.0
 10
264.215628
 20
-190.553851
 30
0.0
 10
264.215628
 20
-190.767211
 30
0.0
 10
264.144508
 20
-190.911991
 30
0.0
 10
264.070849
 20
-190.983111
 30
0.0
 10
263.928609
 20
-191.054231
 30
0.0
 10
263.357109
 20
-191.054231
 30
0.0
  0
LWPOLYLINE
  5
17c
100
AcDbEntity
  8
0
 62
7
100
AcDbPolyline
 90
13
 70
0
 10
265.429747
 20
-191.696850
 30
0.0
 10
265.287507
 20
-191.767970
 30
0.0
 10
265.000488
 20
-191.767970
 30
0.0
 10
264.858248
 20
-191.696850
 30
0.0
 10
264.787128
 20
-191.554610
 30
0.0
 10
264.787128
 20
-190.983111
 30
0.0
 10
264.858248
 20
-190.840871
 30
0.0
 10
265.000488
 20
-190.767211
 30
0.0
 10
265.287507
 20
-190.767211
 30
0.0
 10
265.429747
 20
-190.840871
 30
0.0
 10
265.500867
 20
-190.983111
 30
0.0
 10
265.500867
 20
-191.125351
 30
0.0
 10
264.787128
 20
-191.267591
 30
0.0
  0
LWPOLYLINE
  5
17d
100
AcDbEntity
  8
0
 62
7
100
AcDbPolyline
 90
3
 70
0
 10
266.001247
 20
-190.767211
 30
0.0
 10
266.356846
 20
-191.767970
 30
0.0
 10
266.714986
 20
-190.767211
 30
0.0
  0
LWPOLYLINE
  5
17e
100
AcDbEntity
  8
0
 62
7
100
AcDbPolyline
 90
6
 70
0
 10
267.286485
 20
-191.625730
 30
0.0
 10
267.357605
 20
-191.696850
 30
0.0
 10
267.286485
 20
-191.767970
 30
0.0
 10
267.215366
 20
-191.696850
 30
0.0
 10
267.286485
 20
-191.625730
 30
0.0
 10
267.286485
 20
-191.767970
 30
0.0
  0
LWPOLYLINE
  5
17f
100
AcDbEntity
  8
0
 62
7
100
AcDbPolyline
 90
6
 70
0
 10
267.286485
 20
-190.840871
 30
0.0
 10
267.357605
 20
-190.911991
 30
0.0
 10
267.286485
 20
-190.983111
 30
0.0
 10
267.215366
 20
-190.911991
 30
0.0
 10
267.286485
 20
-190.840871
 30
0.0
 10
267.286485
 20
-190.983111
 30
0.0
  0
LWPOLYLINE
  5
180
100
AcDbEntity
  8
0
 62
7
100
AcDbPolyline
 90
20
 70
0
 10
178.287510
 20
-191.696850
 30
0.0
 10
178.500870
 20
-191.767970
 30
0.0
 10
178.859010
 20
-191.767970
 30
0.0
 10
179.001250
 20
-191.696850
 30
0.0
 10
179.072369
 20
-191.625730
 30
0.0
 10
179.143489
 20
-191.483490
 30
0.0
 10
179.143489
 20
-191.338711
 30
0.0
 10
179.072369
 20
-191.196471
 30
0.0
 10
179.001250
 20
-191.125351
 30
0.0
 10
178.859010
 20
-191.054231
 30
0.0
 10
178.571990
 20
-190.983111
 30
0.0
 10
178.429750
 20
-190.911991
 30
0.0
 10
178.358630
 20
-190.840871
 30
0.0
 10
178.287510
 20
-190.696091
 30
0.0
 10
178.287510
 20
-190.553851
 30
0.0
 10
178.358630
 20
-190.411611
 30
0.0
 10
178.429750
 20
-190.340492
 30
0.0
 10
178.571990
 20
-190.269372
 30
0.0
 10
178.930130
 20
-190.269372
 30
0.0
 10
179.143489
 20
-190.340492
 30
0.0
  0
LWPOLYLINE
  5
181
100
AcDbEntity
  8
0
 62
7
100
AcDbPolyline
 90
2
 70
0
 10
179.786109
 20
-191.767970
 30
0.0
 10
179.786109
 20
-190.767211
 30
0.0
  0
LWPOLYLINE
  5
182
100
AcDbEntity
  8
0
 62
7
100
AcDbPolyline
 90
6
 70
0
 10
179.786109
 20
-190.269372
 30
0.0
 10
179.714989
 20
-190.340492
 30
0.0
 10
179.786109
 20
-190.411611
 30
0.0
 10
179.857229
 20
-190.340492
 30
0.0
 10
179.786109
 20
-190.269372
 30
0.0
 10
179.786109
 20
-190.411611
 30
0.0
  0
LWPOLYLINE
  5
183
100
AcDbEntity
  8
0
 62
7
100
AcDbPolyline
 90
4
 70
0
 10
180.357608
 20
-190.767211
 30
0.0
 10
181.142467
 20
-190.767211
 30
0.0
 10
180.357608
 20
-191.767970
 30
0.0
 10
181.142467
 20
-191.767970
 30
0.0
  0
LWPOLYLINE
  5
184
100
AcDbEntity
  8
0
 62
7
100
AcDbPolyline
 90
13
 70
0
 10
182.285466
 20
-191.696850
 30
0.0
 10
182.143227
 20
-191.767970
 30
0.0
 10
181.858747
 20
-191.767970
 30
0.0
 10
181.713967
 20
-191.696850
 30
0.0
 10
181.642847
 20
-191.554610
 30
0.0
 10
181.642847
 20
-190.983111
 30
0.0
 10
181.713967
 20
-190.840871
 30
0.0
 10
181.858747
 20
-190.767211
 30
0.0
 10
182.143227
 20
-190.767211
 30
0.0
 10
182.285466
 20
-190.840871
 30
0.0
 10
182.359126
 20
-190.983111
 30
0.0
 10
182.359126
 20
-191.125351
 30
0.0
 10
181.642847
 20
-191.267591
 30
0.0
  0
LWPOLYLINE
  5
185
100
AcDbEntity
  8
0
 62
7
100
AcDbPolyline
 90
6
 70
0
 10
183.001746
 20
-191.625730
 30
0.0
 10
183.072866
 20
-191.696850
 30
0.0
 10
183.001746
 20
-191.767970
 30
0.0
 10
182.928086
 20
-191.696850
 30
0.0
 10
183.001746
 20
-191.625730
 30
0.0
 10
183.001746
 20
-191.767970
 30
0.0
  0
LWPOLYLINE
  5
186
100
AcDbEntity
  8
0
 62
7
100
AcDbPolyline
 90
6
 70
0
 10
183.001746
 20
-190.840871
 30
0.0
 10
183.072866
 20
-190.911991
 30
0.0
 10
183.001746
 20
-190.983111
 30
0.0
 10
182.928086
 20
-190.911991
 30
0.0
 10
183.001746
 20
-190.840871
 30
0.0
 10
183.001746
 20
-190.983111
 30
0.0
  0
LWPOLYLINE
  5
187
100
AcDbEntity
  8
0
 62
7
100
AcDbPolyline
 90
2
 70
0
 10
184.787364
 20
-191.338711
 30
0.0
 10
185.501103
 20
-191.338711
 30
0.0
  0
LWPOLYLINE
  5
188
100
AcDbEntity
  8
0
 62
7
100
AcDbPolyline
 90
3
 70
0
 10
184.642584
 20
-191.767970
 30
0.0
 10
185.142964
 20
-190.269372
 30
0.0
 10
185.643343
 20
-191.767970
 30
0.0
  0
LWPOLYLINE
  5
189
100
AcDbEntity
  8
0
 62
7
100
AcDbPolyline
 90
2
 70
0
 10
186.786342
 20
-190.767211
 30
0.0
 10
186.786342
 20
-191.767970
 30
0.0
  0
LWPOLYLINE
  5
18a
100
AcDbEntity
  8
0
 62
7
100
AcDbPolyline
 90
3
 70
0
 10
186.428202
 20
-190.195712
 30
0.0
 10
186.072603
 20
-191.267591
 30
0.0
 10
186.999702
 20
-191.267591
 30
0.0
  0
LWPOLYLINE
  5
18b
100
AcDbEntity
  8
0
 62
7
100
AcDbPolyline
 90
2
 70
0
 10
263.357109
 20
-194.567048
 30
0.0
 10
263.357109
 20
-193.068449
 30
0.0
  0
LWPOLYLINE
  5
18c
100
AcDbEntity
  8
0
 62
7
100
AcDbPolyline
 90
2
 70
0
 10
264.716008
 20
-194.567048
 30
0.0
 10
264.716008
 20
-193.068449
 30
0.0
  0
LWPOLYLINE
  5
18d
100
AcDbEntity
  8
0
 62
7
100
AcDbPolyline
 90
12
 70
0
 10
264.716008
 20
-194.495928
 30
0.0
 10
264.571228
 20
-194.567048
 30
0.0
 10
264.286748
 20
-194.567048
 30
0.0
 10
264.144508
 20
-194.495928
 30
0.0
 10
264.070849
 20
-194.424808
 30
0.0
 10
263.999729
 20
-194.282568
 30
0.0
 10
263.999729
 20
-193.853308
 30
0.0
 10
264.070849
 20
-193.711068
 30
0.0
 10
264.144508
 20
-193.639948
 30
0.0
 10
264.286748
 20
-193.568828
 30
0.0
 10
264.571228
 20
-193.568828
 30
0.0
 10
264.716008
 20
-193.639948
 30
0.0
  0
LWPOLYLINE
  5
18e
100
AcDbEntity
  8
0
 62
7
100
AcDbPolyline
 90
6
 70
0
 10
265.429747
 20
-194.424808
 30
0.0
 10
265.500867
 20
-194.495928
 30
0.0
 10
265.429747
 20
-194.567048
 30
0.0
 10
265.358627
 20
-194.495928
 30
0.0
 10
265.429747
 20
-194.424808
 30
0.0
 10
265.429747
 20
-194.567048
 30
0.0
  0
LWPOLYLINE
  5
18f
100
AcDbEntity
  8
0
 62
7
100
AcDbPolyline
 90
6
 70
0
 10
265.429747
 20
-193.639948
 30
0.0
 10
265.500867
 20
-193.711068
 30
0.0
 10
265.429747
 20
-193.782188
 30
0.0
 10
265.358627
 20
-193.711068
 30
0.0
 10
265.429747
 20
-193.639948
 30
0.0
 10
265.429747
 20
-193.782188
 30
0.0
  0
LWPOLYLINE
  5
190
100
AcDbEntity
  8
0
 62
7
100
AcDbPolyline
 90
2
 70
0
 10
268.071345
 20
-194.567048
 30
0.0
 10
267.215366
 20
-194.567048
 30
0.0
  0
LWPOLYLINE
  5
191
100
AcDbEntity
  8
0
 62
7
100
AcDbPolyline
 90
5
 70
0
 10
267.644625
 20
-194.567048
 30
0.0
 10
267.644625
 20
-193.068449
 30
0.0
 10
267.499845
 20
-193.281809
 30
0.0
 10
267.357605
 20
-193.426589
 30
0.0
 10
267.215366
 20
-193.497709
 30
0.0
  0
LWPOLYLINE
  5
192
100
AcDbEntity
  8
0
 62
7
100
AcDbPolyline
 90
2
 70
0
 10
269.785843
 20
-192.997329
 30
0.0
 10
268.500604
 20
-194.925187
 30
0.0
  0
LWPOLYLINE
  5
193
100
AcDbEntity
  8
0
 62
7
100
AcDbPolyline
 90
2
 70
0
 10
271.071082
 20
-194.567048
 30
0.0
 10
270.215103
 20
-194.567048
 30
0.0
  0
LWPOLYLINE
  5
194
100
AcDbEntity
  8
0
 62
7
100
AcDbPolyline
 90
5
 70
0
 10
270.644362
 20
-194.567048
 30
0.0
 10
270.644362
 20
-193.068449
 30
0.0
 10
270.499582
 20
-193.281809
 30
0.0
 10
270.357343
 20
-193.426589
 30
0.0
 10
270.215103
 20
-193.497709
 30
0.0
  0
LWPOLYLINE
  5
195
100
AcDbEntity
  8
0
 62
7
100
AcDbPolyline
 90
2
 70
0
 10
176.999731
 20
-185.489096
 30
0.0
 10
285.000429
 20
-185.489096
 30
0.0
  0
LWPOLYLINE
  5
196
100
AcDbEntity
  8
0
 62
7
100
AcDbPolyline
 90
2
 70
0
 10
178.452610
 20
-186.195215
 30
0.0
 10
179.595609
 20
-186.195215
 30
0.0
  0
LWPOLYLINE
  5
197
100
AcDbEntity
  8
0
 62
7
100
AcDbPolyline
 90
2
 70
0
 10
178.775190
 20
-188.194194
 30
0.0
 10
179.024110
 20
-186.195215
 30
0.0
  0
LWPOLYLINE
  5
198
100
AcDbEntity
  8
0
 62
7
100
AcDbPolyline
 90
2
 70
0
 10
180.012169
 20
-188.194194
 30
0.0
 10
180.179808
 20
-186.860695
 30
0.0
  0
LWPOLYLINE
  5
199
100
AcDbEntity
  8
0
 62
7
100
AcDbPolyline
 90
6
 70
0
 10
180.263628
 20
-186.195215
 30
0.0
 10
180.154408
 20
-186.289195
 30
0.0
 10
180.238228
 20
-186.385715
 30
0.0
 10
180.344908
 20
-186.289195
 30
0.0
 10
180.263628
 20
-186.195215
 30
0.0
 10
180.238228
 20
-186.385715
 30
0.0
  0
LWPOLYLINE
  5
19a
100
AcDbEntity
  8
0
 62
7
100
AcDbPolyline
 90
2
 70
0
 10
180.845288
 20
-186.860695
 30
0.0
 10
181.607287
 20
-186.860695
 30
0.0
  0
LWPOLYLINE
  5
19b
100
AcDbEntity
  8
0
 62
7
100
AcDbPolyline
 90
5
 70
0
 10
181.216127
 20
-186.195215
 30
0.0
 10
181.000228
 20
-187.909714
 30
0.0
 10
181.071348
 20
-188.100214
 30
0.0
 10
181.251687
 20
-188.194194
 30
0.0
 10
181.442187
 20
-188.194194
 30
0.0
  0
LWPOLYLINE
  5
19c
100
AcDbEntity
  8
0
 62
7
100
AcDbPolyline
 90
4
 70
0
 10
182.394686
 20
-188.194194
 30
0.0
 10
182.214346
 20
-188.100214
 30
0.0
 10
182.143227
 20
-187.909714
 30
0.0
 10
182.359126
 20
-186.195215
 30
0.0
  0
LWPOLYLINE
  5
19d
100
AcDbEntity
  8
0
 62
7
100
AcDbPolyline
 90
13
 70
0
 10
183.928845
 20
-188.100214
 30
0.0
 10
183.728185
 20
-188.194194
 30
0.0
 10
183.347185
 20
-188.194194
 30
0.0
 10
183.166846
 20
-188.100214
 30
0.0
 10
183.095726
 20
-187.909714
 30
0.0
 10
183.192246
 20
-187.147715
 30
0.0
 10
183.309085
 20
-186.957215
 30
0.0
 10
183.512285
 20
-186.860695
 30
0.0
 10
183.893285
 20
-186.860695
 30
0.0
 10
184.071085
 20
-186.957215
 30
0.0
 10
184.144745
 20
-187.147715
 30
0.0
 10
184.119345
 20
-187.338214
 30
0.0
 10
183.143986
 20
-187.528714
 30
0.0
  0
LWPOLYLINE
  5
19e
100
AcDbEntity
  8
0
 62
7
100
AcDbPolyline
 90
6
 70
0
 10
184.894044
 20
-188.003694
 30
0.0
 10
184.977864
 20
-188.100214
 30
0.0
 10
184.868644
 20
-188.194194
 30
0.0
 10
184.787364
 20
-188.100214
 30
0.0
 10
184.894044
 20
-188.003694
 30
0.0
 10
184.868644
 20
-188.194194
 30
0.0
  0
LWPOLYLINE
  5
19f
100
AcDbEntity
  8
0
 62
7
100
AcDbPolyline
 90
6
 70
0
 10
185.023584
 20
-186.957215
 30
0.0
 10
185.107404
 20
-187.051195
 30
0.0
 10
185.000724
 20
-187.147715
 30
0.0
 10
184.916904
 20
-187.051195
 30
0.0
 10
185.023584
 20
-186.957215
 30
0.0
 10
185.000724
 20
-187.147715
 30
0.0
  0
LWPOLYLINE
  5
1a0
100
AcDbEntity
  8
0
 62
7
100
AcDbPolyline
 90
2
 70
0
 10
178.859010
 20
-183.581558
 30
0.0
 10
178.358630
 20
-183.581558
 30
0.0
  0
LWPOLYLINE
  5
1a1
100
AcDbEntity
  8
0
 62
7
100
AcDbPolyline
 90
3
 70
0
 10
178.358630
 20
-184.368957
 30
0.0
 10
178.358630
 20
-182.867819
 30
0.0
 10
179.072369
 20
-182.867819
 30
0.0
  0
LWPOLYLINE
  5
1a2
100
AcDbEntity
  8
0
 62
7
100
AcDbPolyline
 90
2
 70
0
 10
179.643869
 20
-184.368957
 30
0.0
 10
179.643869
 20
-183.368198
 30
0.0
  0
LWPOLYLINE
  5
1a3
100
AcDbEntity
  8
0
 62
7
100
AcDbPolyline
 90
6
 70
0
 10
179.643869
 20
-182.867819
 30
0.0
 10
179.572749
 20
-182.938939
 30
0.0
 10
179.643869
 20
-183.010059
 30
0.0
 10
179.714989
 20
-182.938939
 30
0.0
 10
179.643869
 20
-182.867819
 30
0.0
 10
179.643869
 20
-183.010059
 30
0.0
  0
LWPOLYLINE
  5
1a4
100
AcDbEntity
  8
0
 62
7
100
AcDbPolyline
 90
4
 70
0
 10
180.570968
 20
-184.368957
 30
0.0
 10
180.428728
 20
-184.297837
 30
0.0
 10
180.357608
 20
-184.153057
 30
0.0
 10
180.357608
 20
-182.867819
 30
0.0
  0
LWPOLYLINE
  5
1a5
100
AcDbEntity
  8
0
 62
7
100
AcDbPolyline
 90
13
 70
0
 10
181.713967
 20
-184.297837
 30
0.0
 10
181.571727
 20
-184.368957
 30
0.0
 10
181.287247
 20
-184.368957
 30
0.0
 10
181.142467
 20
-184.297837
 30
0.0
 10
181.071348
 20
-184.153057
 30
0.0
 10
181.071348
 20
-183.581558
 30
0.0
 10
181.142467
 20
-183.439318
 30
0.0
 10
181.287247
 20
-183.368198
 30
0.0
 10
181.571727
 20
-183.368198
 30
0.0
 10
181.713967
 20
-183.439318
 30
0.0
 10
181.787627
 20
-183.581558
 30
0.0
 10
181.787627
 20
-183.726338
 30
0.0
 10
181.071348
 20
-183.868578
 30
0.0
  0
LWPOLYLINE
  5
1a6
100
AcDbEntity
  8
0
 62
7
100
AcDbPolyline
 90
6
 70
0
 10
182.430246
 20
-184.224177
 30
0.0
 10
182.501366
 20
-184.297837
 30
0.0
 10
182.430246
 20
-184.368957
 30
0.0
 10
182.359126
 20
-184.297837
 30
0.0
 10
182.430246
 20
-184.224177
 30
0.0
 10
182.430246
 20
-184.368957
 30
0.0
  0
LWPOLYLINE
  5
1a7
100
AcDbEntity
  8
0
 62
7
100
AcDbPolyline
 90
6
 70
0
 10
182.430246
 20
-183.439318
 30
0.0
 10
182.501366
 20
-183.510438
 30
0.0
 10
182.430246
 20
-183.581558
 30
0.0
 10
182.359126
 20
-183.510438
 30
0.0
 10
182.430246
 20
-183.439318
 30
0.0
 10
182.430246
 20
-183.581558
 30
0.0
  0
LWPOLYLINE
  5
1a8
100
AcDbEntity
  8
0
 62
7
100
AcDbPolyline
 90
19
 70
0
 10
184.787364
 20
-183.581558
 30
0.0
 10
185.000724
 20
-183.655218
 30
0.0
 10
185.071844
 20
-183.726338
 30
0.0
 10
185.142964
 20
-183.868578
 30
0.0
 10
185.142964
 20
-184.081937
 30
0.0
 10
185.071844
 20
-184.224177
 30
0.0
 10
185.000724
 20
-184.297837
 30
0.0
 10
184.858484
 20
-184.368957
 30
0.0
 10
184.286984
 20
-184.368957
 30
0.0
 10
184.286984
 20
-182.867819
 30
0.0
 10
184.787364
 20
-182.867819
 30
0.0
 10
184.929604
 20
-182.938939
 30
0.0
 10
185.000724
 20
-183.010059
 30
0.0
 10
185.071844
 20
-183.154838
 30
0.0
 10
185.071844
 20
-183.297078
 30
0.0
 10
185.000724
 20
-183.439318
 30
0.0
 10
184.929604
 20
-183.510438
 30
0.0
 10
184.787364
 20
-183.581558
 30
0.0
 10
184.286984
 20
-183.581558
 30
0.0
  0
LWPOLYLINE
  5
1a9
100
AcDbEntity
  8
0
 62
7
100
AcDbPolyline
 90
2
 70
0
 10
185.785583
 20
-184.368957
 30
0.0
 10
185.785583
 20
-183.368198
 30
0.0
  0
LWPOLYLINE
  5
1aa
100
AcDbEntity
  8
0
 62
7
100
AcDbPolyline
 90
6
 70
0
 10
185.785583
 20
-182.867819
 30
0.0
 10
185.714463
 20
-182.938939
 30
0.0
 10
185.785583
 20
-183.010059
 30
0.0
 10
185.856703
 20
-182.938939
 30
0.0
 10
185.785583
 20
-182.867819
 30
0.0
 10
185.785583
 20
-183.010059
 30
0.0
  0
LWPOLYLINE
  5
1ab
100
AcDbEntity
  8
0
 62
7
100
AcDbPolyline
 90
2
 70
0
 10
186.285963
 20
-183.368198
 30
0.0
 10
186.857462
 20
-183.368198
 30
0.0
  0
LWPOLYLINE
  5
1ac
100
AcDbEntity
  8
0
 62
7
100
AcDbPolyline
 90
5
 70
0
 10
186.501862
 20
-182.867819
 30
0.0
 10
186.501862
 20
-184.153057
 30
0.0
 10
186.572982
 20
-184.297837
 30
0.0
 10
186.715222
 20
-184.368957
 30
0.0
 10
186.857462
 20
-184.368957
 30
0.0
  0
LWPOLYLINE
  5
1ad
100
AcDbEntity
  8
0
 62
7
100
AcDbPolyline
 90
19
 70
0
 10
187.858221
 20
-183.581558
 30
0.0
 10
188.071581
 20
-183.655218
 30
0.0
 10
188.142701
 20
-183.726338
 30
0.0
 10
188.213821
 20
-183.868578
 30
0.0
 10
188.213821
 20
-184.081937
 30
0.0
 10
188.142701
 20
-184.224177
 30
0.0
 10
188.071581
 20
-184.297837
 30
0.0
 10
187.929341
 20
-184.368957
 30
0.0
 10
187.357842
 20
-184.368957
 30
0.0
 10
187.357842
 20
-182.867819
 30
0.0
 10
187.858221
 20
-182.867819
 30
0.0
 10
188.000461
 20
-182.938939
 30
0.0
 10
188.071581
 20
-183.010059
 30
0.0
 10
188.142701
 20
-183.154838
 30
0.0
 10
188.142701
 20
-183.297078
 30
0.0
 10
188.071581
 20
-183.439318
 30
0.0
 10
188.000461
 20
-183.510438
 30
0.0
 10
187.858221
 20
-183.581558
 30
0.0
 10
187.357842
 20
-183.581558
 30
0.0
  0
LWPOLYLINE
  5
1ae
100
AcDbEntity
  8
0
 62
7
100
AcDbPolyline
 90
6
 70
0
 10
189.501600
 20
-184.368957
 30
0.0
 10
189.501600
 20
-183.581558
 30
0.0
 10
189.430480
 20
-183.439318
 30
0.0
 10
189.285700
 20
-183.368198
 30
0.0
 10
189.001220
 20
-183.368198
 30
0.0
 10
188.858980
 20
-183.439318
 30
0.0
  0
LWPOLYLINE
  5
1af
100
AcDbEntity
  8
0
 62
7
100
AcDbPolyline
 90
10
 70
0
 10
189.501600
 20
-184.297837
 30
0.0
 10
189.356820
 20
-184.368957
 30
0.0
 10
189.001220
 20
-184.368957
 30
0.0
 10
188.858980
 20
-184.297837
 30
0.0
 10
188.785320
 20
-184.153057
 30
0.0
 10
188.785320
 20
-184.010818
 30
0.0
 10
188.858980
 20
-183.868578
 30
0.0
 10
189.001220
 20
-183.797458
 30
0.0
 10
189.356820
 20
-183.797458
 30
0.0
 10
189.501600
 20
-183.726338
 30
0.0
  0
LWPOLYLINE
  5
1b0
100
AcDbEntity
  8
0
 62
7
100
AcDbPolyline
 90
2
 70
0
 10
190.857958
 20
-184.368957
 30
0.0
 10
190.857958
 20
-182.867819
 30
0.0
  0
LWPOLYLINE
  5
1b1
100
AcDbEntity
  8
0
 62
7
100
AcDbPolyline
 90
12
 70
0
 10
190.857958
 20
-184.297837
 30
0.0
 10
190.715718
 20
-184.368957
 30
0.0
 10
190.428699
 20
-184.368957
 30
0.0
 10
190.286459
 20
-184.297837
 30
0.0
 10
190.215339
 20
-184.224177
 30
0.0
 10
190.144219
 20
-184.081937
 30
0.0
 10
190.144219
 20
-183.655218
 30
0.0
 10
190.215339
 20
-183.510438
 30
0.0
 10
190.286459
 20
-183.439318
 30
0.0
 10
190.428699
 20
-183.368198
 30
0.0
 10
190.715718
 20
-183.368198
 30
0.0
 10
190.857958
 20
-183.439318
 30
0.0
  0
LWPOLYLINE
  5
1b2
100
AcDbEntity
  8
0
 62
7
100
AcDbPolyline
 90
7
 70
0
 10
192.214317
 20
-183.368198
 30
0.0
 10
192.214317
 20
-184.582317
 30
0.0
 10
192.143197
 20
-184.724557
 30
0.0
 10
192.072077
 20
-184.795677
 30
0.0
 10
191.929837
 20
-184.869337
 30
0.0
 10
191.713937
 20
-184.869337
 30
0.0
 10
191.571698
 20
-184.795677
 30
0.0
  0
LWPOLYLINE
  5
1b3
100
AcDbEntity
  8
0
 62
7
100
AcDbPolyline
 90
12
 70
0
 10
192.214317
 20
-184.297837
 30
0.0
 10
192.072077
 20
-184.368957
 30
0.0
 10
191.787597
 20
-184.368957
 30
0.0
 10
191.642817
 20
-184.297837
 30
0.0
 10
191.571698
 20
-184.224177
 30
0.0
 10
191.500578
 20
-184.081937
 30
0.0
 10
191.500578
 20
-183.655218
 30
0.0
 10
191.571698
 20
-183.510438
 30
0.0
 10
191.642817
 20
-183.439318
 30
0.0
 10
191.787597
 20
-183.368198
 30
0.0
 10
192.072077
 20
-183.368198
 30
0.0
 10
192.214317
 20
-183.439318
 30
0.0
  0
LWPOLYLINE
  5
1b4
100
AcDbEntity
  8
0
 62
7
100
AcDbPolyline
 90
13
 70
0
 10
193.499556
 20
-184.297837
 30
0.0
 10
193.357316
 20
-184.368957
 30
0.0
 10
193.072836
 20
-184.368957
 30
0.0
 10
192.928056
 20
-184.297837
 30
0.0
 10
192.856936
 20
-184.153057
 30
0.0
 10
192.856936
 20
-183.581558
 30
0.0
 10
192.928056
 20
-183.439318
 30
0.0
 10
193.072836
 20
-183.368198
 30
0.0
 10
193.357316
 20
-183.368198
 30
0.0
 10
193.499556
 20
-183.439318
 30
0.0
 10
193.573216
 20
-183.581558
 30
0.0
 10
193.573216
 20
-183.726338
 30
0.0
 10
192.856936
 20
-183.868578
 30
0.0
  0
LWPOLYLINE
  5
1b5
100
AcDbEntity
  8
0
 62
7
100
AcDbPolyline
 90
6
 70
0
 10
194.215835
 20
-184.224177
 30
0.0
 10
194.286955
 20
-184.297837
 30
0.0
 10
194.215835
 20
-184.368957
 30
0.0
 10
194.144715
 20
-184.297837
 30
0.0
 10
194.215835
 20
-184.224177
 30
0.0
 10
194.215835
 20
-184.368957
 30
0.0
  0
LWPOLYLINE
  5
1b6
100
AcDbEntity
  8
0
 62
7
100
AcDbPolyline
 90
2
 70
0
 10
194.929574
 20
-184.368957
 30
0.0
 10
194.929574
 20
-182.867819
 30
0.0
  0
LWPOLYLINE
  5
1b7
100
AcDbEntity
  8
0
 62
7
100
AcDbPolyline
 90
2
 70
0
 10
195.071814
 20
-183.797458
 30
0.0
 10
195.501074
 20
-184.368957
 30
0.0
  0
LWPOLYLINE
  5
1b8
100
AcDbEntity
  8
0
 62
7
100
AcDbPolyline
 90
2
 70
0
 10
195.501074
 20
-183.368198
 30
0.0
 10
194.929574
 20
-183.939698
 30
0.0
  0
LWPOLYLINE
  5
1b9
100
AcDbEntity
  8
0
 62
7
100
AcDbPolyline
 90
2
 70
0
 10
196.143693
 20
-184.368957
 30
0.0
 10
196.143693
 20
-183.368198
 30
0.0
  0
LWPOLYLINE
  5
1ba
100
AcDbEntity
  8
0
 62
7
100
AcDbPolyline
 90
6
 70
0
 10
196.143693
 20
-182.867819
 30
0.0
 10
196.072573
 20
-182.938939
 30
0.0
 10
196.143693
 20
-183.010059
 30
0.0
 10
196.214813
 20
-182.938939
 30
0.0
 10
196.143693
 20
-182.867819
 30
0.0
 10
196.143693
 20
-183.010059
 30
0.0
  0
LWPOLYLINE
  5
1bb
100
AcDbEntity
  8
0
 62
7
100
AcDbPolyline
 90
12
 70
0
 10
197.500052
 20
-184.297837
 30
0.0
 10
197.357812
 20
-184.368957
 30
0.0
 10
197.073332
 20
-184.368957
 30
0.0
 10
196.928552
 20
-184.297837
 30
0.0
 10
196.857433
 20
-184.224177
 30
0.0
 10
196.786313
 20
-184.081937
 30
0.0
 10
196.786313
 20
-183.655218
 30
0.0
 10
196.857433
 20
-183.510438
 30
0.0
 10
196.928552
 20
-183.439318
 30
0.0
 10
197.073332
 20
-183.368198
 30
0.0
 10
197.357812
 20
-183.368198
 30
0.0
 10
197.500052
 20
-183.439318
 30
0.0
  0
LWPOLYLINE
  5
1bc
100
AcDbEntity
  8
0
 62
7
100
AcDbPolyline
 90
6
 70
0
 10
198.785291
 20
-184.368957
 30
0.0
 10
198.785291
 20
-183.581558
 30
0.0
 10
198.714171
 20
-183.439318
 30
0.0
 10
198.571931
 20
-183.368198
 30
0.0
 10
198.287451
 20
-183.368198
 30
0.0
 10
198.142671
 20
-183.439318
 30
0.0
  0
LWPOLYLINE
  5
1bd
100
AcDbEntity
  8
0
 62
7
100
AcDbPolyline
 90
10
 70
0
 10
198.785291
 20
-184.297837
 30
0.0
 10
198.643051
 20
-184.368957
 30
0.0
 10
198.287451
 20
-184.368957
 30
0.0
 10
198.142671
 20
-184.297837
 30
0.0
 10
198.071551
 20
-184.153057
 30
0.0
 10
198.071551
 20
-184.010818
 30
0.0
 10
198.142671
 20
-183.868578
 30
0.0
 10
198.287451
 20
-183.797458
 30
0.0
 10
198.643051
 20
-183.797458
 30
0.0
 10
198.785291
 20
-183.726338
 30
0.0
  0
LWPOLYLINE
  5
1be
100
AcDbEntity
  8
0
 62
7
100
AcDbPolyline
 90
2
 70
0
 10
200.144189
 20
-184.368957
 30
0.0
 10
200.144189
 20
-182.867819
 30
0.0
  0
LWPOLYLINE
  5
1bf
100
AcDbEntity
  8
0
 62
7
100
AcDbPolyline
 90
12
 70
0
 10
200.144189
 20
-184.297837
 30
0.0
 10
200.001950
 20
-184.368957
 30
0.0
 10
199.714930
 20
-184.368957
 30
0.0
 10
199.572690
 20
-184.297837
 30
0.0
 10
199.501570
 20
-184.224177
 30
0.0
 10
199.430450
 20
-184.081937
 30
0.0
 10
199.430450
 20
-183.655218
 30
0.0
 10
199.501570
 20
-183.510438
 30
0.0
 10
199.572690
 20
-183.439318
 30
0.0
 10
199.714930
 20
-183.368198
 30
0.0
 10
200.001950
 20
-183.368198
 30
0.0
 10
200.144189
 20
-183.439318
 30
0.0
  0
LWPOLYLINE
  5
1c0
100
AcDbEntity
  8
0
 62
7
100
AcDbPolyline
 90
2
 70
0
 10
200.499789
 20
-184.511197
 30
0.0
 10
201.642788
 20
-184.511197
 30
0.0
  0
LWPOLYLINE
  5
1c1
100
AcDbEntity
  8
0
 62
7
100
AcDbPolyline
 90
2
 70
0
 10
202.000928
 20
-183.368198
 30
0.0
 10
202.000928
 20
-184.869337
 30
0.0
  0
LWPOLYLINE
  5
1c2
100
AcDbEntity
  8
0
 62
7
100
AcDbPolyline
 90
12
 70
0
 10
202.000928
 20
-183.439318
 30
0.0
 10
202.143167
 20
-183.368198
 30
0.0
 10
202.430187
 20
-183.368198
 30
0.0
 10
202.572427
 20
-183.439318
 30
0.0
 10
202.643547
 20
-183.510438
 30
0.0
 10
202.714667
 20
-183.655218
 30
0.0
 10
202.714667
 20
-184.081937
 30
0.0
 10
202.643547
 20
-184.224177
 30
0.0
 10
202.572427
 20
-184.297837
 30
0.0
 10
202.430187
 20
-184.368957
 30
0.0
 10
202.143167
 20
-184.368957
 30
0.0
 10
202.000928
 20
-184.297837
 30
0.0
  0
LWPOLYLINE
  5
1c3
100
AcDbEntity
  8
0
 62
7
100
AcDbPolyline
 90
12
 70
0
 10
203.999906
 20
-184.297837
 30
0.0
 10
203.857666
 20
-184.368957
 30
0.0
 10
203.573186
 20
-184.368957
 30
0.0
 10
203.428406
 20
-184.297837
 30
0.0
 10
203.357286
 20
-184.224177
 30
0.0
 10
203.286166
 20
-184.081937
 30
0.0
 10
203.286166
 20
-183.655218
 30
0.0
 10
203.357286
 20
-183.510438
 30
0.0
 10
203.428406
 20
-183.439318
 30
0.0
 10
203.573186
 20
-183.368198
 30
0.0
 10
203.857666
 20
-183.368198
 30
0.0
 10
203.999906
 20
-183.439318
 30
0.0
  0
LWPOLYLINE
  5
1c4
100
AcDbEntity
  8
0
 62
7
100
AcDbPolyline
 90
2
 70
0
 10
204.642525
 20
-184.368957
 30
0.0
 10
204.642525
 20
-182.867819
 30
0.0
  0
LWPOLYLINE
  5
1c5
100
AcDbEntity
  8
0
 62
7
100
AcDbPolyline
 90
12
 70
0
 10
204.642525
 20
-183.439318
 30
0.0
 10
204.787305
 20
-183.368198
 30
0.0
 10
205.071785
 20
-183.368198
 30
0.0
 10
205.214025
 20
-183.439318
 30
0.0
 10
205.287684
 20
-183.510438
 30
0.0
 10
205.358804
 20
-183.655218
 30
0.0
 10
205.358804
 20
-184.081937
 30
0.0
 10
205.287684
 20
-184.224177
 30
0.0
 10
205.214025
 20
-184.297837
 30
0.0
 10
205.071785
 20
-184.368957
 30
0.0
 10
204.787305
 20
-184.368957
 30
0.0
 10
204.642525
 20
-184.297837
 30
0.0
  0
LWPOLYLINE
  5
1c6
100
AcDbEntity
  8
0
 62
7
100
AcDbPolyline
 90
2
 70
0
 10
176.999731
 20
-179.489622
 30
0.0
 10
285.000429
 20
-179.489622
 30
0.0
  0
LWPOLYLINE
  5
1c7
100
AcDbEntity
  8
0
 62
7
100
AcDbPolyline
 90
20
 70
0
 10
178.287510
 20
-181.597820
 30
0.0
 10
178.500870
 20
-181.668940
 30
0.0
 10
178.859010
 20
-181.668940
 30
0.0
 10
179.001250
 20
-181.597820
 30
0.0
 10
179.072369
 20
-181.524160
 30
0.0
 10
179.143489
 20
-181.381920
 30
0.0
 10
179.143489
 20
-181.239680
 30
0.0
 10
179.072369
 20
-181.097440
 30
0.0
 10
179.001250
 20
-181.026320
 30
0.0
 10
178.859010
 20
-180.955200
 30
0.0
 10
178.571990
 20
-180.881541
 30
0.0
 10
178.429750
 20
-180.810421
 30
0.0
 10
178.358630
 20
-180.739301
 30
0.0
 10
178.287510
 20
-180.597061
 30
0.0
 10
178.287510
 20
-180.454821
 30
0.0
 10
178.358630
 20
-180.310041
 30
0.0
 10
178.429750
 20
-180.238921
 30
0.0
 10
178.571990
 20
-180.167801
 30
0.0
 10
178.930130
 20
-180.167801
 30
0.0
 10
179.143489
 20
-180.238921
 30
0.0
  0
LWPOLYLINE
  5
1c8
100
AcDbEntity
  8
0
 62
7
100
AcDbPolyline
 90
2
 70
0
 10
179.786109
 20
-181.668940
 30
0.0
 10
179.786109
 20
-180.167801
 30
0.0
  0
LWPOLYLINE
  5
1c9
100
AcDbEntity
  8
0
 62
7
100
AcDbPolyline
 90
7
 70
0
 10
180.428728
 20
-181.668940
 30
0.0
 10
180.428728
 20
-180.881541
 30
0.0
 10
180.357608
 20
-180.739301
 30
0.0
 10
180.215368
 20
-180.668181
 30
0.0
 10
180.002009
 20
-180.668181
 30
0.0
 10
179.857229
 20
-180.739301
 30
0.0
 10
179.786109
 20
-180.810421
 30
0.0
  0
LWPOLYLINE
  5
1ca
100
AcDbEntity
  8
0
 62
7
100
AcDbPolyline
 90
13
 70
0
 10
181.713967
 20
-181.597820
 30
0.0
 10
181.571727
 20
-181.668940
 30
0.0
 10
181.287247
 20
-181.668940
 30
0.0
 10
181.142467
 20
-181.597820
 30
0.0
 10
181.071348
 20
-181.453040
 30
0.0
 10
181.071348
 20
-180.881541
 30
0.0
 10
181.142467
 20
-180.739301
 30
0.0
 10
181.287247
 20
-180.668181
 30
0.0
 10
181.571727
 20
-180.668181
 30
0.0
 10
181.713967
 20
-180.739301
 30
0.0
 10
181.787627
 20
-180.881541
 30
0.0
 10
181.787627
 20
-181.026320
 30
0.0
 10
181.071348
 20
-181.168560
 30
0.0
  0
LWPOLYLINE
  5
1cb
100
AcDbEntity
  8
0
 62
7
100
AcDbPolyline
 90
13
 70
0
 10
183.001746
 20
-181.597820
 30
0.0
 10
182.856966
 20
-181.668940
 30
0.0
 10
182.572486
 20
-181.668940
 30
0.0
 10
182.430246
 20
-181.597820
 30
0.0
 10
182.359126
 20
-181.453040
 30
0.0
 10
182.359126
 20
-180.881541
 30
0.0
 10
182.430246
 20
-180.739301
 30
0.0
 10
182.572486
 20
-180.668181
 30
0.0
 10
182.856966
 20
-180.668181
 30
0.0
 10
183.001746
 20
-180.739301
 30
0.0
 10
183.072866
 20
-180.881541
 30
0.0
 10
183.072866
 20
-181.026320
 30
0.0
 10
182.359126
 20
-181.168560
 30
0.0
  0
LWPOLYLINE
  5
1cc
100
AcDbEntity
  8
0
 62
7
100
AcDbPolyline
 90
2
 70
0
 10
183.499585
 20
-180.668181
 30
0.0
 10
184.071085
 20
-180.668181
 30
0.0
  0
LWPOLYLINE
  5
1cd
100
AcDbEntity
  8
0
 62
7
100
AcDbPolyline
 90
5
 70
0
 10
183.715485
 20
-180.167801
 30
0.0
 10
183.715485
 20
-181.453040
 30
0.0
 10
183.786605
 20
-181.597820
 30
0.0
 10
183.928845
 20
-181.668940
 30
0.0
 10
184.071085
 20
-181.668940
 30
0.0
  0
LWPOLYLINE
  5
1ce
100
AcDbEntity
  8
0
 62
7
100
AcDbPolyline
 90
6
 70
0
 10
184.571464
 20
-181.524160
 30
0.0
 10
184.642584
 20
-181.597820
 30
0.0
 10
184.571464
 20
-181.668940
 30
0.0
 10
184.500344
 20
-181.597820
 30
0.0
 10
184.571464
 20
-181.524160
 30
0.0
 10
184.571464
 20
-181.668940
 30
0.0
  0
LWPOLYLINE
  5
1cf
100
AcDbEntity
  8
0
 62
7
100
AcDbPolyline
 90
6
 70
0
 10
184.571464
 20
-180.739301
 30
0.0
 10
184.642584
 20
-180.810421
 30
0.0
 10
184.571464
 20
-180.881541
 30
0.0
 10
184.500344
 20
-180.810421
 30
0.0
 10
184.571464
 20
-180.739301
 30
0.0
 10
184.571464
 20
-180.881541
 30
0.0
  0
LWPOLYLINE
  5
1d0
100
AcDbEntity
  8
0
 62
7
100
AcDbPolyline
 90
2
 70
0
 10
196.999672
 20
-189.489592
 30
0.0
 10
196.999672
 20
-192.489329
 30
0.0
  0
LWPOLYLINE
  5
1d1
100
AcDbEntity
  8
0
 62
7
100
AcDbPolyline
 90
2
 70
0
 10
260.999991
 20
-189.489592
 30
0.0
 10
260.999991
 20
-195.989446
 30
0.0
  0
LWPOLYLINE
  5
1d2
100
AcDbEntity
  8
0
 62
7
100
AcDbPolyline
 90
4
 70
1
 10
101.498303
 20
-125.481653
 30
0.0
 10
101.498303
 20
-123.282015
 30
0.0
 10
102.499062
 20
-123.282015
 30
0.0
 10
102.499062
 20
-125.481653
 30
0.0
  0
LWPOLYLINE
  5
1d3
100
AcDbEntity
  8
0
 62
7
100
AcDbPolyline
 90
4
 70
1
 10
103.499821
 20
-125.481653
 30
0.0
 10
103.499821
 20
-123.282015
 30
0.0
 10
104.498040
 20
-123.282015
 30
0.0
 10
104.498040
 20
-125.481653
 30
0.0
  0
LWPOLYLINE
  5
1d4
100
AcDbEntity
  8
0
 62
7
100
AcDbPolyline
 90
4
 70
1
 10
95.498829
 20
-125.481653
 30
0.0
 10
95.498829
 20
-123.282015
 30
0.0
 10
96.499588
 20
-123.282015
 30
0.0
 10
96.499588
 20
-125.481653
 30
0.0
  0
LWPOLYLINE
  5
1d5
100
AcDbEntity
  8
0
 62
7
100
AcDbPolyline
 90
4
 70
1
 10
97.497807
 20
-125.481653
 30
0.0
 10
97.497807
 20
-123.282015
 30
0.0
 10
98.498566
 20
-123.282015
 30
0.0
 10
98.498566
 20
-125.481653
 30
0.0
  0
LWPOLYLINE
  5
1d6
100
AcDbEntity
  8
0
 62
7
100
AcDbPolyline
 90
4
 70
1
 10
101.498303
 20
-130.881688
 30
0.0
 10
101.498303
 20
-128.682050
 30
0.0
 10
102.499062
 20
-128.682050
 30
0.0
 10
102.499062
 20
-130.881688
 30
0.0
  0
LWPOLYLINE
  5
1d7
100
AcDbEntity
  8
0
 62
7
100
AcDbPolyline
 90
4
 70
1
 10
103.499821
 20
-130.881688
 30
0.0
 10
103.499821
 20
-128.682050
 30
0.0
 10
104.498040
 20
-128.682050
 30
0.0
 10
104.498040
 20
-130.881688
 30
0.0
  0
LWPOLYLINE
  5
1d8
100
AcDbEntity
  8
0
 62
7
100
AcDbPolyline
 90
4
 70
1
 10
97.497807
 20
-130.881688
 30
0.0
 10
97.497807
 20
-128.682050
 30
0.0
 10
98.498566
 20
-128.682050
 30
0.0
 10
98.498566
 20
-130.881688
 30
0.0
  0
LWPOLYLINE
  5
1d9
100
AcDbEntity
  8
0
 62
7
100
AcDbPolyline
 90
4
 70
1
 10
95.498829
 20
-130.881688
 30
0.0
 10
95.498829
 20
-128.682050
 30
0.0
 10
96.499588
 20
-128.682050
 30
0.0
 10
96.499588
 20
-130.881688
 30
0.0
  0
LWPOLYLINE
  5
1da
100
AcDbEntity
  8
0
 62
7
100
AcDbPolyline
 90
4
 70
1
 10
92.897872
 20
-74.831562
 30
0.0
 10
92.897872
 20
-73.533623
 30
0.0
 10
95.897609
 20
-73.533623
 30
0.0
 10
95.897609
 20
-74.831562
 30
0.0
  0
LWPOLYLINE
  5
1db
100
AcDbEntity
  8
0
 62
7
100
AcDbPolyline
 90
4
 70
1
 10
92.897872
 20
-77.633179
 30
0.0
 10
92.897872
 20
-76.332700
 30
0.0
 10
95.897609
 20
-76.332700
 30
0.0
 10
95.897609
 20
-77.633179
 30
0.0
  0
LWPOLYLINE
  5
1dc
100
AcDbEntity
  8
0
 62
7
100
AcDbPolyline
 90
4
 70
1
 10
98.498566
 20
-74.831562
 30
0.0
 10
98.498566
 20
-73.533623
 30
0.0
 10
101.498303
 20
-73.533623
 30
0.0
 10
101.498303
 20
-74.831562
 30
0.0
  0
LWPOLYLINE
  5
1dd
100
AcDbEntity
  8
0
 62
7
100
AcDbPolyline
 90
4
 70
1
 10
98.498566
 20
-77.633179
 30
0.0
 10
98.498566
 20
-76.332700
 30
0.0
 10
101.498303
 20
-76.332700
 30
0.0
 10
101.498303
 20
-77.633179
 30
0.0
  0
LWPOLYLINE
  5
1de
100
AcDbEntity
  8
0
 62
7
100
AcDbPolyline
 90
4
 70
1
 10
104.099261
 20
-74.831562
 30
0.0
 10
104.099261
 20
-73.533623
 30
0.0
 10
107.098998
 20
-73.533623
 30
0.0
 10
107.098998
 20
-74.831562
 30
0.0
  0
LWPOLYLINE
  5
1df
100
AcDbEntity
  8
0
 62
7
100
AcDbPolyline
 90
4
 70
1
 10
104.099261
 20
-77.633179
 30
0.0
 10
104.099261
 20
-76.332700
 30
0.0
 10
107.098998
 20
-76.332700
 30
0.0
 10
107.098998
 20
-77.633179
 30
0.0
  0
LWPOLYLINE
  5
1e0
100
AcDbEntity
  8
0
 62
7
100
AcDbPolyline
 90
4
 70
1
 10
81.699022
 20
-80.432256
 30
0.0
 10
81.699022
 20
-79.131777
 30
0.0
 10
84.698759
 20
-79.131777
 30
0.0
 10
84.698759
 20
-80.432256
 30
0.0
  0
LWPOLYLINE
  5
1e1
100
AcDbEntity
  8
0
 62
7
100
AcDbPolyline
 90
4
 70
1
 10
81.699022
 20
-83.231334
 30
0.0
 10
81.699022
 20
-81.933395
 30
0.0
 10
84.698759
 20
-81.933395
 30
0.0
 10
84.698759
 20
-83.231334
 30
0.0
  0
LWPOLYLINE
  5
1e2
100
AcDbEntity
  8
0
 62
7
100
AcDbPolyline
 90
4
 70
1
 10
87.299717
 20
-80.432256
 30
0.0
 10
87.299717
 20
-79.131777
 30
0.0
 10
90.299454
 20
-79.131777
 30
0.0
 10
90.299454
 20
-80.432256
 30
0.0
  0
LWPOLYLINE
  5
1e3
100
AcDbEntity
  8
0
 62
7
100
AcDbPolyline
 90
4
 70
1
 10
87.299717
 20
-83.231334
 30
0.0
 10
87.299717
 20
-81.933395
 30
0.0
 10
90.299454
 20
-81.933395
 30
0.0
 10
90.299454
 20
-83.231334
 30
0.0
  0
LWPOLYLINE
  5
1e4
100
AcDbEntity
  8
0
 62
7
100
AcDbPolyline
 90
4
 70
1
 10
92.897872
 20
-80.432256
 30
0.0
 10
92.897872
 20
-79.131777
 30
0.0
 10
95.897609
 20
-79.131777
 30
0.0
 10
95.897609
 20
-80.432256
 30
0.0
  0
LWPOLYLINE
  5
1e5
100
AcDbEntity
  8
0
 62
7
100
AcDbPolyline
 90
4
 70
1
 10
92.897872
 20
-83.231334
 30
0.0
 10
92.897872
 20
-81.933395
 30
0.0
 10
95.897609
 20
-81.933395
 30
0.0
 10
95.897609
 20
-83.231334
 30
0.0
  0
LWPOLYLINE
  5
1e6
100
AcDbEntity
  8
0
 62
7
100
AcDbPolyline
 90
4
 70
1
 10
98.498566
 20
-80.432256
 30
0.0
 10
98.498566
 20
-79.131777
 30
0.0
 10
101.498303
 20
-79.131777
 30
0.0
 10
101.498303
 20
-80.432256
 30
0.0
  0
LWPOLYLINE
  5
1e7
100
AcDbEntity
  8
0
 62
7
100
AcDbPolyline
 90
4
 70
1
 10
98.498566
 20
-83.231334
 30
0.0
 10
98.498566
 20
-81.933395
 30
0.0
 10
101.498303
 20
-81.933395
 30
0.0
 10
101.498303
 20
-83.231334
 30
0.0
  0
LWPOLYLINE
  5
1e8
100
AcDbEntity
  8
0
 62
7
100
AcDbPolyline
 90
4
 70
1
 10
104.099261
 20
-80.432256
 30
0.0
 10
104.099261
 20
-79.131777
 30
0.0
 10
107.098998
 20
-79.131777
 30
0.0
 10
107.098998
 20
-80.432256
 30
0.0
  0
LWPOLYLINE
  5
1e9
100
AcDbEntity
  8
0
 62
7
100
AcDbPolyline
 90
4
 70
1
 10
104.099261
 20
-83.231334
 30
0.0
 10
104.099261
 20
-81.933395
 30
0.0
 10
107.098998
 20
-81.933395
 30
0.0
 10
107.098998
 20
-83.231334
 30
0.0
  0
LWPOLYLINE
  5
1ea
100
AcDbEntity
  8
0
 62
7
100
AcDbPolyline
 90
4
 70
1
 10
109.697416
 20
-80.432256
 30
0.0
 10
109.697416
 20
-79.131777
 30
0.0
 10
112.699693
 20
-79.131777
 30
0.0
 10
112.699693
 20
-80.432256
 30
0.0
  0
LWPOLYLINE
  5
1eb
100
AcDbEntity
  8
0
 62
7
100
AcDbPolyline
 90
4
 70
1
 10
109.697416
 20
-83.231334
 30
0.0
 10
109.697416
 20
-81.933395
 30
0.0
 10
112.699693
 20
-81.933395
 30
0.0
 10
112.699693
 20
-83.231334
 30
0.0
  0
LWPOLYLINE
  5
1ec
100
AcDbEntity
  8
0
 62
7
100
AcDbPolyline
 90
4
 70
1
 10
115.298110
 20
-80.432256
 30
0.0
 10
115.298110
 20
-79.131777
 30
0.0
 10
118.297847
 20
-79.131777
 30
0.0
 10
118.297847
 20
-80.432256
 30
0.0
  0
LWPOLYLINE
  5
1ed
100
AcDbEntity
  8
0
 62
7
100
AcDbPolyline
 90
4
 70
1
 10
115.298110
 20
-83.231334
 30
0.0
 10
115.298110
 20
-81.933395
 30
0.0
 10
118.297847
 20
-81.933395
 30
0.0
 10
118.297847
 20
-83.231334
 30
0.0
  0
LWPOLYLINE
  5
1ee
100
AcDbEntity
  8
0
 62
7
100
AcDbPolyline
 90
4
 70
1
 10
81.699022
 20
-86.032951
 30
0.0
 10
81.699022
 20
-84.732472
 30
0.0
 10
84.698759
 20
-84.732472
 30
0.0
 10
84.698759
 20
-86.032951
 30
0.0
  0
LWPOLYLINE
  5
1ef
100
AcDbEntity
  8
0
 62
7
100
AcDbPolyline
 90
4
 70
1
 10
81.699022
 20
-88.832028
 30
0.0
 10
81.699022
 20
-87.531549
 30
0.0
 10
84.698759
 20
-87.531549
 30
0.0
 10
84.698759
 20
-88.832028
 30
0.0
  0
LWPOLYLINE
  5
1f0
100
AcDbEntity
  8
0
 62
7
100
AcDbPolyline
 90
4
 70
1
 10
87.299717
 20
-86.032951
 30
0.0
 10
87.299717
 20
-84.732472
 30
0.0
 10
90.299454
 20
-84.732472
 30
0.0
 10
90.299454
 20
-86.032951
 30
0.0
  0
LWPOLYLINE
  5
1f1
100
AcDbEntity
  8
0
 62
7
100
AcDbPolyline
 90
4
 70
1
 10
87.299717
 20
-88.832028
 30
0.0
 10
87.299717
 20
-87.531549
 30
0.0
 10
90.299454
 20
-87.531549
 30
0.0
 10
90.299454
 20
-88.832028
 30
0.0
  0
LWPOLYLINE
  5
1f2
100
AcDbEntity
  8
0
 62
7
100
AcDbPolyline
 90
4
 70
1
 10
92.897872
 20
-86.032951
 30
0.0
 10
92.897872
 20
-84.732472
 30
0.0
 10
95.897609
 20
-84.732472
 30
0.0
 10
95.897609
 20
-86.032951
 30
0.0
  0
LWPOLYLINE
  5
1f3
100
AcDbEntity
  8
0
 62
7
100
AcDbPolyline
 90
4
 70
1
 10
92.897872
 20
-88.832028
 30
0.0
 10
92.897872
 20
-87.531549
 30
0.0
 10
95.897609
 20
-87.531549
 30
0.0
 10
95.897609
 20
-88.832028
 30
0.0
  0
LWPOLYLINE
  5
1f4
100
AcDbEntity
  8
0
 62
7
100
AcDbPolyline
 90
4
 70
1
 10
98.498566
 20
-86.032951
 30
0.0
 10
98.498566
 20
-84.732472
 30
0.0
 10
101.498303
 20
-84.732472
 30
0.0
 10
101.498303
 20
-86.032951
 30
0.0
  0
LWPOLYLINE
  5
1f5
100
AcDbEntity
  8
0
 62
7
100
AcDbPolyline
 90
4
 70
1
 10
98.498566
 20
-88.832028
 30
0.0
 10
98.498566
 20
-87.531549
 30
0.0
 10
101.498303
 20
-87.531549
 30
0.0
 10
101.498303
 20
-88.832028
 30
0.0
  0
LWPOLYLINE
  5
1f6
100
AcDbEntity
  8
0
 62
7
100
AcDbPolyline
 90
4
 70
1
 10
104.099261
 20
-86.032951
 30
0.0
 10
104.099261
 20
-84.732472
 30
0.0
 10
107.098998
 20
-84.732472
 30
0.0
 10
107.098998
 20
-86.032951
 30
0.0
  0
LWPOLYLINE
  5
1f7
100
AcDbEntity
  8
0
 62
7
100
AcDbPolyline
 90
4
 70
1
 10
104.099261
 20
-88.832028
 30
0.0
 10
104.099261
 20
-87.531549
 30
0.0
 10
107.098998
 20
-87.531549
 30
0.0
 10
107.098998
 20
-88.832028
 30
0.0
  0
LWPOLYLINE
  5
1f8
100
AcDbEntity
  8
0
 62
7
100
AcDbPolyline
 90
4
 70
1
 10
109.697416
 20
-86.032951
 30
0.0
 10
109.697416
 20
-84.732472
 30
0.0
 10
112.699693
 20
-84.732472
 30
0.0
 10
112.699693
 20
-86.032951
 30
0.0
  0
LWPOLYLINE
  5
1f9
100
AcDbEntity
  8
0
 62
7
100
AcDbPolyline
 90
4
 70
1
 10
109.697416
 20
-88.832028
 30
0.0
 10
109.697416
 20
-87.531549
 30
0.0
 10
112.699693
 20
-87.531549
 30
0.0
 10
112.699693
 20
-88.832028
 30
0.0
  0
LWPOLYLINE
  5
1fa
100
AcDbEntity
  8
0
 62
7
100
AcDbPolyline
 90
4
 70
1
 10
115.298110
 20
-86.032951
 30
0.0
 10
115.298110
 20
-84.732472
 30
0.0
 10
118.297847
 20
-84.732472
 30
0.0
 10
118.297847
 20
-86.032951
 30
0.0
  0
LWPOLYLINE
  5
1fb
100
AcDbEntity
  8
0
 62
7
100
AcDbPolyline
 90
4
 70
1
 10
115.298110
 20
-88.832028
 30
0.0
 10
115.298110
 20
-87.531549
 30
0.0
 10
118.297847
 20
-87.531549
 30
0.0
 10
118.297847
 20
-88.832028
 30
0.0
  0
LWPOLYLINE
  5
1fc
100
AcDbEntity
  8
0
 62
7
100
AcDbPolyline
 90
4
 70
1
 10
76.098328
 20
-91.633646
 30
0.0
 10
76.098328
 20
-90.333167
 30
0.0
 10
79.098065
 20
-90.333167
 30
0.0
 10
79.098065
 20
-91.633646
 30
0.0
  0
LWPOLYLINE
  5
1fd
100
AcDbEntity
  8
0
 62
7
100
AcDbPolyline
 90
4
 70
1
 10
76.098328
 20
-94.432723
 30
0.0
 10
76.098328
 20
-93.132244
 30
0.0
 10
79.098065
 20
-93.132244
 30
0.0
 10
79.098065
 20
-94.432723
 30
0.0
  0
LWPOLYLINE
  5
1fe
100
AcDbEntity
  8
0
 62
7
100
AcDbPolyline
 90
4
 70
1
 10
81.699022
 20
-91.633646
 30
0.0
 10
81.699022
 20
-90.333167
 30
0.0
 10
84.698759
 20
-90.333167
 30
0.0
 10
84.698759
 20
-91.633646
 30
0.0
  0
LWPOLYLINE
  5
1ff
100
AcDbEntity
  8
0
 62
7
100
AcDbPolyline
 90
4
 70
1
 10
81.699022
 20
-94.432723
 30
0.0
 10
81.699022
 20
-93.132244
 30
0.0
 10
84.698759
 20
-93.132244
 30
0.0
 10
84.698759
 20
-94.432723
 30
0.0
  0
LWPOLYLINE
  5
200
100
AcDbEntity
  8
0
 62
7
100
AcDbPolyline
 90
4
 70
1
 10
87.299717
 20
-91.633646
 30
0.0
 10
87.299717
 20
-90.333167
 30
0.0
 10
90.299454
 20
-90.333167
 30
0.0
 10
90.299454
 20
-91.633646
 30
0.0
  0
LWPOLYLINE
  5
201
100
AcDbEntity
  8
0
 62
7
100
AcDbPolyline
 90
4
 70
1
 10
87.299717
 20
-94.432723
 30
0.0
 10
87.299717
 20
-93.132244
 30
0.0
 10
90.299454
 20
-93.132244
 30
0.0
 10
90.299454
 20
-94.432723
 30
0.0
  0
LWPOLYLINE
  5
202
100
AcDbEntity
  8
0
 62
7
100
AcDbPolyline
 90
4
 70
1
 10
92.897872
 20
-91.633646
 30
0.0
 10
92.897872
 20
-90.333167
 30
0.0
 10
95.897609
 20
-90.333167
 30
0.0
 10
95.897609
 20
-91.633646
 30
0.0
  0
LWPOLYLINE
  5
203
100
AcDbEntity
  8
0
 62
7
100
AcDbPolyline
 90
4
 70
1
 10
92.897872
 20
-94.432723
 30
0.0
 10
92.897872
 20
-93.132244
 30
0.0
 10
95.897609
 20
-93.132244
 30
0.0
 10
95.897609
 20
-94.432723
 30
0.0
  0
LWPOLYLINE
  5
204
100
AcDbEntity
  8
0
 62
7
100
AcDbPolyline
 90
4
 70
1
 10
98.498566
 20
-91.633646
 30
0.0
 10
98.498566
 20
-90.333167
 30
0.0
 10
101.498303
 20
-90.333167
 30
0.0
 10
101.498303
 20
-91.633646
 30
0.0
  0
LWPOLYLINE
  5
205
100
AcDbEntity
  8
0
 62
7
100
AcDbPolyline
 90
4
 70
1
 10
98.498566
 20
-94.432723
 30
0.0
 10
98.498566
 20
-93.132244
 30
0.0
 10
101.498303
 20
-93.132244
 30
0.0
 10
101.498303
 20
-94.432723
 30
0.0
  0
LWPOLYLINE
  5
206
100
AcDbEntity
  8
0
 62
7
100
AcDbPolyline
 90
4
 70
1
 10
104.099261
 20
-91.633646
 30
0.0
 10
104.099261
 20
-90.333167
 30
0.0
 10
107.098998
 20
-90.333167
 30
0.0
 10
107.098998
 20
-91.633646
 30
0.0
  0
LWPOLYLINE
  5
207
100
AcDbEntity
  8
0
 62
7
100
AcDbPolyline
 90
4
 70
1
 10
104.099261
 20
-94.432723
 30
0.0
 10
104.099261
 20
-93.132244
 30
0.0
 10
107.098998
 20
-93.132244
 30
0.0
 10
107.098998
 20
-94.432723
 30
0.0
  0
LWPOLYLINE
  5
208
100
AcDbEntity
  8
0
 62
7
100
AcDbPolyline
 90
4
 70
1
 10
109.697416
 20
-91.633646
 30
0.0
 10
109.697416
 20
-90.333167
 30
0.0
 10
112.699693
 20
-90.333167
 30
0.0
 10
112.699693
 20
-91.633646
 30
0.0
  0
LWPOLYLINE
  5
209
100
AcDbEntity
  8
0
 62
7
100
AcDbPolyline
 90
4
 70
1
 10
109.697416
 20
-94.432723
 30
0.0
 10
109.697416
 20
-93.132244
 30
0.0
 10
112.699693
 20
-93.132244
 30
0.0
 10
112.699693
 20
-94.432723
 30
0.0
  0
LWPOLYLINE
  5
20a
100
AcDbEntity
  8
0
 62
7
100
AcDbPolyline
 90
4
 70
1
 10
115.298110
 20
-91.633646
 30
0.0
 10
115.298110
 20
-90.333167
 30
0.0
 10
118.297847
 20
-90.333167
 30
0.0
 10
118.297847
 20
-91.633646
 30
0.0
  0
LWPOLYLINE
  5
20b
100
AcDbEntity
  8
0
 62
7
100
AcDbPolyline
 90
4
 70
1
 10
115.298110
 20
-94.432723
 30
0.0
 10
115.298110
 20
-93.132244
 30
0.0
 10
118.297847
 20
-93.132244
 30
0.0
 10
118.297847
 20
-94.432723
 30
0.0
  0
LWPOLYLINE
  5
20c
100
AcDbEntity
  8
0
 62
7
100
AcDbPolyline
 90
4
 70
1
 10
120.898805
 20
-91.633646
 30
0.0
 10
120.898805
 20
-90.333167
 30
0.0
 10
123.898542
 20
-90.333167
 30
0.0
 10
123.898542
 20
-91.633646
 30
0.0
  0
LWPOLYLINE
  5
20d
100
AcDbEntity
  8
0
 62
7
100
AcDbPolyline
 90
4
 70
1
 10
120.898805
 20
-94.432723
 30
0.0
 10
120.898805
 20
-93.132244
 30
0.0
 10
123.898542
 20
-93.132244
 30
0.0
 10
123.898542
 20
-94.432723
 30
0.0
  0
LWPOLYLINE
  5
20e
100
AcDbEntity
  8
0
 62
7
100
AcDbPolyline
 90
4
 70
1
 10
76.098328
 20
-97.231800
 30
0.0
 10
76.098328
 20
-95.931321
 30
0.0
 10
79.098065
 20
-95.931321
 30
0.0
 10
79.098065
 20
-97.231800
 30
0.0
  0
LWPOLYLINE
  5
20f
100
AcDbEntity
  8
0
 62
7
100
AcDbPolyline
 90
4
 70
1
 10
76.098328
 20
-100.033418
 30
0.0
 10
76.098328
 20
-98.732939
 30
0.0
 10
79.098065
 20
-98.732939
 30
0.0
 10
79.098065
 20
-100.033418
 30
0.0
  0
LWPOLYLINE
  5
210
100
AcDbEntity
  8
0
 62
7
100
AcDbPolyline
 90
4
 70
1
 10
81.699022
 20
-97.231800
 30
0.0
 10
81.699022
 20
-95.931321
 30
0.0
 10
84.698759
 20
-95.931321
 30
0.0
 10
84.698759
 20
-97.231800
 30
0.0
  0
LWPOLYLINE
  5
211
100
AcDbEntity
  8
0
 62
7
100
AcDbPolyline
 90
4
 70
1
 10
81.699022
 20
-100.033418
 30
0.0
 10
81.699022
 20
-98.732939
 30
0.0
 10
84.698759
 20
-98.732939
 30
0.0
 10
84.698759
 20
-100.033418
 30
0.0
  0
LWPOLYLINE
  5
212
100
AcDbEntity
  8
0
 62
7
100
AcDbPolyline
 90
4
 70
1
 10
87.299717
 20
-97.231800
 30
0.0
 10
87.299717
 20
-95.931321
 30
0.0
 10
90.299454
 20
-95.931321
 30
0.0
 10
90.299454
 20
-97.231800
 30
0.0
  0
LWPOLYLINE
  5
213
100
AcDbEntity
  8
0
 62
7
100
AcDbPolyline
 90
4
 70
1
 10
87.299717
 20
-100.033418
 30
0.0
 10
87.299717
 20
-98.732939
 30
0.0
 10
90.299454
 20
-98.732939
 30
0.0
 10
90.299454
 20
-100.033418
 30
0.0
  0
LWPOLYLINE
  5
214
100
AcDbEntity
  8
0
 62
7
100
AcDbPolyline
 90
4
 70
1
 10
92.897872
 20
-97.231800
 30
0.0
 10
92.897872
 20
-95.931321
 30
0.0
 10
95.897609
 20
-95.931321
 30
0.0
 10
95.897609
 20
-97.231800
 30
0.0
  0
LWPOLYLINE
  5
215
100
AcDbEntity
  8
0
 62
7
100
AcDbPolyline
 90
4
 70
1
 10
92.897872
 20
-100.033418
 30
0.0
 10
92.897872
 20
-98.732939
 30
0.0
 10
95.897609
 20
-98.732939
 30
0.0
 10
95.897609
 20
-100.033418
 30
0.0
  0
LWPOLYLINE
  5
216
100
AcDbEntity
  8
0
 62
7
100
AcDbPolyline
 90
4
 70
1
 10
98.498566
 20
-97.231800
 30
0.0
 10
98.498566
 20
-95.931321
 30
0.0
 10
101.498303
 20
-95.931321
 30
0.0
 10
101.498303
 20
-97.231800
 30
0.0
  0
LWPOLYLINE
  5
217
100
AcDbEntity
  8
0
 62
7
100
AcDbPolyline
 90
4
 70
1
 10
98.498566
 20
-100.033418
 30
0.0
 10
98.498566
 20
-98.732939
 30
0.0
 10
101.498303
 20
-98.732939
 30
0.0
 10
101.498303
 20
-100.033418
 30
0.0
  0
LWPOLYLINE
  5
218
100
AcDbEntity
  8
0
 62
7
100
AcDbPolyline
 90
4
 70
1
 10
104.099261
 20
-97.231800
 30
0.0
 10
104.099261
 20
-95.931321
 30
0.0
 10
107.098998
 20
-95.931321
 30
0.0
 10
107.098998
 20
-97.231800
 30
0.0
  0
LWPOLYLINE
  5
219
100
AcDbEntity
  8
0
 62
7
100
AcDbPolyline
 90
4
 70
1
 10
104.099261
 20
-100.033418
 30
0.0
 10
104.099261
 20
-98.732939
 30
0.0
 10
107.098998
 20
-98.732939
 30
0.0
 10
107.098998
 20
-100.033418
 30
0.0
  0
LWPOLYLINE
  5
21a
100
AcDbEntity
  8
0
 62
7
100
AcDbPolyline
 90
4
 70
1
 10
109.697416
 20
-97.231800
 30
0.0
 10
109.697416
 20
-95.931321
 30
0.0
 10
112.699693
 20
-95.931321
 30
0.0
 10
112.699693
 20
-97.231800
 30
0.0
  0
LWPOLYLINE
  5
21b
100
AcDbEntity
  8
0
 62
7
100
AcDbPolyline
 90
4
 70
1
 10
109.697416
 20
-100.033418
 30
0.0
 10
109.697416
 20
-98.732939
 30
0.0
 10
112.699693
 20
-98.732939
 30
0.0
 10
112.699693
 20
-100.033418
 30
0.0
  0
LWPOLYLINE
  5
21c
100
AcDbEntity
  8
0
 62
7
100
AcDbPolyline
 90
4
 70
1
 10
115.298110
 20
-97.231800
 30
0.0
 10
115.298110
 20
-95.931321
 30
0.0
 10
118.297847
 20
-95.931321
 30
0.0
 10
118.297847
 20
-97.231800
 30
0.0
  0
LWPOLYLINE
  5
21d
100
AcDbEntity
  8
0
 62
7
100
AcDbPolyline
 90
4
 70
1
 10
115.298110
 20
-100.033418
 30
0.0
 10
115.298110
 20
-98.732939
 30
0.0
 10
118.297847
 20
-98.732939
 30
0.0
 10
118.297847
 20
-100.033418
 30
0.0
  0
LWPOLYLINE
  5
21e
100
AcDbEntity
  8
0
 62
7
100
AcDbPolyline
 90
4
 70
1
 10
120.898805
 20
-97.231800
 30
0.0
 10
120.898805
 20
-95.931321
 30
0.0
 10
123.898542
 20
-95.931321
 30
0.0
 10
123.898542
 20
-97.231800
 30
0.0
  0
LWPOLYLINE
  5
21f
100
AcDbEntity
  8
0
 62
7
100
AcDbPolyline
 90
4
 70
1
 10
120.898805
 20
-100.033418
 30
0.0
 10
120.898805
 20
-98.732939
 30
0.0
 10
123.898542
 20
-98.732939
 30
0.0
 10
123.898542
 20
-100.033418
 30
0.0
  0
LWPOLYLINE
  5
220
100
AcDbEntity
  8
0
 62
7
100
AcDbPolyline
 90
4
 70
1
 10
76.098328
 20
-102.832495
 30
0.0
 10
76.098328
 20
-101.532016
 30
0.0
 10
79.098065
 20
-101.532016
 30
0.0
 10
79.098065
 20
-102.832495
 30
0.0
  0
LWPOLYLINE
  5
221
100
AcDbEntity
  8
0
 62
7
100
AcDbPolyline
 90
4
 70
1
 10
76.098328
 20
-105.631572
 30
0.0
 10
76.098328
 20
-104.333633
 30
0.0
 10
79.098065
 20
-104.333633
 30
0.0
 10
79.098065
 20
-105.631572
 30
0.0
  0
LWPOLYLINE
  5
222
100
AcDbEntity
  8
0
 62
7
100
AcDbPolyline
 90
4
 70
1
 10
81.699022
 20
-102.832495
 30
0.0
 10
81.699022
 20
-101.532016
 30
0.0
 10
84.698759
 20
-101.532016
 30
0.0
 10
84.698759
 20
-102.832495
 30
0.0
  0
LWPOLYLINE
  5
223
100
AcDbEntity
  8
0
 62
7
100
AcDbPolyline
 90
4
 70
1
 10
81.699022
 20
-105.631572
 30
0.0
 10
81.699022
 20
-104.333633
 30
0.0
 10
84.698759
 20
-104.333633
 30
0.0
 10
84.698759
 20
-105.631572
 30
0.0
  0
LWPOLYLINE
  5
224
100
AcDbEntity
  8
0
 62
7
100
AcDbPolyline
 90
4
 70
1
 10
87.299717
 20
-102.832495
 30
0.0
 10
87.299717
 20
-101.532016
 30
0.0
 10
90.299454
 20
-101.532016
 30
0.0
 10
90.299454
 20
-102.832495
 30
0.0
  0
LWPOLYLINE
  5
225
100
AcDbEntity
  8
0
 62
7
100
AcDbPolyline
 90
4
 70
1
 10
87.299717
 20
-105.631572
 30
0.0
 10
87.299717
 20
-104.333633
 30
0.0
 10
90.299454
 20
-104.333633
 30
0.0
 10
90.299454
 20
-105.631572
 30
0.0
  0
LWPOLYLINE
  5
226
100
AcDbEntity
  8
0
 62
7
100
AcDbPolyline
 90
4
 70
1
 10
92.897872
 20
-102.832495
 30
0.0
 10
92.897872
 20
-101.532016
 30
0.0
 10
95.897609
 20
-101.532016
 30
0.0
 10
95.897609
 20
-102.832495
 30
0.0
  0
LWPOLYLINE
  5
227
100
AcDbEntity
  8
0
 62
7
100
AcDbPolyline
 90
4
 70
1
 10
92.897872
 20
-105.631572
 30
0.0
 10
92.897872
 20
-104.333633
 30
0.0
 10
95.897609
 20
-104.333633
 30
0.0
 10
95.897609
 20
-105.631572
 30
0.0
  0
LWPOLYLINE
  5
228
100
AcDbEntity
  8
0
 62
7
100
AcDbPolyline
 90
4
 70
1
 10
98.498566
 20
-102.832495
 30
0.0
 10
98.498566
 20
-101.532016
 30
0.0
 10
101.498303
 20
-101.532016
 30
0.0
 10
101.498303
 20
-102.832495
 30
0.0
  0
LWPOLYLINE
  5
229
100
AcDbEntity
  8
0
 62
7
100
AcDbPolyline
 90
4
 70
1
 10
98.498566
 20
-105.631572
 30
0.0
 10
98.498566
 20
-104.333633
 30
0.0
 10
101.498303
 20
-104.333633
 30
0.0
 10
101.498303
 20
-105.631572
 30
0.0
  0
LWPOLYLINE
  5
22a
100
AcDbEntity
  8
0
 62
7
100
AcDbPolyline
 90
4
 70
1
 10
104.099261
 20
-102.832495
 30
0.0
 10
104.099261
 20
-101.532016
 30
0.0
 10
107.098998
 20
-101.532016
 30
0.0
 10
107.098998
 20
-102.832495
 30
0.0
  0
LWPOLYLINE
  5
22b
100
AcDbEntity
  8
0
 62
7
100
AcDbPolyline
 90
4
 70
1
 10
104.099261
 20
-105.631572
 30
0.0
 10
104.099261
 20
-104.333633
 30
0.0
 10
107.098998
 20
-104.333633
 30
0.0
 10
107.098998
 20
-105.631572
 30
0.0
  0
LWPOLYLINE
  5
22c
100
AcDbEntity
  8
0
 62
7
100
AcDbPolyline
 90
4
 70
1
 10
109.697416
 20
-102.832495
 30
0.0
 10
109.697416
 20
-101.532016
 30
0.0
 10
112.699693
 20
-101.532016
 30
0.0
 10
112.699693
 20
-102.832495
 30
0.0
  0
LWPOLYLINE
  5
22d
100
AcDbEntity
  8
0
 62
7
100
AcDbPolyline
 90
4
 70
1
 10
109.697416
 20
-105.631572
 30
0.0
 10
109.697416
 20
-104.333633
 30
0.0
 10
112.699693
 20
-104.333633
 30
0.0
 10
112.699693
 20
-105.631572
 30
0.0
  0
LWPOLYLINE
  5
22e
100
AcDbEntity
  8
0
 62
7
100
AcDbPolyline
 90
4
 70
1
 10
115.298110
 20
-102.832495
 30
0.0
 10
115.298110
 20
-101.532016
 30
0.0
 10
118.297847
 20
-101.532016
 30
0.0
 10
118.297847
 20
-102.832495
 30
0.0
  0
LWPOLYLINE
  5
22f
100
AcDbEntity
  8
0
 62
7
100
AcDbPolyline
 90
4
 70
1
 10
115.298110
 20
-105.631572
 30
0.0
 10
115.298110
 20
-104.333633
 30
0.0
 10
118.297847
 20
-104.333633
 30
0.0
 10
118.297847
 20
-105.631572
 30
0.0
  0
LWPOLYLINE
  5
230
100
AcDbEntity
  8
0
 62
7
100
AcDbPolyline
 90
4
 70
1
 10
120.898805
 20
-102.832495
 30
0.0
 10
120.898805
 20
-101.532016
 30
0.0
 10
123.898542
 20
-101.532016
 30
0.0
 10
123.898542
 20
-102.832495
 30
0.0
  0
LWPOLYLINE
  5
231
100
AcDbEntity
  8
0
 62
7
100
AcDbPolyline
 90
4
 70
1
 10
120.898805
 20
-105.631572
 30
0.0
 10
120.898805
 20
-104.333633
 30
0.0
 10
123.898542
 20
-104.333633
 30
0.0
 10
123.898542
 20
-105.631572
 30
0.0
  0
LWPOLYLINE
  5
232
100
AcDbEntity
  8
0
 62
7
100
AcDbPolyline
 90
4
 70
1
 10
81.699022
 20
-108.433190
 30
0.0
 10
81.699022
 20
-107.132711
 30
0.0
 10
84.698759
 20
-107.132711
 30
0.0
 10
84.698759
 20
-108.433190
 30
0.0
  0
LWPOLYLINE
  5
233
100
AcDbEntity
  8
0
 62
7
100
AcDbPolyline
 90
4
 70
1
 10
81.699022
 20
-111.232267
 30
0.0
 10
81.699022
 20
-109.931788
 30
0.0
 10
84.698759
 20
-109.931788
 30
0.0
 10
84.698759
 20
-111.232267
 30
0.0
  0
LWPOLYLINE
  5
234
100
AcDbEntity
  8
0
 62
7
100
AcDbPolyline
 90
4
 70
1
 10
87.299717
 20
-108.433190
 30
0.0
 10
87.299717
 20
-107.132711
 30
0.0
 10
90.299454
 20
-107.132711
 30
0.0
 10
90.299454
 20
-108.433190
 30
0.0
  0
LWPOLYLINE
  5
235
100
AcDbEntity
  8
0
 62
7
100
AcDbPolyline
 90
4
 70
1
 10
87.299717
 20
-111.232267
 30
0.0
 10
87.299717
 20
-109.931788
 30
0.0
 10
90.299454
 20
-109.931788
 30
0.0
 10
90.299454
 20
-111.232267
 30
0.0
  0
LWPOLYLINE
  5
236
100
AcDbEntity
  8
0
 62
7
100
AcDbPolyline
 90
4
 70
1
 10
92.897872
 20
-108.433190
 30
0.0
 10
92.897872
 20
-107.132711
 30
0.0
 10
95.897609
 20
-107.132711
 30
0.0
 10
95.897609
 20
-108.433190
 30
0.0
  0
LWPOLYLINE
  5
237
100
AcDbEntity
  8
0
 62
7
100
AcDbPolyline
 90
4
 70
1
 10
92.897872
 20
-111.232267
 30
0.0
 10
92.897872
 20
-109.931788
 30
0.0
 10
95.897609
 20
-109.931788
 30
0.0
 10
95.897609
 20
-111.232267
 30
0.0
  0
LWPOLYLINE
  5
238
100
AcDbEntity
  8
0
 62
7
100
AcDbPolyline
 90
4
 70
1
 10
98.498566
 20
-108.433190
 30
0.0
 10
98.498566
 20
-107.132711
 30
0.0
 10
101.498303
 20
-107.132711
 30
0.0
 10
101.498303
 20
-108.433190
 30
0.0
  0
LWPOLYLINE
  5
239
100
AcDbEntity
  8
0
 62
7
100
AcDbPolyline
 90
4
 70
1
 10
98.498566
 20
-111.232267
 30
0.0
 10
98.498566
 20
-109.931788
 30
0.0
 10
101.498303
 20
-109.931788
 30
0.0
 10
101.498303
 20
-111.232267
 30
0.0
  0
LWPOLYLINE
  5
23a
100
AcDbEntity
  8
0
 62
7
100
AcDbPolyline
 90
4
 70
1
 10
104.099261
 20
-108.433190
 30
0.0
 10
104.099261
 20
-107.132711
 30
0.0
 10
107.098998
 20
-107.132711
 30
0.0
 10
107.098998
 20
-108.433190
 30
0.0
  0
LWPOLYLINE
  5
23b
100
AcDbEntity
  8
0
 62
7
100
AcDbPolyline
 90
4
 70
1
 10
104.099261
 20
-111.232267
 30
0.0
 10
104.099261
 20
-109.931788
 30
0.0
 10
107.098998
 20
-109.931788
 30
0.0
 10
107.098998
 20
-111.232267
 30
0.0
  0
LWPOLYLINE
  5
23c
100
AcDbEntity
  8
0
 62
7
100
AcDbPolyline
 90
4
 70
1
 10
109.697416
 20
-108.433190
 30
0.0
 10
109.697416
 20
-107.132711
 30
0.0
 10
112.699693
 20
-107.132711
 30
0.0
 10
112.699693
 20
-108.433190
 30
0.0
  0
LWPOLYLINE
  5
23d
100
AcDbEntity
  8
0
 62
7
100
AcDbPolyline
 90
4
 70
1
 10
109.697416
 20
-111.232267
 30
0.0
 10
109.697416
 20
-109.931788
 30
0.0
 10
112.699693
 20
-109.931788
 30
0.0
 10
112.699693
 20
-111.232267
 30
0.0
  0
LWPOLYLINE
  5
23e
100
AcDbEntity
  8
0
 62
7
100
AcDbPolyline
 90
4
 70
1
 10
115.298110
 20
-108.433190
 30
0.0
 10
115.298110
 20
-107.132711
 30
0.0
 10
118.297847
 20
-107.132711
 30
0.0
 10
118.297847
 20
-108.433190
 30
0.0
  0
LWPOLYLINE
  5
23f
100
AcDbEntity
  8
0
 62
7
100
AcDbPolyline
 90
4
 70
1
 10
115.298110
 20
-111.232267
 30
0.0
 10
115.298110
 20
-109.931788
 30
0.0
 10
118.297847
 20
-109.931788
 30
0.0
 10
118.297847
 20
-111.232267
 30
0.0
  0
LWPOLYLINE
  5
240
100
AcDbEntity
  8
0
 62
7
100
AcDbPolyline
 90
4
 70
1
 10
81.699022
 20
-114.031344
 30
0.0
 10
81.699022
 20
-112.733405
 30
0.0
 10
84.698759
 20
-112.733405
 30
0.0
 10
84.698759
 20
-114.031344
 30
0.0
  0
LWPOLYLINE
  5
241
100
AcDbEntity
  8
0
 62
7
100
AcDbPolyline
 90
4
 70
1
 10
81.699022
 20
-116.832962
 30
0.0
 10
81.699022
 20
-115.532483
 30
0.0
 10
84.698759
 20
-115.532483
 30
0.0
 10
84.698759
 20
-116.832962
 30
0.0
  0
LWPOLYLINE
  5
242
100
AcDbEntity
  8
0
 62
7
100
AcDbPolyline
 90
4
 70
1
 10
87.299717
 20
-114.031344
 30
0.0
 10
87.299717
 20
-112.733405
 30
0.0
 10
90.299454
 20
-112.733405
 30
0.0
 10
90.299454
 20
-114.031344
 30
0.0
  0
LWPOLYLINE
  5
243
100
AcDbEntity
  8
0
 62
7
100
AcDbPolyline
 90
4
 70
1
 10
87.299717
 20
-116.832962
 30
0.0
 10
87.299717
 20
-115.532483
 30
0.0
 10
90.299454
 20
-115.532483
 30
0.0
 10
90.299454
 20
-116.832962
 30
0.0
  0
LWPOLYLINE
  5
244
100
AcDbEntity
  8
0
 62
7
100
AcDbPolyline
 90
4
 70
1
 10
92.897872
 20
-114.031344
 30
0.0
 10
92.897872
 20
-112.733405
 30
0.0
 10
95.897609
 20
-112.733405
 30
0.0
 10
95.897609
 20
-114.031344
 30
0.0
  0
LWPOLYLINE
  5
245
100
AcDbEntity
  8
0
 62
7
100
AcDbPolyline
 90
4
 70
1
 10
92.897872
 20
-116.832962
 30
0.0
 10
92.897872
 20
-115.532483
 30
0.0
 10
95.897609
 20
-115.532483
 30
0.0
 10
95.897609
 20
-116.832962
 30
0.0
  0
LWPOLYLINE
  5
246
100
AcDbEntity
  8
0
 62
7
100
AcDbPolyline
 90
4
 70
1
 10
98.498566
 20
-114.031344
 30
0.0
 10
98.498566
 20
-112.733405
 30
0.0
 10
101.498303
 20
-112.733405
 30
0.0
 10
101.498303
 20
-114.031344
 30
0.0
  0
LWPOLYLINE
  5
247
100
AcDbEntity
  8
0
 62
7
100
AcDbPolyline
 90
4
 70
1
 10
98.498566
 20
-116.832962
 30
0.0
 10
98.498566
 20
-115.532483
 30
0.0
 10
101.498303
 20
-115.532483
 30
0.0
 10
101.498303
 20
-116.832962
 30
0.0
  0
LWPOLYLINE
  5
248
100
AcDbEntity
  8
0
 62
7
100
AcDbPolyline
 90
4
 70
1
 10
104.099261
 20
-114.031344
 30
0.0
 10
104.099261
 20
-112.733405
 30
0.0
 10
107.098998
 20
-112.733405
 30
0.0
 10
107.098998
 20
-114.031344
 30
0.0
  0
LWPOLYLINE
  5
249
100
AcDbEntity
  8
0
 62
7
100
AcDbPolyline
 90
4
 70
1
 10
104.099261
 20
-116.832962
 30
0.0
 10
104.099261
 20
-115.532483
 30
0.0
 10
107.098998
 20
-115.532483
 30
0.0
 10
107.098998
 20
-116.832962
 30
0.0
  0
LWPOLYLINE
  5
24a
100
AcDbEntity
  8
0
 62
7
100
AcDbPolyline
 90
4
 70
1
 10
109.697416
 20
-114.031344
 30
0.0
 10
109.697416
 20
-112.733405
 30
0.0
 10
112.699693
 20
-112.733405
 30
0.0
 10
112.699693
 20
-114.031344
 30
0.0
  0
LWPOLYLINE
  5
24b
100
AcDbEntity
  8
0
 62
7
100
AcDbPolyline
 90
4
 70
1
 10
109.697416
 20
-116.832962
 30
0.0
 10
109.697416
 20
-115.532483
 30
0.0
 10
112.699693
 20
-115.532483
 30
0.0
 10
112.699693
 20
-116.832962
 30
0.0
  0
LWPOLYLINE
  5
24c
100
AcDbEntity
  8
0
 62
7
100
AcDbPolyline
 90
4
 70
1
 10
115.298110
 20
-114.031344
 30
0.0
 10
115.298110
 20
-112.733405
 30
0.0
 10
118.297847
 20
-112.733405
 30
0.0
 10
118.297847
 20
-114.031344
 30
0.0
  0
LWPOLYLINE
  5
24d
100
AcDbEntity
  8
0
 62
7
100
AcDbPolyline
 90
4
 70
1
 10
115.298110
 20
-116.832962
 30
0.0
 10
115.298110
 20
-115.532483
 30
0.0
 10
118.297847
 20
-115.532483
 30
0.0
 10
118.297847
 20
-116.832962
 30
0.0
  0
LWPOLYLINE
  5
24e
100
AcDbEntity
  8
0
 62
7
100
AcDbPolyline
 90
4
 70
1
 10
92.897872
 20
-119.632039
 30
0.0
 10
92.897872
 20
-118.331560
 30
0.0
 10
95.897609
 20
-118.331560
 30
0.0
 10
95.897609
 20
-119.632039
 30
0.0
  0
LWPOLYLINE
  5
24f
100
AcDbEntity
  8
0
 62
7
100
AcDbPolyline
 90
4
 70
1
 10
92.897872
 20
-122.433656
 30
0.0
 10
92.897872
 20
-121.133177
 30
0.0
 10
95.897609
 20
-121.133177
 30
0.0
 10
95.897609
 20
-122.433656
 30
0.0
  0
LWPOLYLINE
  5
250
100
AcDbEntity
  8
0
 62
7
100
AcDbPolyline
 90
4
 70
1
 10
98.498566
 20
-119.632039
 30
0.0
 10
98.498566
 20
-118.331560
 30
0.0
 10
101.498303
 20
-118.331560
 30
0.0
 10
101.498303
 20
-119.632039
 30
0.0
  0
LWPOLYLINE
  5
251
100
AcDbEntity
  8
0
 62
7
100
AcDbPolyline
 90
4
 70
1
 10
98.498566
 20
-122.433656
 30
0.0
 10
98.498566
 20
-121.133177
 30
0.0
 10
101.498303
 20
-121.133177
 30
0.0
 10
101.498303
 20
-122.433656
 30
0.0
  0
LWPOLYLINE
  5
252
100
AcDbEntity
  8
0
 62
7
100
AcDbPolyline
 90
4
 70
1
 10
104.099261
 20
-119.632039
 30
0.0
 10
104.099261
 20
-118.331560
 30
0.0
 10
107.098998
 20
-118.331560
 30
0.0
 10
107.098998
 20
-119.632039
 30
0.0
  0
LWPOLYLINE
  5
253
100
AcDbEntity
  8
0
 62
7
100
AcDbPolyline
 90
4
 70
1
 10
104.099261
 20
-122.433656
 30
0.0
 10
104.099261
 20
-121.133177
 30
0.0
 10
107.098998
 20
-121.133177
 30
0.0
 10
107.098998
 20
-122.433656
 30
0.0
  0
LWPOLYLINE
  5
254
100
AcDbEntity
  8
0
 62
7
100
AcDbPolyline
 90
4
 70
1
 10
123.649622
 20
-114.981303
 30
0.0
 10
121.147725
 20
-114.981303
 30
0.0
 10
121.147725
 20
-112.982325
 30
0.0
 10
123.649622
 20
-112.982325
 30
0.0
  0
LWPOLYLINE
  5
255
100
AcDbEntity
  8
0
 62
7
100
AcDbPolyline
 90
4
 70
1
 10
123.649622
 20
-110.983347
 30
0.0
 10
121.147725
 20
-110.983347
 30
0.0
 10
121.147725
 20
-108.981829
 30
0.0
 10
123.649622
 20
-108.981829
 30
0.0
  0
ENDSEC
  0
SECTION
  2
OBJECTS
  0
DICTIONARY
  5
C
330
0
100
AcDbDictionary
  3
ACAD_GROUP
350
D
  3
ACAD_MLINESTYLE
350
17
  0
DICTIONARY
  5
D
330
C
100
AcDbDictionary
  0
DICTIONARY
  5
1A
330
C
100
AcDbDictionary
  0
DICTIONARY
  5
17
330
C
100
AcDbDictionary
  3
STANDARD
350
18
  0
DICTIONARY
  5
19
330
C
100
AcDbDictionary
  0
ENDSEC
  0
EOF
