G04 #@! TF.FileFunction,Soldermask,Top*
%FSLAX46Y46*%
G04 Gerber Fmt 4.6, Leading zero omitted, Abs format (unit mm)*
G04 Created by KiCad (PCBNEW 4.0.7-e2-6376~58~ubuntu16.04.1) date Sat Jul 28 15:13:10 2018*
%MOMM*%
%LPD*%
G01*
G04 APERTURE LIST*
%ADD10C,0.100000*%
%ADD11O,11.400000X5.400000*%
%ADD12C,1.300000*%
%ADD13R,1.400000X2.600000*%
%ADD14R,3.400000X1.700000*%
%ADD15R,2.900000X2.400000*%
%ADD16C,3.600000*%
%ADD17C,2.000000*%
G04 APERTURE END LIST*
D10*
D11*
X100000000Y-71000000D03*
D12*
X104500000Y-71000000D03*
X104000000Y-72250000D03*
X96000000Y-72250000D03*
X95500000Y-71000000D03*
X96000000Y-69750000D03*
X104000000Y-69750000D03*
D13*
X102000000Y-126400000D03*
X104000000Y-126400000D03*
X96000000Y-126400000D03*
X98000000Y-126400000D03*
X102000000Y-131800000D03*
X104000000Y-131800000D03*
X98000000Y-131800000D03*
X96000000Y-131800000D03*
D14*
X94400000Y-76200000D03*
X94400000Y-79000000D03*
X100000000Y-76200000D03*
X100000000Y-79000000D03*
X105600000Y-76200000D03*
X105600000Y-79000000D03*
X83200000Y-81800000D03*
X83200000Y-84600000D03*
X88800000Y-81800000D03*
X88800000Y-84600000D03*
X94400000Y-81800000D03*
X94400000Y-84600000D03*
X100000000Y-81800000D03*
X100000000Y-84600000D03*
X105600000Y-81800000D03*
X105600000Y-84600000D03*
X111200000Y-81800000D03*
X111200000Y-84600000D03*
X116800000Y-81800000D03*
X116800000Y-84600000D03*
X83200000Y-87400000D03*
X83200000Y-90200000D03*
X88800000Y-87400000D03*
X88800000Y-90200000D03*
X94400000Y-87400000D03*
X94400000Y-90200000D03*
X100000000Y-87400000D03*
X100000000Y-90200000D03*
X105600000Y-87400000D03*
X105600000Y-90200000D03*
X111200000Y-87400000D03*
X111200000Y-90200000D03*
X116800000Y-87400000D03*
X116800000Y-90200000D03*
X77600000Y-93000000D03*
X77600000Y-95800000D03*
X83200000Y-93000000D03*
X83200000Y-95800000D03*
X88800000Y-93000000D03*
X88800000Y-95800000D03*
X94400000Y-93000000D03*
X94400000Y-95800000D03*
X100000000Y-93000000D03*
X100000000Y-95800000D03*
X105600000Y-93000000D03*
X105600000Y-95800000D03*
X111200000Y-93000000D03*
X111200000Y-95800000D03*
X116800000Y-93000000D03*
X116800000Y-95800000D03*
X122400000Y-93000000D03*
X122400000Y-95800000D03*
X77600000Y-98600000D03*
X77600000Y-101400000D03*
X83200000Y-98600000D03*
X83200000Y-101400000D03*
X88800000Y-98600000D03*
X88800000Y-101400000D03*
X94400000Y-98600000D03*
X94400000Y-101400000D03*
X100000000Y-98600000D03*
X100000000Y-101400000D03*
X105600000Y-98600000D03*
X105600000Y-101400000D03*
X111200000Y-98600000D03*
X111200000Y-101400000D03*
X116800000Y-98600000D03*
X116800000Y-101400000D03*
X122400000Y-98600000D03*
X122400000Y-101400000D03*
X77600000Y-104200000D03*
X77600000Y-107000000D03*
X83200000Y-104200000D03*
X83200000Y-107000000D03*
X88800000Y-104200000D03*
X88800000Y-107000000D03*
X94400000Y-104200000D03*
X94400000Y-107000000D03*
X100000000Y-104200000D03*
X100000000Y-107000000D03*
X105600000Y-104200000D03*
X105600000Y-107000000D03*
X111200000Y-104200000D03*
X111200000Y-107000000D03*
X116800000Y-104200000D03*
X116800000Y-107000000D03*
X122400000Y-104200000D03*
X122400000Y-107000000D03*
X83200000Y-109800000D03*
X83200000Y-112600000D03*
X88800000Y-109800000D03*
X88800000Y-112600000D03*
X94400000Y-109800000D03*
X94400000Y-112600000D03*
X100000000Y-109800000D03*
X100000000Y-112600000D03*
X105600000Y-109800000D03*
X105600000Y-112600000D03*
X111200000Y-109800000D03*
X111200000Y-112600000D03*
X116800000Y-109800000D03*
X116800000Y-112600000D03*
X83200000Y-115400000D03*
X83200000Y-118200000D03*
X88800000Y-115400000D03*
X88800000Y-118200000D03*
X94400000Y-115400000D03*
X94400000Y-118200000D03*
X100000000Y-115400000D03*
X100000000Y-118200000D03*
X105600000Y-115400000D03*
X105600000Y-118200000D03*
X111200000Y-115400000D03*
X111200000Y-118200000D03*
X116800000Y-115400000D03*
X116800000Y-118200000D03*
X94400000Y-121000000D03*
X94400000Y-123800000D03*
X100000000Y-121000000D03*
X100000000Y-123800000D03*
X105600000Y-121000000D03*
X105600000Y-123800000D03*
D15*
X122400000Y-116000000D03*
X122400000Y-112000000D03*
D16*
X115000000Y-124000000D03*
X85000000Y-124000000D03*
D17*
X76750000Y-110475000D03*
M02*
