G04 #@! TF.GenerationSoftware,KiCad,Pcbnew,5.1.5+dfsg1-2build2*
G04 #@! TF.CreationDate,2021-12-15T11:20:51+01:00*
G04 #@! TF.ProjectId,BitBadge,42697442-6164-4676-952e-6b696361645f,rev?*
G04 #@! TF.SameCoordinates,Original*
G04 #@! TF.FileFunction,Legend,Bot*
G04 #@! TF.FilePolarity,Positive*
%FSLAX46Y46*%
G04 Gerber Fmt 4.6, Leading zero omitted, Abs format (unit mm)*
G04 Created by KiCad (PCBNEW 5.1.5+dfsg1-2build2) date 2021-12-15 11:20:51*
%MOMM*%
%LPD*%
G04 APERTURE LIST*
%ADD10C,0.150000*%
%ADD11C,0.270000*%
%ADD12C,0.010000*%
%ADD13C,0.152400*%
G04 APERTURE END LIST*
D10*
X103819523Y-128422380D02*
X103486190Y-129422380D01*
X103152857Y-128422380D01*
X102295714Y-129422380D02*
X102867142Y-129422380D01*
X102581428Y-129422380D02*
X102581428Y-128422380D01*
X102676666Y-128565238D01*
X102771904Y-128660476D01*
X102867142Y-128708095D01*
X101867142Y-129327142D02*
X101819523Y-129374761D01*
X101867142Y-129422380D01*
X101914761Y-129374761D01*
X101867142Y-129327142D01*
X101867142Y-129422380D01*
X101438571Y-128517619D02*
X101390952Y-128470000D01*
X101295714Y-128422380D01*
X101057619Y-128422380D01*
X100962380Y-128470000D01*
X100914761Y-128517619D01*
X100867142Y-128612857D01*
X100867142Y-128708095D01*
X100914761Y-128850952D01*
X101486190Y-129422380D01*
X100867142Y-129422380D01*
X99724285Y-128517619D02*
X99676666Y-128470000D01*
X99581428Y-128422380D01*
X99343333Y-128422380D01*
X99248095Y-128470000D01*
X99200476Y-128517619D01*
X99152857Y-128612857D01*
X99152857Y-128708095D01*
X99200476Y-128850952D01*
X99771904Y-129422380D01*
X99152857Y-129422380D01*
X98533809Y-128422380D02*
X98438571Y-128422380D01*
X98343333Y-128470000D01*
X98295714Y-128517619D01*
X98248095Y-128612857D01*
X98200476Y-128803333D01*
X98200476Y-129041428D01*
X98248095Y-129231904D01*
X98295714Y-129327142D01*
X98343333Y-129374761D01*
X98438571Y-129422380D01*
X98533809Y-129422380D01*
X98629047Y-129374761D01*
X98676666Y-129327142D01*
X98724285Y-129231904D01*
X98771904Y-129041428D01*
X98771904Y-128803333D01*
X98724285Y-128612857D01*
X98676666Y-128517619D01*
X98629047Y-128470000D01*
X98533809Y-128422380D01*
X97819523Y-128517619D02*
X97771904Y-128470000D01*
X97676666Y-128422380D01*
X97438571Y-128422380D01*
X97343333Y-128470000D01*
X97295714Y-128517619D01*
X97248095Y-128612857D01*
X97248095Y-128708095D01*
X97295714Y-128850952D01*
X97867142Y-129422380D01*
X97248095Y-129422380D01*
X96295714Y-129422380D02*
X96867142Y-129422380D01*
X96581428Y-129422380D02*
X96581428Y-128422380D01*
X96676666Y-128565238D01*
X96771904Y-128660476D01*
X96867142Y-128708095D01*
D11*
X112385714Y-113319047D02*
X111980952Y-115019047D01*
X111657142Y-113804761D01*
X111333333Y-115019047D01*
X110928571Y-113319047D01*
X110442857Y-113319047D02*
X110038095Y-115019047D01*
X109714285Y-113804761D01*
X109390476Y-115019047D01*
X108985714Y-113319047D01*
X108500000Y-113319047D02*
X108095238Y-115019047D01*
X107771428Y-113804761D01*
X107447619Y-115019047D01*
X107042857Y-113319047D01*
X106395238Y-114857142D02*
X106314285Y-114938095D01*
X106395238Y-115019047D01*
X106476190Y-114938095D01*
X106395238Y-114857142D01*
X106395238Y-115019047D01*
X104695238Y-113400000D02*
X104857142Y-113319047D01*
X105100000Y-113319047D01*
X105342857Y-113400000D01*
X105504761Y-113561904D01*
X105585714Y-113723809D01*
X105666666Y-114047619D01*
X105666666Y-114290476D01*
X105585714Y-114614285D01*
X105504761Y-114776190D01*
X105342857Y-114938095D01*
X105100000Y-115019047D01*
X104938095Y-115019047D01*
X104695238Y-114938095D01*
X104614285Y-114857142D01*
X104614285Y-114290476D01*
X104938095Y-114290476D01*
X103966666Y-114533333D02*
X103157142Y-114533333D01*
X104128571Y-115019047D02*
X103561904Y-113319047D01*
X102995238Y-115019047D01*
X102428571Y-113319047D02*
X102428571Y-114695238D01*
X102347619Y-114857142D01*
X102266666Y-114938095D01*
X102104761Y-115019047D01*
X101780952Y-115019047D01*
X101619047Y-114938095D01*
X101538095Y-114857142D01*
X101457142Y-114695238D01*
X101457142Y-113319047D01*
X100647619Y-115019047D02*
X100647619Y-113319047D01*
X100242857Y-113319047D01*
X100000000Y-113400000D01*
X99838095Y-113561904D01*
X99757142Y-113723809D01*
X99676190Y-114047619D01*
X99676190Y-114290476D01*
X99757142Y-114614285D01*
X99838095Y-114776190D01*
X100000000Y-114938095D01*
X100242857Y-115019047D01*
X100647619Y-115019047D01*
X98947619Y-115019047D02*
X98947619Y-113319047D01*
X98219047Y-114938095D02*
X97976190Y-115019047D01*
X97571428Y-115019047D01*
X97409523Y-114938095D01*
X97328571Y-114857142D01*
X97247619Y-114695238D01*
X97247619Y-114533333D01*
X97328571Y-114371428D01*
X97409523Y-114290476D01*
X97571428Y-114209523D01*
X97895238Y-114128571D01*
X98057142Y-114047619D01*
X98138095Y-113966666D01*
X98219047Y-113804761D01*
X98219047Y-113642857D01*
X98138095Y-113480952D01*
X98057142Y-113400000D01*
X97895238Y-113319047D01*
X97490476Y-113319047D01*
X97247619Y-113400000D01*
X96519047Y-115019047D02*
X96519047Y-113319047D01*
X96519047Y-114128571D02*
X95547619Y-114128571D01*
X95547619Y-115019047D02*
X95547619Y-113319047D01*
X94414285Y-113319047D02*
X94090476Y-113319047D01*
X93928571Y-113400000D01*
X93766666Y-113561904D01*
X93685714Y-113885714D01*
X93685714Y-114452380D01*
X93766666Y-114776190D01*
X93928571Y-114938095D01*
X94090476Y-115019047D01*
X94414285Y-115019047D01*
X94576190Y-114938095D01*
X94738095Y-114776190D01*
X94819047Y-114452380D01*
X94819047Y-113885714D01*
X94738095Y-113561904D01*
X94576190Y-113400000D01*
X94414285Y-113319047D01*
X92957142Y-115019047D02*
X92957142Y-113319047D01*
X92309523Y-113319047D01*
X92147619Y-113400000D01*
X92066666Y-113480952D01*
X91985714Y-113642857D01*
X91985714Y-113885714D01*
X92066666Y-114047619D01*
X92147619Y-114128571D01*
X92309523Y-114209523D01*
X92957142Y-114209523D01*
X91257142Y-114857142D02*
X91176190Y-114938095D01*
X91257142Y-115019047D01*
X91338095Y-114938095D01*
X91257142Y-114857142D01*
X91257142Y-115019047D01*
X89476190Y-114857142D02*
X89557142Y-114938095D01*
X89800000Y-115019047D01*
X89961904Y-115019047D01*
X90204761Y-114938095D01*
X90366666Y-114776190D01*
X90447619Y-114614285D01*
X90528571Y-114290476D01*
X90528571Y-114047619D01*
X90447619Y-113723809D01*
X90366666Y-113561904D01*
X90204761Y-113400000D01*
X89961904Y-113319047D01*
X89800000Y-113319047D01*
X89557142Y-113400000D01*
X89476190Y-113480952D01*
X88747619Y-115019047D02*
X88747619Y-113319047D01*
X88747619Y-114128571D02*
X87776190Y-114128571D01*
X87776190Y-115019047D02*
X87776190Y-113319047D01*
D10*
X89000000Y-108000000D02*
X110000000Y-108000000D01*
X89000000Y-92000000D02*
X111000000Y-92000000D01*
X89000000Y-108000000D02*
X89000000Y-92000000D01*
X111000000Y-107000000D02*
X111000000Y-92000000D01*
X111000000Y-107000000D02*
X110000000Y-108000000D01*
X111000000Y-100000000D02*
G75*
G03X111000000Y-100000000I-11000000J0D01*
G01*
X84000000Y-103000000D02*
X89000000Y-103000000D01*
X84000000Y-102000000D02*
X84000000Y-103000000D01*
X84000000Y-97000000D02*
X89000000Y-97000000D01*
X84000000Y-98000000D02*
X84000000Y-97000000D01*
X116000000Y-103000000D02*
X116000000Y-102000000D01*
X111000000Y-103000000D02*
X116000000Y-103000000D01*
X116000000Y-97000000D02*
X111000000Y-97000000D01*
X116000000Y-98000000D02*
X116000000Y-97000000D01*
X110000000Y-93500000D02*
X110000000Y-92500000D01*
X110250000Y-93000000D02*
X110500000Y-93000000D01*
X109500000Y-93000000D02*
X110250000Y-93000000D01*
X89500000Y-93000000D02*
X90500000Y-93000000D01*
D12*
G36*
X84648514Y-77486512D02*
G01*
X84566983Y-77492329D01*
X84511422Y-77504776D01*
X84470174Y-77524725D01*
X84431577Y-77553045D01*
X84428959Y-77555134D01*
X84346168Y-77629313D01*
X84287907Y-77707065D01*
X84250952Y-77801808D01*
X84232075Y-77926961D01*
X84228051Y-78095942D01*
X84235653Y-78322170D01*
X84237150Y-78352911D01*
X84251751Y-78599951D01*
X84269596Y-78786268D01*
X84293684Y-78923813D01*
X84327015Y-79024537D01*
X84372590Y-79100392D01*
X84433408Y-79163330D01*
X84442549Y-79171152D01*
X84550491Y-79261978D01*
X84475874Y-79408239D01*
X84447483Y-79468777D01*
X84428358Y-79528935D01*
X84417618Y-79602466D01*
X84414377Y-79703120D01*
X84417753Y-79844650D01*
X84426863Y-80040806D01*
X84430607Y-80112845D01*
X84444884Y-80361979D01*
X84463986Y-80556969D01*
X84496259Y-80705115D01*
X84550047Y-80813718D01*
X84633696Y-80890080D01*
X84755552Y-80941500D01*
X84923960Y-80975279D01*
X85147266Y-80998718D01*
X85433815Y-81019117D01*
X85469265Y-81021470D01*
X85690052Y-81037465D01*
X85885869Y-81054203D01*
X86045196Y-81070490D01*
X86156511Y-81085133D01*
X86208294Y-81096938D01*
X86210055Y-81098204D01*
X86189981Y-81109220D01*
X86112563Y-81112846D01*
X85992796Y-81108667D01*
X85946781Y-81105522D01*
X85605275Y-81080712D01*
X85328189Y-81063410D01*
X85107664Y-81053582D01*
X84935836Y-81051192D01*
X84804846Y-81056203D01*
X84706830Y-81068580D01*
X84633929Y-81088287D01*
X84607489Y-81099410D01*
X84521588Y-81147384D01*
X84458581Y-81205404D01*
X84415027Y-81284830D01*
X84387485Y-81397023D01*
X84372512Y-81553343D01*
X84366668Y-81765153D01*
X84366094Y-81896330D01*
X84368503Y-82169439D01*
X84380956Y-82384386D01*
X84411298Y-82548742D01*
X84467372Y-82670080D01*
X84557021Y-82755970D01*
X84688089Y-82813986D01*
X84868418Y-82851699D01*
X85105853Y-82876680D01*
X85401717Y-82896120D01*
X85648518Y-82910635D01*
X85945462Y-82928148D01*
X86270147Y-82947336D01*
X86600169Y-82966875D01*
X86913126Y-82985439D01*
X87005101Y-82990903D01*
X87306304Y-83008187D01*
X87544195Y-83019597D01*
X87727957Y-83024376D01*
X87866774Y-83021764D01*
X87969828Y-83011003D01*
X88046303Y-82991333D01*
X88105382Y-82961996D01*
X88156248Y-82922232D01*
X88186426Y-82893273D01*
X88266884Y-82812815D01*
X88508092Y-82944727D01*
X88981151Y-83162806D01*
X89488233Y-83320001D01*
X90020537Y-83414147D01*
X90533040Y-83443219D01*
X90772413Y-83439545D01*
X90961324Y-83427043D01*
X91121684Y-83403489D01*
X91268396Y-83368613D01*
X91654655Y-83227801D01*
X91994964Y-83033191D01*
X92286292Y-82787145D01*
X92525608Y-82492025D01*
X92638825Y-82300376D01*
X92789411Y-82011468D01*
X92925333Y-82290078D01*
X93142171Y-82652893D01*
X93415983Y-82973220D01*
X93740853Y-83244994D01*
X94027676Y-83420309D01*
X94249956Y-83529156D01*
X94461628Y-83613293D01*
X94686087Y-83680182D01*
X94946729Y-83737284D01*
X95116829Y-83767703D01*
X95315323Y-83797734D01*
X95550613Y-83827796D01*
X95809545Y-83856759D01*
X96078964Y-83883492D01*
X96345713Y-83906862D01*
X96596638Y-83925739D01*
X96818583Y-83938992D01*
X96998393Y-83945489D01*
X97122913Y-83944099D01*
X97145770Y-83942177D01*
X97264855Y-83938086D01*
X97363376Y-83950549D01*
X97391344Y-83960711D01*
X97457417Y-83979848D01*
X97580903Y-84001587D01*
X97746665Y-84024312D01*
X97939562Y-84046405D01*
X98144456Y-84066251D01*
X98346208Y-84082232D01*
X98529678Y-84092732D01*
X98659499Y-84096137D01*
X98795158Y-84094158D01*
X98882779Y-84081419D01*
X98946944Y-84050060D01*
X99012232Y-83992221D01*
X99025203Y-83979199D01*
X99126726Y-83837271D01*
X99213613Y-83635404D01*
X99223622Y-83604996D01*
X99305250Y-83348890D01*
X99766359Y-83395881D01*
X99977176Y-83417945D01*
X100126261Y-83435877D01*
X100224245Y-83452255D01*
X100281760Y-83469660D01*
X100309440Y-83490672D01*
X100317915Y-83517871D01*
X100318312Y-83529818D01*
X100330704Y-83586044D01*
X100363767Y-83690797D01*
X100411330Y-83825067D01*
X100432091Y-83880317D01*
X100490126Y-84026363D01*
X100536709Y-84120485D01*
X100584022Y-84179482D01*
X100644249Y-84220155D01*
X100696469Y-84244891D01*
X100830650Y-84286769D01*
X101025716Y-84323134D01*
X101269993Y-84352584D01*
X101551808Y-84373715D01*
X101859486Y-84385125D01*
X101864452Y-84385219D01*
X102211445Y-84391687D01*
X102336838Y-84266294D01*
X102410730Y-84181160D01*
X102455780Y-84107583D01*
X102462232Y-84082761D01*
X102470532Y-84035757D01*
X102502869Y-84033854D01*
X102570397Y-84079561D01*
X102616601Y-84117477D01*
X102766000Y-84221638D01*
X102964392Y-84328778D01*
X103189539Y-84427467D01*
X103297180Y-84467300D01*
X103392619Y-84491017D01*
X103549617Y-84518937D01*
X103757264Y-84549801D01*
X104004650Y-84582347D01*
X104280865Y-84615315D01*
X104574998Y-84647444D01*
X104876139Y-84677473D01*
X105173378Y-84704141D01*
X105455806Y-84726188D01*
X105644233Y-84738515D01*
X105865400Y-84744614D01*
X106029602Y-84729946D01*
X106150693Y-84690051D01*
X106242530Y-84620471D01*
X106315491Y-84522499D01*
X106332526Y-84491548D01*
X106346598Y-84455203D01*
X106357988Y-84406655D01*
X106366981Y-84339094D01*
X106373859Y-84245710D01*
X106378905Y-84119694D01*
X106382402Y-83954236D01*
X106384634Y-83742527D01*
X106385882Y-83477756D01*
X106386431Y-83153115D01*
X106386559Y-82812350D01*
X106386695Y-81218535D01*
X106504792Y-81239385D01*
X106595119Y-81251656D01*
X106733020Y-81266208D01*
X106893556Y-81280490D01*
X106949928Y-81284912D01*
X107102061Y-81296740D01*
X107230071Y-81307331D01*
X107314018Y-81315007D01*
X107331473Y-81316978D01*
X107344568Y-81326347D01*
X107355669Y-81354597D01*
X107365039Y-81407709D01*
X107372941Y-81491664D01*
X107379635Y-81612440D01*
X107385384Y-81776018D01*
X107390451Y-81988378D01*
X107395096Y-82255501D01*
X107399582Y-82583365D01*
X107404149Y-82975924D01*
X107408670Y-83368749D01*
X107413022Y-83695436D01*
X107417509Y-83962518D01*
X107422440Y-84176531D01*
X107428120Y-84344008D01*
X107434856Y-84471486D01*
X107442956Y-84565498D01*
X107452726Y-84632579D01*
X107464472Y-84679263D01*
X107478502Y-84712087D01*
X107486251Y-84725009D01*
X107537114Y-84789844D01*
X107601346Y-84840961D01*
X107689422Y-84881442D01*
X107811819Y-84914366D01*
X107979014Y-84942816D01*
X108201483Y-84969872D01*
X108381276Y-84988228D01*
X108610234Y-85010127D01*
X108779364Y-85024462D01*
X108901125Y-85031176D01*
X108987977Y-85030209D01*
X109052379Y-85021504D01*
X109106788Y-85005002D01*
X109154904Y-84984614D01*
X109299166Y-84883062D01*
X109369078Y-84782423D01*
X109386029Y-84745705D01*
X109400006Y-84703570D01*
X109411294Y-84649058D01*
X109420179Y-84575209D01*
X109426945Y-84475063D01*
X109431879Y-84341662D01*
X109435265Y-84168045D01*
X109437389Y-83947252D01*
X109438537Y-83672324D01*
X109438994Y-83336302D01*
X109439056Y-83076065D01*
X109439056Y-81506875D01*
X109738841Y-81531449D01*
X109909078Y-81546193D01*
X110078451Y-81562157D01*
X110212942Y-81576120D01*
X110223615Y-81577335D01*
X110408603Y-81598646D01*
X110432495Y-82766211D01*
X110438563Y-83078580D01*
X110444068Y-83392368D01*
X110448806Y-83693532D01*
X110452573Y-83968032D01*
X110455166Y-84201828D01*
X110456382Y-84380877D01*
X110456448Y-84418728D01*
X110458050Y-84630433D01*
X110467565Y-84801023D01*
X110492151Y-84935468D01*
X110538962Y-85038735D01*
X110615155Y-85115794D01*
X110727885Y-85171611D01*
X110884307Y-85211155D01*
X111091577Y-85239396D01*
X111356852Y-85261300D01*
X111687286Y-85281837D01*
X111700687Y-85282625D01*
X111918257Y-85291024D01*
X112074210Y-85286323D01*
X112178493Y-85268079D01*
X112200008Y-85260393D01*
X112322748Y-85172764D01*
X112410861Y-85035730D01*
X112453034Y-84868722D01*
X112455079Y-84822303D01*
X112455079Y-84665616D01*
X112581814Y-84813678D01*
X112777183Y-84997620D01*
X113027686Y-85164603D01*
X113316201Y-85305483D01*
X113625606Y-85411114D01*
X113760771Y-85443412D01*
X113867772Y-85460866D01*
X114034097Y-85482202D01*
X114246577Y-85506177D01*
X114492041Y-85531547D01*
X114757320Y-85557069D01*
X115029244Y-85581499D01*
X115294642Y-85603596D01*
X115540346Y-85622114D01*
X115753185Y-85635811D01*
X115852647Y-85640892D01*
X116081736Y-85647255D01*
X116244583Y-85642706D01*
X116346836Y-85626985D01*
X116373169Y-85616939D01*
X116443710Y-85557053D01*
X116513207Y-85462583D01*
X116527604Y-85436473D01*
X116541654Y-85406328D01*
X116553689Y-85371442D01*
X116563864Y-85326286D01*
X116572335Y-85265331D01*
X116579257Y-85183050D01*
X116584787Y-85073913D01*
X116589079Y-84932391D01*
X116592289Y-84752957D01*
X116594574Y-84530081D01*
X116596088Y-84258236D01*
X116596987Y-83931891D01*
X116597427Y-83545520D01*
X116597563Y-83093592D01*
X116597568Y-82950630D01*
X116597428Y-82475368D01*
X116597030Y-82155090D01*
X116373502Y-82155090D01*
X116372645Y-82624594D01*
X116371254Y-83002468D01*
X116369168Y-83467155D01*
X116367113Y-83864630D01*
X116364905Y-84200355D01*
X116362361Y-84479791D01*
X116359299Y-84708402D01*
X116355535Y-84891649D01*
X116350887Y-85034994D01*
X116345172Y-85143901D01*
X116338207Y-85223832D01*
X116329809Y-85280247D01*
X116319795Y-85318611D01*
X116307982Y-85344385D01*
X116294188Y-85363031D01*
X116292151Y-85365315D01*
X116262114Y-85393194D01*
X116223578Y-85414465D01*
X116169353Y-85428975D01*
X116092255Y-85436572D01*
X115985095Y-85437107D01*
X115840686Y-85430427D01*
X115651842Y-85416381D01*
X115411376Y-85394817D01*
X115112100Y-85365584D01*
X114798855Y-85333852D01*
X114468816Y-85299395D01*
X114200870Y-85269102D01*
X113984712Y-85240842D01*
X113810034Y-85212485D01*
X113666529Y-85181898D01*
X113543888Y-85146952D01*
X113431806Y-85105513D01*
X113319974Y-85055452D01*
X113225105Y-85008446D01*
X112974963Y-84856483D01*
X112779620Y-84677658D01*
X112621926Y-84455345D01*
X112584504Y-84387472D01*
X112498035Y-84234186D01*
X112429295Y-84142441D01*
X112370675Y-84105663D01*
X112314562Y-84117278D01*
X112291097Y-84134017D01*
X112264240Y-84175804D01*
X112247404Y-84255559D01*
X112238929Y-84385591D01*
X112237053Y-84534825D01*
X112235249Y-84725316D01*
X112227345Y-84857016D01*
X112209600Y-84943770D01*
X112178273Y-84999424D01*
X112129623Y-85037824D01*
X112096383Y-85055497D01*
X112019049Y-85071635D01*
X111887864Y-85076490D01*
X111718301Y-85071621D01*
X111525833Y-85058589D01*
X111325933Y-85038953D01*
X111134072Y-85014274D01*
X110965725Y-84986110D01*
X110836364Y-84956023D01*
X110761461Y-84925571D01*
X110755065Y-84920279D01*
X110740528Y-84900346D01*
X110728066Y-84867746D01*
X110717342Y-84816317D01*
X110708022Y-84739897D01*
X110699770Y-84632324D01*
X110692251Y-84487437D01*
X110685130Y-84299074D01*
X110678072Y-84061074D01*
X110670742Y-83767275D01*
X110662804Y-83411515D01*
X110656366Y-83105926D01*
X110620029Y-81353805D01*
X110438340Y-81351310D01*
X110334222Y-81348286D01*
X110177171Y-81341764D01*
X109986797Y-81332639D01*
X109782711Y-81321810D01*
X109738841Y-81319340D01*
X109221030Y-81289864D01*
X109221030Y-82906183D01*
X109220135Y-83338830D01*
X109217488Y-83714159D01*
X109213149Y-84029498D01*
X109207176Y-84282176D01*
X109199629Y-84469521D01*
X109190567Y-84588862D01*
X109182884Y-84631929D01*
X109137161Y-84720159D01*
X109065794Y-84775660D01*
X108956883Y-84801910D01*
X108798531Y-84802389D01*
X108646719Y-84788672D01*
X108471590Y-84770982D01*
X108295443Y-84756571D01*
X108151683Y-84748110D01*
X108130901Y-84747399D01*
X107930222Y-84725358D01*
X107775106Y-84674277D01*
X107676316Y-84598103D01*
X107661437Y-84575150D01*
X107650528Y-84519002D01*
X107641387Y-84394184D01*
X107633997Y-84200000D01*
X107628344Y-83935753D01*
X107624410Y-83600748D01*
X107622179Y-83194287D01*
X107621618Y-82855121D01*
X107620903Y-82515104D01*
X107619076Y-82196864D01*
X107616266Y-81907888D01*
X107612597Y-81655664D01*
X107608197Y-81447678D01*
X107603191Y-81291417D01*
X107597707Y-81194367D01*
X107593070Y-81164407D01*
X107550712Y-81148047D01*
X107449718Y-81126805D01*
X107303817Y-81102485D01*
X107126741Y-81076893D01*
X106932217Y-81051835D01*
X106733978Y-81029116D01*
X106545754Y-81010542D01*
X106381273Y-80997917D01*
X106295851Y-80993826D01*
X106186838Y-80990429D01*
X106167954Y-84383285D01*
X106072567Y-84458316D01*
X105969207Y-84512521D01*
X105863984Y-84534120D01*
X105743883Y-84530415D01*
X105565514Y-84519051D01*
X105342717Y-84501424D01*
X105089333Y-84478927D01*
X104819202Y-84452956D01*
X104546165Y-84424905D01*
X104284063Y-84396168D01*
X104046737Y-84368141D01*
X103848026Y-84342217D01*
X103701772Y-84319792D01*
X103661373Y-84312179D01*
X103277416Y-84207000D01*
X102953611Y-84062038D01*
X102688918Y-83876712D01*
X102489784Y-83660732D01*
X102389511Y-83553724D01*
X102304304Y-83514713D01*
X102243229Y-83539266D01*
X102215357Y-83622953D01*
X102229753Y-83761343D01*
X102235677Y-83784904D01*
X102252038Y-83945744D01*
X102206604Y-84070798D01*
X102100399Y-84157279D01*
X102098516Y-84158188D01*
X102019329Y-84173990D01*
X101885088Y-84178207D01*
X101712201Y-84172470D01*
X101517077Y-84158412D01*
X101316125Y-84137665D01*
X101125754Y-84111861D01*
X100962373Y-84082632D01*
X100842390Y-84051610D01*
X100790701Y-84028111D01*
X100728138Y-83957526D01*
X100662006Y-83829945D01*
X100588606Y-83638157D01*
X100584314Y-83625688D01*
X100531975Y-83478530D01*
X100485332Y-83357476D01*
X100450944Y-83279054D01*
X100438964Y-83259380D01*
X100393102Y-83245510D01*
X100289584Y-83228388D01*
X100143282Y-83209424D01*
X99969064Y-83190026D01*
X99781801Y-83171605D01*
X99596363Y-83155568D01*
X99427620Y-83143325D01*
X99290443Y-83136284D01*
X99199701Y-83135856D01*
X99173444Y-83139466D01*
X99138965Y-83181756D01*
X99093425Y-83276824D01*
X99044682Y-83407281D01*
X99025877Y-83466037D01*
X98972348Y-83630901D01*
X98920084Y-83746164D01*
X98855619Y-83819694D01*
X98765486Y-83859358D01*
X98636216Y-83873022D01*
X98454343Y-83868554D01*
X98347284Y-83862454D01*
X98051769Y-83841353D01*
X97821502Y-83817263D01*
X97649071Y-83788878D01*
X97527069Y-83754894D01*
X97448086Y-83714005D01*
X97433012Y-83701460D01*
X97376874Y-83657366D01*
X97323963Y-83651150D01*
X97241986Y-83680300D01*
X97229614Y-83685643D01*
X97123820Y-83717044D01*
X96988347Y-83727183D01*
X96829900Y-83720221D01*
X96471111Y-83692489D01*
X96173485Y-83668054D01*
X95925650Y-83645668D01*
X95716234Y-83624085D01*
X95533868Y-83602055D01*
X95367179Y-83578333D01*
X95204797Y-83551669D01*
X95067525Y-83526856D01*
X94843013Y-83482574D01*
X94668521Y-83440921D01*
X94522033Y-83394912D01*
X94381530Y-83337566D01*
X94224997Y-83261897D01*
X94213076Y-83255839D01*
X93874978Y-83047176D01*
X93572153Y-82787595D01*
X93313940Y-82487858D01*
X93109679Y-82158731D01*
X92973768Y-81827542D01*
X92907241Y-81652168D01*
X92839851Y-81547550D01*
X92773716Y-81513977D01*
X92710949Y-81551735D01*
X92653668Y-81661114D01*
X92618278Y-81779182D01*
X92553425Y-81964344D01*
X92449844Y-82173306D01*
X92322308Y-82380682D01*
X92185592Y-82561084D01*
X92125134Y-82626578D01*
X91920437Y-82797058D01*
X91668520Y-82953805D01*
X91394833Y-83082580D01*
X91180256Y-83155096D01*
X90908640Y-83204892D01*
X90590410Y-83223073D01*
X90243735Y-83210964D01*
X89886783Y-83169887D01*
X89537723Y-83101169D01*
X89235336Y-83013348D01*
X89105808Y-82963409D01*
X88948680Y-82895220D01*
X88781143Y-82817160D01*
X88620383Y-82737610D01*
X88483590Y-82664950D01*
X88387953Y-82607558D01*
X88360587Y-82586890D01*
X88264916Y-82538031D01*
X88166646Y-82544535D01*
X88091449Y-82603033D01*
X88080020Y-82623700D01*
X88016801Y-82713530D01*
X87956090Y-82766345D01*
X87937773Y-82778143D01*
X87918581Y-82787957D01*
X87892849Y-82795610D01*
X87854915Y-82800921D01*
X87799114Y-82803712D01*
X87719785Y-82803805D01*
X87611263Y-82801020D01*
X87467885Y-82795179D01*
X87283988Y-82786103D01*
X87053909Y-82773612D01*
X86771984Y-82757529D01*
X86432551Y-82737675D01*
X86029945Y-82713870D01*
X85728755Y-82696020D01*
X85415859Y-82678032D01*
X85167593Y-82662092D01*
X84976233Y-82643413D01*
X84834055Y-82617210D01*
X84733336Y-82578695D01*
X84666352Y-82523082D01*
X84625380Y-82445585D01*
X84602696Y-82341418D01*
X84590577Y-82205793D01*
X84581299Y-82033924D01*
X84578424Y-81983141D01*
X84566648Y-81767289D01*
X84564814Y-81598437D01*
X84580452Y-81471395D01*
X84621090Y-81380976D01*
X84694259Y-81321991D01*
X84807488Y-81289252D01*
X84968306Y-81277570D01*
X85184243Y-81281758D01*
X85462829Y-81296626D01*
X85565829Y-81302756D01*
X85838953Y-81318638D01*
X86048070Y-81328127D01*
X86201724Y-81329027D01*
X86308463Y-81319145D01*
X86376832Y-81296286D01*
X86415376Y-81258256D01*
X86432642Y-81202860D01*
X86437176Y-81127904D01*
X86437339Y-81078968D01*
X86431320Y-80972697D01*
X86416025Y-80900222D01*
X86405785Y-80884372D01*
X86358691Y-80874416D01*
X86253267Y-80861590D01*
X86103746Y-80847018D01*
X85924366Y-80831823D01*
X85729359Y-80817128D01*
X85532963Y-80804056D01*
X85349410Y-80793730D01*
X85192937Y-80787272D01*
X85165522Y-80786529D01*
X84964790Y-80768420D01*
X84823883Y-80722708D01*
X84733932Y-80645512D01*
X84701061Y-80583344D01*
X84684609Y-80508031D01*
X84668456Y-80378328D01*
X84654470Y-80212502D01*
X84644588Y-80030620D01*
X84626760Y-79579537D01*
X84734638Y-79471659D01*
X84798927Y-79412647D01*
X84857138Y-79382880D01*
X84934772Y-79375782D01*
X85057329Y-79384774D01*
X85067610Y-79385774D01*
X85189160Y-79395757D01*
X85361917Y-79407457D01*
X85564476Y-79419534D01*
X85775434Y-79430647D01*
X85813039Y-79432461D01*
X86333373Y-79457155D01*
X86321765Y-79315351D01*
X86310157Y-79173548D01*
X85528898Y-79127416D01*
X85293464Y-79112191D01*
X85078892Y-79095823D01*
X84897127Y-79079422D01*
X84760117Y-79064100D01*
X84679808Y-79050968D01*
X84667802Y-79047311D01*
X84598770Y-79007007D01*
X84547680Y-78945991D01*
X84511038Y-78853046D01*
X84485347Y-78716952D01*
X84467114Y-78526491D01*
X84457881Y-78373526D01*
X84448361Y-78179286D01*
X84444625Y-78043283D01*
X84448086Y-77951209D01*
X84460153Y-77888758D01*
X84482238Y-77841622D01*
X84514775Y-77796737D01*
X84596429Y-77692931D01*
X85253436Y-77716650D01*
X85579029Y-77729650D01*
X85910200Y-77745153D01*
X86238358Y-77762560D01*
X86554913Y-77781275D01*
X86851274Y-77800702D01*
X87118850Y-77820242D01*
X87349051Y-77839301D01*
X87533286Y-77857279D01*
X87662963Y-77873582D01*
X87729493Y-77887611D01*
X87732395Y-77888892D01*
X87807630Y-77952063D01*
X87850836Y-78017199D01*
X87863493Y-78078045D01*
X87877371Y-78202787D01*
X87891844Y-78382670D01*
X87906284Y-78608937D01*
X87920064Y-78872834D01*
X87931907Y-79148758D01*
X87943571Y-79419663D01*
X87956466Y-79667179D01*
X87969919Y-79881794D01*
X87983260Y-80053996D01*
X87995816Y-80174274D01*
X88006917Y-80233115D01*
X88008689Y-80236423D01*
X88078905Y-80279741D01*
X88160013Y-80254622D01*
X88245914Y-80163289D01*
X88257823Y-80145579D01*
X88313718Y-80066928D01*
X88366788Y-80026502D01*
X88443633Y-80011778D01*
X88545528Y-80010107D01*
X88653323Y-80013390D01*
X88814709Y-80021877D01*
X89010880Y-80034421D01*
X89223031Y-80049877D01*
X89308011Y-80056606D01*
X89613472Y-80081017D01*
X89854498Y-80102206D01*
X90038888Y-80124943D01*
X90174441Y-80153997D01*
X90268958Y-80194137D01*
X90330236Y-80250133D01*
X90366076Y-80326755D01*
X90384277Y-80428773D01*
X90392638Y-80560955D01*
X90398772Y-80723648D01*
X90403552Y-80903656D01*
X90402692Y-81062789D01*
X90396619Y-81183858D01*
X90385759Y-81249675D01*
X90385680Y-81249870D01*
X90313620Y-81337869D01*
X90182651Y-81390312D01*
X89989984Y-81408293D01*
X89982435Y-81408312D01*
X89853971Y-81415814D01*
X89781843Y-81447937D01*
X89750431Y-81519110D01*
X89744063Y-81628472D01*
X89765013Y-81724992D01*
X89832637Y-81791738D01*
X89954098Y-81832173D01*
X90136559Y-81849758D01*
X90204636Y-81851099D01*
X90472468Y-81831702D01*
X90686634Y-81766653D01*
X90851773Y-81651775D01*
X90972522Y-81482893D01*
X91053519Y-81255832D01*
X91089808Y-81054125D01*
X91105500Y-80792830D01*
X91105169Y-80786864D01*
X90876267Y-80786864D01*
X90858765Y-81064154D01*
X90804599Y-81282101D01*
X90711281Y-81445503D01*
X90576322Y-81559154D01*
X90446833Y-81614460D01*
X90327481Y-81648160D01*
X90274404Y-81655367D01*
X90285980Y-81635495D01*
X90360584Y-81587959D01*
X90365429Y-81585142D01*
X90456171Y-81526082D01*
X90522154Y-81461803D01*
X90567234Y-81379999D01*
X90595263Y-81268366D01*
X90610095Y-81114600D01*
X90615583Y-80906396D01*
X90616030Y-80784965D01*
X90612146Y-80521198D01*
X90595004Y-80317849D01*
X90556135Y-80166211D01*
X90487071Y-80057577D01*
X90379345Y-79983242D01*
X90224489Y-79934500D01*
X90014034Y-79902643D01*
X89739512Y-79878967D01*
X89734470Y-79878601D01*
X89538588Y-79863089D01*
X89360417Y-79846557D01*
X89216643Y-79830724D01*
X89123950Y-79817311D01*
X89109197Y-79814166D01*
X89065208Y-79791571D01*
X89074591Y-79777196D01*
X88250099Y-79777196D01*
X88244076Y-79832581D01*
X88217883Y-79845794D01*
X88191691Y-79814453D01*
X88182101Y-79745865D01*
X88187527Y-79682426D01*
X88206323Y-79684344D01*
X88217883Y-79700443D01*
X88250099Y-79777196D01*
X89074591Y-79777196D01*
X89082820Y-79764589D01*
X89151284Y-79735721D01*
X89259852Y-79707469D01*
X89397778Y-79682333D01*
X89554312Y-79662816D01*
X89718708Y-79651417D01*
X89816738Y-79649515D01*
X89990142Y-79652470D01*
X90114136Y-79663309D01*
X90211893Y-79686237D01*
X90306587Y-79725455D01*
X90346905Y-79745667D01*
X90552414Y-79882678D01*
X90705030Y-80057157D01*
X90807724Y-80274948D01*
X90863468Y-80541896D01*
X90876267Y-80786864D01*
X91105169Y-80786864D01*
X91090673Y-80526205D01*
X91048210Y-80277425D01*
X90980996Y-80069666D01*
X90962392Y-80030226D01*
X90809575Y-79805879D01*
X90608064Y-79630661D01*
X90363831Y-79505813D01*
X90082847Y-79432576D01*
X89771087Y-79412192D01*
X89434521Y-79445903D01*
X89079122Y-79534948D01*
X88895871Y-79600749D01*
X88753395Y-79655334D01*
X88659642Y-79684351D01*
X88596452Y-79690652D01*
X88545661Y-79677091D01*
X88513867Y-79660767D01*
X88443466Y-79611763D01*
X88392989Y-79548165D01*
X88359292Y-79458008D01*
X88339231Y-79329330D01*
X88329662Y-79150167D01*
X88327431Y-78951338D01*
X88329359Y-78724592D01*
X88340866Y-78557781D01*
X88369657Y-78438190D01*
X88423436Y-78353102D01*
X88509907Y-78289802D01*
X88636775Y-78235574D01*
X88792461Y-78183826D01*
X88908683Y-78148106D01*
X89009059Y-78122083D01*
X89108460Y-78104282D01*
X89221760Y-78093223D01*
X89363831Y-78087430D01*
X89549546Y-78085425D01*
X89780400Y-78085686D01*
X90076908Y-78089252D01*
X90317105Y-78099857D01*
X90517256Y-78120695D01*
X90693622Y-78154962D01*
X90862469Y-78205852D01*
X91040059Y-78276562D01*
X91242655Y-78370286D01*
X91252074Y-78374832D01*
X91630781Y-78595134D01*
X91957059Y-78863498D01*
X92228125Y-79176755D01*
X92441191Y-79531737D01*
X92582094Y-79887600D01*
X92627568Y-80022725D01*
X92671360Y-80133741D01*
X92704944Y-80199323D01*
X92708483Y-80203820D01*
X92776511Y-80242774D01*
X92845523Y-80213190D01*
X92910755Y-80118980D01*
X92956974Y-79999848D01*
X93093361Y-79678953D01*
X93290666Y-79387617D01*
X93540329Y-79134082D01*
X93833793Y-78926588D01*
X94162496Y-78773375D01*
X94266259Y-78739359D01*
X94456500Y-78689285D01*
X94647206Y-78654071D01*
X94850516Y-78633305D01*
X95078569Y-78626573D01*
X95343506Y-78633460D01*
X95657465Y-78653553D01*
X95975966Y-78681082D01*
X96292727Y-78710855D01*
X96545118Y-78735193D01*
X96741134Y-78755371D01*
X96888769Y-78772660D01*
X96996019Y-78788334D01*
X97070878Y-78803666D01*
X97121342Y-78819928D01*
X97155404Y-78838394D01*
X97181061Y-78860336D01*
X97195296Y-78875217D01*
X97219674Y-78906455D01*
X97237725Y-78947369D01*
X97250389Y-79008455D01*
X97258605Y-79100209D01*
X97263311Y-79233127D01*
X97265447Y-79417704D01*
X97265951Y-79664436D01*
X97265951Y-79665015D01*
X97266678Y-79878648D01*
X97268738Y-80149796D01*
X97271952Y-80463313D01*
X97276140Y-80804054D01*
X97281123Y-81156873D01*
X97286720Y-81506626D01*
X97290001Y-81692488D01*
X97296445Y-82036215D01*
X97302237Y-82314360D01*
X97307880Y-82534007D01*
X97313879Y-82702241D01*
X97320735Y-82826146D01*
X97328953Y-82912805D01*
X97339035Y-82969304D01*
X97351485Y-83002727D01*
X97366806Y-83020157D01*
X97384897Y-83028488D01*
X97441482Y-83034321D01*
X97491751Y-83006814D01*
X97541578Y-82937212D01*
X97596836Y-82816756D01*
X97663397Y-82636689D01*
X97680103Y-82588315D01*
X97737098Y-82423364D01*
X97810687Y-82212549D01*
X97892958Y-81978424D01*
X97975998Y-81743544D01*
X98011191Y-81644506D01*
X98093641Y-81412130D01*
X98180425Y-81166220D01*
X98263088Y-80930820D01*
X98333173Y-80729974D01*
X98356242Y-80663390D01*
X98485701Y-80289455D01*
X98594189Y-79978370D01*
X98684011Y-79724138D01*
X98757469Y-79520764D01*
X98816869Y-79362251D01*
X98864513Y-79242601D01*
X98902707Y-79155817D01*
X98933753Y-79095904D01*
X98959956Y-79056863D01*
X98982343Y-79033745D01*
X99032289Y-79000882D01*
X99095016Y-78983301D01*
X99188971Y-78978845D01*
X99332601Y-78985354D01*
X99372842Y-78988053D01*
X99681167Y-79012082D01*
X99956593Y-79038840D01*
X100190468Y-79067203D01*
X100374139Y-79096043D01*
X100498954Y-79124235D01*
X100541610Y-79140172D01*
X100567225Y-79154236D01*
X100590653Y-79172111D01*
X100614246Y-79199766D01*
X100640356Y-79243170D01*
X100671333Y-79308292D01*
X100709530Y-79401103D01*
X100757298Y-79527571D01*
X100816989Y-79693666D01*
X100890955Y-79905357D01*
X100981546Y-80168615D01*
X101091115Y-80489408D01*
X101206078Y-80826910D01*
X101302802Y-81110030D01*
X101399390Y-81391045D01*
X101491307Y-81656886D01*
X101574019Y-81894485D01*
X101642991Y-82090773D01*
X101693689Y-82232683D01*
X101697833Y-82244077D01*
X101762774Y-82425096D01*
X101825758Y-82605681D01*
X101877944Y-82760245D01*
X101901744Y-82834183D01*
X101963249Y-82983222D01*
X102032803Y-83061881D01*
X102109413Y-83069345D01*
X102155106Y-83042057D01*
X102184884Y-82990654D01*
X102201878Y-82890157D01*
X102207816Y-82729646D01*
X102207868Y-82708525D01*
X102228488Y-82406990D01*
X102294114Y-82147112D01*
X102410398Y-81909452D01*
X102463646Y-81828586D01*
X102535827Y-81720903D01*
X102587480Y-81634988D01*
X102607577Y-81589206D01*
X102607582Y-81588917D01*
X102591736Y-81541631D01*
X102550120Y-81449990D01*
X102491621Y-81333516D01*
X102489485Y-81329435D01*
X102422725Y-81188241D01*
X102383840Y-81060842D01*
X102364001Y-80912851D01*
X102358391Y-80818753D01*
X102354527Y-80582208D01*
X102370360Y-80394705D01*
X102410356Y-80234225D01*
X102478983Y-80078749D01*
X102525220Y-79996359D01*
X102669351Y-79800894D01*
X102848202Y-79651547D01*
X103074542Y-79539422D01*
X103269253Y-79478009D01*
X103422078Y-79444392D01*
X103585636Y-79422934D01*
X103771625Y-79413511D01*
X103991740Y-79416001D01*
X104257679Y-79430281D01*
X104581138Y-79456228D01*
X104660133Y-79463393D01*
X104896259Y-79485005D01*
X105142861Y-79507309D01*
X105374945Y-79528061D01*
X105567519Y-79545016D01*
X105615905Y-79549204D01*
X105796756Y-79567352D01*
X105920645Y-79587398D01*
X106003260Y-79613118D01*
X106060291Y-79648287D01*
X106072468Y-79659072D01*
X106144293Y-79717108D01*
X106207622Y-79731823D01*
X106291035Y-79705380D01*
X106344676Y-79679662D01*
X106405449Y-79654977D01*
X106475951Y-79641748D01*
X106572515Y-79639397D01*
X106711472Y-79647342D01*
X106868070Y-79661094D01*
X107150062Y-79687381D01*
X107471175Y-79716808D01*
X107818291Y-79748216D01*
X108178295Y-79780446D01*
X108538069Y-79812336D01*
X108884497Y-79842729D01*
X109204462Y-79870462D01*
X109484847Y-79894378D01*
X109712536Y-79913316D01*
X109802432Y-79920549D01*
X110052587Y-79943541D01*
X110240068Y-79968560D01*
X110374877Y-79997273D01*
X110466713Y-80031195D01*
X110614988Y-80087283D01*
X110734655Y-80095847D01*
X110806392Y-80062778D01*
X110854787Y-80051911D01*
X110960196Y-80048308D01*
X111107423Y-80050992D01*
X111281275Y-80058984D01*
X111466560Y-80071308D01*
X111648082Y-80086984D01*
X111810648Y-80105037D01*
X111939065Y-80124488D01*
X112005549Y-80139938D01*
X112062015Y-80157563D01*
X112108428Y-80176215D01*
X112145822Y-80202695D01*
X112175231Y-80243800D01*
X112197689Y-80306330D01*
X112214228Y-80397085D01*
X112225883Y-80522862D01*
X112233687Y-80690462D01*
X112238675Y-80906683D01*
X112241879Y-81178324D01*
X112244334Y-81512185D01*
X112245704Y-81719564D01*
X112255222Y-83134349D01*
X112352495Y-83145591D01*
X112416661Y-83143182D01*
X112463014Y-83106862D01*
X112509952Y-83020452D01*
X112519854Y-82998394D01*
X112591663Y-82866143D01*
X112682108Y-82736309D01*
X112704197Y-82709823D01*
X112772490Y-82619382D01*
X112813328Y-82540857D01*
X112818455Y-82516271D01*
X112806079Y-82466060D01*
X112552983Y-82466060D01*
X112548208Y-82522729D01*
X112529118Y-82551303D01*
X112487565Y-82595391D01*
X112465596Y-82593218D01*
X112457537Y-82535571D01*
X112457403Y-82434849D01*
X112459727Y-82262246D01*
X112517723Y-82378699D01*
X112552983Y-82466060D01*
X112806079Y-82466060D01*
X112803033Y-82453707D01*
X112762443Y-82348611D01*
X112705200Y-82222852D01*
X112700358Y-82212963D01*
X112645632Y-82096231D01*
X112611016Y-81999754D01*
X112591954Y-81900082D01*
X112583888Y-81773769D01*
X112582260Y-81605269D01*
X112583822Y-81433124D01*
X112591720Y-81310270D01*
X112610772Y-81213335D01*
X112645795Y-81118952D01*
X112701609Y-81003750D01*
X112709442Y-80988377D01*
X112831384Y-80790953D01*
X112979790Y-80630984D01*
X113160508Y-80506746D01*
X113379382Y-80416516D01*
X113642258Y-80358571D01*
X113954983Y-80331188D01*
X114323402Y-80332644D01*
X114753361Y-80361215D01*
X114817024Y-80367111D01*
X115049670Y-80388822D01*
X115286613Y-80410115D01*
X115505546Y-80429040D01*
X115684164Y-80443645D01*
X115743634Y-80448156D01*
X115981821Y-80473824D01*
X116155610Y-80512601D01*
X116272488Y-80566906D01*
X116339943Y-80639159D01*
X116341075Y-80641243D01*
X116350050Y-80685212D01*
X116357524Y-80782413D01*
X116363528Y-80935366D01*
X116368096Y-81146592D01*
X116371260Y-81418608D01*
X116373051Y-81753934D01*
X116373502Y-82155090D01*
X116597030Y-82155090D01*
X116596920Y-82067418D01*
X116595915Y-81721418D01*
X116594283Y-81432006D01*
X116591893Y-81193818D01*
X116588616Y-81001492D01*
X116584320Y-80849667D01*
X116578877Y-80732978D01*
X116572156Y-80646065D01*
X116564026Y-80583563D01*
X116554358Y-80540112D01*
X116543022Y-80510348D01*
X116538136Y-80501318D01*
X116470949Y-80411784D01*
X116382573Y-80345968D01*
X116260210Y-80298980D01*
X116091065Y-80265930D01*
X115862340Y-80241929D01*
X115858558Y-80241626D01*
X115664803Y-80225353D01*
X115427264Y-80204175D01*
X115174444Y-80180695D01*
X114934846Y-80157515D01*
X114907868Y-80154830D01*
X114492400Y-80119881D01*
X114133679Y-80103452D01*
X113835868Y-80105605D01*
X113603129Y-80126405D01*
X113558029Y-80134063D01*
X113226012Y-80224946D01*
X112949701Y-80361566D01*
X112727536Y-80544916D01*
X112562707Y-80767627D01*
X112455761Y-80954091D01*
X112455420Y-80614375D01*
X112447706Y-80391540D01*
X112421496Y-80227071D01*
X112371420Y-80107856D01*
X112292104Y-80020782D01*
X112185864Y-79956413D01*
X112052580Y-79909175D01*
X111910970Y-79883616D01*
X111877003Y-79882131D01*
X111777641Y-79878651D01*
X111627705Y-79869220D01*
X111448912Y-79855350D01*
X111292904Y-79841433D01*
X111070108Y-79824497D01*
X110897815Y-79820294D01*
X110785089Y-79828946D01*
X110763249Y-79834391D01*
X110659266Y-79847290D01*
X110545945Y-79808733D01*
X110543657Y-79807571D01*
X110440506Y-79773500D01*
X110282389Y-79744540D01*
X110086989Y-79723856D01*
X110068312Y-79722518D01*
X109932067Y-79712288D01*
X109738098Y-79696556D01*
X109501043Y-79676569D01*
X109235538Y-79653574D01*
X108956220Y-79628819D01*
X108748641Y-79610045D01*
X108282185Y-79567507D01*
X107882614Y-79531227D01*
X107544440Y-79500818D01*
X107262178Y-79475891D01*
X107030341Y-79456060D01*
X106843442Y-79440936D01*
X106695996Y-79430132D01*
X106582514Y-79423261D01*
X106497512Y-79419934D01*
X106435503Y-79419765D01*
X106391000Y-79422364D01*
X106358516Y-79427346D01*
X106332566Y-79434322D01*
X106320229Y-79438470D01*
X106223175Y-79457156D01*
X106143220Y-79427539D01*
X106132187Y-79420086D01*
X106051256Y-79385862D01*
X105930251Y-79358705D01*
X105846974Y-79348806D01*
X105746214Y-79340479D01*
X105588394Y-79326409D01*
X105388776Y-79308003D01*
X105162620Y-79286670D01*
X104925191Y-79263818D01*
X104915021Y-79262829D01*
X104504735Y-79226020D01*
X104157095Y-79202474D01*
X103863202Y-79192686D01*
X103614155Y-79197153D01*
X103401056Y-79216369D01*
X103215006Y-79250833D01*
X103047104Y-79301039D01*
X102888452Y-79367485D01*
X102868931Y-79376907D01*
X102633689Y-79517532D01*
X102451893Y-79689156D01*
X102306251Y-79909324D01*
X102266805Y-79987925D01*
X102220098Y-80090099D01*
X102188352Y-80175900D01*
X102168687Y-80263404D01*
X102158221Y-80370687D01*
X102154073Y-80515825D01*
X102153362Y-80699728D01*
X102154516Y-80899022D01*
X102159627Y-81043165D01*
X102171166Y-81149666D01*
X102191606Y-81236034D01*
X102223418Y-81319778D01*
X102248778Y-81375594D01*
X102344194Y-81579070D01*
X102220146Y-81775307D01*
X102140394Y-81920015D01*
X102069578Y-82079622D01*
X102038239Y-82169721D01*
X101980381Y-82367897D01*
X101764057Y-81733669D01*
X101594377Y-81236854D01*
X101446196Y-80804490D01*
X101317942Y-80432112D01*
X101208038Y-80115258D01*
X101114910Y-79849463D01*
X101036985Y-79630262D01*
X100972687Y-79453193D01*
X100920442Y-79313790D01*
X100878675Y-79207590D01*
X100845813Y-79130130D01*
X100845712Y-79129904D01*
X100805582Y-79055030D01*
X100753804Y-78994299D01*
X100682069Y-78945407D01*
X100582067Y-78906049D01*
X100445490Y-78873921D01*
X100264028Y-78846719D01*
X100029371Y-78822137D01*
X99733211Y-78797872D01*
X99617690Y-78789332D01*
X99393240Y-78773779D01*
X99228655Y-78764854D01*
X99111400Y-78762858D01*
X99028940Y-78768088D01*
X98968740Y-78780843D01*
X98918265Y-78801424D01*
X98908749Y-78806239D01*
X98872015Y-78824288D01*
X98840456Y-78840549D01*
X98811833Y-78860356D01*
X98783909Y-78889039D01*
X98754446Y-78931931D01*
X98721205Y-78994363D01*
X98681948Y-79081668D01*
X98634437Y-79199178D01*
X98576434Y-79352223D01*
X98505700Y-79546138D01*
X98419998Y-79786252D01*
X98317089Y-80077899D01*
X98194735Y-80426410D01*
X98050698Y-80837118D01*
X98022404Y-80917754D01*
X97939705Y-81153606D01*
X97853330Y-81400284D01*
X97771059Y-81635552D01*
X97700669Y-81837170D01*
X97668837Y-81928537D01*
X97532058Y-82321581D01*
X97508101Y-81474317D01*
X97500477Y-81160585D01*
X97493846Y-80803496D01*
X97488622Y-80432367D01*
X97485223Y-80076514D01*
X97484061Y-79778610D01*
X97483008Y-79477517D01*
X97478778Y-79240098D01*
X97469661Y-79057368D01*
X97453950Y-78920340D01*
X97429936Y-78820031D01*
X97395911Y-78747452D01*
X97350167Y-78693619D01*
X97290996Y-78649546D01*
X97266579Y-78634634D01*
X97175519Y-78601635D01*
X97022529Y-78569816D01*
X96818351Y-78539796D01*
X96573728Y-78512197D01*
X96299402Y-78487635D01*
X96006117Y-78466732D01*
X95704615Y-78450106D01*
X95405638Y-78438376D01*
X95119930Y-78432163D01*
X94858233Y-78432084D01*
X94631289Y-78438760D01*
X94449842Y-78452810D01*
X94357715Y-78466936D01*
X94052432Y-78560892D01*
X93747638Y-78711312D01*
X93459821Y-78906420D01*
X93205470Y-79134443D01*
X93001071Y-79383604D01*
X92941774Y-79478151D01*
X92876423Y-79587608D01*
X92824307Y-79666905D01*
X92796084Y-79699892D01*
X92795307Y-79700050D01*
X92771406Y-79670054D01*
X92724882Y-79589968D01*
X92664536Y-79475229D01*
X92645368Y-79436995D01*
X92417546Y-79051556D01*
X92141861Y-78719130D01*
X91816186Y-78437913D01*
X91438393Y-78206097D01*
X91006356Y-78021875D01*
X90960790Y-78006237D01*
X90561659Y-77872009D01*
X89798569Y-77868701D01*
X89541717Y-77867986D01*
X89344386Y-77869144D01*
X89193428Y-77873346D01*
X89075692Y-77881762D01*
X88978030Y-77895561D01*
X88887290Y-77915915D01*
X88790324Y-77943994D01*
X88726609Y-77964101D01*
X88531486Y-78031118D01*
X88392140Y-78092572D01*
X88293212Y-78157781D01*
X88219343Y-78236063D01*
X88178568Y-78296601D01*
X88109141Y-78410457D01*
X88109006Y-78218237D01*
X88086089Y-78029063D01*
X88023393Y-77862047D01*
X87929590Y-77735885D01*
X87863179Y-77688189D01*
X87798655Y-77668082D01*
X87681856Y-77648214D01*
X87510243Y-77628410D01*
X87281280Y-77608493D01*
X86992431Y-77588285D01*
X86641157Y-77567611D01*
X86224922Y-77546293D01*
X85741190Y-77524154D01*
X85187423Y-77501017D01*
X85165522Y-77500138D01*
X84936125Y-77491287D01*
X84767675Y-77486455D01*
X84648514Y-77486512D01*
G37*
X84648514Y-77486512D02*
X84566983Y-77492329D01*
X84511422Y-77504776D01*
X84470174Y-77524725D01*
X84431577Y-77553045D01*
X84428959Y-77555134D01*
X84346168Y-77629313D01*
X84287907Y-77707065D01*
X84250952Y-77801808D01*
X84232075Y-77926961D01*
X84228051Y-78095942D01*
X84235653Y-78322170D01*
X84237150Y-78352911D01*
X84251751Y-78599951D01*
X84269596Y-78786268D01*
X84293684Y-78923813D01*
X84327015Y-79024537D01*
X84372590Y-79100392D01*
X84433408Y-79163330D01*
X84442549Y-79171152D01*
X84550491Y-79261978D01*
X84475874Y-79408239D01*
X84447483Y-79468777D01*
X84428358Y-79528935D01*
X84417618Y-79602466D01*
X84414377Y-79703120D01*
X84417753Y-79844650D01*
X84426863Y-80040806D01*
X84430607Y-80112845D01*
X84444884Y-80361979D01*
X84463986Y-80556969D01*
X84496259Y-80705115D01*
X84550047Y-80813718D01*
X84633696Y-80890080D01*
X84755552Y-80941500D01*
X84923960Y-80975279D01*
X85147266Y-80998718D01*
X85433815Y-81019117D01*
X85469265Y-81021470D01*
X85690052Y-81037465D01*
X85885869Y-81054203D01*
X86045196Y-81070490D01*
X86156511Y-81085133D01*
X86208294Y-81096938D01*
X86210055Y-81098204D01*
X86189981Y-81109220D01*
X86112563Y-81112846D01*
X85992796Y-81108667D01*
X85946781Y-81105522D01*
X85605275Y-81080712D01*
X85328189Y-81063410D01*
X85107664Y-81053582D01*
X84935836Y-81051192D01*
X84804846Y-81056203D01*
X84706830Y-81068580D01*
X84633929Y-81088287D01*
X84607489Y-81099410D01*
X84521588Y-81147384D01*
X84458581Y-81205404D01*
X84415027Y-81284830D01*
X84387485Y-81397023D01*
X84372512Y-81553343D01*
X84366668Y-81765153D01*
X84366094Y-81896330D01*
X84368503Y-82169439D01*
X84380956Y-82384386D01*
X84411298Y-82548742D01*
X84467372Y-82670080D01*
X84557021Y-82755970D01*
X84688089Y-82813986D01*
X84868418Y-82851699D01*
X85105853Y-82876680D01*
X85401717Y-82896120D01*
X85648518Y-82910635D01*
X85945462Y-82928148D01*
X86270147Y-82947336D01*
X86600169Y-82966875D01*
X86913126Y-82985439D01*
X87005101Y-82990903D01*
X87306304Y-83008187D01*
X87544195Y-83019597D01*
X87727957Y-83024376D01*
X87866774Y-83021764D01*
X87969828Y-83011003D01*
X88046303Y-82991333D01*
X88105382Y-82961996D01*
X88156248Y-82922232D01*
X88186426Y-82893273D01*
X88266884Y-82812815D01*
X88508092Y-82944727D01*
X88981151Y-83162806D01*
X89488233Y-83320001D01*
X90020537Y-83414147D01*
X90533040Y-83443219D01*
X90772413Y-83439545D01*
X90961324Y-83427043D01*
X91121684Y-83403489D01*
X91268396Y-83368613D01*
X91654655Y-83227801D01*
X91994964Y-83033191D01*
X92286292Y-82787145D01*
X92525608Y-82492025D01*
X92638825Y-82300376D01*
X92789411Y-82011468D01*
X92925333Y-82290078D01*
X93142171Y-82652893D01*
X93415983Y-82973220D01*
X93740853Y-83244994D01*
X94027676Y-83420309D01*
X94249956Y-83529156D01*
X94461628Y-83613293D01*
X94686087Y-83680182D01*
X94946729Y-83737284D01*
X95116829Y-83767703D01*
X95315323Y-83797734D01*
X95550613Y-83827796D01*
X95809545Y-83856759D01*
X96078964Y-83883492D01*
X96345713Y-83906862D01*
X96596638Y-83925739D01*
X96818583Y-83938992D01*
X96998393Y-83945489D01*
X97122913Y-83944099D01*
X97145770Y-83942177D01*
X97264855Y-83938086D01*
X97363376Y-83950549D01*
X97391344Y-83960711D01*
X97457417Y-83979848D01*
X97580903Y-84001587D01*
X97746665Y-84024312D01*
X97939562Y-84046405D01*
X98144456Y-84066251D01*
X98346208Y-84082232D01*
X98529678Y-84092732D01*
X98659499Y-84096137D01*
X98795158Y-84094158D01*
X98882779Y-84081419D01*
X98946944Y-84050060D01*
X99012232Y-83992221D01*
X99025203Y-83979199D01*
X99126726Y-83837271D01*
X99213613Y-83635404D01*
X99223622Y-83604996D01*
X99305250Y-83348890D01*
X99766359Y-83395881D01*
X99977176Y-83417945D01*
X100126261Y-83435877D01*
X100224245Y-83452255D01*
X100281760Y-83469660D01*
X100309440Y-83490672D01*
X100317915Y-83517871D01*
X100318312Y-83529818D01*
X100330704Y-83586044D01*
X100363767Y-83690797D01*
X100411330Y-83825067D01*
X100432091Y-83880317D01*
X100490126Y-84026363D01*
X100536709Y-84120485D01*
X100584022Y-84179482D01*
X100644249Y-84220155D01*
X100696469Y-84244891D01*
X100830650Y-84286769D01*
X101025716Y-84323134D01*
X101269993Y-84352584D01*
X101551808Y-84373715D01*
X101859486Y-84385125D01*
X101864452Y-84385219D01*
X102211445Y-84391687D01*
X102336838Y-84266294D01*
X102410730Y-84181160D01*
X102455780Y-84107583D01*
X102462232Y-84082761D01*
X102470532Y-84035757D01*
X102502869Y-84033854D01*
X102570397Y-84079561D01*
X102616601Y-84117477D01*
X102766000Y-84221638D01*
X102964392Y-84328778D01*
X103189539Y-84427467D01*
X103297180Y-84467300D01*
X103392619Y-84491017D01*
X103549617Y-84518937D01*
X103757264Y-84549801D01*
X104004650Y-84582347D01*
X104280865Y-84615315D01*
X104574998Y-84647444D01*
X104876139Y-84677473D01*
X105173378Y-84704141D01*
X105455806Y-84726188D01*
X105644233Y-84738515D01*
X105865400Y-84744614D01*
X106029602Y-84729946D01*
X106150693Y-84690051D01*
X106242530Y-84620471D01*
X106315491Y-84522499D01*
X106332526Y-84491548D01*
X106346598Y-84455203D01*
X106357988Y-84406655D01*
X106366981Y-84339094D01*
X106373859Y-84245710D01*
X106378905Y-84119694D01*
X106382402Y-83954236D01*
X106384634Y-83742527D01*
X106385882Y-83477756D01*
X106386431Y-83153115D01*
X106386559Y-82812350D01*
X106386695Y-81218535D01*
X106504792Y-81239385D01*
X106595119Y-81251656D01*
X106733020Y-81266208D01*
X106893556Y-81280490D01*
X106949928Y-81284912D01*
X107102061Y-81296740D01*
X107230071Y-81307331D01*
X107314018Y-81315007D01*
X107331473Y-81316978D01*
X107344568Y-81326347D01*
X107355669Y-81354597D01*
X107365039Y-81407709D01*
X107372941Y-81491664D01*
X107379635Y-81612440D01*
X107385384Y-81776018D01*
X107390451Y-81988378D01*
X107395096Y-82255501D01*
X107399582Y-82583365D01*
X107404149Y-82975924D01*
X107408670Y-83368749D01*
X107413022Y-83695436D01*
X107417509Y-83962518D01*
X107422440Y-84176531D01*
X107428120Y-84344008D01*
X107434856Y-84471486D01*
X107442956Y-84565498D01*
X107452726Y-84632579D01*
X107464472Y-84679263D01*
X107478502Y-84712087D01*
X107486251Y-84725009D01*
X107537114Y-84789844D01*
X107601346Y-84840961D01*
X107689422Y-84881442D01*
X107811819Y-84914366D01*
X107979014Y-84942816D01*
X108201483Y-84969872D01*
X108381276Y-84988228D01*
X108610234Y-85010127D01*
X108779364Y-85024462D01*
X108901125Y-85031176D01*
X108987977Y-85030209D01*
X109052379Y-85021504D01*
X109106788Y-85005002D01*
X109154904Y-84984614D01*
X109299166Y-84883062D01*
X109369078Y-84782423D01*
X109386029Y-84745705D01*
X109400006Y-84703570D01*
X109411294Y-84649058D01*
X109420179Y-84575209D01*
X109426945Y-84475063D01*
X109431879Y-84341662D01*
X109435265Y-84168045D01*
X109437389Y-83947252D01*
X109438537Y-83672324D01*
X109438994Y-83336302D01*
X109439056Y-83076065D01*
X109439056Y-81506875D01*
X109738841Y-81531449D01*
X109909078Y-81546193D01*
X110078451Y-81562157D01*
X110212942Y-81576120D01*
X110223615Y-81577335D01*
X110408603Y-81598646D01*
X110432495Y-82766211D01*
X110438563Y-83078580D01*
X110444068Y-83392368D01*
X110448806Y-83693532D01*
X110452573Y-83968032D01*
X110455166Y-84201828D01*
X110456382Y-84380877D01*
X110456448Y-84418728D01*
X110458050Y-84630433D01*
X110467565Y-84801023D01*
X110492151Y-84935468D01*
X110538962Y-85038735D01*
X110615155Y-85115794D01*
X110727885Y-85171611D01*
X110884307Y-85211155D01*
X111091577Y-85239396D01*
X111356852Y-85261300D01*
X111687286Y-85281837D01*
X111700687Y-85282625D01*
X111918257Y-85291024D01*
X112074210Y-85286323D01*
X112178493Y-85268079D01*
X112200008Y-85260393D01*
X112322748Y-85172764D01*
X112410861Y-85035730D01*
X112453034Y-84868722D01*
X112455079Y-84822303D01*
X112455079Y-84665616D01*
X112581814Y-84813678D01*
X112777183Y-84997620D01*
X113027686Y-85164603D01*
X113316201Y-85305483D01*
X113625606Y-85411114D01*
X113760771Y-85443412D01*
X113867772Y-85460866D01*
X114034097Y-85482202D01*
X114246577Y-85506177D01*
X114492041Y-85531547D01*
X114757320Y-85557069D01*
X115029244Y-85581499D01*
X115294642Y-85603596D01*
X115540346Y-85622114D01*
X115753185Y-85635811D01*
X115852647Y-85640892D01*
X116081736Y-85647255D01*
X116244583Y-85642706D01*
X116346836Y-85626985D01*
X116373169Y-85616939D01*
X116443710Y-85557053D01*
X116513207Y-85462583D01*
X116527604Y-85436473D01*
X116541654Y-85406328D01*
X116553689Y-85371442D01*
X116563864Y-85326286D01*
X116572335Y-85265331D01*
X116579257Y-85183050D01*
X116584787Y-85073913D01*
X116589079Y-84932391D01*
X116592289Y-84752957D01*
X116594574Y-84530081D01*
X116596088Y-84258236D01*
X116596987Y-83931891D01*
X116597427Y-83545520D01*
X116597563Y-83093592D01*
X116597568Y-82950630D01*
X116597428Y-82475368D01*
X116597030Y-82155090D01*
X116373502Y-82155090D01*
X116372645Y-82624594D01*
X116371254Y-83002468D01*
X116369168Y-83467155D01*
X116367113Y-83864630D01*
X116364905Y-84200355D01*
X116362361Y-84479791D01*
X116359299Y-84708402D01*
X116355535Y-84891649D01*
X116350887Y-85034994D01*
X116345172Y-85143901D01*
X116338207Y-85223832D01*
X116329809Y-85280247D01*
X116319795Y-85318611D01*
X116307982Y-85344385D01*
X116294188Y-85363031D01*
X116292151Y-85365315D01*
X116262114Y-85393194D01*
X116223578Y-85414465D01*
X116169353Y-85428975D01*
X116092255Y-85436572D01*
X115985095Y-85437107D01*
X115840686Y-85430427D01*
X115651842Y-85416381D01*
X115411376Y-85394817D01*
X115112100Y-85365584D01*
X114798855Y-85333852D01*
X114468816Y-85299395D01*
X114200870Y-85269102D01*
X113984712Y-85240842D01*
X113810034Y-85212485D01*
X113666529Y-85181898D01*
X113543888Y-85146952D01*
X113431806Y-85105513D01*
X113319974Y-85055452D01*
X113225105Y-85008446D01*
X112974963Y-84856483D01*
X112779620Y-84677658D01*
X112621926Y-84455345D01*
X112584504Y-84387472D01*
X112498035Y-84234186D01*
X112429295Y-84142441D01*
X112370675Y-84105663D01*
X112314562Y-84117278D01*
X112291097Y-84134017D01*
X112264240Y-84175804D01*
X112247404Y-84255559D01*
X112238929Y-84385591D01*
X112237053Y-84534825D01*
X112235249Y-84725316D01*
X112227345Y-84857016D01*
X112209600Y-84943770D01*
X112178273Y-84999424D01*
X112129623Y-85037824D01*
X112096383Y-85055497D01*
X112019049Y-85071635D01*
X111887864Y-85076490D01*
X111718301Y-85071621D01*
X111525833Y-85058589D01*
X111325933Y-85038953D01*
X111134072Y-85014274D01*
X110965725Y-84986110D01*
X110836364Y-84956023D01*
X110761461Y-84925571D01*
X110755065Y-84920279D01*
X110740528Y-84900346D01*
X110728066Y-84867746D01*
X110717342Y-84816317D01*
X110708022Y-84739897D01*
X110699770Y-84632324D01*
X110692251Y-84487437D01*
X110685130Y-84299074D01*
X110678072Y-84061074D01*
X110670742Y-83767275D01*
X110662804Y-83411515D01*
X110656366Y-83105926D01*
X110620029Y-81353805D01*
X110438340Y-81351310D01*
X110334222Y-81348286D01*
X110177171Y-81341764D01*
X109986797Y-81332639D01*
X109782711Y-81321810D01*
X109738841Y-81319340D01*
X109221030Y-81289864D01*
X109221030Y-82906183D01*
X109220135Y-83338830D01*
X109217488Y-83714159D01*
X109213149Y-84029498D01*
X109207176Y-84282176D01*
X109199629Y-84469521D01*
X109190567Y-84588862D01*
X109182884Y-84631929D01*
X109137161Y-84720159D01*
X109065794Y-84775660D01*
X108956883Y-84801910D01*
X108798531Y-84802389D01*
X108646719Y-84788672D01*
X108471590Y-84770982D01*
X108295443Y-84756571D01*
X108151683Y-84748110D01*
X108130901Y-84747399D01*
X107930222Y-84725358D01*
X107775106Y-84674277D01*
X107676316Y-84598103D01*
X107661437Y-84575150D01*
X107650528Y-84519002D01*
X107641387Y-84394184D01*
X107633997Y-84200000D01*
X107628344Y-83935753D01*
X107624410Y-83600748D01*
X107622179Y-83194287D01*
X107621618Y-82855121D01*
X107620903Y-82515104D01*
X107619076Y-82196864D01*
X107616266Y-81907888D01*
X107612597Y-81655664D01*
X107608197Y-81447678D01*
X107603191Y-81291417D01*
X107597707Y-81194367D01*
X107593070Y-81164407D01*
X107550712Y-81148047D01*
X107449718Y-81126805D01*
X107303817Y-81102485D01*
X107126741Y-81076893D01*
X106932217Y-81051835D01*
X106733978Y-81029116D01*
X106545754Y-81010542D01*
X106381273Y-80997917D01*
X106295851Y-80993826D01*
X106186838Y-80990429D01*
X106167954Y-84383285D01*
X106072567Y-84458316D01*
X105969207Y-84512521D01*
X105863984Y-84534120D01*
X105743883Y-84530415D01*
X105565514Y-84519051D01*
X105342717Y-84501424D01*
X105089333Y-84478927D01*
X104819202Y-84452956D01*
X104546165Y-84424905D01*
X104284063Y-84396168D01*
X104046737Y-84368141D01*
X103848026Y-84342217D01*
X103701772Y-84319792D01*
X103661373Y-84312179D01*
X103277416Y-84207000D01*
X102953611Y-84062038D01*
X102688918Y-83876712D01*
X102489784Y-83660732D01*
X102389511Y-83553724D01*
X102304304Y-83514713D01*
X102243229Y-83539266D01*
X102215357Y-83622953D01*
X102229753Y-83761343D01*
X102235677Y-83784904D01*
X102252038Y-83945744D01*
X102206604Y-84070798D01*
X102100399Y-84157279D01*
X102098516Y-84158188D01*
X102019329Y-84173990D01*
X101885088Y-84178207D01*
X101712201Y-84172470D01*
X101517077Y-84158412D01*
X101316125Y-84137665D01*
X101125754Y-84111861D01*
X100962373Y-84082632D01*
X100842390Y-84051610D01*
X100790701Y-84028111D01*
X100728138Y-83957526D01*
X100662006Y-83829945D01*
X100588606Y-83638157D01*
X100584314Y-83625688D01*
X100531975Y-83478530D01*
X100485332Y-83357476D01*
X100450944Y-83279054D01*
X100438964Y-83259380D01*
X100393102Y-83245510D01*
X100289584Y-83228388D01*
X100143282Y-83209424D01*
X99969064Y-83190026D01*
X99781801Y-83171605D01*
X99596363Y-83155568D01*
X99427620Y-83143325D01*
X99290443Y-83136284D01*
X99199701Y-83135856D01*
X99173444Y-83139466D01*
X99138965Y-83181756D01*
X99093425Y-83276824D01*
X99044682Y-83407281D01*
X99025877Y-83466037D01*
X98972348Y-83630901D01*
X98920084Y-83746164D01*
X98855619Y-83819694D01*
X98765486Y-83859358D01*
X98636216Y-83873022D01*
X98454343Y-83868554D01*
X98347284Y-83862454D01*
X98051769Y-83841353D01*
X97821502Y-83817263D01*
X97649071Y-83788878D01*
X97527069Y-83754894D01*
X97448086Y-83714005D01*
X97433012Y-83701460D01*
X97376874Y-83657366D01*
X97323963Y-83651150D01*
X97241986Y-83680300D01*
X97229614Y-83685643D01*
X97123820Y-83717044D01*
X96988347Y-83727183D01*
X96829900Y-83720221D01*
X96471111Y-83692489D01*
X96173485Y-83668054D01*
X95925650Y-83645668D01*
X95716234Y-83624085D01*
X95533868Y-83602055D01*
X95367179Y-83578333D01*
X95204797Y-83551669D01*
X95067525Y-83526856D01*
X94843013Y-83482574D01*
X94668521Y-83440921D01*
X94522033Y-83394912D01*
X94381530Y-83337566D01*
X94224997Y-83261897D01*
X94213076Y-83255839D01*
X93874978Y-83047176D01*
X93572153Y-82787595D01*
X93313940Y-82487858D01*
X93109679Y-82158731D01*
X92973768Y-81827542D01*
X92907241Y-81652168D01*
X92839851Y-81547550D01*
X92773716Y-81513977D01*
X92710949Y-81551735D01*
X92653668Y-81661114D01*
X92618278Y-81779182D01*
X92553425Y-81964344D01*
X92449844Y-82173306D01*
X92322308Y-82380682D01*
X92185592Y-82561084D01*
X92125134Y-82626578D01*
X91920437Y-82797058D01*
X91668520Y-82953805D01*
X91394833Y-83082580D01*
X91180256Y-83155096D01*
X90908640Y-83204892D01*
X90590410Y-83223073D01*
X90243735Y-83210964D01*
X89886783Y-83169887D01*
X89537723Y-83101169D01*
X89235336Y-83013348D01*
X89105808Y-82963409D01*
X88948680Y-82895220D01*
X88781143Y-82817160D01*
X88620383Y-82737610D01*
X88483590Y-82664950D01*
X88387953Y-82607558D01*
X88360587Y-82586890D01*
X88264916Y-82538031D01*
X88166646Y-82544535D01*
X88091449Y-82603033D01*
X88080020Y-82623700D01*
X88016801Y-82713530D01*
X87956090Y-82766345D01*
X87937773Y-82778143D01*
X87918581Y-82787957D01*
X87892849Y-82795610D01*
X87854915Y-82800921D01*
X87799114Y-82803712D01*
X87719785Y-82803805D01*
X87611263Y-82801020D01*
X87467885Y-82795179D01*
X87283988Y-82786103D01*
X87053909Y-82773612D01*
X86771984Y-82757529D01*
X86432551Y-82737675D01*
X86029945Y-82713870D01*
X85728755Y-82696020D01*
X85415859Y-82678032D01*
X85167593Y-82662092D01*
X84976233Y-82643413D01*
X84834055Y-82617210D01*
X84733336Y-82578695D01*
X84666352Y-82523082D01*
X84625380Y-82445585D01*
X84602696Y-82341418D01*
X84590577Y-82205793D01*
X84581299Y-82033924D01*
X84578424Y-81983141D01*
X84566648Y-81767289D01*
X84564814Y-81598437D01*
X84580452Y-81471395D01*
X84621090Y-81380976D01*
X84694259Y-81321991D01*
X84807488Y-81289252D01*
X84968306Y-81277570D01*
X85184243Y-81281758D01*
X85462829Y-81296626D01*
X85565829Y-81302756D01*
X85838953Y-81318638D01*
X86048070Y-81328127D01*
X86201724Y-81329027D01*
X86308463Y-81319145D01*
X86376832Y-81296286D01*
X86415376Y-81258256D01*
X86432642Y-81202860D01*
X86437176Y-81127904D01*
X86437339Y-81078968D01*
X86431320Y-80972697D01*
X86416025Y-80900222D01*
X86405785Y-80884372D01*
X86358691Y-80874416D01*
X86253267Y-80861590D01*
X86103746Y-80847018D01*
X85924366Y-80831823D01*
X85729359Y-80817128D01*
X85532963Y-80804056D01*
X85349410Y-80793730D01*
X85192937Y-80787272D01*
X85165522Y-80786529D01*
X84964790Y-80768420D01*
X84823883Y-80722708D01*
X84733932Y-80645512D01*
X84701061Y-80583344D01*
X84684609Y-80508031D01*
X84668456Y-80378328D01*
X84654470Y-80212502D01*
X84644588Y-80030620D01*
X84626760Y-79579537D01*
X84734638Y-79471659D01*
X84798927Y-79412647D01*
X84857138Y-79382880D01*
X84934772Y-79375782D01*
X85057329Y-79384774D01*
X85067610Y-79385774D01*
X85189160Y-79395757D01*
X85361917Y-79407457D01*
X85564476Y-79419534D01*
X85775434Y-79430647D01*
X85813039Y-79432461D01*
X86333373Y-79457155D01*
X86321765Y-79315351D01*
X86310157Y-79173548D01*
X85528898Y-79127416D01*
X85293464Y-79112191D01*
X85078892Y-79095823D01*
X84897127Y-79079422D01*
X84760117Y-79064100D01*
X84679808Y-79050968D01*
X84667802Y-79047311D01*
X84598770Y-79007007D01*
X84547680Y-78945991D01*
X84511038Y-78853046D01*
X84485347Y-78716952D01*
X84467114Y-78526491D01*
X84457881Y-78373526D01*
X84448361Y-78179286D01*
X84444625Y-78043283D01*
X84448086Y-77951209D01*
X84460153Y-77888758D01*
X84482238Y-77841622D01*
X84514775Y-77796737D01*
X84596429Y-77692931D01*
X85253436Y-77716650D01*
X85579029Y-77729650D01*
X85910200Y-77745153D01*
X86238358Y-77762560D01*
X86554913Y-77781275D01*
X86851274Y-77800702D01*
X87118850Y-77820242D01*
X87349051Y-77839301D01*
X87533286Y-77857279D01*
X87662963Y-77873582D01*
X87729493Y-77887611D01*
X87732395Y-77888892D01*
X87807630Y-77952063D01*
X87850836Y-78017199D01*
X87863493Y-78078045D01*
X87877371Y-78202787D01*
X87891844Y-78382670D01*
X87906284Y-78608937D01*
X87920064Y-78872834D01*
X87931907Y-79148758D01*
X87943571Y-79419663D01*
X87956466Y-79667179D01*
X87969919Y-79881794D01*
X87983260Y-80053996D01*
X87995816Y-80174274D01*
X88006917Y-80233115D01*
X88008689Y-80236423D01*
X88078905Y-80279741D01*
X88160013Y-80254622D01*
X88245914Y-80163289D01*
X88257823Y-80145579D01*
X88313718Y-80066928D01*
X88366788Y-80026502D01*
X88443633Y-80011778D01*
X88545528Y-80010107D01*
X88653323Y-80013390D01*
X88814709Y-80021877D01*
X89010880Y-80034421D01*
X89223031Y-80049877D01*
X89308011Y-80056606D01*
X89613472Y-80081017D01*
X89854498Y-80102206D01*
X90038888Y-80124943D01*
X90174441Y-80153997D01*
X90268958Y-80194137D01*
X90330236Y-80250133D01*
X90366076Y-80326755D01*
X90384277Y-80428773D01*
X90392638Y-80560955D01*
X90398772Y-80723648D01*
X90403552Y-80903656D01*
X90402692Y-81062789D01*
X90396619Y-81183858D01*
X90385759Y-81249675D01*
X90385680Y-81249870D01*
X90313620Y-81337869D01*
X90182651Y-81390312D01*
X89989984Y-81408293D01*
X89982435Y-81408312D01*
X89853971Y-81415814D01*
X89781843Y-81447937D01*
X89750431Y-81519110D01*
X89744063Y-81628472D01*
X89765013Y-81724992D01*
X89832637Y-81791738D01*
X89954098Y-81832173D01*
X90136559Y-81849758D01*
X90204636Y-81851099D01*
X90472468Y-81831702D01*
X90686634Y-81766653D01*
X90851773Y-81651775D01*
X90972522Y-81482893D01*
X91053519Y-81255832D01*
X91089808Y-81054125D01*
X91105500Y-80792830D01*
X91105169Y-80786864D01*
X90876267Y-80786864D01*
X90858765Y-81064154D01*
X90804599Y-81282101D01*
X90711281Y-81445503D01*
X90576322Y-81559154D01*
X90446833Y-81614460D01*
X90327481Y-81648160D01*
X90274404Y-81655367D01*
X90285980Y-81635495D01*
X90360584Y-81587959D01*
X90365429Y-81585142D01*
X90456171Y-81526082D01*
X90522154Y-81461803D01*
X90567234Y-81379999D01*
X90595263Y-81268366D01*
X90610095Y-81114600D01*
X90615583Y-80906396D01*
X90616030Y-80784965D01*
X90612146Y-80521198D01*
X90595004Y-80317849D01*
X90556135Y-80166211D01*
X90487071Y-80057577D01*
X90379345Y-79983242D01*
X90224489Y-79934500D01*
X90014034Y-79902643D01*
X89739512Y-79878967D01*
X89734470Y-79878601D01*
X89538588Y-79863089D01*
X89360417Y-79846557D01*
X89216643Y-79830724D01*
X89123950Y-79817311D01*
X89109197Y-79814166D01*
X89065208Y-79791571D01*
X89074591Y-79777196D01*
X88250099Y-79777196D01*
X88244076Y-79832581D01*
X88217883Y-79845794D01*
X88191691Y-79814453D01*
X88182101Y-79745865D01*
X88187527Y-79682426D01*
X88206323Y-79684344D01*
X88217883Y-79700443D01*
X88250099Y-79777196D01*
X89074591Y-79777196D01*
X89082820Y-79764589D01*
X89151284Y-79735721D01*
X89259852Y-79707469D01*
X89397778Y-79682333D01*
X89554312Y-79662816D01*
X89718708Y-79651417D01*
X89816738Y-79649515D01*
X89990142Y-79652470D01*
X90114136Y-79663309D01*
X90211893Y-79686237D01*
X90306587Y-79725455D01*
X90346905Y-79745667D01*
X90552414Y-79882678D01*
X90705030Y-80057157D01*
X90807724Y-80274948D01*
X90863468Y-80541896D01*
X90876267Y-80786864D01*
X91105169Y-80786864D01*
X91090673Y-80526205D01*
X91048210Y-80277425D01*
X90980996Y-80069666D01*
X90962392Y-80030226D01*
X90809575Y-79805879D01*
X90608064Y-79630661D01*
X90363831Y-79505813D01*
X90082847Y-79432576D01*
X89771087Y-79412192D01*
X89434521Y-79445903D01*
X89079122Y-79534948D01*
X88895871Y-79600749D01*
X88753395Y-79655334D01*
X88659642Y-79684351D01*
X88596452Y-79690652D01*
X88545661Y-79677091D01*
X88513867Y-79660767D01*
X88443466Y-79611763D01*
X88392989Y-79548165D01*
X88359292Y-79458008D01*
X88339231Y-79329330D01*
X88329662Y-79150167D01*
X88327431Y-78951338D01*
X88329359Y-78724592D01*
X88340866Y-78557781D01*
X88369657Y-78438190D01*
X88423436Y-78353102D01*
X88509907Y-78289802D01*
X88636775Y-78235574D01*
X88792461Y-78183826D01*
X88908683Y-78148106D01*
X89009059Y-78122083D01*
X89108460Y-78104282D01*
X89221760Y-78093223D01*
X89363831Y-78087430D01*
X89549546Y-78085425D01*
X89780400Y-78085686D01*
X90076908Y-78089252D01*
X90317105Y-78099857D01*
X90517256Y-78120695D01*
X90693622Y-78154962D01*
X90862469Y-78205852D01*
X91040059Y-78276562D01*
X91242655Y-78370286D01*
X91252074Y-78374832D01*
X91630781Y-78595134D01*
X91957059Y-78863498D01*
X92228125Y-79176755D01*
X92441191Y-79531737D01*
X92582094Y-79887600D01*
X92627568Y-80022725D01*
X92671360Y-80133741D01*
X92704944Y-80199323D01*
X92708483Y-80203820D01*
X92776511Y-80242774D01*
X92845523Y-80213190D01*
X92910755Y-80118980D01*
X92956974Y-79999848D01*
X93093361Y-79678953D01*
X93290666Y-79387617D01*
X93540329Y-79134082D01*
X93833793Y-78926588D01*
X94162496Y-78773375D01*
X94266259Y-78739359D01*
X94456500Y-78689285D01*
X94647206Y-78654071D01*
X94850516Y-78633305D01*
X95078569Y-78626573D01*
X95343506Y-78633460D01*
X95657465Y-78653553D01*
X95975966Y-78681082D01*
X96292727Y-78710855D01*
X96545118Y-78735193D01*
X96741134Y-78755371D01*
X96888769Y-78772660D01*
X96996019Y-78788334D01*
X97070878Y-78803666D01*
X97121342Y-78819928D01*
X97155404Y-78838394D01*
X97181061Y-78860336D01*
X97195296Y-78875217D01*
X97219674Y-78906455D01*
X97237725Y-78947369D01*
X97250389Y-79008455D01*
X97258605Y-79100209D01*
X97263311Y-79233127D01*
X97265447Y-79417704D01*
X97265951Y-79664436D01*
X97265951Y-79665015D01*
X97266678Y-79878648D01*
X97268738Y-80149796D01*
X97271952Y-80463313D01*
X97276140Y-80804054D01*
X97281123Y-81156873D01*
X97286720Y-81506626D01*
X97290001Y-81692488D01*
X97296445Y-82036215D01*
X97302237Y-82314360D01*
X97307880Y-82534007D01*
X97313879Y-82702241D01*
X97320735Y-82826146D01*
X97328953Y-82912805D01*
X97339035Y-82969304D01*
X97351485Y-83002727D01*
X97366806Y-83020157D01*
X97384897Y-83028488D01*
X97441482Y-83034321D01*
X97491751Y-83006814D01*
X97541578Y-82937212D01*
X97596836Y-82816756D01*
X97663397Y-82636689D01*
X97680103Y-82588315D01*
X97737098Y-82423364D01*
X97810687Y-82212549D01*
X97892958Y-81978424D01*
X97975998Y-81743544D01*
X98011191Y-81644506D01*
X98093641Y-81412130D01*
X98180425Y-81166220D01*
X98263088Y-80930820D01*
X98333173Y-80729974D01*
X98356242Y-80663390D01*
X98485701Y-80289455D01*
X98594189Y-79978370D01*
X98684011Y-79724138D01*
X98757469Y-79520764D01*
X98816869Y-79362251D01*
X98864513Y-79242601D01*
X98902707Y-79155817D01*
X98933753Y-79095904D01*
X98959956Y-79056863D01*
X98982343Y-79033745D01*
X99032289Y-79000882D01*
X99095016Y-78983301D01*
X99188971Y-78978845D01*
X99332601Y-78985354D01*
X99372842Y-78988053D01*
X99681167Y-79012082D01*
X99956593Y-79038840D01*
X100190468Y-79067203D01*
X100374139Y-79096043D01*
X100498954Y-79124235D01*
X100541610Y-79140172D01*
X100567225Y-79154236D01*
X100590653Y-79172111D01*
X100614246Y-79199766D01*
X100640356Y-79243170D01*
X100671333Y-79308292D01*
X100709530Y-79401103D01*
X100757298Y-79527571D01*
X100816989Y-79693666D01*
X100890955Y-79905357D01*
X100981546Y-80168615D01*
X101091115Y-80489408D01*
X101206078Y-80826910D01*
X101302802Y-81110030D01*
X101399390Y-81391045D01*
X101491307Y-81656886D01*
X101574019Y-81894485D01*
X101642991Y-82090773D01*
X101693689Y-82232683D01*
X101697833Y-82244077D01*
X101762774Y-82425096D01*
X101825758Y-82605681D01*
X101877944Y-82760245D01*
X101901744Y-82834183D01*
X101963249Y-82983222D01*
X102032803Y-83061881D01*
X102109413Y-83069345D01*
X102155106Y-83042057D01*
X102184884Y-82990654D01*
X102201878Y-82890157D01*
X102207816Y-82729646D01*
X102207868Y-82708525D01*
X102228488Y-82406990D01*
X102294114Y-82147112D01*
X102410398Y-81909452D01*
X102463646Y-81828586D01*
X102535827Y-81720903D01*
X102587480Y-81634988D01*
X102607577Y-81589206D01*
X102607582Y-81588917D01*
X102591736Y-81541631D01*
X102550120Y-81449990D01*
X102491621Y-81333516D01*
X102489485Y-81329435D01*
X102422725Y-81188241D01*
X102383840Y-81060842D01*
X102364001Y-80912851D01*
X102358391Y-80818753D01*
X102354527Y-80582208D01*
X102370360Y-80394705D01*
X102410356Y-80234225D01*
X102478983Y-80078749D01*
X102525220Y-79996359D01*
X102669351Y-79800894D01*
X102848202Y-79651547D01*
X103074542Y-79539422D01*
X103269253Y-79478009D01*
X103422078Y-79444392D01*
X103585636Y-79422934D01*
X103771625Y-79413511D01*
X103991740Y-79416001D01*
X104257679Y-79430281D01*
X104581138Y-79456228D01*
X104660133Y-79463393D01*
X104896259Y-79485005D01*
X105142861Y-79507309D01*
X105374945Y-79528061D01*
X105567519Y-79545016D01*
X105615905Y-79549204D01*
X105796756Y-79567352D01*
X105920645Y-79587398D01*
X106003260Y-79613118D01*
X106060291Y-79648287D01*
X106072468Y-79659072D01*
X106144293Y-79717108D01*
X106207622Y-79731823D01*
X106291035Y-79705380D01*
X106344676Y-79679662D01*
X106405449Y-79654977D01*
X106475951Y-79641748D01*
X106572515Y-79639397D01*
X106711472Y-79647342D01*
X106868070Y-79661094D01*
X107150062Y-79687381D01*
X107471175Y-79716808D01*
X107818291Y-79748216D01*
X108178295Y-79780446D01*
X108538069Y-79812336D01*
X108884497Y-79842729D01*
X109204462Y-79870462D01*
X109484847Y-79894378D01*
X109712536Y-79913316D01*
X109802432Y-79920549D01*
X110052587Y-79943541D01*
X110240068Y-79968560D01*
X110374877Y-79997273D01*
X110466713Y-80031195D01*
X110614988Y-80087283D01*
X110734655Y-80095847D01*
X110806392Y-80062778D01*
X110854787Y-80051911D01*
X110960196Y-80048308D01*
X111107423Y-80050992D01*
X111281275Y-80058984D01*
X111466560Y-80071308D01*
X111648082Y-80086984D01*
X111810648Y-80105037D01*
X111939065Y-80124488D01*
X112005549Y-80139938D01*
X112062015Y-80157563D01*
X112108428Y-80176215D01*
X112145822Y-80202695D01*
X112175231Y-80243800D01*
X112197689Y-80306330D01*
X112214228Y-80397085D01*
X112225883Y-80522862D01*
X112233687Y-80690462D01*
X112238675Y-80906683D01*
X112241879Y-81178324D01*
X112244334Y-81512185D01*
X112245704Y-81719564D01*
X112255222Y-83134349D01*
X112352495Y-83145591D01*
X112416661Y-83143182D01*
X112463014Y-83106862D01*
X112509952Y-83020452D01*
X112519854Y-82998394D01*
X112591663Y-82866143D01*
X112682108Y-82736309D01*
X112704197Y-82709823D01*
X112772490Y-82619382D01*
X112813328Y-82540857D01*
X112818455Y-82516271D01*
X112806079Y-82466060D01*
X112552983Y-82466060D01*
X112548208Y-82522729D01*
X112529118Y-82551303D01*
X112487565Y-82595391D01*
X112465596Y-82593218D01*
X112457537Y-82535571D01*
X112457403Y-82434849D01*
X112459727Y-82262246D01*
X112517723Y-82378699D01*
X112552983Y-82466060D01*
X112806079Y-82466060D01*
X112803033Y-82453707D01*
X112762443Y-82348611D01*
X112705200Y-82222852D01*
X112700358Y-82212963D01*
X112645632Y-82096231D01*
X112611016Y-81999754D01*
X112591954Y-81900082D01*
X112583888Y-81773769D01*
X112582260Y-81605269D01*
X112583822Y-81433124D01*
X112591720Y-81310270D01*
X112610772Y-81213335D01*
X112645795Y-81118952D01*
X112701609Y-81003750D01*
X112709442Y-80988377D01*
X112831384Y-80790953D01*
X112979790Y-80630984D01*
X113160508Y-80506746D01*
X113379382Y-80416516D01*
X113642258Y-80358571D01*
X113954983Y-80331188D01*
X114323402Y-80332644D01*
X114753361Y-80361215D01*
X114817024Y-80367111D01*
X115049670Y-80388822D01*
X115286613Y-80410115D01*
X115505546Y-80429040D01*
X115684164Y-80443645D01*
X115743634Y-80448156D01*
X115981821Y-80473824D01*
X116155610Y-80512601D01*
X116272488Y-80566906D01*
X116339943Y-80639159D01*
X116341075Y-80641243D01*
X116350050Y-80685212D01*
X116357524Y-80782413D01*
X116363528Y-80935366D01*
X116368096Y-81146592D01*
X116371260Y-81418608D01*
X116373051Y-81753934D01*
X116373502Y-82155090D01*
X116597030Y-82155090D01*
X116596920Y-82067418D01*
X116595915Y-81721418D01*
X116594283Y-81432006D01*
X116591893Y-81193818D01*
X116588616Y-81001492D01*
X116584320Y-80849667D01*
X116578877Y-80732978D01*
X116572156Y-80646065D01*
X116564026Y-80583563D01*
X116554358Y-80540112D01*
X116543022Y-80510348D01*
X116538136Y-80501318D01*
X116470949Y-80411784D01*
X116382573Y-80345968D01*
X116260210Y-80298980D01*
X116091065Y-80265930D01*
X115862340Y-80241929D01*
X115858558Y-80241626D01*
X115664803Y-80225353D01*
X115427264Y-80204175D01*
X115174444Y-80180695D01*
X114934846Y-80157515D01*
X114907868Y-80154830D01*
X114492400Y-80119881D01*
X114133679Y-80103452D01*
X113835868Y-80105605D01*
X113603129Y-80126405D01*
X113558029Y-80134063D01*
X113226012Y-80224946D01*
X112949701Y-80361566D01*
X112727536Y-80544916D01*
X112562707Y-80767627D01*
X112455761Y-80954091D01*
X112455420Y-80614375D01*
X112447706Y-80391540D01*
X112421496Y-80227071D01*
X112371420Y-80107856D01*
X112292104Y-80020782D01*
X112185864Y-79956413D01*
X112052580Y-79909175D01*
X111910970Y-79883616D01*
X111877003Y-79882131D01*
X111777641Y-79878651D01*
X111627705Y-79869220D01*
X111448912Y-79855350D01*
X111292904Y-79841433D01*
X111070108Y-79824497D01*
X110897815Y-79820294D01*
X110785089Y-79828946D01*
X110763249Y-79834391D01*
X110659266Y-79847290D01*
X110545945Y-79808733D01*
X110543657Y-79807571D01*
X110440506Y-79773500D01*
X110282389Y-79744540D01*
X110086989Y-79723856D01*
X110068312Y-79722518D01*
X109932067Y-79712288D01*
X109738098Y-79696556D01*
X109501043Y-79676569D01*
X109235538Y-79653574D01*
X108956220Y-79628819D01*
X108748641Y-79610045D01*
X108282185Y-79567507D01*
X107882614Y-79531227D01*
X107544440Y-79500818D01*
X107262178Y-79475891D01*
X107030341Y-79456060D01*
X106843442Y-79440936D01*
X106695996Y-79430132D01*
X106582514Y-79423261D01*
X106497512Y-79419934D01*
X106435503Y-79419765D01*
X106391000Y-79422364D01*
X106358516Y-79427346D01*
X106332566Y-79434322D01*
X106320229Y-79438470D01*
X106223175Y-79457156D01*
X106143220Y-79427539D01*
X106132187Y-79420086D01*
X106051256Y-79385862D01*
X105930251Y-79358705D01*
X105846974Y-79348806D01*
X105746214Y-79340479D01*
X105588394Y-79326409D01*
X105388776Y-79308003D01*
X105162620Y-79286670D01*
X104925191Y-79263818D01*
X104915021Y-79262829D01*
X104504735Y-79226020D01*
X104157095Y-79202474D01*
X103863202Y-79192686D01*
X103614155Y-79197153D01*
X103401056Y-79216369D01*
X103215006Y-79250833D01*
X103047104Y-79301039D01*
X102888452Y-79367485D01*
X102868931Y-79376907D01*
X102633689Y-79517532D01*
X102451893Y-79689156D01*
X102306251Y-79909324D01*
X102266805Y-79987925D01*
X102220098Y-80090099D01*
X102188352Y-80175900D01*
X102168687Y-80263404D01*
X102158221Y-80370687D01*
X102154073Y-80515825D01*
X102153362Y-80699728D01*
X102154516Y-80899022D01*
X102159627Y-81043165D01*
X102171166Y-81149666D01*
X102191606Y-81236034D01*
X102223418Y-81319778D01*
X102248778Y-81375594D01*
X102344194Y-81579070D01*
X102220146Y-81775307D01*
X102140394Y-81920015D01*
X102069578Y-82079622D01*
X102038239Y-82169721D01*
X101980381Y-82367897D01*
X101764057Y-81733669D01*
X101594377Y-81236854D01*
X101446196Y-80804490D01*
X101317942Y-80432112D01*
X101208038Y-80115258D01*
X101114910Y-79849463D01*
X101036985Y-79630262D01*
X100972687Y-79453193D01*
X100920442Y-79313790D01*
X100878675Y-79207590D01*
X100845813Y-79130130D01*
X100845712Y-79129904D01*
X100805582Y-79055030D01*
X100753804Y-78994299D01*
X100682069Y-78945407D01*
X100582067Y-78906049D01*
X100445490Y-78873921D01*
X100264028Y-78846719D01*
X100029371Y-78822137D01*
X99733211Y-78797872D01*
X99617690Y-78789332D01*
X99393240Y-78773779D01*
X99228655Y-78764854D01*
X99111400Y-78762858D01*
X99028940Y-78768088D01*
X98968740Y-78780843D01*
X98918265Y-78801424D01*
X98908749Y-78806239D01*
X98872015Y-78824288D01*
X98840456Y-78840549D01*
X98811833Y-78860356D01*
X98783909Y-78889039D01*
X98754446Y-78931931D01*
X98721205Y-78994363D01*
X98681948Y-79081668D01*
X98634437Y-79199178D01*
X98576434Y-79352223D01*
X98505700Y-79546138D01*
X98419998Y-79786252D01*
X98317089Y-80077899D01*
X98194735Y-80426410D01*
X98050698Y-80837118D01*
X98022404Y-80917754D01*
X97939705Y-81153606D01*
X97853330Y-81400284D01*
X97771059Y-81635552D01*
X97700669Y-81837170D01*
X97668837Y-81928537D01*
X97532058Y-82321581D01*
X97508101Y-81474317D01*
X97500477Y-81160585D01*
X97493846Y-80803496D01*
X97488622Y-80432367D01*
X97485223Y-80076514D01*
X97484061Y-79778610D01*
X97483008Y-79477517D01*
X97478778Y-79240098D01*
X97469661Y-79057368D01*
X97453950Y-78920340D01*
X97429936Y-78820031D01*
X97395911Y-78747452D01*
X97350167Y-78693619D01*
X97290996Y-78649546D01*
X97266579Y-78634634D01*
X97175519Y-78601635D01*
X97022529Y-78569816D01*
X96818351Y-78539796D01*
X96573728Y-78512197D01*
X96299402Y-78487635D01*
X96006117Y-78466732D01*
X95704615Y-78450106D01*
X95405638Y-78438376D01*
X95119930Y-78432163D01*
X94858233Y-78432084D01*
X94631289Y-78438760D01*
X94449842Y-78452810D01*
X94357715Y-78466936D01*
X94052432Y-78560892D01*
X93747638Y-78711312D01*
X93459821Y-78906420D01*
X93205470Y-79134443D01*
X93001071Y-79383604D01*
X92941774Y-79478151D01*
X92876423Y-79587608D01*
X92824307Y-79666905D01*
X92796084Y-79699892D01*
X92795307Y-79700050D01*
X92771406Y-79670054D01*
X92724882Y-79589968D01*
X92664536Y-79475229D01*
X92645368Y-79436995D01*
X92417546Y-79051556D01*
X92141861Y-78719130D01*
X91816186Y-78437913D01*
X91438393Y-78206097D01*
X91006356Y-78021875D01*
X90960790Y-78006237D01*
X90561659Y-77872009D01*
X89798569Y-77868701D01*
X89541717Y-77867986D01*
X89344386Y-77869144D01*
X89193428Y-77873346D01*
X89075692Y-77881762D01*
X88978030Y-77895561D01*
X88887290Y-77915915D01*
X88790324Y-77943994D01*
X88726609Y-77964101D01*
X88531486Y-78031118D01*
X88392140Y-78092572D01*
X88293212Y-78157781D01*
X88219343Y-78236063D01*
X88178568Y-78296601D01*
X88109141Y-78410457D01*
X88109006Y-78218237D01*
X88086089Y-78029063D01*
X88023393Y-77862047D01*
X87929590Y-77735885D01*
X87863179Y-77688189D01*
X87798655Y-77668082D01*
X87681856Y-77648214D01*
X87510243Y-77628410D01*
X87281280Y-77608493D01*
X86992431Y-77588285D01*
X86641157Y-77567611D01*
X86224922Y-77546293D01*
X85741190Y-77524154D01*
X85187423Y-77501017D01*
X85165522Y-77500138D01*
X84936125Y-77491287D01*
X84767675Y-77486455D01*
X84648514Y-77486512D01*
G36*
X113895033Y-80585304D02*
G01*
X113890415Y-80585656D01*
X113574377Y-80632788D01*
X113318537Y-80718120D01*
X113119578Y-80844537D01*
X112974178Y-81014925D01*
X112879019Y-81232168D01*
X112830781Y-81499153D01*
X112830078Y-81507321D01*
X112828230Y-81773271D01*
X112875722Y-81997734D01*
X112978582Y-82197585D01*
X113142843Y-82389699D01*
X113146795Y-82393577D01*
X113360212Y-82602405D01*
X113248769Y-82626882D01*
X113122438Y-82683278D01*
X112987672Y-82789845D01*
X112862636Y-82929123D01*
X112765496Y-83083650D01*
X112758601Y-83098011D01*
X112714902Y-83206440D01*
X112688837Y-83317198D01*
X112676373Y-83454738D01*
X112673459Y-83614459D01*
X112689574Y-83900105D01*
X112742166Y-84135218D01*
X112836602Y-84334947D01*
X112978249Y-84514438D01*
X113000309Y-84536974D01*
X113114783Y-84642025D01*
X113235841Y-84730893D01*
X113371684Y-84805897D01*
X113530516Y-84869361D01*
X113720538Y-84923603D01*
X113949954Y-84970946D01*
X114226964Y-85013710D01*
X114559773Y-85054217D01*
X114956581Y-85094786D01*
X114979283Y-85096957D01*
X115238972Y-85121363D01*
X115479177Y-85143275D01*
X115689054Y-85161754D01*
X115857754Y-85175865D01*
X115974432Y-85184670D01*
X116025250Y-85187287D01*
X116125179Y-85187425D01*
X116125179Y-83159300D01*
X115035050Y-83159300D01*
X115035050Y-84322141D01*
X114862446Y-84301803D01*
X114728578Y-84286832D01*
X114565152Y-84269647D01*
X114453648Y-84258490D01*
X114191487Y-84209870D01*
X113989638Y-84120989D01*
X113848265Y-83992032D01*
X113767532Y-83823185D01*
X113747601Y-83614634D01*
X113763989Y-83475421D01*
X113802957Y-83342430D01*
X113869946Y-83243221D01*
X113972846Y-83174872D01*
X114119545Y-83134464D01*
X114317933Y-83119075D01*
X114575898Y-83125784D01*
X114688077Y-83133286D01*
X115035050Y-83159300D01*
X116125179Y-83159300D01*
X116125179Y-81917471D01*
X115035050Y-81917471D01*
X115035050Y-82386003D01*
X114844277Y-82367173D01*
X114695943Y-82350933D01*
X114524626Y-82329935D01*
X114429537Y-82317275D01*
X114293446Y-82290845D01*
X114174316Y-82254799D01*
X114114714Y-82226677D01*
X114004034Y-82114585D01*
X113936764Y-81964858D01*
X113915232Y-81798612D01*
X113941765Y-81636967D01*
X114018689Y-81501040D01*
X114033079Y-81485794D01*
X114077316Y-81444791D01*
X114121890Y-81417911D01*
X114182096Y-81402568D01*
X114273233Y-81396172D01*
X114410598Y-81396136D01*
X114548286Y-81398627D01*
X114717235Y-81403715D01*
X114859808Y-81411130D01*
X114960098Y-81419840D01*
X115001211Y-81428025D01*
X115013905Y-81470275D01*
X115024428Y-81570828D01*
X115031788Y-81715320D01*
X115034990Y-81889388D01*
X115035050Y-81917471D01*
X116125179Y-81917471D01*
X116125179Y-80755619D01*
X116043419Y-80737405D01*
X115948127Y-80722189D01*
X115793657Y-80704490D01*
X115593067Y-80685227D01*
X115359416Y-80665322D01*
X115105762Y-80645695D01*
X114845163Y-80627266D01*
X114590677Y-80610955D01*
X114355362Y-80597683D01*
X114152278Y-80588370D01*
X113994483Y-80583937D01*
X113895033Y-80585304D01*
G37*
X113895033Y-80585304D02*
X113890415Y-80585656D01*
X113574377Y-80632788D01*
X113318537Y-80718120D01*
X113119578Y-80844537D01*
X112974178Y-81014925D01*
X112879019Y-81232168D01*
X112830781Y-81499153D01*
X112830078Y-81507321D01*
X112828230Y-81773271D01*
X112875722Y-81997734D01*
X112978582Y-82197585D01*
X113142843Y-82389699D01*
X113146795Y-82393577D01*
X113360212Y-82602405D01*
X113248769Y-82626882D01*
X113122438Y-82683278D01*
X112987672Y-82789845D01*
X112862636Y-82929123D01*
X112765496Y-83083650D01*
X112758601Y-83098011D01*
X112714902Y-83206440D01*
X112688837Y-83317198D01*
X112676373Y-83454738D01*
X112673459Y-83614459D01*
X112689574Y-83900105D01*
X112742166Y-84135218D01*
X112836602Y-84334947D01*
X112978249Y-84514438D01*
X113000309Y-84536974D01*
X113114783Y-84642025D01*
X113235841Y-84730893D01*
X113371684Y-84805897D01*
X113530516Y-84869361D01*
X113720538Y-84923603D01*
X113949954Y-84970946D01*
X114226964Y-85013710D01*
X114559773Y-85054217D01*
X114956581Y-85094786D01*
X114979283Y-85096957D01*
X115238972Y-85121363D01*
X115479177Y-85143275D01*
X115689054Y-85161754D01*
X115857754Y-85175865D01*
X115974432Y-85184670D01*
X116025250Y-85187287D01*
X116125179Y-85187425D01*
X116125179Y-83159300D01*
X115035050Y-83159300D01*
X115035050Y-84322141D01*
X114862446Y-84301803D01*
X114728578Y-84286832D01*
X114565152Y-84269647D01*
X114453648Y-84258490D01*
X114191487Y-84209870D01*
X113989638Y-84120989D01*
X113848265Y-83992032D01*
X113767532Y-83823185D01*
X113747601Y-83614634D01*
X113763989Y-83475421D01*
X113802957Y-83342430D01*
X113869946Y-83243221D01*
X113972846Y-83174872D01*
X114119545Y-83134464D01*
X114317933Y-83119075D01*
X114575898Y-83125784D01*
X114688077Y-83133286D01*
X115035050Y-83159300D01*
X116125179Y-83159300D01*
X116125179Y-81917471D01*
X115035050Y-81917471D01*
X115035050Y-82386003D01*
X114844277Y-82367173D01*
X114695943Y-82350933D01*
X114524626Y-82329935D01*
X114429537Y-82317275D01*
X114293446Y-82290845D01*
X114174316Y-82254799D01*
X114114714Y-82226677D01*
X114004034Y-82114585D01*
X113936764Y-81964858D01*
X113915232Y-81798612D01*
X113941765Y-81636967D01*
X114018689Y-81501040D01*
X114033079Y-81485794D01*
X114077316Y-81444791D01*
X114121890Y-81417911D01*
X114182096Y-81402568D01*
X114273233Y-81396172D01*
X114410598Y-81396136D01*
X114548286Y-81398627D01*
X114717235Y-81403715D01*
X114859808Y-81411130D01*
X114960098Y-81419840D01*
X115001211Y-81428025D01*
X115013905Y-81470275D01*
X115024428Y-81570828D01*
X115031788Y-81715320D01*
X115034990Y-81889388D01*
X115035050Y-81917471D01*
X116125179Y-81917471D01*
X116125179Y-80755619D01*
X116043419Y-80737405D01*
X115948127Y-80722189D01*
X115793657Y-80704490D01*
X115593067Y-80685227D01*
X115359416Y-80665322D01*
X115105762Y-80645695D01*
X114845163Y-80627266D01*
X114590677Y-80610955D01*
X114355362Y-80597683D01*
X114152278Y-80588370D01*
X113994483Y-80583937D01*
X113895033Y-80585304D01*
G36*
X110901366Y-82507525D02*
G01*
X110910730Y-84733204D01*
X111310443Y-84775214D01*
X111488938Y-84792980D01*
X111654816Y-84807727D01*
X111786129Y-84817598D01*
X111846703Y-84820636D01*
X111983248Y-84824048D01*
X111973884Y-82598369D01*
X111964521Y-80372689D01*
X111510300Y-80329969D01*
X111328940Y-80313300D01*
X111167871Y-80299212D01*
X111044247Y-80289157D01*
X110975223Y-80284588D01*
X110974041Y-80284547D01*
X110892002Y-80281845D01*
X110901366Y-82507525D01*
G37*
X110901366Y-82507525D02*
X110910730Y-84733204D01*
X111310443Y-84775214D01*
X111488938Y-84792980D01*
X111654816Y-84807727D01*
X111786129Y-84817598D01*
X111846703Y-84820636D01*
X111983248Y-84824048D01*
X111973884Y-82598369D01*
X111964521Y-80372689D01*
X111510300Y-80329969D01*
X111328940Y-80313300D01*
X111167871Y-80299212D01*
X111044247Y-80289157D01*
X110975223Y-80284588D01*
X110974041Y-80284547D01*
X110892002Y-80281845D01*
X110901366Y-82507525D01*
G36*
X106459370Y-80747846D02*
G01*
X106595637Y-80768087D01*
X106683075Y-80778600D01*
X106824447Y-80792835D01*
X107001214Y-80809032D01*
X107194843Y-80825429D01*
X107222461Y-80827657D01*
X107410597Y-80843492D01*
X107578275Y-80858991D01*
X107709215Y-80872552D01*
X107787141Y-80882572D01*
X107794778Y-80883979D01*
X107876538Y-80900969D01*
X107876538Y-84454898D01*
X107976466Y-84474053D01*
X108059110Y-84485510D01*
X108189665Y-84498893D01*
X108343496Y-84511749D01*
X108385265Y-84514773D01*
X108547666Y-84527351D01*
X108699682Y-84541249D01*
X108813318Y-84553860D01*
X108830400Y-84556205D01*
X108966667Y-84576073D01*
X108966667Y-80968967D01*
X109084764Y-80987811D01*
X109165741Y-80997897D01*
X109300888Y-81011727D01*
X109471908Y-81027536D01*
X109660504Y-81043559D01*
X109675250Y-81044753D01*
X109862241Y-81060468D01*
X110030924Y-81075803D01*
X110163806Y-81089091D01*
X110243391Y-81098663D01*
X110247568Y-81099322D01*
X110347496Y-81115794D01*
X110347496Y-80681343D01*
X110346894Y-80497709D01*
X110343565Y-80374133D01*
X110335225Y-80298000D01*
X110319588Y-80256693D01*
X110294371Y-80237597D01*
X110265737Y-80229829D01*
X110213708Y-80223239D01*
X110096836Y-80211072D01*
X109922678Y-80194036D01*
X109698795Y-80172840D01*
X109432746Y-80148191D01*
X109132088Y-80120799D01*
X108804382Y-80091370D01*
X108494277Y-80063879D01*
X108144801Y-80032960D01*
X107812313Y-80003304D01*
X107504904Y-79975651D01*
X107230667Y-79950740D01*
X106997694Y-79929307D01*
X106814079Y-79912094D01*
X106687912Y-79899837D01*
X106631974Y-79893880D01*
X106459370Y-79872768D01*
X106459370Y-80747846D01*
G37*
X106459370Y-80747846D02*
X106595637Y-80768087D01*
X106683075Y-80778600D01*
X106824447Y-80792835D01*
X107001214Y-80809032D01*
X107194843Y-80825429D01*
X107222461Y-80827657D01*
X107410597Y-80843492D01*
X107578275Y-80858991D01*
X107709215Y-80872552D01*
X107787141Y-80882572D01*
X107794778Y-80883979D01*
X107876538Y-80900969D01*
X107876538Y-84454898D01*
X107976466Y-84474053D01*
X108059110Y-84485510D01*
X108189665Y-84498893D01*
X108343496Y-84511749D01*
X108385265Y-84514773D01*
X108547666Y-84527351D01*
X108699682Y-84541249D01*
X108813318Y-84553860D01*
X108830400Y-84556205D01*
X108966667Y-84576073D01*
X108966667Y-80968967D01*
X109084764Y-80987811D01*
X109165741Y-80997897D01*
X109300888Y-81011727D01*
X109471908Y-81027536D01*
X109660504Y-81043559D01*
X109675250Y-81044753D01*
X109862241Y-81060468D01*
X110030924Y-81075803D01*
X110163806Y-81089091D01*
X110243391Y-81098663D01*
X110247568Y-81099322D01*
X110347496Y-81115794D01*
X110347496Y-80681343D01*
X110346894Y-80497709D01*
X110343565Y-80374133D01*
X110335225Y-80298000D01*
X110319588Y-80256693D01*
X110294371Y-80237597D01*
X110265737Y-80229829D01*
X110213708Y-80223239D01*
X110096836Y-80211072D01*
X109922678Y-80194036D01*
X109698795Y-80172840D01*
X109432746Y-80148191D01*
X109132088Y-80120799D01*
X108804382Y-80091370D01*
X108494277Y-80063879D01*
X108144801Y-80032960D01*
X107812313Y-80003304D01*
X107504904Y-79975651D01*
X107230667Y-79950740D01*
X106997694Y-79929307D01*
X106814079Y-79912094D01*
X106687912Y-79899837D01*
X106631974Y-79893880D01*
X106459370Y-79872768D01*
X106459370Y-80747846D01*
G36*
X103650106Y-79675927D02*
G01*
X103645048Y-79676323D01*
X103329902Y-79726255D01*
X103073509Y-79818575D01*
X102874708Y-79954535D01*
X102732339Y-80135387D01*
X102645242Y-80362384D01*
X102612256Y-80636776D01*
X102615409Y-80787484D01*
X102647350Y-81028448D01*
X102717375Y-81223434D01*
X102835366Y-81393443D01*
X102956887Y-81513339D01*
X103043009Y-81592687D01*
X103099099Y-81651294D01*
X103112841Y-81675012D01*
X103072256Y-81694963D01*
X102993069Y-81728223D01*
X102984188Y-81731770D01*
X102837879Y-81819522D01*
X102694334Y-81957189D01*
X102574312Y-82124275D01*
X102559245Y-82151310D01*
X102523063Y-82229381D01*
X102499753Y-82313322D01*
X102486671Y-82421496D01*
X102481167Y-82572266D01*
X102480400Y-82698297D01*
X102482276Y-82883817D01*
X102490087Y-83017446D01*
X102507108Y-83119918D01*
X102536614Y-83211968D01*
X102575598Y-83301011D01*
X102654320Y-83440942D01*
X102751951Y-83577633D01*
X102809355Y-83642569D01*
X102973990Y-83771757D01*
X103192365Y-83890733D01*
X103445566Y-83990991D01*
X103714678Y-84064025D01*
X103771198Y-84075064D01*
X103867177Y-84089163D01*
X104021030Y-84107869D01*
X104219878Y-84129941D01*
X104450844Y-84154140D01*
X104701049Y-84179228D01*
X104957613Y-84203965D01*
X105207659Y-84227111D01*
X105438308Y-84247429D01*
X105636681Y-84263677D01*
X105789901Y-84274618D01*
X105885087Y-84279012D01*
X105891104Y-84279044D01*
X105896519Y-84243721D01*
X105901196Y-84141875D01*
X105905086Y-83979652D01*
X105908138Y-83763201D01*
X105910302Y-83498669D01*
X105911529Y-83192204D01*
X105911767Y-82849955D01*
X105910968Y-82478069D01*
X105909883Y-82250859D01*
X104824177Y-82250859D01*
X104824177Y-83411282D01*
X104560730Y-83388164D01*
X104393338Y-83371079D01*
X104222071Y-83349817D01*
X104102516Y-83331953D01*
X103879342Y-83270573D01*
X103716867Y-83170461D01*
X103612117Y-83027915D01*
X103562116Y-82839235D01*
X103559294Y-82656305D01*
X103580133Y-82499264D01*
X103625283Y-82380184D01*
X103702554Y-82295396D01*
X103819754Y-82241228D01*
X103984694Y-82214010D01*
X104205182Y-82210071D01*
X104477205Y-82224846D01*
X104824177Y-82250859D01*
X105909883Y-82250859D01*
X105909079Y-82082693D01*
X105909058Y-82079099D01*
X105905754Y-81594792D01*
X105902086Y-81179199D01*
X105897954Y-80828359D01*
X105893317Y-80541983D01*
X104824177Y-80541983D01*
X104824177Y-80987260D01*
X104822868Y-81159486D01*
X104819296Y-81303611D01*
X104814002Y-81405020D01*
X104807520Y-81449102D01*
X104807174Y-81449539D01*
X104760377Y-81457333D01*
X104660329Y-81453996D01*
X104525210Y-81441792D01*
X104373202Y-81422983D01*
X104222484Y-81399831D01*
X104091236Y-81374600D01*
X103997639Y-81349550D01*
X103994420Y-81348397D01*
X103839146Y-81257943D01*
X103739910Y-81121936D01*
X103698883Y-80943607D01*
X103697847Y-80906865D01*
X103717352Y-80731379D01*
X103779606Y-80603728D01*
X103889693Y-80520559D01*
X104052697Y-80478520D01*
X104273702Y-80474257D01*
X104346128Y-80479330D01*
X104495661Y-80493488D01*
X104629024Y-80508592D01*
X104719257Y-80521563D01*
X104724249Y-80522503D01*
X104824177Y-80541983D01*
X105893317Y-80541983D01*
X105893257Y-80538313D01*
X105887892Y-80305099D01*
X105881760Y-80124757D01*
X105874758Y-79993326D01*
X105866787Y-79906846D01*
X105857744Y-79861357D01*
X105852220Y-79852338D01*
X105796884Y-79837584D01*
X105680346Y-79819817D01*
X105513978Y-79799945D01*
X105309146Y-79778873D01*
X105077221Y-79757509D01*
X104829570Y-79736759D01*
X104577564Y-79717530D01*
X104332571Y-79700728D01*
X104105960Y-79687260D01*
X103909099Y-79678033D01*
X103753358Y-79673953D01*
X103650106Y-79675927D01*
G37*
X103650106Y-79675927D02*
X103645048Y-79676323D01*
X103329902Y-79726255D01*
X103073509Y-79818575D01*
X102874708Y-79954535D01*
X102732339Y-80135387D01*
X102645242Y-80362384D01*
X102612256Y-80636776D01*
X102615409Y-80787484D01*
X102647350Y-81028448D01*
X102717375Y-81223434D01*
X102835366Y-81393443D01*
X102956887Y-81513339D01*
X103043009Y-81592687D01*
X103099099Y-81651294D01*
X103112841Y-81675012D01*
X103072256Y-81694963D01*
X102993069Y-81728223D01*
X102984188Y-81731770D01*
X102837879Y-81819522D01*
X102694334Y-81957189D01*
X102574312Y-82124275D01*
X102559245Y-82151310D01*
X102523063Y-82229381D01*
X102499753Y-82313322D01*
X102486671Y-82421496D01*
X102481167Y-82572266D01*
X102480400Y-82698297D01*
X102482276Y-82883817D01*
X102490087Y-83017446D01*
X102507108Y-83119918D01*
X102536614Y-83211968D01*
X102575598Y-83301011D01*
X102654320Y-83440942D01*
X102751951Y-83577633D01*
X102809355Y-83642569D01*
X102973990Y-83771757D01*
X103192365Y-83890733D01*
X103445566Y-83990991D01*
X103714678Y-84064025D01*
X103771198Y-84075064D01*
X103867177Y-84089163D01*
X104021030Y-84107869D01*
X104219878Y-84129941D01*
X104450844Y-84154140D01*
X104701049Y-84179228D01*
X104957613Y-84203965D01*
X105207659Y-84227111D01*
X105438308Y-84247429D01*
X105636681Y-84263677D01*
X105789901Y-84274618D01*
X105885087Y-84279012D01*
X105891104Y-84279044D01*
X105896519Y-84243721D01*
X105901196Y-84141875D01*
X105905086Y-83979652D01*
X105908138Y-83763201D01*
X105910302Y-83498669D01*
X105911529Y-83192204D01*
X105911767Y-82849955D01*
X105910968Y-82478069D01*
X105909883Y-82250859D01*
X104824177Y-82250859D01*
X104824177Y-83411282D01*
X104560730Y-83388164D01*
X104393338Y-83371079D01*
X104222071Y-83349817D01*
X104102516Y-83331953D01*
X103879342Y-83270573D01*
X103716867Y-83170461D01*
X103612117Y-83027915D01*
X103562116Y-82839235D01*
X103559294Y-82656305D01*
X103580133Y-82499264D01*
X103625283Y-82380184D01*
X103702554Y-82295396D01*
X103819754Y-82241228D01*
X103984694Y-82214010D01*
X104205182Y-82210071D01*
X104477205Y-82224846D01*
X104824177Y-82250859D01*
X105909883Y-82250859D01*
X105909079Y-82082693D01*
X105909058Y-82079099D01*
X105905754Y-81594792D01*
X105902086Y-81179199D01*
X105897954Y-80828359D01*
X105893317Y-80541983D01*
X104824177Y-80541983D01*
X104824177Y-80987260D01*
X104822868Y-81159486D01*
X104819296Y-81303611D01*
X104814002Y-81405020D01*
X104807520Y-81449102D01*
X104807174Y-81449539D01*
X104760377Y-81457333D01*
X104660329Y-81453996D01*
X104525210Y-81441792D01*
X104373202Y-81422983D01*
X104222484Y-81399831D01*
X104091236Y-81374600D01*
X103997639Y-81349550D01*
X103994420Y-81348397D01*
X103839146Y-81257943D01*
X103739910Y-81121936D01*
X103698883Y-80943607D01*
X103697847Y-80906865D01*
X103717352Y-80731379D01*
X103779606Y-80603728D01*
X103889693Y-80520559D01*
X104052697Y-80478520D01*
X104273702Y-80474257D01*
X104346128Y-80479330D01*
X104495661Y-80493488D01*
X104629024Y-80508592D01*
X104719257Y-80521563D01*
X104724249Y-80522503D01*
X104824177Y-80541983D01*
X105893317Y-80541983D01*
X105893257Y-80538313D01*
X105887892Y-80305099D01*
X105881760Y-80124757D01*
X105874758Y-79993326D01*
X105866787Y-79906846D01*
X105857744Y-79861357D01*
X105852220Y-79852338D01*
X105796884Y-79837584D01*
X105680346Y-79819817D01*
X105513978Y-79799945D01*
X105309146Y-79778873D01*
X105077221Y-79757509D01*
X104829570Y-79736759D01*
X104577564Y-79717530D01*
X104332571Y-79700728D01*
X104105960Y-79687260D01*
X103909099Y-79678033D01*
X103753358Y-79673953D01*
X103650106Y-79675927D01*
G36*
X99137413Y-79234490D02*
G01*
X99136520Y-79234929D01*
X99120568Y-79272998D01*
X99082134Y-79376285D01*
X99022446Y-79541310D01*
X98942736Y-79764594D01*
X98844235Y-80042655D01*
X98728172Y-80372015D01*
X98595778Y-80749194D01*
X98448283Y-81170712D01*
X98286918Y-81633089D01*
X98175357Y-81953376D01*
X98085970Y-82209435D01*
X97995883Y-82466154D01*
X97910678Y-82707726D01*
X97835937Y-82918343D01*
X97777239Y-83082198D01*
X97760053Y-83129599D01*
X97706026Y-83280270D01*
X97662872Y-83405295D01*
X97635849Y-83489151D01*
X97629328Y-83515542D01*
X97663002Y-83526825D01*
X97753750Y-83541803D01*
X97886156Y-83558959D01*
X98044805Y-83576777D01*
X98214280Y-83593741D01*
X98379169Y-83608334D01*
X98524054Y-83619041D01*
X98633521Y-83624344D01*
X98692155Y-83622729D01*
X98697573Y-83620618D01*
X98713226Y-83582590D01*
X98746522Y-83490125D01*
X98792318Y-83357798D01*
X98837121Y-83225193D01*
X98891006Y-83072518D01*
X98939696Y-82949818D01*
X98977371Y-82870846D01*
X98996531Y-82848391D01*
X99040765Y-82852726D01*
X99146267Y-82862138D01*
X99301882Y-82875660D01*
X99496453Y-82892326D01*
X99718825Y-82911169D01*
X99791416Y-82917281D01*
X100021867Y-82937726D01*
X100229537Y-82958180D01*
X100402847Y-82977338D01*
X100530220Y-82993897D01*
X100600078Y-83006549D01*
X100607937Y-83009308D01*
X100640244Y-83053362D01*
X100687320Y-83151729D01*
X100742532Y-83289269D01*
X100792673Y-83430963D01*
X100923978Y-83824738D01*
X101084450Y-83847562D01*
X101206460Y-83862304D01*
X101357148Y-83876726D01*
X101520639Y-83889806D01*
X101681060Y-83900522D01*
X101822537Y-83907854D01*
X101929195Y-83910781D01*
X101985160Y-83908280D01*
X101989843Y-83905817D01*
X101988372Y-83897260D01*
X101982698Y-83877129D01*
X101970930Y-83839843D01*
X101951175Y-83779820D01*
X101921540Y-83691478D01*
X101880135Y-83569236D01*
X101825065Y-83407512D01*
X101754440Y-83200725D01*
X101666368Y-82943292D01*
X101558955Y-82629633D01*
X101430311Y-82254166D01*
X101395722Y-82153233D01*
X101380814Y-82109823D01*
X100354649Y-82109823D01*
X100349893Y-82122633D01*
X100328951Y-82130395D01*
X100281815Y-82132840D01*
X100198473Y-82129697D01*
X100068918Y-82120694D01*
X99883140Y-82105562D01*
X99736910Y-82093118D01*
X99556988Y-82077349D01*
X99405460Y-82063414D01*
X99295798Y-82052599D01*
X99241473Y-82046195D01*
X99238045Y-82045393D01*
X99245018Y-82010130D01*
X99271611Y-81917727D01*
X99314000Y-81779834D01*
X99368360Y-81608097D01*
X99430865Y-81414168D01*
X99497690Y-81209695D01*
X99565011Y-81006327D01*
X99629002Y-80815713D01*
X99685838Y-80649503D01*
X99731695Y-80519345D01*
X99762746Y-80436889D01*
X99773895Y-80413481D01*
X99790463Y-80439866D01*
X99825526Y-80524284D01*
X99875269Y-80655599D01*
X99935883Y-80822677D01*
X100003553Y-81014382D01*
X100074469Y-81219581D01*
X100144819Y-81427137D01*
X100210789Y-81625916D01*
X100268568Y-81804783D01*
X100314344Y-81952602D01*
X100344304Y-82058240D01*
X100354649Y-82109823D01*
X101380814Y-82109823D01*
X101289629Y-81844311D01*
X101179390Y-81524533D01*
X101067583Y-81201264D01*
X100956782Y-80881874D01*
X100849562Y-80573730D01*
X100748500Y-80284200D01*
X100656170Y-80020652D01*
X100575147Y-79790455D01*
X100508008Y-79600975D01*
X100457328Y-79459581D01*
X100425681Y-79373640D01*
X100415800Y-79349767D01*
X100376733Y-79341839D01*
X100279838Y-79329691D01*
X100139404Y-79314605D01*
X99969717Y-79297865D01*
X99785065Y-79280751D01*
X99599737Y-79264548D01*
X99428020Y-79250538D01*
X99284202Y-79240003D01*
X99182570Y-79234226D01*
X99137413Y-79234490D01*
G37*
X99137413Y-79234490D02*
X99136520Y-79234929D01*
X99120568Y-79272998D01*
X99082134Y-79376285D01*
X99022446Y-79541310D01*
X98942736Y-79764594D01*
X98844235Y-80042655D01*
X98728172Y-80372015D01*
X98595778Y-80749194D01*
X98448283Y-81170712D01*
X98286918Y-81633089D01*
X98175357Y-81953376D01*
X98085970Y-82209435D01*
X97995883Y-82466154D01*
X97910678Y-82707726D01*
X97835937Y-82918343D01*
X97777239Y-83082198D01*
X97760053Y-83129599D01*
X97706026Y-83280270D01*
X97662872Y-83405295D01*
X97635849Y-83489151D01*
X97629328Y-83515542D01*
X97663002Y-83526825D01*
X97753750Y-83541803D01*
X97886156Y-83558959D01*
X98044805Y-83576777D01*
X98214280Y-83593741D01*
X98379169Y-83608334D01*
X98524054Y-83619041D01*
X98633521Y-83624344D01*
X98692155Y-83622729D01*
X98697573Y-83620618D01*
X98713226Y-83582590D01*
X98746522Y-83490125D01*
X98792318Y-83357798D01*
X98837121Y-83225193D01*
X98891006Y-83072518D01*
X98939696Y-82949818D01*
X98977371Y-82870846D01*
X98996531Y-82848391D01*
X99040765Y-82852726D01*
X99146267Y-82862138D01*
X99301882Y-82875660D01*
X99496453Y-82892326D01*
X99718825Y-82911169D01*
X99791416Y-82917281D01*
X100021867Y-82937726D01*
X100229537Y-82958180D01*
X100402847Y-82977338D01*
X100530220Y-82993897D01*
X100600078Y-83006549D01*
X100607937Y-83009308D01*
X100640244Y-83053362D01*
X100687320Y-83151729D01*
X100742532Y-83289269D01*
X100792673Y-83430963D01*
X100923978Y-83824738D01*
X101084450Y-83847562D01*
X101206460Y-83862304D01*
X101357148Y-83876726D01*
X101520639Y-83889806D01*
X101681060Y-83900522D01*
X101822537Y-83907854D01*
X101929195Y-83910781D01*
X101985160Y-83908280D01*
X101989843Y-83905817D01*
X101988372Y-83897260D01*
X101982698Y-83877129D01*
X101970930Y-83839843D01*
X101951175Y-83779820D01*
X101921540Y-83691478D01*
X101880135Y-83569236D01*
X101825065Y-83407512D01*
X101754440Y-83200725D01*
X101666368Y-82943292D01*
X101558955Y-82629633D01*
X101430311Y-82254166D01*
X101395722Y-82153233D01*
X101380814Y-82109823D01*
X100354649Y-82109823D01*
X100349893Y-82122633D01*
X100328951Y-82130395D01*
X100281815Y-82132840D01*
X100198473Y-82129697D01*
X100068918Y-82120694D01*
X99883140Y-82105562D01*
X99736910Y-82093118D01*
X99556988Y-82077349D01*
X99405460Y-82063414D01*
X99295798Y-82052599D01*
X99241473Y-82046195D01*
X99238045Y-82045393D01*
X99245018Y-82010130D01*
X99271611Y-81917727D01*
X99314000Y-81779834D01*
X99368360Y-81608097D01*
X99430865Y-81414168D01*
X99497690Y-81209695D01*
X99565011Y-81006327D01*
X99629002Y-80815713D01*
X99685838Y-80649503D01*
X99731695Y-80519345D01*
X99762746Y-80436889D01*
X99773895Y-80413481D01*
X99790463Y-80439866D01*
X99825526Y-80524284D01*
X99875269Y-80655599D01*
X99935883Y-80822677D01*
X100003553Y-81014382D01*
X100074469Y-81219581D01*
X100144819Y-81427137D01*
X100210789Y-81625916D01*
X100268568Y-81804783D01*
X100314344Y-81952602D01*
X100344304Y-82058240D01*
X100354649Y-82109823D01*
X101380814Y-82109823D01*
X101289629Y-81844311D01*
X101179390Y-81524533D01*
X101067583Y-81201264D01*
X100956782Y-80881874D01*
X100849562Y-80573730D01*
X100748500Y-80284200D01*
X100656170Y-80020652D01*
X100575147Y-79790455D01*
X100508008Y-79600975D01*
X100457328Y-79459581D01*
X100425681Y-79373640D01*
X100415800Y-79349767D01*
X100376733Y-79341839D01*
X100279838Y-79329691D01*
X100139404Y-79314605D01*
X99969717Y-79297865D01*
X99785065Y-79280751D01*
X99599737Y-79264548D01*
X99428020Y-79250538D01*
X99284202Y-79240003D01*
X99182570Y-79234226D01*
X99137413Y-79234490D01*
G36*
X94887164Y-78906541D02*
G01*
X94657013Y-78920869D01*
X94464880Y-78949252D01*
X94293684Y-78994474D01*
X94126347Y-79059319D01*
X94076116Y-79082186D01*
X93786987Y-79256636D01*
X93541972Y-79486811D01*
X93344544Y-79768187D01*
X93198175Y-80096238D01*
X93138619Y-80303664D01*
X93093777Y-80610116D01*
X93089753Y-80951838D01*
X93123818Y-81305916D01*
X93193239Y-81649438D01*
X93295287Y-81959491D01*
X93350400Y-82080558D01*
X93520990Y-82351081D01*
X93746504Y-82608326D01*
X94009252Y-82836054D01*
X94291545Y-83018030D01*
X94456774Y-83096018D01*
X94666429Y-83168626D01*
X94921786Y-83234351D01*
X95227795Y-83293991D01*
X95589408Y-83348344D01*
X96011573Y-83398209D01*
X96499241Y-83444384D01*
X96735809Y-83463736D01*
X97059602Y-83489125D01*
X97048295Y-82521804D01*
X95968839Y-82521804D01*
X95663533Y-82491512D01*
X95479003Y-82466145D01*
X95283039Y-82428150D01*
X95116616Y-82385527D01*
X95109773Y-82383408D01*
X94924168Y-82311099D01*
X94767231Y-82212484D01*
X94662535Y-82123920D01*
X94471931Y-81915059D01*
X94336969Y-81683043D01*
X94253303Y-81416861D01*
X94216584Y-81105499D01*
X94214022Y-80987940D01*
X94238851Y-80658295D01*
X94313956Y-80379395D01*
X94438699Y-80152190D01*
X94612443Y-79977630D01*
X94834551Y-79856666D01*
X95006296Y-79806865D01*
X95109026Y-79793584D01*
X95250030Y-79785920D01*
X95411502Y-79783536D01*
X95575634Y-79786094D01*
X95724619Y-79793257D01*
X95840649Y-79804687D01*
X95905918Y-79820047D01*
X95911802Y-79824024D01*
X95915929Y-79862702D01*
X95920767Y-79965915D01*
X95926097Y-80125530D01*
X95931703Y-80333414D01*
X95937364Y-80581432D01*
X95942863Y-80861452D01*
X95947982Y-81165340D01*
X95948221Y-81180814D01*
X95968839Y-82521804D01*
X97048295Y-82521804D01*
X97033755Y-81278018D01*
X97028862Y-80883970D01*
X97023685Y-80511808D01*
X97018348Y-80167836D01*
X97012977Y-79858359D01*
X97007694Y-79589681D01*
X97002625Y-79368107D01*
X96997894Y-79199943D01*
X96993626Y-79091491D01*
X96989944Y-79049057D01*
X96989760Y-79048763D01*
X96944578Y-79036131D01*
X96838599Y-79020578D01*
X96683597Y-79003045D01*
X96491347Y-78984474D01*
X96273624Y-78965806D01*
X96042203Y-78947983D01*
X95808859Y-78931944D01*
X95585367Y-78918633D01*
X95383502Y-78908990D01*
X95215038Y-78903956D01*
X95172413Y-78903484D01*
X94887164Y-78906541D01*
G37*
X94887164Y-78906541D02*
X94657013Y-78920869D01*
X94464880Y-78949252D01*
X94293684Y-78994474D01*
X94126347Y-79059319D01*
X94076116Y-79082186D01*
X93786987Y-79256636D01*
X93541972Y-79486811D01*
X93344544Y-79768187D01*
X93198175Y-80096238D01*
X93138619Y-80303664D01*
X93093777Y-80610116D01*
X93089753Y-80951838D01*
X93123818Y-81305916D01*
X93193239Y-81649438D01*
X93295287Y-81959491D01*
X93350400Y-82080558D01*
X93520990Y-82351081D01*
X93746504Y-82608326D01*
X94009252Y-82836054D01*
X94291545Y-83018030D01*
X94456774Y-83096018D01*
X94666429Y-83168626D01*
X94921786Y-83234351D01*
X95227795Y-83293991D01*
X95589408Y-83348344D01*
X96011573Y-83398209D01*
X96499241Y-83444384D01*
X96735809Y-83463736D01*
X97059602Y-83489125D01*
X97048295Y-82521804D01*
X95968839Y-82521804D01*
X95663533Y-82491512D01*
X95479003Y-82466145D01*
X95283039Y-82428150D01*
X95116616Y-82385527D01*
X95109773Y-82383408D01*
X94924168Y-82311099D01*
X94767231Y-82212484D01*
X94662535Y-82123920D01*
X94471931Y-81915059D01*
X94336969Y-81683043D01*
X94253303Y-81416861D01*
X94216584Y-81105499D01*
X94214022Y-80987940D01*
X94238851Y-80658295D01*
X94313956Y-80379395D01*
X94438699Y-80152190D01*
X94612443Y-79977630D01*
X94834551Y-79856666D01*
X95006296Y-79806865D01*
X95109026Y-79793584D01*
X95250030Y-79785920D01*
X95411502Y-79783536D01*
X95575634Y-79786094D01*
X95724619Y-79793257D01*
X95840649Y-79804687D01*
X95905918Y-79820047D01*
X95911802Y-79824024D01*
X95915929Y-79862702D01*
X95920767Y-79965915D01*
X95926097Y-80125530D01*
X95931703Y-80333414D01*
X95937364Y-80581432D01*
X95942863Y-80861452D01*
X95947982Y-81165340D01*
X95948221Y-81180814D01*
X95968839Y-82521804D01*
X97048295Y-82521804D01*
X97033755Y-81278018D01*
X97028862Y-80883970D01*
X97023685Y-80511808D01*
X97018348Y-80167836D01*
X97012977Y-79858359D01*
X97007694Y-79589681D01*
X97002625Y-79368107D01*
X96997894Y-79199943D01*
X96993626Y-79091491D01*
X96989944Y-79049057D01*
X96989760Y-79048763D01*
X96944578Y-79036131D01*
X96838599Y-79020578D01*
X96683597Y-79003045D01*
X96491347Y-78984474D01*
X96273624Y-78965806D01*
X96042203Y-78947983D01*
X95808859Y-78931944D01*
X95585367Y-78918633D01*
X95383502Y-78908990D01*
X95215038Y-78903956D01*
X95172413Y-78903484D01*
X94887164Y-78906541D01*
G36*
X89511544Y-78341034D02*
G01*
X89237875Y-78361143D01*
X89008678Y-78395689D01*
X88976999Y-78402715D01*
X88815061Y-78441552D01*
X88703378Y-78477761D01*
X88633522Y-78524654D01*
X88597062Y-78595544D01*
X88585572Y-78703742D01*
X88590621Y-78862561D01*
X88598825Y-78999994D01*
X88625185Y-79438724D01*
X88825459Y-79350154D01*
X89194370Y-79224240D01*
X89588687Y-79162913D01*
X89781850Y-79155916D01*
X90148722Y-79182826D01*
X90468196Y-79264815D01*
X90740109Y-79401742D01*
X90964299Y-79593466D01*
X91140601Y-79839846D01*
X91268854Y-80140743D01*
X91348893Y-80496014D01*
X91350661Y-80508310D01*
X91371495Y-80831887D01*
X91343006Y-81136137D01*
X91268881Y-81412591D01*
X91152811Y-81652778D01*
X90998485Y-81848229D01*
X90809594Y-81990473D01*
X90680377Y-82047031D01*
X90493841Y-82087413D01*
X90267509Y-82104259D01*
X90030353Y-82097546D01*
X89811344Y-82067247D01*
X89733015Y-82047854D01*
X89621061Y-82012829D01*
X89559971Y-81978294D01*
X89530744Y-81924721D01*
X89514381Y-81832578D01*
X89512868Y-81821561D01*
X89501044Y-81696863D01*
X89492696Y-81535425D01*
X89489699Y-81379857D01*
X89489699Y-81107183D01*
X90143777Y-81156559D01*
X90143777Y-80773709D01*
X90141367Y-80616691D01*
X90134850Y-80490706D01*
X90125292Y-80410781D01*
X90116524Y-80390078D01*
X90073655Y-80386534D01*
X89969642Y-80377087D01*
X89815683Y-80362778D01*
X89622974Y-80344651D01*
X89402713Y-80323749D01*
X89344349Y-80318183D01*
X89116043Y-80296636D01*
X88909746Y-80277636D01*
X88737376Y-80262242D01*
X88610850Y-80251515D01*
X88542086Y-80246514D01*
X88535837Y-80246287D01*
X88514075Y-80250968D01*
X88498022Y-80271829D01*
X88486906Y-80318182D01*
X88479957Y-80399339D01*
X88476404Y-80524612D01*
X88475477Y-80703312D01*
X88476406Y-80944751D01*
X88476514Y-80963176D01*
X88479136Y-81214953D01*
X88483776Y-81470272D01*
X88489935Y-81709411D01*
X88497117Y-81912647D01*
X88503767Y-82044220D01*
X88526752Y-82407596D01*
X88871960Y-82579059D01*
X89281408Y-82754254D01*
X89696462Y-82872488D01*
X90137222Y-82938658D01*
X90416309Y-82955225D01*
X90704039Y-82957783D01*
X90925887Y-82946139D01*
X91070386Y-82922742D01*
X91425380Y-82797929D01*
X91731416Y-82619722D01*
X91987480Y-82389350D01*
X92192554Y-82108040D01*
X92345625Y-81777016D01*
X92445675Y-81397508D01*
X92470775Y-81231149D01*
X92488900Y-80852382D01*
X92456275Y-80464568D01*
X92376699Y-80085888D01*
X92253970Y-79734525D01*
X92095237Y-79433822D01*
X91856308Y-79129196D01*
X91562710Y-78864120D01*
X91224795Y-78645677D01*
X90852915Y-78480952D01*
X90591176Y-78404464D01*
X90369502Y-78367076D01*
X90100346Y-78344025D01*
X89806697Y-78335336D01*
X89511544Y-78341034D01*
G37*
X89511544Y-78341034D02*
X89237875Y-78361143D01*
X89008678Y-78395689D01*
X88976999Y-78402715D01*
X88815061Y-78441552D01*
X88703378Y-78477761D01*
X88633522Y-78524654D01*
X88597062Y-78595544D01*
X88585572Y-78703742D01*
X88590621Y-78862561D01*
X88598825Y-78999994D01*
X88625185Y-79438724D01*
X88825459Y-79350154D01*
X89194370Y-79224240D01*
X89588687Y-79162913D01*
X89781850Y-79155916D01*
X90148722Y-79182826D01*
X90468196Y-79264815D01*
X90740109Y-79401742D01*
X90964299Y-79593466D01*
X91140601Y-79839846D01*
X91268854Y-80140743D01*
X91348893Y-80496014D01*
X91350661Y-80508310D01*
X91371495Y-80831887D01*
X91343006Y-81136137D01*
X91268881Y-81412591D01*
X91152811Y-81652778D01*
X90998485Y-81848229D01*
X90809594Y-81990473D01*
X90680377Y-82047031D01*
X90493841Y-82087413D01*
X90267509Y-82104259D01*
X90030353Y-82097546D01*
X89811344Y-82067247D01*
X89733015Y-82047854D01*
X89621061Y-82012829D01*
X89559971Y-81978294D01*
X89530744Y-81924721D01*
X89514381Y-81832578D01*
X89512868Y-81821561D01*
X89501044Y-81696863D01*
X89492696Y-81535425D01*
X89489699Y-81379857D01*
X89489699Y-81107183D01*
X90143777Y-81156559D01*
X90143777Y-80773709D01*
X90141367Y-80616691D01*
X90134850Y-80490706D01*
X90125292Y-80410781D01*
X90116524Y-80390078D01*
X90073655Y-80386534D01*
X89969642Y-80377087D01*
X89815683Y-80362778D01*
X89622974Y-80344651D01*
X89402713Y-80323749D01*
X89344349Y-80318183D01*
X89116043Y-80296636D01*
X88909746Y-80277636D01*
X88737376Y-80262242D01*
X88610850Y-80251515D01*
X88542086Y-80246514D01*
X88535837Y-80246287D01*
X88514075Y-80250968D01*
X88498022Y-80271829D01*
X88486906Y-80318182D01*
X88479957Y-80399339D01*
X88476404Y-80524612D01*
X88475477Y-80703312D01*
X88476406Y-80944751D01*
X88476514Y-80963176D01*
X88479136Y-81214953D01*
X88483776Y-81470272D01*
X88489935Y-81709411D01*
X88497117Y-81912647D01*
X88503767Y-82044220D01*
X88526752Y-82407596D01*
X88871960Y-82579059D01*
X89281408Y-82754254D01*
X89696462Y-82872488D01*
X90137222Y-82938658D01*
X90416309Y-82955225D01*
X90704039Y-82957783D01*
X90925887Y-82946139D01*
X91070386Y-82922742D01*
X91425380Y-82797929D01*
X91731416Y-82619722D01*
X91987480Y-82389350D01*
X92192554Y-82108040D01*
X92345625Y-81777016D01*
X92445675Y-81397508D01*
X92470775Y-81231149D01*
X92488900Y-80852382D01*
X92456275Y-80464568D01*
X92376699Y-80085888D01*
X92253970Y-79734525D01*
X92095237Y-79433822D01*
X91856308Y-79129196D01*
X91562710Y-78864120D01*
X91224795Y-78645677D01*
X90852915Y-78480952D01*
X90591176Y-78404464D01*
X90369502Y-78367076D01*
X90100346Y-78344025D01*
X89806697Y-78335336D01*
X89511544Y-78341034D01*
G36*
X84712105Y-77961530D02*
G01*
X84711948Y-77961647D01*
X84707637Y-78002235D01*
X84708190Y-78100234D01*
X84713271Y-78240566D01*
X84721650Y-78394053D01*
X84747639Y-78810171D01*
X85656080Y-78864678D01*
X86564521Y-78919184D01*
X86591028Y-79316616D01*
X86600486Y-79478389D01*
X86605737Y-79611232D01*
X86606335Y-79699772D01*
X86602966Y-79728617D01*
X86563843Y-79731154D01*
X86463689Y-79729496D01*
X86314001Y-79724063D01*
X86126275Y-79715275D01*
X85912010Y-79703551D01*
X85904212Y-79703095D01*
X85676167Y-79689788D01*
X85461873Y-79677386D01*
X85276368Y-79666750D01*
X85134688Y-79658744D01*
X85056509Y-79654471D01*
X84892990Y-79645937D01*
X84904572Y-80027482D01*
X84910878Y-80191805D01*
X84918709Y-80332553D01*
X84926916Y-80431561D01*
X84932286Y-80466354D01*
X84947098Y-80485479D01*
X84985262Y-80501476D01*
X85055110Y-80515326D01*
X85164976Y-80528011D01*
X85323190Y-80540512D01*
X85538088Y-80553810D01*
X85790983Y-80567487D01*
X86030512Y-80580455D01*
X86244698Y-80593037D01*
X86423244Y-80604545D01*
X86555853Y-80614295D01*
X86632228Y-80621601D01*
X86646737Y-80624481D01*
X86655771Y-80666240D01*
X86665130Y-80763268D01*
X86674155Y-80899146D01*
X86682190Y-81057456D01*
X86688574Y-81221780D01*
X86692650Y-81375700D01*
X86693759Y-81502798D01*
X86691243Y-81586654D01*
X86686315Y-81611498D01*
X86644941Y-81613480D01*
X86541019Y-81611334D01*
X86384535Y-81605472D01*
X86185475Y-81596310D01*
X85953825Y-81584263D01*
X85743823Y-81572361D01*
X85493955Y-81558025D01*
X85269557Y-81545789D01*
X85080346Y-81536130D01*
X84936041Y-81529526D01*
X84846359Y-81526455D01*
X84820344Y-81526964D01*
X84817905Y-81569310D01*
X84820624Y-81665538D01*
X84827286Y-81797667D01*
X84836671Y-81947718D01*
X84847561Y-82097711D01*
X84858738Y-82229667D01*
X84868985Y-82325604D01*
X84877083Y-82367545D01*
X84877309Y-82367810D01*
X84918308Y-82375983D01*
X85020601Y-82386794D01*
X85172892Y-82399328D01*
X85363888Y-82412670D01*
X85582292Y-82425907D01*
X85622230Y-82428130D01*
X85910983Y-82444113D01*
X86241502Y-82462607D01*
X86583002Y-82481876D01*
X86904699Y-82500187D01*
X87085705Y-82510586D01*
X87309151Y-82522601D01*
X87506467Y-82531524D01*
X87666704Y-82536998D01*
X87778912Y-82538668D01*
X87832145Y-82536178D01*
X87834922Y-82534934D01*
X87835443Y-82495640D01*
X87832436Y-82392138D01*
X87826264Y-82232794D01*
X87817287Y-82025969D01*
X87805866Y-81780029D01*
X87792362Y-81503338D01*
X87779236Y-81244792D01*
X87761333Y-80895270D01*
X87742515Y-80522663D01*
X87723672Y-80144949D01*
X87705693Y-79780107D01*
X87689467Y-79446112D01*
X87675886Y-79160944D01*
X87672232Y-79082704D01*
X87660294Y-78834322D01*
X87648696Y-78609322D01*
X87638037Y-78418122D01*
X87628918Y-78271141D01*
X87621940Y-78178797D01*
X87618562Y-78151934D01*
X87578147Y-78130355D01*
X87479447Y-78109900D01*
X87336838Y-78093272D01*
X87285219Y-78089265D01*
X87068881Y-78075005D01*
X86821630Y-78059851D01*
X86552844Y-78044270D01*
X86271902Y-78028726D01*
X85988181Y-78013685D01*
X85711060Y-77999611D01*
X85449917Y-77986970D01*
X85214129Y-77976226D01*
X85013076Y-77967845D01*
X84856136Y-77962292D01*
X84752686Y-77960032D01*
X84712105Y-77961530D01*
G37*
X84712105Y-77961530D02*
X84711948Y-77961647D01*
X84707637Y-78002235D01*
X84708190Y-78100234D01*
X84713271Y-78240566D01*
X84721650Y-78394053D01*
X84747639Y-78810171D01*
X85656080Y-78864678D01*
X86564521Y-78919184D01*
X86591028Y-79316616D01*
X86600486Y-79478389D01*
X86605737Y-79611232D01*
X86606335Y-79699772D01*
X86602966Y-79728617D01*
X86563843Y-79731154D01*
X86463689Y-79729496D01*
X86314001Y-79724063D01*
X86126275Y-79715275D01*
X85912010Y-79703551D01*
X85904212Y-79703095D01*
X85676167Y-79689788D01*
X85461873Y-79677386D01*
X85276368Y-79666750D01*
X85134688Y-79658744D01*
X85056509Y-79654471D01*
X84892990Y-79645937D01*
X84904572Y-80027482D01*
X84910878Y-80191805D01*
X84918709Y-80332553D01*
X84926916Y-80431561D01*
X84932286Y-80466354D01*
X84947098Y-80485479D01*
X84985262Y-80501476D01*
X85055110Y-80515326D01*
X85164976Y-80528011D01*
X85323190Y-80540512D01*
X85538088Y-80553810D01*
X85790983Y-80567487D01*
X86030512Y-80580455D01*
X86244698Y-80593037D01*
X86423244Y-80604545D01*
X86555853Y-80614295D01*
X86632228Y-80621601D01*
X86646737Y-80624481D01*
X86655771Y-80666240D01*
X86665130Y-80763268D01*
X86674155Y-80899146D01*
X86682190Y-81057456D01*
X86688574Y-81221780D01*
X86692650Y-81375700D01*
X86693759Y-81502798D01*
X86691243Y-81586654D01*
X86686315Y-81611498D01*
X86644941Y-81613480D01*
X86541019Y-81611334D01*
X86384535Y-81605472D01*
X86185475Y-81596310D01*
X85953825Y-81584263D01*
X85743823Y-81572361D01*
X85493955Y-81558025D01*
X85269557Y-81545789D01*
X85080346Y-81536130D01*
X84936041Y-81529526D01*
X84846359Y-81526455D01*
X84820344Y-81526964D01*
X84817905Y-81569310D01*
X84820624Y-81665538D01*
X84827286Y-81797667D01*
X84836671Y-81947718D01*
X84847561Y-82097711D01*
X84858738Y-82229667D01*
X84868985Y-82325604D01*
X84877083Y-82367545D01*
X84877309Y-82367810D01*
X84918308Y-82375983D01*
X85020601Y-82386794D01*
X85172892Y-82399328D01*
X85363888Y-82412670D01*
X85582292Y-82425907D01*
X85622230Y-82428130D01*
X85910983Y-82444113D01*
X86241502Y-82462607D01*
X86583002Y-82481876D01*
X86904699Y-82500187D01*
X87085705Y-82510586D01*
X87309151Y-82522601D01*
X87506467Y-82531524D01*
X87666704Y-82536998D01*
X87778912Y-82538668D01*
X87832145Y-82536178D01*
X87834922Y-82534934D01*
X87835443Y-82495640D01*
X87832436Y-82392138D01*
X87826264Y-82232794D01*
X87817287Y-82025969D01*
X87805866Y-81780029D01*
X87792362Y-81503338D01*
X87779236Y-81244792D01*
X87761333Y-80895270D01*
X87742515Y-80522663D01*
X87723672Y-80144949D01*
X87705693Y-79780107D01*
X87689467Y-79446112D01*
X87675886Y-79160944D01*
X87672232Y-79082704D01*
X87660294Y-78834322D01*
X87648696Y-78609322D01*
X87638037Y-78418122D01*
X87628918Y-78271141D01*
X87621940Y-78178797D01*
X87618562Y-78151934D01*
X87578147Y-78130355D01*
X87479447Y-78109900D01*
X87336838Y-78093272D01*
X87285219Y-78089265D01*
X87068881Y-78075005D01*
X86821630Y-78059851D01*
X86552844Y-78044270D01*
X86271902Y-78028726D01*
X85988181Y-78013685D01*
X85711060Y-77999611D01*
X85449917Y-77986970D01*
X85214129Y-77976226D01*
X85013076Y-77967845D01*
X84856136Y-77962292D01*
X84752686Y-77960032D01*
X84712105Y-77961530D01*
G36*
X114226957Y-83376409D02*
G01*
X114114808Y-83398941D01*
X114050647Y-83445546D01*
X114022426Y-83523626D01*
X114017596Y-83605044D01*
X114024989Y-83748379D01*
X114053399Y-83840879D01*
X114112173Y-83903442D01*
X114165138Y-83934910D01*
X114250357Y-83964774D01*
X114370621Y-83990304D01*
X114503660Y-84008915D01*
X114627204Y-84018017D01*
X114718982Y-84015023D01*
X114753582Y-84003275D01*
X114766831Y-83955959D01*
X114776487Y-83856524D01*
X114780646Y-83725506D01*
X114780687Y-83710973D01*
X114780340Y-83700031D01*
X114562661Y-83700031D01*
X114554154Y-83777092D01*
X114521687Y-83798186D01*
X114499070Y-83794252D01*
X114415152Y-83773222D01*
X114335551Y-83754773D01*
X114254734Y-83714763D01*
X114235622Y-83660552D01*
X114246544Y-83615528D01*
X114291588Y-83594244D01*
X114389176Y-83588589D01*
X114399142Y-83588569D01*
X114499672Y-83591662D01*
X114547284Y-83609911D01*
X114561716Y-83656770D01*
X114562661Y-83700031D01*
X114780340Y-83700031D01*
X114775873Y-83559218D01*
X114752895Y-83460741D01*
X114698947Y-83404115D01*
X114601223Y-83377915D01*
X114446916Y-83370714D01*
X114399142Y-83370543D01*
X114226957Y-83376409D01*
G37*
X114226957Y-83376409D02*
X114114808Y-83398941D01*
X114050647Y-83445546D01*
X114022426Y-83523626D01*
X114017596Y-83605044D01*
X114024989Y-83748379D01*
X114053399Y-83840879D01*
X114112173Y-83903442D01*
X114165138Y-83934910D01*
X114250357Y-83964774D01*
X114370621Y-83990304D01*
X114503660Y-84008915D01*
X114627204Y-84018017D01*
X114718982Y-84015023D01*
X114753582Y-84003275D01*
X114766831Y-83955959D01*
X114776487Y-83856524D01*
X114780646Y-83725506D01*
X114780687Y-83710973D01*
X114780340Y-83700031D01*
X114562661Y-83700031D01*
X114554154Y-83777092D01*
X114521687Y-83798186D01*
X114499070Y-83794252D01*
X114415152Y-83773222D01*
X114335551Y-83754773D01*
X114254734Y-83714763D01*
X114235622Y-83660552D01*
X114246544Y-83615528D01*
X114291588Y-83594244D01*
X114389176Y-83588589D01*
X114399142Y-83588569D01*
X114499672Y-83591662D01*
X114547284Y-83609911D01*
X114561716Y-83656770D01*
X114562661Y-83700031D01*
X114780340Y-83700031D01*
X114775873Y-83559218D01*
X114752895Y-83460741D01*
X114698947Y-83404115D01*
X114601223Y-83377915D01*
X114446916Y-83370714D01*
X114399142Y-83370543D01*
X114226957Y-83376409D01*
G36*
X114246212Y-81659974D02*
G01*
X114180234Y-81718411D01*
X114162947Y-81800301D01*
X114178509Y-81914347D01*
X114232448Y-81989411D01*
X114335642Y-82033652D01*
X114498968Y-82055226D01*
X114503289Y-82055506D01*
X114639195Y-82060552D01*
X114718710Y-82052571D01*
X114757328Y-82029211D01*
X114764467Y-82015907D01*
X114775466Y-81944980D01*
X114775422Y-81841028D01*
X114774024Y-81820964D01*
X114762518Y-81680909D01*
X114546639Y-81650951D01*
X114366578Y-81638176D01*
X114246212Y-81659974D01*
G37*
X114246212Y-81659974D02*
X114180234Y-81718411D01*
X114162947Y-81800301D01*
X114178509Y-81914347D01*
X114232448Y-81989411D01*
X114335642Y-82033652D01*
X114498968Y-82055226D01*
X114503289Y-82055506D01*
X114639195Y-82060552D01*
X114718710Y-82052571D01*
X114757328Y-82029211D01*
X114764467Y-82015907D01*
X114775466Y-81944980D01*
X114775422Y-81841028D01*
X114774024Y-81820964D01*
X114762518Y-81680909D01*
X114546639Y-81650951D01*
X114366578Y-81638176D01*
X114246212Y-81659974D01*
G36*
X104023346Y-82467694D02*
G01*
X103905888Y-82483364D01*
X103850329Y-82505708D01*
X103821682Y-82572658D01*
X103808669Y-82681286D01*
X103811745Y-82802198D01*
X103831365Y-82905998D01*
X103843686Y-82935658D01*
X103903406Y-82988543D01*
X104011870Y-83037972D01*
X104148236Y-83079304D01*
X104291658Y-83107897D01*
X104421294Y-83119111D01*
X104516299Y-83108304D01*
X104545589Y-83091955D01*
X104562001Y-83038815D01*
X104569747Y-82936977D01*
X104569598Y-82809800D01*
X104568474Y-82789834D01*
X104351788Y-82789834D01*
X104345338Y-82865111D01*
X104311988Y-82885989D01*
X104251860Y-82875651D01*
X104152932Y-82845813D01*
X104088340Y-82819174D01*
X104024947Y-82768248D01*
X104027902Y-82722364D01*
X104090969Y-82690201D01*
X104188269Y-82680128D01*
X104288813Y-82683269D01*
X104336434Y-82701515D01*
X104350858Y-82748102D01*
X104351788Y-82789834D01*
X104568474Y-82789834D01*
X104562327Y-82680645D01*
X104548706Y-82572873D01*
X104529507Y-82509844D01*
X104526209Y-82505708D01*
X104464861Y-82482103D01*
X104344013Y-82467023D01*
X104188269Y-82462103D01*
X104023346Y-82467694D01*
G37*
X104023346Y-82467694D02*
X103905888Y-82483364D01*
X103850329Y-82505708D01*
X103821682Y-82572658D01*
X103808669Y-82681286D01*
X103811745Y-82802198D01*
X103831365Y-82905998D01*
X103843686Y-82935658D01*
X103903406Y-82988543D01*
X104011870Y-83037972D01*
X104148236Y-83079304D01*
X104291658Y-83107897D01*
X104421294Y-83119111D01*
X104516299Y-83108304D01*
X104545589Y-83091955D01*
X104562001Y-83038815D01*
X104569747Y-82936977D01*
X104569598Y-82809800D01*
X104568474Y-82789834D01*
X104351788Y-82789834D01*
X104345338Y-82865111D01*
X104311988Y-82885989D01*
X104251860Y-82875651D01*
X104152932Y-82845813D01*
X104088340Y-82819174D01*
X104024947Y-82768248D01*
X104027902Y-82722364D01*
X104090969Y-82690201D01*
X104188269Y-82680128D01*
X104288813Y-82683269D01*
X104336434Y-82701515D01*
X104350858Y-82748102D01*
X104351788Y-82789834D01*
X104568474Y-82789834D01*
X104562327Y-82680645D01*
X104548706Y-82572873D01*
X104529507Y-82509844D01*
X104526209Y-82505708D01*
X104464861Y-82482103D01*
X104344013Y-82467023D01*
X104188269Y-82462103D01*
X104023346Y-82467694D01*
G36*
X104056991Y-80724077D02*
G01*
X104017132Y-80745829D01*
X103989239Y-80792566D01*
X103983205Y-80805657D01*
X103959312Y-80924869D01*
X103988815Y-81033178D01*
X104063457Y-81107820D01*
X104097751Y-81121511D01*
X104228668Y-81146019D01*
X104359910Y-81151510D01*
X104470136Y-81139174D01*
X104538007Y-81110197D01*
X104547757Y-81096470D01*
X104568428Y-80993261D01*
X104562912Y-80886168D01*
X104533834Y-80808201D01*
X104524032Y-80797813D01*
X104465317Y-80773786D01*
X104359217Y-80749886D01*
X104252793Y-80734310D01*
X104128862Y-80722006D01*
X104056991Y-80724077D01*
G37*
X104056991Y-80724077D02*
X104017132Y-80745829D01*
X103989239Y-80792566D01*
X103983205Y-80805657D01*
X103959312Y-80924869D01*
X103988815Y-81033178D01*
X104063457Y-81107820D01*
X104097751Y-81121511D01*
X104228668Y-81146019D01*
X104359910Y-81151510D01*
X104470136Y-81139174D01*
X104538007Y-81110197D01*
X104547757Y-81096470D01*
X104568428Y-80993261D01*
X104562912Y-80886168D01*
X104533834Y-80808201D01*
X104524032Y-80797813D01*
X104465317Y-80773786D01*
X104359217Y-80749886D01*
X104252793Y-80734310D01*
X104128862Y-80722006D01*
X104056991Y-80724077D01*
G36*
X99725685Y-81455125D02*
G01*
X99676847Y-81507178D01*
X99645634Y-81599798D01*
X99637721Y-81701866D01*
X99658784Y-81782262D01*
X99664565Y-81790255D01*
X99732904Y-81831602D01*
X99823415Y-81843076D01*
X99904693Y-81824955D01*
X99942578Y-81787815D01*
X99948174Y-81698546D01*
X99920785Y-81590113D01*
X99871953Y-81498818D01*
X99841504Y-81469907D01*
X99763450Y-81449067D01*
X99725685Y-81455125D01*
G37*
X99725685Y-81455125D02*
X99676847Y-81507178D01*
X99645634Y-81599798D01*
X99637721Y-81701866D01*
X99658784Y-81782262D01*
X99664565Y-81790255D01*
X99732904Y-81831602D01*
X99823415Y-81843076D01*
X99904693Y-81824955D01*
X99942578Y-81787815D01*
X99948174Y-81698546D01*
X99920785Y-81590113D01*
X99871953Y-81498818D01*
X99841504Y-81469907D01*
X99763450Y-81449067D01*
X99725685Y-81455125D01*
G36*
X95072101Y-80060960D02*
G01*
X94855934Y-80123993D01*
X94691724Y-80235378D01*
X94575714Y-80398699D01*
X94504148Y-80617543D01*
X94474245Y-80872774D01*
X94484013Y-81212084D01*
X94547128Y-81505225D01*
X94662414Y-81750451D01*
X94828694Y-81946016D01*
X95044792Y-82090172D01*
X95309529Y-82181174D01*
X95363196Y-82191945D01*
X95470130Y-82211214D01*
X95553009Y-82226040D01*
X95562823Y-82227778D01*
X95638140Y-82214694D01*
X95662751Y-82197549D01*
X95676213Y-82148042D01*
X95686625Y-82036538D01*
X95693933Y-81873654D01*
X95698084Y-81670005D01*
X95698526Y-81560059D01*
X95485408Y-81560059D01*
X95485408Y-81991098D01*
X95385479Y-81967614D01*
X95294645Y-81936600D01*
X95176130Y-81884166D01*
X95114456Y-81852955D01*
X94993726Y-81771848D01*
X94885989Y-81672031D01*
X94851123Y-81628681D01*
X94773598Y-81471186D01*
X94721023Y-81271716D01*
X94694770Y-81052159D01*
X94696210Y-80834403D01*
X94726716Y-80640335D01*
X94780595Y-80503272D01*
X94882638Y-80391822D01*
X95031133Y-80304220D01*
X95200699Y-80253271D01*
X95291439Y-80245508D01*
X95437902Y-80245508D01*
X95461655Y-80687264D01*
X95471841Y-80918609D01*
X95479842Y-81180079D01*
X95484580Y-81432038D01*
X95485408Y-81560059D01*
X95698526Y-81560059D01*
X95699024Y-81436209D01*
X95696701Y-81182881D01*
X95691061Y-80920637D01*
X95682050Y-80660095D01*
X95671557Y-80445364D01*
X95648927Y-80045651D01*
X95343983Y-80042692D01*
X95072101Y-80060960D01*
G37*
X95072101Y-80060960D02*
X94855934Y-80123993D01*
X94691724Y-80235378D01*
X94575714Y-80398699D01*
X94504148Y-80617543D01*
X94474245Y-80872774D01*
X94484013Y-81212084D01*
X94547128Y-81505225D01*
X94662414Y-81750451D01*
X94828694Y-81946016D01*
X95044792Y-82090172D01*
X95309529Y-82181174D01*
X95363196Y-82191945D01*
X95470130Y-82211214D01*
X95553009Y-82226040D01*
X95562823Y-82227778D01*
X95638140Y-82214694D01*
X95662751Y-82197549D01*
X95676213Y-82148042D01*
X95686625Y-82036538D01*
X95693933Y-81873654D01*
X95698084Y-81670005D01*
X95698526Y-81560059D01*
X95485408Y-81560059D01*
X95485408Y-81991098D01*
X95385479Y-81967614D01*
X95294645Y-81936600D01*
X95176130Y-81884166D01*
X95114456Y-81852955D01*
X94993726Y-81771848D01*
X94885989Y-81672031D01*
X94851123Y-81628681D01*
X94773598Y-81471186D01*
X94721023Y-81271716D01*
X94694770Y-81052159D01*
X94696210Y-80834403D01*
X94726716Y-80640335D01*
X94780595Y-80503272D01*
X94882638Y-80391822D01*
X95031133Y-80304220D01*
X95200699Y-80253271D01*
X95291439Y-80245508D01*
X95437902Y-80245508D01*
X95461655Y-80687264D01*
X95471841Y-80918609D01*
X95479842Y-81180079D01*
X95484580Y-81432038D01*
X95485408Y-81560059D01*
X95698526Y-81560059D01*
X95699024Y-81436209D01*
X95696701Y-81182881D01*
X95691061Y-80920637D01*
X95682050Y-80660095D01*
X95671557Y-80445364D01*
X95648927Y-80045651D01*
X95343983Y-80042692D01*
X95072101Y-80060960D01*
D10*
X72820000Y-100000000D02*
X127180000Y-100000000D01*
D13*
X129000000Y-89550000D02*
X129000000Y-90050000D01*
X130400000Y-90050000D02*
X130400000Y-89550000D01*
X130400000Y-90050000D02*
X129000000Y-90050000D01*
X129000000Y-89550000D02*
X130400000Y-89550000D01*
X128800000Y-110050000D02*
X129300000Y-110050000D01*
X129300000Y-110550000D02*
X128800000Y-110550000D01*
X129700000Y-110550000D02*
X130200000Y-110550000D01*
X130200000Y-110550000D02*
X130200000Y-110050000D01*
X130200000Y-110050000D02*
X129700000Y-110050000D01*
X129700000Y-110050000D02*
X129700000Y-109650000D01*
X129700000Y-109650000D02*
X129300000Y-109650000D01*
X129300000Y-109650000D02*
X129300000Y-110050000D01*
X128800000Y-110050000D02*
X128800000Y-110550000D01*
X129300000Y-110550000D02*
X129300000Y-110950000D01*
X129300000Y-110950000D02*
X129700000Y-110950000D01*
X129700000Y-110950000D02*
X129700000Y-110550000D01*
D10*
X72820000Y-111120000D02*
X72820000Y-88880000D01*
X72820000Y-88880000D02*
X127180000Y-88880000D01*
X127180000Y-88880000D02*
X127180000Y-111120000D01*
X72820000Y-111120000D02*
X127180000Y-111120000D01*
X114085714Y-95488571D02*
X113942857Y-95536190D01*
X113895238Y-95583809D01*
X113847619Y-95679047D01*
X113847619Y-95821904D01*
X113895238Y-95917142D01*
X113942857Y-95964761D01*
X114038095Y-96012380D01*
X114419047Y-96012380D01*
X114419047Y-95012380D01*
X114085714Y-95012380D01*
X113990476Y-95060000D01*
X113942857Y-95107619D01*
X113895238Y-95202857D01*
X113895238Y-95298095D01*
X113942857Y-95393333D01*
X113990476Y-95440952D01*
X114085714Y-95488571D01*
X114419047Y-95488571D01*
X113561904Y-95012380D02*
X112990476Y-95012380D01*
X113276190Y-96012380D02*
X113276190Y-95012380D01*
X112704761Y-95107619D02*
X112657142Y-95060000D01*
X112561904Y-95012380D01*
X112323809Y-95012380D01*
X112228571Y-95060000D01*
X112180952Y-95107619D01*
X112133333Y-95202857D01*
X112133333Y-95298095D01*
X112180952Y-95440952D01*
X112752380Y-96012380D01*
X112133333Y-96012380D01*
X126285714Y-112438571D02*
X126142857Y-112486190D01*
X126095238Y-112533809D01*
X126047619Y-112629047D01*
X126047619Y-112771904D01*
X126095238Y-112867142D01*
X126142857Y-112914761D01*
X126238095Y-112962380D01*
X126619047Y-112962380D01*
X126619047Y-111962380D01*
X126285714Y-111962380D01*
X126190476Y-112010000D01*
X126142857Y-112057619D01*
X126095238Y-112152857D01*
X126095238Y-112248095D01*
X126142857Y-112343333D01*
X126190476Y-112390952D01*
X126285714Y-112438571D01*
X126619047Y-112438571D01*
X125761904Y-111962380D02*
X125190476Y-111962380D01*
X125476190Y-112962380D02*
X125476190Y-111962380D01*
X124333333Y-112962380D02*
X124904761Y-112962380D01*
X124619047Y-112962380D02*
X124619047Y-111962380D01*
X124714285Y-112105238D01*
X124809523Y-112200476D01*
X124904761Y-112248095D01*
X135056571Y-84495333D02*
X135104190Y-84638190D01*
X135151809Y-84685809D01*
X135247047Y-84733428D01*
X135389904Y-84733428D01*
X135485142Y-84685809D01*
X135532761Y-84638190D01*
X135580380Y-84542952D01*
X135580380Y-84162000D01*
X134580380Y-84162000D01*
X134580380Y-84495333D01*
X134628000Y-84590571D01*
X134675619Y-84638190D01*
X134770857Y-84685809D01*
X134866095Y-84685809D01*
X134961333Y-84638190D01*
X135008952Y-84590571D01*
X135056571Y-84495333D01*
X135056571Y-84162000D01*
X135580380Y-85590571D02*
X135056571Y-85590571D01*
X134961333Y-85542952D01*
X134913714Y-85447714D01*
X134913714Y-85257238D01*
X134961333Y-85162000D01*
X135532761Y-85590571D02*
X135580380Y-85495333D01*
X135580380Y-85257238D01*
X135532761Y-85162000D01*
X135437523Y-85114380D01*
X135342285Y-85114380D01*
X135247047Y-85162000D01*
X135199428Y-85257238D01*
X135199428Y-85495333D01*
X135151809Y-85590571D01*
X134913714Y-85923904D02*
X134913714Y-86304857D01*
X134580380Y-86066761D02*
X135437523Y-86066761D01*
X135532761Y-86114380D01*
X135580380Y-86209619D01*
X135580380Y-86304857D01*
X134913714Y-86495333D02*
X134913714Y-86876285D01*
X134580380Y-86638190D02*
X135437523Y-86638190D01*
X135532761Y-86685809D01*
X135580380Y-86781047D01*
X135580380Y-86876285D01*
X135532761Y-87590571D02*
X135580380Y-87495333D01*
X135580380Y-87304857D01*
X135532761Y-87209619D01*
X135437523Y-87162000D01*
X135056571Y-87162000D01*
X134961333Y-87209619D01*
X134913714Y-87304857D01*
X134913714Y-87495333D01*
X134961333Y-87590571D01*
X135056571Y-87638190D01*
X135151809Y-87638190D01*
X135247047Y-87162000D01*
X135580380Y-88066761D02*
X134913714Y-88066761D01*
X135104190Y-88066761D02*
X135008952Y-88114380D01*
X134961333Y-88162000D01*
X134913714Y-88257238D01*
X134913714Y-88352476D01*
X134913714Y-88590571D02*
X135580380Y-88828666D01*
X134913714Y-89066761D02*
X135580380Y-88828666D01*
X135818476Y-88733428D01*
X135866095Y-88685809D01*
X135913714Y-88590571D01*
X135675619Y-89209619D02*
X135675619Y-89971523D01*
X135485142Y-90781047D02*
X135532761Y-90733428D01*
X135580380Y-90590571D01*
X135580380Y-90495333D01*
X135532761Y-90352476D01*
X135437523Y-90257238D01*
X135342285Y-90209619D01*
X135151809Y-90162000D01*
X135008952Y-90162000D01*
X134818476Y-90209619D01*
X134723238Y-90257238D01*
X134628000Y-90352476D01*
X134580380Y-90495333D01*
X134580380Y-90590571D01*
X134628000Y-90733428D01*
X134675619Y-90781047D01*
X135532761Y-91590571D02*
X135580380Y-91495333D01*
X135580380Y-91304857D01*
X135532761Y-91209619D01*
X135437523Y-91162000D01*
X135056571Y-91162000D01*
X134961333Y-91209619D01*
X134913714Y-91304857D01*
X134913714Y-91495333D01*
X134961333Y-91590571D01*
X135056571Y-91638190D01*
X135151809Y-91638190D01*
X135247047Y-91162000D01*
X135580380Y-92209619D02*
X135532761Y-92114380D01*
X135437523Y-92066761D01*
X134580380Y-92066761D01*
X135580380Y-92733428D02*
X135532761Y-92638190D01*
X135437523Y-92590571D01*
X134580380Y-92590571D01*
X135675619Y-92876285D02*
X135675619Y-93638190D01*
X134675619Y-93828666D02*
X134628000Y-93876285D01*
X134580380Y-93971523D01*
X134580380Y-94209619D01*
X134628000Y-94304857D01*
X134675619Y-94352476D01*
X134770857Y-94400095D01*
X134866095Y-94400095D01*
X135008952Y-94352476D01*
X135580380Y-93781047D01*
X135580380Y-94400095D01*
X135580380Y-94733428D02*
X134913714Y-95257238D01*
X134913714Y-94733428D02*
X135580380Y-95257238D01*
M02*
