G04 #@! TF.FileFunction,Copper,L1,Top,Signal*
%FSLAX46Y46*%
G04 Gerber Fmt 4.6, Leading zero omitted, Abs format (unit mm)*
G04 Created by KiCad (PCBNEW 4.0.7-e2-6376~58~ubuntu16.04.1) date Sat Jul 28 15:13:10 2018*
%MOMM*%
%LPD*%
G01*
G04 APERTURE LIST*
%ADD10C,0.100000*%
%ADD11O,11.000000X5.000000*%
%ADD12C,0.900000*%
%ADD13R,1.000000X2.200000*%
%ADD14R,3.000000X1.300000*%
%ADD15R,2.500000X2.000000*%
%ADD16C,0.600000*%
%ADD17C,0.300000*%
G04 APERTURE END LIST*
D10*
D11*
X100000000Y-71000000D03*
D12*
X104500000Y-71000000D03*
X104000000Y-72250000D03*
X96000000Y-72250000D03*
X95500000Y-71000000D03*
X96000000Y-69750000D03*
X104000000Y-69750000D03*
D13*
X102000000Y-126400000D03*
X104000000Y-126400000D03*
X96000000Y-126400000D03*
X98000000Y-126400000D03*
X102000000Y-131800000D03*
X104000000Y-131800000D03*
X98000000Y-131800000D03*
X96000000Y-131800000D03*
D14*
X94400000Y-76200000D03*
X94400000Y-79000000D03*
X100000000Y-76200000D03*
X100000000Y-79000000D03*
X105600000Y-76200000D03*
X105600000Y-79000000D03*
X83200000Y-81800000D03*
X83200000Y-84600000D03*
X88800000Y-81800000D03*
X88800000Y-84600000D03*
X94400000Y-81800000D03*
X94400000Y-84600000D03*
X100000000Y-81800000D03*
X100000000Y-84600000D03*
X105600000Y-81800000D03*
X105600000Y-84600000D03*
X111200000Y-81800000D03*
X111200000Y-84600000D03*
X116800000Y-81800000D03*
X116800000Y-84600000D03*
X83200000Y-87400000D03*
X83200000Y-90200000D03*
X88800000Y-87400000D03*
X88800000Y-90200000D03*
X94400000Y-87400000D03*
X94400000Y-90200000D03*
X100000000Y-87400000D03*
X100000000Y-90200000D03*
X105600000Y-87400000D03*
X105600000Y-90200000D03*
X111200000Y-87400000D03*
X111200000Y-90200000D03*
X116800000Y-87400000D03*
X116800000Y-90200000D03*
X77600000Y-93000000D03*
X77600000Y-95800000D03*
X83200000Y-93000000D03*
X83200000Y-95800000D03*
X88800000Y-93000000D03*
X88800000Y-95800000D03*
X94400000Y-93000000D03*
X94400000Y-95800000D03*
X100000000Y-93000000D03*
X100000000Y-95800000D03*
X105600000Y-93000000D03*
X105600000Y-95800000D03*
X111200000Y-93000000D03*
X111200000Y-95800000D03*
X116800000Y-93000000D03*
X116800000Y-95800000D03*
X122400000Y-93000000D03*
X122400000Y-95800000D03*
X77600000Y-98600000D03*
X77600000Y-101400000D03*
X83200000Y-98600000D03*
X83200000Y-101400000D03*
X88800000Y-98600000D03*
X88800000Y-101400000D03*
X94400000Y-98600000D03*
X94400000Y-101400000D03*
X100000000Y-98600000D03*
X100000000Y-101400000D03*
X105600000Y-98600000D03*
X105600000Y-101400000D03*
X111200000Y-98600000D03*
X111200000Y-101400000D03*
X116800000Y-98600000D03*
X116800000Y-101400000D03*
X122400000Y-98600000D03*
X122400000Y-101400000D03*
X77600000Y-104200000D03*
X77600000Y-107000000D03*
X83200000Y-104200000D03*
X83200000Y-107000000D03*
X88800000Y-104200000D03*
X88800000Y-107000000D03*
X94400000Y-104200000D03*
X94400000Y-107000000D03*
X100000000Y-104200000D03*
X100000000Y-107000000D03*
X105600000Y-104200000D03*
X105600000Y-107000000D03*
X111200000Y-104200000D03*
X111200000Y-107000000D03*
X116800000Y-104200000D03*
X116800000Y-107000000D03*
X122400000Y-104200000D03*
X122400000Y-107000000D03*
X83200000Y-109800000D03*
X83200000Y-112600000D03*
X88800000Y-109800000D03*
X88800000Y-112600000D03*
X94400000Y-109800000D03*
X94400000Y-112600000D03*
X100000000Y-109800000D03*
X100000000Y-112600000D03*
X105600000Y-109800000D03*
X105600000Y-112600000D03*
X111200000Y-109800000D03*
X111200000Y-112600000D03*
X116800000Y-109800000D03*
X116800000Y-112600000D03*
X83200000Y-115400000D03*
X83200000Y-118200000D03*
X88800000Y-115400000D03*
X88800000Y-118200000D03*
X94400000Y-115400000D03*
X94400000Y-118200000D03*
X100000000Y-115400000D03*
X100000000Y-118200000D03*
X105600000Y-115400000D03*
X105600000Y-118200000D03*
X111200000Y-115400000D03*
X111200000Y-118200000D03*
X116800000Y-115400000D03*
X116800000Y-118200000D03*
X94400000Y-121000000D03*
X94400000Y-123800000D03*
X100000000Y-121000000D03*
X100000000Y-123800000D03*
X105600000Y-121000000D03*
X105600000Y-123800000D03*
D15*
X122400000Y-116000000D03*
X122400000Y-112000000D03*
D16*
X100000000Y-130500000D03*
X100000000Y-126000000D03*
X91000000Y-121000000D03*
X91000000Y-127000000D03*
D17*
X102000000Y-131800000D02*
X101300000Y-131800000D01*
X101300000Y-131800000D02*
X100000000Y-130500000D01*
X102000000Y-126400000D02*
X100400000Y-126400000D01*
X100400000Y-126400000D02*
X100000000Y-126000000D01*
X109500000Y-121000000D02*
X110500000Y-120000000D01*
X118500000Y-120000000D02*
X119500000Y-119000000D01*
X110500000Y-120000000D02*
X118500000Y-120000000D01*
X118800000Y-109800000D02*
X119500000Y-110500000D01*
X119400000Y-110400000D02*
X119500000Y-110400000D01*
X119500000Y-110500000D02*
X119400000Y-110400000D01*
X125000000Y-108500000D02*
X125000000Y-113500000D01*
X124500000Y-114000000D02*
X119500000Y-114000000D01*
X125000000Y-113500000D02*
X124500000Y-114000000D01*
X96000000Y-131800000D02*
X96000000Y-130000000D01*
X91000000Y-121000000D02*
X94400000Y-121000000D01*
X92500000Y-128500000D02*
X91000000Y-127000000D01*
X94500000Y-128500000D02*
X92500000Y-128500000D01*
X96000000Y-130000000D02*
X94500000Y-128500000D01*
X104000000Y-126400000D02*
X108100000Y-126400000D01*
X109500000Y-125000000D02*
X109500000Y-121000000D01*
X108100000Y-126400000D02*
X109500000Y-125000000D01*
X116800000Y-98600000D02*
X122400000Y-98600000D01*
X111200000Y-98600000D02*
X116800000Y-98600000D01*
X105600000Y-98600000D02*
X111200000Y-98600000D01*
X100000000Y-98600000D02*
X105600000Y-98600000D01*
X94400000Y-98600000D02*
X100000000Y-98600000D01*
X88800000Y-98600000D02*
X94400000Y-98600000D01*
X83200000Y-98600000D02*
X88800000Y-98600000D01*
X77600000Y-98600000D02*
X83200000Y-98600000D01*
X83200000Y-93000000D02*
X88800000Y-93000000D01*
X105600000Y-109800000D02*
X111200000Y-109800000D01*
X111200000Y-109800000D02*
X116800000Y-109800000D01*
X100000000Y-109800000D02*
X105600000Y-109800000D01*
X94400000Y-109800000D02*
X100000000Y-109800000D01*
X88800000Y-109800000D02*
X94400000Y-109800000D01*
X83200000Y-109800000D02*
X88800000Y-109800000D01*
X100000000Y-121000000D02*
X105600000Y-121000000D01*
X94400000Y-121000000D02*
X100000000Y-121000000D01*
X111200000Y-115400000D02*
X116800000Y-115400000D01*
X105600000Y-115400000D02*
X111200000Y-115400000D01*
X100000000Y-115400000D02*
X105600000Y-115400000D01*
X94400000Y-115400000D02*
X100000000Y-115400000D01*
X88800000Y-115400000D02*
X94400000Y-115400000D01*
X83200000Y-115400000D02*
X88800000Y-115400000D01*
X119000000Y-115400000D02*
X119500000Y-115400000D01*
X119500000Y-115400000D02*
X119500000Y-115500000D01*
X119500000Y-115000000D02*
X119500000Y-115500000D01*
X119500000Y-114000000D02*
X119500000Y-115000000D01*
X119500000Y-110400000D02*
X119500000Y-114000000D01*
X119500000Y-115500000D02*
X119500000Y-119000000D01*
X109500000Y-121000000D02*
X105600000Y-121000000D01*
X119100000Y-115400000D02*
X119000000Y-115400000D01*
X119000000Y-115400000D02*
X116800000Y-115400000D01*
X116800000Y-104200000D02*
X122400000Y-104200000D01*
X111200000Y-104200000D02*
X116800000Y-104200000D01*
X105600000Y-104200000D02*
X111200000Y-104200000D01*
X100000000Y-104200000D02*
X105600000Y-104200000D01*
X94400000Y-104200000D02*
X100000000Y-104200000D01*
X88800000Y-104200000D02*
X94400000Y-104200000D01*
X83200000Y-104200000D02*
X88800000Y-104200000D01*
X77600000Y-104200000D02*
X83200000Y-104200000D01*
X122400000Y-98600000D02*
X125000000Y-98600000D01*
X125000000Y-98600000D02*
X125000000Y-98500000D01*
X122400000Y-104200000D02*
X125000000Y-104200000D01*
X125000000Y-104200000D02*
X125000000Y-104500000D01*
X122400000Y-93000000D02*
X125000000Y-93000000D01*
X125000000Y-93000000D02*
X125000000Y-98500000D01*
X125000000Y-98500000D02*
X125000000Y-104500000D01*
X118800000Y-109800000D02*
X116800000Y-109800000D01*
X125000000Y-104500000D02*
X125000000Y-108500000D01*
X116800000Y-87400000D02*
X122400000Y-87400000D01*
X122400000Y-87400000D02*
X122400000Y-86000000D01*
X116800000Y-81800000D02*
X121000000Y-81800000D01*
X121000000Y-81800000D02*
X122400000Y-83200000D01*
X122400000Y-83200000D02*
X122400000Y-86000000D01*
X122400000Y-86000000D02*
X122400000Y-93000000D01*
X105600000Y-76200000D02*
X112600000Y-76200000D01*
X116800000Y-80400000D02*
X116800000Y-81800000D01*
X112600000Y-76200000D02*
X116800000Y-80400000D01*
X116800000Y-93000000D02*
X122400000Y-93000000D01*
X111200000Y-93000000D02*
X116800000Y-93000000D01*
X105600000Y-93000000D02*
X111200000Y-93000000D01*
X100000000Y-93000000D02*
X105600000Y-93000000D01*
X94400000Y-93000000D02*
X100000000Y-93000000D01*
X88800000Y-93000000D02*
X94400000Y-93000000D01*
X77600000Y-93000000D02*
X83200000Y-93000000D01*
X88800000Y-87400000D02*
X83200000Y-87400000D01*
X94400000Y-87400000D02*
X88800000Y-87400000D01*
X100000000Y-87400000D02*
X94400000Y-87400000D01*
X105600000Y-87400000D02*
X100000000Y-87400000D01*
X111200000Y-87400000D02*
X105600000Y-87400000D01*
X116800000Y-87400000D02*
X111200000Y-87400000D01*
X111200000Y-81800000D02*
X116800000Y-81800000D01*
X105600000Y-81800000D02*
X111200000Y-81800000D01*
X100000000Y-81800000D02*
X105600000Y-81800000D01*
X94400000Y-81800000D02*
X100000000Y-81800000D01*
X88800000Y-81800000D02*
X94400000Y-81800000D01*
X83200000Y-81800000D02*
X88800000Y-81800000D01*
X100000000Y-76200000D02*
X105600000Y-76200000D01*
X94400000Y-76200000D02*
X100000000Y-76200000D01*
X94400000Y-123800000D02*
X91300000Y-123800000D01*
X83200000Y-119200000D02*
X83200000Y-118200000D01*
X84000000Y-120000000D02*
X83200000Y-119200000D01*
X87500000Y-120000000D02*
X84000000Y-120000000D01*
X91300000Y-123800000D02*
X87500000Y-120000000D01*
X122400000Y-107000000D02*
X122400000Y-112000000D01*
X80000000Y-84600000D02*
X79000000Y-84600000D01*
X79000000Y-84600000D02*
X79000000Y-84500000D01*
X79000000Y-85500000D02*
X79000000Y-84500000D01*
X79000000Y-90200000D02*
X79000000Y-85500000D01*
X79000000Y-84500000D02*
X79000000Y-81500000D01*
X79000000Y-81500000D02*
X79900000Y-80600000D01*
X81500000Y-79000000D02*
X94400000Y-79000000D01*
X81500000Y-79000000D02*
X79900000Y-80600000D01*
X83200000Y-118200000D02*
X80700000Y-118200000D01*
X80700000Y-118200000D02*
X79000000Y-116500000D01*
X79000000Y-116500000D02*
X79000000Y-113000000D01*
X79000000Y-113000000D02*
X79000000Y-112500000D01*
X105600000Y-95800000D02*
X111200000Y-95800000D01*
X100000000Y-95800000D02*
X105600000Y-95800000D01*
X94400000Y-95800000D02*
X100000000Y-95800000D01*
X88800000Y-95800000D02*
X94400000Y-95800000D01*
X83200000Y-95800000D02*
X88800000Y-95800000D01*
X77600000Y-95800000D02*
X83200000Y-95800000D01*
X94400000Y-90200000D02*
X100000000Y-90200000D01*
X100000000Y-90200000D02*
X105600000Y-90200000D01*
X111200000Y-112600000D02*
X116800000Y-112600000D01*
X105600000Y-112600000D02*
X111200000Y-112600000D01*
X100000000Y-112600000D02*
X105600000Y-112600000D01*
X94400000Y-112600000D02*
X100000000Y-112600000D01*
X88800000Y-112600000D02*
X94400000Y-112600000D01*
X83200000Y-112600000D02*
X88800000Y-112600000D01*
X105600000Y-107000000D02*
X100000000Y-107000000D01*
X116800000Y-101400000D02*
X122400000Y-101400000D01*
X111200000Y-101400000D02*
X116800000Y-101400000D01*
X105600000Y-101400000D02*
X111200000Y-101400000D01*
X100000000Y-101400000D02*
X105600000Y-101400000D01*
X94400000Y-101400000D02*
X100000000Y-101400000D01*
X88800000Y-101400000D02*
X94400000Y-101400000D01*
X111200000Y-107000000D02*
X105600000Y-107000000D01*
X88800000Y-118200000D02*
X83200000Y-118200000D01*
X94400000Y-118200000D02*
X88800000Y-118200000D01*
X100000000Y-118200000D02*
X94400000Y-118200000D01*
X105600000Y-118200000D02*
X100000000Y-118200000D01*
X111200000Y-118200000D02*
X105600000Y-118200000D01*
X116800000Y-118200000D02*
X111200000Y-118200000D01*
X100000000Y-123800000D02*
X94400000Y-123800000D01*
X105600000Y-123800000D02*
X100000000Y-123800000D01*
X79900000Y-84600000D02*
X80000000Y-84600000D01*
X80000000Y-84600000D02*
X83200000Y-84600000D01*
X83200000Y-107000000D02*
X77600000Y-107000000D01*
X88800000Y-107000000D02*
X83200000Y-107000000D01*
X94400000Y-107000000D02*
X88800000Y-107000000D01*
X100000000Y-107000000D02*
X94400000Y-107000000D01*
X116800000Y-107000000D02*
X111200000Y-107000000D01*
X122400000Y-107000000D02*
X116800000Y-107000000D01*
X83200000Y-101400000D02*
X77600000Y-101400000D01*
X88800000Y-101400000D02*
X83200000Y-101400000D01*
X77600000Y-101400000D02*
X75000000Y-101400000D01*
X75000000Y-101400000D02*
X75000000Y-101500000D01*
X77600000Y-95800000D02*
X75000000Y-95800000D01*
X75000000Y-95800000D02*
X75000000Y-96000000D01*
X77600000Y-107000000D02*
X75500000Y-107000000D01*
X75500000Y-107000000D02*
X75000000Y-106500000D01*
X75000000Y-106500000D02*
X75000000Y-101500000D01*
X75000000Y-101500000D02*
X75000000Y-96000000D01*
X76300000Y-90200000D02*
X79000000Y-90200000D01*
X79000000Y-90200000D02*
X83200000Y-90200000D01*
X75000000Y-96000000D02*
X75000000Y-91500000D01*
X75000000Y-91500000D02*
X76300000Y-90200000D01*
X83200000Y-112600000D02*
X79000000Y-112600000D01*
X79000000Y-112600000D02*
X79000000Y-112500000D01*
X79000000Y-112500000D02*
X79000000Y-112000000D01*
X79000000Y-109000000D02*
X77600000Y-107600000D01*
X79000000Y-112000000D02*
X79000000Y-109000000D01*
X77600000Y-107600000D02*
X77600000Y-107000000D01*
X116800000Y-95800000D02*
X111200000Y-95800000D01*
X122400000Y-95800000D02*
X116800000Y-95800000D01*
X111200000Y-90200000D02*
X116800000Y-90200000D01*
X105600000Y-90200000D02*
X111200000Y-90200000D01*
X88800000Y-90200000D02*
X94400000Y-90200000D01*
X83200000Y-90200000D02*
X88800000Y-90200000D01*
X111200000Y-84600000D02*
X116800000Y-84600000D01*
X105600000Y-84600000D02*
X111200000Y-84600000D01*
X100000000Y-84600000D02*
X105600000Y-84600000D01*
X94400000Y-84600000D02*
X100000000Y-84600000D01*
X88800000Y-84600000D02*
X94400000Y-84600000D01*
X83200000Y-84600000D02*
X88800000Y-84600000D01*
X100000000Y-79000000D02*
X105600000Y-79000000D01*
X94400000Y-79000000D02*
X100000000Y-79000000D01*
X114000000Y-129000000D02*
X120000000Y-125000000D01*
X113500000Y-129000000D02*
X114000000Y-129000000D01*
X120000000Y-125000000D02*
X120000000Y-122000000D01*
X122400000Y-116000000D02*
X122400000Y-119600000D01*
X120000000Y-122000000D02*
X122400000Y-119600000D01*
X108000000Y-129000000D02*
X113500000Y-129000000D01*
X108000000Y-129000000D02*
X104000000Y-129000000D01*
X104000000Y-129000000D02*
X104000000Y-130000000D01*
X104000000Y-130000000D02*
X104000000Y-131800000D01*
X103000000Y-129000000D02*
X104000000Y-129000000D01*
X96000000Y-126400000D02*
X96000000Y-128000000D01*
X97000000Y-129000000D02*
X103000000Y-129000000D01*
X96000000Y-128000000D02*
X97000000Y-129000000D01*
M02*
