G04 #@! TF.GenerationSoftware,KiCad,Pcbnew,5.1.5+dfsg1-2build2*
G04 #@! TF.CreationDate,2021-12-15T11:20:51+01:00*
G04 #@! TF.ProjectId,BitBadge,42697442-6164-4676-952e-6b696361645f,rev?*
G04 #@! TF.SameCoordinates,Original*
G04 #@! TF.FileFunction,Paste,Top*
G04 #@! TF.FilePolarity,Positive*
%FSLAX46Y46*%
G04 Gerber Fmt 4.6, Leading zero omitted, Abs format (unit mm)*
G04 Created by KiCad (PCBNEW 5.1.5+dfsg1-2build2) date 2021-12-15 11:20:51*
%MOMM*%
%LPD*%
G04 APERTURE LIST*
%ADD10R,1.000000X2.200000*%
%ADD11R,2.500000X2.000000*%
%ADD12R,0.600000X0.500000*%
%ADD13R,3.000000X0.800000*%
%ADD14R,2.000000X0.600000*%
G04 APERTURE END LIST*
D10*
X102000000Y-126400000D03*
X104000000Y-126400000D03*
X96000000Y-126400000D03*
X98000000Y-126400000D03*
X102000000Y-131800000D03*
X104000000Y-131800000D03*
X98000000Y-131800000D03*
X96000000Y-131800000D03*
D11*
X122400000Y-116000000D03*
X122400000Y-112000000D03*
D12*
X104400000Y-123400000D03*
X106800000Y-123400000D03*
D13*
X105600000Y-124050000D03*
D14*
X105550000Y-123200000D03*
X105600000Y-121600000D03*
D13*
X105600000Y-120750000D03*
D12*
X106800000Y-121400000D03*
X104400000Y-121400000D03*
X98800000Y-123400000D03*
X101200000Y-123400000D03*
D13*
X100000000Y-124050000D03*
D14*
X99950000Y-123200000D03*
X100000000Y-121600000D03*
D13*
X100000000Y-120750000D03*
D12*
X101200000Y-121400000D03*
X98800000Y-121400000D03*
X93200000Y-123400000D03*
X95600000Y-123400000D03*
D13*
X94400000Y-124050000D03*
D14*
X94350000Y-123200000D03*
X94400000Y-121600000D03*
D13*
X94400000Y-120750000D03*
D12*
X95600000Y-121400000D03*
X93200000Y-121400000D03*
X115600000Y-117800000D03*
X118000000Y-117800000D03*
D13*
X116800000Y-118450000D03*
D14*
X116750000Y-117600000D03*
X116800000Y-116000000D03*
D13*
X116800000Y-115150000D03*
D12*
X118000000Y-115800000D03*
X115600000Y-115800000D03*
X110000000Y-117800000D03*
X112400000Y-117800000D03*
D13*
X111200000Y-118450000D03*
D14*
X111150000Y-117600000D03*
X111200000Y-116000000D03*
D13*
X111200000Y-115150000D03*
D12*
X112400000Y-115800000D03*
X110000000Y-115800000D03*
X104400000Y-117800000D03*
X106800000Y-117800000D03*
D13*
X105600000Y-118450000D03*
D14*
X105550000Y-117600000D03*
X105600000Y-116000000D03*
D13*
X105600000Y-115150000D03*
D12*
X106800000Y-115800000D03*
X104400000Y-115800000D03*
X98800000Y-117800000D03*
X101200000Y-117800000D03*
D13*
X100000000Y-118450000D03*
D14*
X99950000Y-117600000D03*
X100000000Y-116000000D03*
D13*
X100000000Y-115150000D03*
D12*
X101200000Y-115800000D03*
X98800000Y-115800000D03*
X93200000Y-117800000D03*
X95600000Y-117800000D03*
D13*
X94400000Y-118450000D03*
D14*
X94350000Y-117600000D03*
X94400000Y-116000000D03*
D13*
X94400000Y-115150000D03*
D12*
X95600000Y-115800000D03*
X93200000Y-115800000D03*
X87600000Y-117800000D03*
X90000000Y-117800000D03*
D13*
X88800000Y-118450000D03*
D14*
X88750000Y-117600000D03*
X88800000Y-116000000D03*
D13*
X88800000Y-115150000D03*
D12*
X90000000Y-115800000D03*
X87600000Y-115800000D03*
X82000000Y-117800000D03*
X84400000Y-117800000D03*
D13*
X83200000Y-118450000D03*
D14*
X83150000Y-117600000D03*
X83200000Y-116000000D03*
D13*
X83200000Y-115150000D03*
D12*
X84400000Y-115800000D03*
X82000000Y-115800000D03*
X115600000Y-112200000D03*
X118000000Y-112200000D03*
D13*
X116800000Y-112850000D03*
D14*
X116750000Y-112000000D03*
X116800000Y-110400000D03*
D13*
X116800000Y-109550000D03*
D12*
X118000000Y-110200000D03*
X115600000Y-110200000D03*
X110000000Y-112200000D03*
X112400000Y-112200000D03*
D13*
X111200000Y-112850000D03*
D14*
X111150000Y-112000000D03*
X111200000Y-110400000D03*
D13*
X111200000Y-109550000D03*
D12*
X112400000Y-110200000D03*
X110000000Y-110200000D03*
X104400000Y-112200000D03*
X106800000Y-112200000D03*
D13*
X105600000Y-112850000D03*
D14*
X105550000Y-112000000D03*
X105600000Y-110400000D03*
D13*
X105600000Y-109550000D03*
D12*
X106800000Y-110200000D03*
X104400000Y-110200000D03*
X98800000Y-112200000D03*
X101200000Y-112200000D03*
D13*
X100000000Y-112850000D03*
D14*
X99950000Y-112000000D03*
X100000000Y-110400000D03*
D13*
X100000000Y-109550000D03*
D12*
X101200000Y-110200000D03*
X98800000Y-110200000D03*
X93200000Y-112200000D03*
X95600000Y-112200000D03*
D13*
X94400000Y-112850000D03*
D14*
X94350000Y-112000000D03*
X94400000Y-110400000D03*
D13*
X94400000Y-109550000D03*
D12*
X95600000Y-110200000D03*
X93200000Y-110200000D03*
X87600000Y-112200000D03*
X90000000Y-112200000D03*
D13*
X88800000Y-112850000D03*
D14*
X88750000Y-112000000D03*
X88800000Y-110400000D03*
D13*
X88800000Y-109550000D03*
D12*
X90000000Y-110200000D03*
X87600000Y-110200000D03*
X82000000Y-112200000D03*
X84400000Y-112200000D03*
D13*
X83200000Y-112850000D03*
D14*
X83150000Y-112000000D03*
X83200000Y-110400000D03*
D13*
X83200000Y-109550000D03*
D12*
X84400000Y-110200000D03*
X82000000Y-110200000D03*
X121200000Y-106600000D03*
X123600000Y-106600000D03*
D13*
X122400000Y-107250000D03*
D14*
X122350000Y-106400000D03*
X122400000Y-104800000D03*
D13*
X122400000Y-103950000D03*
D12*
X123600000Y-104600000D03*
X121200000Y-104600000D03*
X115600000Y-106600000D03*
X118000000Y-106600000D03*
D13*
X116800000Y-107250000D03*
D14*
X116750000Y-106400000D03*
X116800000Y-104800000D03*
D13*
X116800000Y-103950000D03*
D12*
X118000000Y-104600000D03*
X115600000Y-104600000D03*
X110000000Y-106600000D03*
X112400000Y-106600000D03*
D13*
X111200000Y-107250000D03*
D14*
X111150000Y-106400000D03*
X111200000Y-104800000D03*
D13*
X111200000Y-103950000D03*
D12*
X112400000Y-104600000D03*
X110000000Y-104600000D03*
X104400000Y-106600000D03*
X106800000Y-106600000D03*
D13*
X105600000Y-107250000D03*
D14*
X105550000Y-106400000D03*
X105600000Y-104800000D03*
D13*
X105600000Y-103950000D03*
D12*
X106800000Y-104600000D03*
X104400000Y-104600000D03*
X98800000Y-106600000D03*
X101200000Y-106600000D03*
D13*
X100000000Y-107250000D03*
D14*
X99950000Y-106400000D03*
X100000000Y-104800000D03*
D13*
X100000000Y-103950000D03*
D12*
X101200000Y-104600000D03*
X98800000Y-104600000D03*
X93200000Y-106600000D03*
X95600000Y-106600000D03*
D13*
X94400000Y-107250000D03*
D14*
X94350000Y-106400000D03*
X94400000Y-104800000D03*
D13*
X94400000Y-103950000D03*
D12*
X95600000Y-104600000D03*
X93200000Y-104600000D03*
X87600000Y-106600000D03*
X90000000Y-106600000D03*
D13*
X88800000Y-107250000D03*
D14*
X88750000Y-106400000D03*
X88800000Y-104800000D03*
D13*
X88800000Y-103950000D03*
D12*
X90000000Y-104600000D03*
X87600000Y-104600000D03*
X82000000Y-106600000D03*
X84400000Y-106600000D03*
D13*
X83200000Y-107250000D03*
D14*
X83150000Y-106400000D03*
X83200000Y-104800000D03*
D13*
X83200000Y-103950000D03*
D12*
X84400000Y-104600000D03*
X82000000Y-104600000D03*
X76400000Y-106600000D03*
X78800000Y-106600000D03*
D13*
X77600000Y-107250000D03*
D14*
X77550000Y-106400000D03*
X77600000Y-104800000D03*
D13*
X77600000Y-103950000D03*
D12*
X78800000Y-104600000D03*
X76400000Y-104600000D03*
X121200000Y-101000000D03*
X123600000Y-101000000D03*
D13*
X122400000Y-101650000D03*
D14*
X122350000Y-100800000D03*
X122400000Y-99200000D03*
D13*
X122400000Y-98350000D03*
D12*
X123600000Y-99000000D03*
X121200000Y-99000000D03*
X115600000Y-101000000D03*
X118000000Y-101000000D03*
D13*
X116800000Y-101650000D03*
D14*
X116750000Y-100800000D03*
X116800000Y-99200000D03*
D13*
X116800000Y-98350000D03*
D12*
X118000000Y-99000000D03*
X115600000Y-99000000D03*
X110000000Y-101000000D03*
X112400000Y-101000000D03*
D13*
X111200000Y-101650000D03*
D14*
X111150000Y-100800000D03*
X111200000Y-99200000D03*
D13*
X111200000Y-98350000D03*
D12*
X112400000Y-99000000D03*
X110000000Y-99000000D03*
X104400000Y-101000000D03*
X106800000Y-101000000D03*
D13*
X105600000Y-101650000D03*
D14*
X105550000Y-100800000D03*
X105600000Y-99200000D03*
D13*
X105600000Y-98350000D03*
D12*
X106800000Y-99000000D03*
X104400000Y-99000000D03*
X98800000Y-101000000D03*
X101200000Y-101000000D03*
D13*
X100000000Y-101650000D03*
D14*
X99950000Y-100800000D03*
X100000000Y-99200000D03*
D13*
X100000000Y-98350000D03*
D12*
X101200000Y-99000000D03*
X98800000Y-99000000D03*
X93200000Y-101000000D03*
X95600000Y-101000000D03*
D13*
X94400000Y-101650000D03*
D14*
X94350000Y-100800000D03*
X94400000Y-99200000D03*
D13*
X94400000Y-98350000D03*
D12*
X95600000Y-99000000D03*
X93200000Y-99000000D03*
X87600000Y-101000000D03*
X90000000Y-101000000D03*
D13*
X88800000Y-101650000D03*
D14*
X88750000Y-100800000D03*
X88800000Y-99200000D03*
D13*
X88800000Y-98350000D03*
D12*
X90000000Y-99000000D03*
X87600000Y-99000000D03*
X82000000Y-101000000D03*
X84400000Y-101000000D03*
D13*
X83200000Y-101650000D03*
D14*
X83150000Y-100800000D03*
X83200000Y-99200000D03*
D13*
X83200000Y-98350000D03*
D12*
X84400000Y-99000000D03*
X82000000Y-99000000D03*
X76400000Y-101000000D03*
X78800000Y-101000000D03*
D13*
X77600000Y-101650000D03*
D14*
X77550000Y-100800000D03*
X77600000Y-99200000D03*
D13*
X77600000Y-98350000D03*
D12*
X78800000Y-99000000D03*
X76400000Y-99000000D03*
X121200000Y-95400000D03*
X123600000Y-95400000D03*
D13*
X122400000Y-96050000D03*
D14*
X122350000Y-95200000D03*
X122400000Y-93600000D03*
D13*
X122400000Y-92750000D03*
D12*
X123600000Y-93400000D03*
X121200000Y-93400000D03*
X115600000Y-95400000D03*
X118000000Y-95400000D03*
D13*
X116800000Y-96050000D03*
D14*
X116750000Y-95200000D03*
X116800000Y-93600000D03*
D13*
X116800000Y-92750000D03*
D12*
X118000000Y-93400000D03*
X115600000Y-93400000D03*
X110000000Y-95400000D03*
X112400000Y-95400000D03*
D13*
X111200000Y-96050000D03*
D14*
X111150000Y-95200000D03*
X111200000Y-93600000D03*
D13*
X111200000Y-92750000D03*
D12*
X112400000Y-93400000D03*
X110000000Y-93400000D03*
X104400000Y-95400000D03*
X106800000Y-95400000D03*
D13*
X105600000Y-96050000D03*
D14*
X105550000Y-95200000D03*
X105600000Y-93600000D03*
D13*
X105600000Y-92750000D03*
D12*
X106800000Y-93400000D03*
X104400000Y-93400000D03*
X98800000Y-95400000D03*
X101200000Y-95400000D03*
D13*
X100000000Y-96050000D03*
D14*
X99950000Y-95200000D03*
X100000000Y-93600000D03*
D13*
X100000000Y-92750000D03*
D12*
X101200000Y-93400000D03*
X98800000Y-93400000D03*
X93200000Y-95400000D03*
X95600000Y-95400000D03*
D13*
X94400000Y-96050000D03*
D14*
X94350000Y-95200000D03*
X94400000Y-93600000D03*
D13*
X94400000Y-92750000D03*
D12*
X95600000Y-93400000D03*
X93200000Y-93400000D03*
X87600000Y-95400000D03*
X90000000Y-95400000D03*
D13*
X88800000Y-96050000D03*
D14*
X88750000Y-95200000D03*
X88800000Y-93600000D03*
D13*
X88800000Y-92750000D03*
D12*
X90000000Y-93400000D03*
X87600000Y-93400000D03*
X82000000Y-95400000D03*
X84400000Y-95400000D03*
D13*
X83200000Y-96050000D03*
D14*
X83150000Y-95200000D03*
X83200000Y-93600000D03*
D13*
X83200000Y-92750000D03*
D12*
X84400000Y-93400000D03*
X82000000Y-93400000D03*
X76400000Y-95400000D03*
X78800000Y-95400000D03*
D13*
X77600000Y-96050000D03*
D14*
X77550000Y-95200000D03*
X77600000Y-93600000D03*
D13*
X77600000Y-92750000D03*
D12*
X78800000Y-93400000D03*
X76400000Y-93400000D03*
X115600000Y-89800000D03*
X118000000Y-89800000D03*
D13*
X116800000Y-90450000D03*
D14*
X116750000Y-89600000D03*
X116800000Y-88000000D03*
D13*
X116800000Y-87150000D03*
D12*
X118000000Y-87800000D03*
X115600000Y-87800000D03*
X110000000Y-89800000D03*
X112400000Y-89800000D03*
D13*
X111200000Y-90450000D03*
D14*
X111150000Y-89600000D03*
X111200000Y-88000000D03*
D13*
X111200000Y-87150000D03*
D12*
X112400000Y-87800000D03*
X110000000Y-87800000D03*
X104400000Y-89800000D03*
X106800000Y-89800000D03*
D13*
X105600000Y-90450000D03*
D14*
X105550000Y-89600000D03*
X105600000Y-88000000D03*
D13*
X105600000Y-87150000D03*
D12*
X106800000Y-87800000D03*
X104400000Y-87800000D03*
X98800000Y-89800000D03*
X101200000Y-89800000D03*
D13*
X100000000Y-90450000D03*
D14*
X99950000Y-89600000D03*
X100000000Y-88000000D03*
D13*
X100000000Y-87150000D03*
D12*
X101200000Y-87800000D03*
X98800000Y-87800000D03*
X93200000Y-89800000D03*
X95600000Y-89800000D03*
D13*
X94400000Y-90450000D03*
D14*
X94350000Y-89600000D03*
X94400000Y-88000000D03*
D13*
X94400000Y-87150000D03*
D12*
X95600000Y-87800000D03*
X93200000Y-87800000D03*
X87600000Y-89800000D03*
X90000000Y-89800000D03*
D13*
X88800000Y-90450000D03*
D14*
X88750000Y-89600000D03*
X88800000Y-88000000D03*
D13*
X88800000Y-87150000D03*
D12*
X90000000Y-87800000D03*
X87600000Y-87800000D03*
X82000000Y-89800000D03*
X84400000Y-89800000D03*
D13*
X83200000Y-90450000D03*
D14*
X83150000Y-89600000D03*
X83200000Y-88000000D03*
D13*
X83200000Y-87150000D03*
D12*
X84400000Y-87800000D03*
X82000000Y-87800000D03*
X115600000Y-84200000D03*
X118000000Y-84200000D03*
D13*
X116800000Y-84850000D03*
D14*
X116750000Y-84000000D03*
X116800000Y-82400000D03*
D13*
X116800000Y-81550000D03*
D12*
X118000000Y-82200000D03*
X115600000Y-82200000D03*
X110000000Y-84200000D03*
X112400000Y-84200000D03*
D13*
X111200000Y-84850000D03*
D14*
X111150000Y-84000000D03*
X111200000Y-82400000D03*
D13*
X111200000Y-81550000D03*
D12*
X112400000Y-82200000D03*
X110000000Y-82200000D03*
X104400000Y-84200000D03*
X106800000Y-84200000D03*
D13*
X105600000Y-84850000D03*
D14*
X105550000Y-84000000D03*
X105600000Y-82400000D03*
D13*
X105600000Y-81550000D03*
D12*
X106800000Y-82200000D03*
X104400000Y-82200000D03*
X98800000Y-84200000D03*
X101200000Y-84200000D03*
D13*
X100000000Y-84850000D03*
D14*
X99950000Y-84000000D03*
X100000000Y-82400000D03*
D13*
X100000000Y-81550000D03*
D12*
X101200000Y-82200000D03*
X98800000Y-82200000D03*
X93200000Y-84200000D03*
X95600000Y-84200000D03*
D13*
X94400000Y-84850000D03*
D14*
X94350000Y-84000000D03*
X94400000Y-82400000D03*
D13*
X94400000Y-81550000D03*
D12*
X95600000Y-82200000D03*
X93200000Y-82200000D03*
X87600000Y-84200000D03*
X90000000Y-84200000D03*
D13*
X88800000Y-84850000D03*
D14*
X88750000Y-84000000D03*
X88800000Y-82400000D03*
D13*
X88800000Y-81550000D03*
D12*
X90000000Y-82200000D03*
X87600000Y-82200000D03*
X82000000Y-84200000D03*
X84400000Y-84200000D03*
D13*
X83200000Y-84850000D03*
D14*
X83150000Y-84000000D03*
X83200000Y-82400000D03*
D13*
X83200000Y-81550000D03*
D12*
X84400000Y-82200000D03*
X82000000Y-82200000D03*
X104400000Y-78600000D03*
X106800000Y-78600000D03*
D13*
X105600000Y-79250000D03*
D14*
X105550000Y-78400000D03*
X105600000Y-76800000D03*
D13*
X105600000Y-75950000D03*
D12*
X106800000Y-76600000D03*
X104400000Y-76600000D03*
X98800000Y-78600000D03*
X101200000Y-78600000D03*
D13*
X100000000Y-79250000D03*
D14*
X99950000Y-78400000D03*
X100000000Y-76800000D03*
D13*
X100000000Y-75950000D03*
D12*
X101200000Y-76600000D03*
X98800000Y-76600000D03*
X93200000Y-78600000D03*
X95600000Y-78600000D03*
D13*
X94400000Y-79250000D03*
D14*
X94350000Y-78400000D03*
X94400000Y-76800000D03*
D13*
X94400000Y-75950000D03*
D12*
X95600000Y-76600000D03*
X93200000Y-76600000D03*
M02*
