G04 #@! TF.GenerationSoftware,KiCad,Pcbnew,5.1.5+dfsg1-2build2*
G04 #@! TF.CreationDate,2021-12-15T11:20:51+01:00*
G04 #@! TF.ProjectId,BitBadge,42697442-6164-4676-952e-6b696361645f,rev?*
G04 #@! TF.SameCoordinates,Original*
G04 #@! TF.FileFunction,Copper,L1,Top*
G04 #@! TF.FilePolarity,Positive*
%FSLAX46Y46*%
G04 Gerber Fmt 4.6, Leading zero omitted, Abs format (unit mm)*
G04 Created by KiCad (PCBNEW 5.1.5+dfsg1-2build2) date 2021-12-15 11:20:51*
%MOMM*%
%LPD*%
G04 APERTURE LIST*
%ADD10O,11.000000X5.000000*%
%ADD11C,0.900000*%
%ADD12R,1.000000X2.200000*%
%ADD13R,2.500000X2.000000*%
%ADD14R,0.600000X0.500000*%
%ADD15R,3.000000X0.800000*%
%ADD16R,2.000000X0.600000*%
%ADD17C,1.000000*%
%ADD18C,0.600000*%
%ADD19C,0.300000*%
G04 APERTURE END LIST*
D10*
X100000000Y-71000000D03*
D11*
X104500000Y-71000000D03*
X104000000Y-72250000D03*
X96000000Y-72250000D03*
X95500000Y-71000000D03*
X96000000Y-69750000D03*
X104000000Y-69750000D03*
D12*
X102000000Y-126400000D03*
X104000000Y-126400000D03*
X96000000Y-126400000D03*
X98000000Y-126400000D03*
X102000000Y-131800000D03*
X104000000Y-131800000D03*
X98000000Y-131800000D03*
X96000000Y-131800000D03*
D13*
X122400000Y-116000000D03*
X122400000Y-112000000D03*
D14*
X104400000Y-123400000D03*
X106800000Y-123400000D03*
D15*
X105600000Y-124050000D03*
D16*
X105550000Y-123200000D03*
X105600000Y-121600000D03*
D15*
X105600000Y-120750000D03*
D14*
X106800000Y-121400000D03*
X104400000Y-121400000D03*
X98800000Y-123400000D03*
X101200000Y-123400000D03*
D15*
X100000000Y-124050000D03*
D16*
X99950000Y-123200000D03*
X100000000Y-121600000D03*
D15*
X100000000Y-120750000D03*
D14*
X101200000Y-121400000D03*
X98800000Y-121400000D03*
X93200000Y-123400000D03*
X95600000Y-123400000D03*
D15*
X94400000Y-124050000D03*
D16*
X94350000Y-123200000D03*
X94400000Y-121600000D03*
D15*
X94400000Y-120750000D03*
D14*
X95600000Y-121400000D03*
X93200000Y-121400000D03*
X115600000Y-117800000D03*
X118000000Y-117800000D03*
D15*
X116800000Y-118450000D03*
D16*
X116750000Y-117600000D03*
X116800000Y-116000000D03*
D15*
X116800000Y-115150000D03*
D14*
X118000000Y-115800000D03*
X115600000Y-115800000D03*
X110000000Y-117800000D03*
X112400000Y-117800000D03*
D15*
X111200000Y-118450000D03*
D16*
X111150000Y-117600000D03*
X111200000Y-116000000D03*
D15*
X111200000Y-115150000D03*
D14*
X112400000Y-115800000D03*
X110000000Y-115800000D03*
X104400000Y-117800000D03*
X106800000Y-117800000D03*
D15*
X105600000Y-118450000D03*
D16*
X105550000Y-117600000D03*
X105600000Y-116000000D03*
D15*
X105600000Y-115150000D03*
D14*
X106800000Y-115800000D03*
X104400000Y-115800000D03*
X98800000Y-117800000D03*
X101200000Y-117800000D03*
D15*
X100000000Y-118450000D03*
D16*
X99950000Y-117600000D03*
X100000000Y-116000000D03*
D15*
X100000000Y-115150000D03*
D14*
X101200000Y-115800000D03*
X98800000Y-115800000D03*
X93200000Y-117800000D03*
X95600000Y-117800000D03*
D15*
X94400000Y-118450000D03*
D16*
X94350000Y-117600000D03*
X94400000Y-116000000D03*
D15*
X94400000Y-115150000D03*
D14*
X95600000Y-115800000D03*
X93200000Y-115800000D03*
X87600000Y-117800000D03*
X90000000Y-117800000D03*
D15*
X88800000Y-118450000D03*
D16*
X88750000Y-117600000D03*
X88800000Y-116000000D03*
D15*
X88800000Y-115150000D03*
D14*
X90000000Y-115800000D03*
X87600000Y-115800000D03*
X82000000Y-117800000D03*
X84400000Y-117800000D03*
D15*
X83200000Y-118450000D03*
D16*
X83150000Y-117600000D03*
X83200000Y-116000000D03*
D15*
X83200000Y-115150000D03*
D14*
X84400000Y-115800000D03*
X82000000Y-115800000D03*
X115600000Y-112200000D03*
X118000000Y-112200000D03*
D15*
X116800000Y-112850000D03*
D16*
X116750000Y-112000000D03*
X116800000Y-110400000D03*
D15*
X116800000Y-109550000D03*
D14*
X118000000Y-110200000D03*
X115600000Y-110200000D03*
X110000000Y-112200000D03*
X112400000Y-112200000D03*
D15*
X111200000Y-112850000D03*
D16*
X111150000Y-112000000D03*
X111200000Y-110400000D03*
D15*
X111200000Y-109550000D03*
D14*
X112400000Y-110200000D03*
X110000000Y-110200000D03*
X104400000Y-112200000D03*
X106800000Y-112200000D03*
D15*
X105600000Y-112850000D03*
D16*
X105550000Y-112000000D03*
X105600000Y-110400000D03*
D15*
X105600000Y-109550000D03*
D14*
X106800000Y-110200000D03*
X104400000Y-110200000D03*
X98800000Y-112200000D03*
X101200000Y-112200000D03*
D15*
X100000000Y-112850000D03*
D16*
X99950000Y-112000000D03*
X100000000Y-110400000D03*
D15*
X100000000Y-109550000D03*
D14*
X101200000Y-110200000D03*
X98800000Y-110200000D03*
X93200000Y-112200000D03*
X95600000Y-112200000D03*
D15*
X94400000Y-112850000D03*
D16*
X94350000Y-112000000D03*
X94400000Y-110400000D03*
D15*
X94400000Y-109550000D03*
D14*
X95600000Y-110200000D03*
X93200000Y-110200000D03*
X87600000Y-112200000D03*
X90000000Y-112200000D03*
D15*
X88800000Y-112850000D03*
D16*
X88750000Y-112000000D03*
X88800000Y-110400000D03*
D15*
X88800000Y-109550000D03*
D14*
X90000000Y-110200000D03*
X87600000Y-110200000D03*
X82000000Y-112200000D03*
X84400000Y-112200000D03*
D15*
X83200000Y-112850000D03*
D16*
X83150000Y-112000000D03*
X83200000Y-110400000D03*
D15*
X83200000Y-109550000D03*
D14*
X84400000Y-110200000D03*
X82000000Y-110200000D03*
X121200000Y-106600000D03*
X123600000Y-106600000D03*
D15*
X122400000Y-107250000D03*
D16*
X122350000Y-106400000D03*
X122400000Y-104800000D03*
D15*
X122400000Y-103950000D03*
D14*
X123600000Y-104600000D03*
X121200000Y-104600000D03*
X115600000Y-106600000D03*
X118000000Y-106600000D03*
D15*
X116800000Y-107250000D03*
D16*
X116750000Y-106400000D03*
X116800000Y-104800000D03*
D15*
X116800000Y-103950000D03*
D14*
X118000000Y-104600000D03*
X115600000Y-104600000D03*
X110000000Y-106600000D03*
X112400000Y-106600000D03*
D15*
X111200000Y-107250000D03*
D16*
X111150000Y-106400000D03*
X111200000Y-104800000D03*
D15*
X111200000Y-103950000D03*
D14*
X112400000Y-104600000D03*
X110000000Y-104600000D03*
X104400000Y-106600000D03*
X106800000Y-106600000D03*
D15*
X105600000Y-107250000D03*
D16*
X105550000Y-106400000D03*
X105600000Y-104800000D03*
D15*
X105600000Y-103950000D03*
D14*
X106800000Y-104600000D03*
X104400000Y-104600000D03*
X98800000Y-106600000D03*
X101200000Y-106600000D03*
D15*
X100000000Y-107250000D03*
D16*
X99950000Y-106400000D03*
X100000000Y-104800000D03*
D15*
X100000000Y-103950000D03*
D14*
X101200000Y-104600000D03*
X98800000Y-104600000D03*
X93200000Y-106600000D03*
X95600000Y-106600000D03*
D15*
X94400000Y-107250000D03*
D16*
X94350000Y-106400000D03*
X94400000Y-104800000D03*
D15*
X94400000Y-103950000D03*
D14*
X95600000Y-104600000D03*
X93200000Y-104600000D03*
X87600000Y-106600000D03*
X90000000Y-106600000D03*
D15*
X88800000Y-107250000D03*
D16*
X88750000Y-106400000D03*
X88800000Y-104800000D03*
D15*
X88800000Y-103950000D03*
D14*
X90000000Y-104600000D03*
X87600000Y-104600000D03*
X82000000Y-106600000D03*
X84400000Y-106600000D03*
D15*
X83200000Y-107250000D03*
D16*
X83150000Y-106400000D03*
X83200000Y-104800000D03*
D15*
X83200000Y-103950000D03*
D14*
X84400000Y-104600000D03*
X82000000Y-104600000D03*
X76400000Y-106600000D03*
X78800000Y-106600000D03*
D15*
X77600000Y-107250000D03*
D16*
X77550000Y-106400000D03*
X77600000Y-104800000D03*
D15*
X77600000Y-103950000D03*
D14*
X78800000Y-104600000D03*
X76400000Y-104600000D03*
X121200000Y-101000000D03*
X123600000Y-101000000D03*
D15*
X122400000Y-101650000D03*
D16*
X122350000Y-100800000D03*
X122400000Y-99200000D03*
D15*
X122400000Y-98350000D03*
D14*
X123600000Y-99000000D03*
X121200000Y-99000000D03*
X115600000Y-101000000D03*
X118000000Y-101000000D03*
D15*
X116800000Y-101650000D03*
D16*
X116750000Y-100800000D03*
X116800000Y-99200000D03*
D15*
X116800000Y-98350000D03*
D14*
X118000000Y-99000000D03*
X115600000Y-99000000D03*
X110000000Y-101000000D03*
X112400000Y-101000000D03*
D15*
X111200000Y-101650000D03*
D16*
X111150000Y-100800000D03*
X111200000Y-99200000D03*
D15*
X111200000Y-98350000D03*
D14*
X112400000Y-99000000D03*
X110000000Y-99000000D03*
X104400000Y-101000000D03*
X106800000Y-101000000D03*
D15*
X105600000Y-101650000D03*
D16*
X105550000Y-100800000D03*
X105600000Y-99200000D03*
D15*
X105600000Y-98350000D03*
D14*
X106800000Y-99000000D03*
X104400000Y-99000000D03*
X98800000Y-101000000D03*
X101200000Y-101000000D03*
D15*
X100000000Y-101650000D03*
D16*
X99950000Y-100800000D03*
X100000000Y-99200000D03*
D15*
X100000000Y-98350000D03*
D14*
X101200000Y-99000000D03*
X98800000Y-99000000D03*
X93200000Y-101000000D03*
X95600000Y-101000000D03*
D15*
X94400000Y-101650000D03*
D16*
X94350000Y-100800000D03*
X94400000Y-99200000D03*
D15*
X94400000Y-98350000D03*
D14*
X95600000Y-99000000D03*
X93200000Y-99000000D03*
X87600000Y-101000000D03*
X90000000Y-101000000D03*
D15*
X88800000Y-101650000D03*
D16*
X88750000Y-100800000D03*
X88800000Y-99200000D03*
D15*
X88800000Y-98350000D03*
D14*
X90000000Y-99000000D03*
X87600000Y-99000000D03*
X82000000Y-101000000D03*
X84400000Y-101000000D03*
D15*
X83200000Y-101650000D03*
D16*
X83150000Y-100800000D03*
X83200000Y-99200000D03*
D15*
X83200000Y-98350000D03*
D14*
X84400000Y-99000000D03*
X82000000Y-99000000D03*
X76400000Y-101000000D03*
X78800000Y-101000000D03*
D15*
X77600000Y-101650000D03*
D16*
X77550000Y-100800000D03*
X77600000Y-99200000D03*
D15*
X77600000Y-98350000D03*
D14*
X78800000Y-99000000D03*
X76400000Y-99000000D03*
X121200000Y-95400000D03*
X123600000Y-95400000D03*
D15*
X122400000Y-96050000D03*
D16*
X122350000Y-95200000D03*
X122400000Y-93600000D03*
D15*
X122400000Y-92750000D03*
D14*
X123600000Y-93400000D03*
X121200000Y-93400000D03*
X115600000Y-95400000D03*
X118000000Y-95400000D03*
D15*
X116800000Y-96050000D03*
D16*
X116750000Y-95200000D03*
X116800000Y-93600000D03*
D15*
X116800000Y-92750000D03*
D14*
X118000000Y-93400000D03*
X115600000Y-93400000D03*
X110000000Y-95400000D03*
X112400000Y-95400000D03*
D15*
X111200000Y-96050000D03*
D16*
X111150000Y-95200000D03*
X111200000Y-93600000D03*
D15*
X111200000Y-92750000D03*
D14*
X112400000Y-93400000D03*
X110000000Y-93400000D03*
X104400000Y-95400000D03*
X106800000Y-95400000D03*
D15*
X105600000Y-96050000D03*
D16*
X105550000Y-95200000D03*
X105600000Y-93600000D03*
D15*
X105600000Y-92750000D03*
D14*
X106800000Y-93400000D03*
X104400000Y-93400000D03*
X98800000Y-95400000D03*
X101200000Y-95400000D03*
D15*
X100000000Y-96050000D03*
D16*
X99950000Y-95200000D03*
X100000000Y-93600000D03*
D15*
X100000000Y-92750000D03*
D14*
X101200000Y-93400000D03*
X98800000Y-93400000D03*
X93200000Y-95400000D03*
X95600000Y-95400000D03*
D15*
X94400000Y-96050000D03*
D16*
X94350000Y-95200000D03*
X94400000Y-93600000D03*
D15*
X94400000Y-92750000D03*
D14*
X95600000Y-93400000D03*
X93200000Y-93400000D03*
X87600000Y-95400000D03*
X90000000Y-95400000D03*
D15*
X88800000Y-96050000D03*
D16*
X88750000Y-95200000D03*
X88800000Y-93600000D03*
D15*
X88800000Y-92750000D03*
D14*
X90000000Y-93400000D03*
X87600000Y-93400000D03*
X82000000Y-95400000D03*
X84400000Y-95400000D03*
D15*
X83200000Y-96050000D03*
D16*
X83150000Y-95200000D03*
X83200000Y-93600000D03*
D15*
X83200000Y-92750000D03*
D14*
X84400000Y-93400000D03*
X82000000Y-93400000D03*
X76400000Y-95400000D03*
X78800000Y-95400000D03*
D15*
X77600000Y-96050000D03*
D16*
X77550000Y-95200000D03*
X77600000Y-93600000D03*
D15*
X77600000Y-92750000D03*
D14*
X78800000Y-93400000D03*
X76400000Y-93400000D03*
X115600000Y-89800000D03*
X118000000Y-89800000D03*
D15*
X116800000Y-90450000D03*
D16*
X116750000Y-89600000D03*
X116800000Y-88000000D03*
D15*
X116800000Y-87150000D03*
D14*
X118000000Y-87800000D03*
X115600000Y-87800000D03*
X110000000Y-89800000D03*
X112400000Y-89800000D03*
D15*
X111200000Y-90450000D03*
D16*
X111150000Y-89600000D03*
X111200000Y-88000000D03*
D15*
X111200000Y-87150000D03*
D14*
X112400000Y-87800000D03*
X110000000Y-87800000D03*
X104400000Y-89800000D03*
X106800000Y-89800000D03*
D15*
X105600000Y-90450000D03*
D16*
X105550000Y-89600000D03*
X105600000Y-88000000D03*
D15*
X105600000Y-87150000D03*
D14*
X106800000Y-87800000D03*
X104400000Y-87800000D03*
X98800000Y-89800000D03*
X101200000Y-89800000D03*
D15*
X100000000Y-90450000D03*
D16*
X99950000Y-89600000D03*
X100000000Y-88000000D03*
D15*
X100000000Y-87150000D03*
D14*
X101200000Y-87800000D03*
X98800000Y-87800000D03*
X93200000Y-89800000D03*
X95600000Y-89800000D03*
D15*
X94400000Y-90450000D03*
D16*
X94350000Y-89600000D03*
X94400000Y-88000000D03*
D15*
X94400000Y-87150000D03*
D14*
X95600000Y-87800000D03*
X93200000Y-87800000D03*
X87600000Y-89800000D03*
X90000000Y-89800000D03*
D15*
X88800000Y-90450000D03*
D16*
X88750000Y-89600000D03*
X88800000Y-88000000D03*
D15*
X88800000Y-87150000D03*
D14*
X90000000Y-87800000D03*
X87600000Y-87800000D03*
X82000000Y-89800000D03*
X84400000Y-89800000D03*
D15*
X83200000Y-90450000D03*
D16*
X83150000Y-89600000D03*
X83200000Y-88000000D03*
D15*
X83200000Y-87150000D03*
D14*
X84400000Y-87800000D03*
X82000000Y-87800000D03*
X115600000Y-84200000D03*
X118000000Y-84200000D03*
D15*
X116800000Y-84850000D03*
D16*
X116750000Y-84000000D03*
X116800000Y-82400000D03*
D15*
X116800000Y-81550000D03*
D14*
X118000000Y-82200000D03*
X115600000Y-82200000D03*
X110000000Y-84200000D03*
X112400000Y-84200000D03*
D15*
X111200000Y-84850000D03*
D16*
X111150000Y-84000000D03*
X111200000Y-82400000D03*
D15*
X111200000Y-81550000D03*
D14*
X112400000Y-82200000D03*
X110000000Y-82200000D03*
X104400000Y-84200000D03*
X106800000Y-84200000D03*
D15*
X105600000Y-84850000D03*
D16*
X105550000Y-84000000D03*
X105600000Y-82400000D03*
D15*
X105600000Y-81550000D03*
D14*
X106800000Y-82200000D03*
X104400000Y-82200000D03*
X98800000Y-84200000D03*
X101200000Y-84200000D03*
D15*
X100000000Y-84850000D03*
D16*
X99950000Y-84000000D03*
X100000000Y-82400000D03*
D15*
X100000000Y-81550000D03*
D14*
X101200000Y-82200000D03*
X98800000Y-82200000D03*
X93200000Y-84200000D03*
X95600000Y-84200000D03*
D15*
X94400000Y-84850000D03*
D16*
X94350000Y-84000000D03*
X94400000Y-82400000D03*
D15*
X94400000Y-81550000D03*
D14*
X95600000Y-82200000D03*
X93200000Y-82200000D03*
X87600000Y-84200000D03*
X90000000Y-84200000D03*
D15*
X88800000Y-84850000D03*
D16*
X88750000Y-84000000D03*
X88800000Y-82400000D03*
D15*
X88800000Y-81550000D03*
D14*
X90000000Y-82200000D03*
X87600000Y-82200000D03*
X82000000Y-84200000D03*
X84400000Y-84200000D03*
D15*
X83200000Y-84850000D03*
D16*
X83150000Y-84000000D03*
X83200000Y-82400000D03*
D15*
X83200000Y-81550000D03*
D14*
X84400000Y-82200000D03*
X82000000Y-82200000D03*
X104400000Y-78600000D03*
X106800000Y-78600000D03*
D15*
X105600000Y-79250000D03*
D16*
X105550000Y-78400000D03*
X105600000Y-76800000D03*
D15*
X105600000Y-75950000D03*
D14*
X106800000Y-76600000D03*
X104400000Y-76600000D03*
X98800000Y-78600000D03*
X101200000Y-78600000D03*
D15*
X100000000Y-79250000D03*
D16*
X99950000Y-78400000D03*
X100000000Y-76800000D03*
D15*
X100000000Y-75950000D03*
D14*
X101200000Y-76600000D03*
X98800000Y-76600000D03*
X93200000Y-78600000D03*
X95600000Y-78600000D03*
D15*
X94400000Y-79250000D03*
D16*
X94350000Y-78400000D03*
X94400000Y-76800000D03*
D15*
X94400000Y-75950000D03*
D14*
X95600000Y-76600000D03*
X93200000Y-76600000D03*
D17*
X78500000Y-78000000D03*
X121500000Y-122000000D03*
D18*
X100000000Y-130500000D03*
X100000000Y-126000000D03*
X91000000Y-122000000D03*
X91000000Y-125000000D03*
X109000000Y-122000000D03*
X109000000Y-125000000D03*
D19*
X102000000Y-131800000D02*
X101300000Y-131800000D01*
X101300000Y-131800000D02*
X100000000Y-130500000D01*
X102000000Y-126400000D02*
X100400000Y-126400000D01*
X100400000Y-126400000D02*
X100000000Y-126000000D01*
X96000000Y-131800000D02*
X96000000Y-130000000D01*
X96000000Y-130000000D02*
X94500000Y-128500000D01*
X118500000Y-120000000D02*
X119500000Y-119000000D01*
X110500000Y-120000000D02*
X118500000Y-120000000D01*
X118800000Y-109800000D02*
X119500000Y-110500000D01*
X119400000Y-110400000D02*
X119500000Y-110400000D01*
X119500000Y-110500000D02*
X119400000Y-110400000D01*
X125000000Y-108500000D02*
X125000000Y-113500000D01*
X124500000Y-114000000D02*
X119500000Y-114000000D01*
X125000000Y-113500000D02*
X124500000Y-114000000D01*
X92500000Y-128500000D02*
X91000000Y-127000000D01*
X94500000Y-128500000D02*
X92500000Y-128500000D01*
X116800000Y-98600000D02*
X122400000Y-98600000D01*
X111200000Y-98600000D02*
X116800000Y-98600000D01*
X105600000Y-98600000D02*
X111200000Y-98600000D01*
X100000000Y-98600000D02*
X105600000Y-98600000D01*
X94400000Y-98600000D02*
X100000000Y-98600000D01*
X88800000Y-98600000D02*
X94400000Y-98600000D01*
X83200000Y-98600000D02*
X88800000Y-98600000D01*
X77600000Y-98600000D02*
X83200000Y-98600000D01*
X83200000Y-93000000D02*
X88800000Y-93000000D01*
X105600000Y-109800000D02*
X111200000Y-109800000D01*
X111200000Y-109800000D02*
X116800000Y-109800000D01*
X100000000Y-109800000D02*
X105600000Y-109800000D01*
X94400000Y-109800000D02*
X100000000Y-109800000D01*
X88800000Y-109800000D02*
X94400000Y-109800000D01*
X83200000Y-109800000D02*
X88800000Y-109800000D01*
X100000000Y-121000000D02*
X105600000Y-121000000D01*
X94400000Y-121000000D02*
X100000000Y-121000000D01*
X111200000Y-115400000D02*
X116800000Y-115400000D01*
X105600000Y-115400000D02*
X111200000Y-115400000D01*
X100000000Y-115400000D02*
X105600000Y-115400000D01*
X94400000Y-115400000D02*
X100000000Y-115400000D01*
X88800000Y-115400000D02*
X94400000Y-115400000D01*
X83200000Y-115400000D02*
X88800000Y-115400000D01*
X119000000Y-115400000D02*
X119500000Y-115400000D01*
X119500000Y-115400000D02*
X119500000Y-115500000D01*
X119500000Y-115000000D02*
X119500000Y-115500000D01*
X119500000Y-114000000D02*
X119500000Y-115000000D01*
X119500000Y-110400000D02*
X119500000Y-114000000D01*
X119500000Y-115500000D02*
X119500000Y-119000000D01*
X119100000Y-115400000D02*
X119000000Y-115400000D01*
X119000000Y-115400000D02*
X116800000Y-115400000D01*
X116800000Y-104200000D02*
X122400000Y-104200000D01*
X111200000Y-104200000D02*
X116800000Y-104200000D01*
X105600000Y-104200000D02*
X111200000Y-104200000D01*
X100000000Y-104200000D02*
X105600000Y-104200000D01*
X94400000Y-104200000D02*
X100000000Y-104200000D01*
X88800000Y-104200000D02*
X94400000Y-104200000D01*
X83200000Y-104200000D02*
X88800000Y-104200000D01*
X77600000Y-104200000D02*
X83200000Y-104200000D01*
X122400000Y-98600000D02*
X125000000Y-98600000D01*
X125000000Y-98600000D02*
X125000000Y-98500000D01*
X122400000Y-104200000D02*
X125000000Y-104200000D01*
X125000000Y-104200000D02*
X125000000Y-104500000D01*
X122400000Y-93000000D02*
X125000000Y-93000000D01*
X125000000Y-93000000D02*
X125000000Y-98500000D01*
X125000000Y-98500000D02*
X125000000Y-104500000D01*
X118800000Y-109800000D02*
X116800000Y-109800000D01*
X125000000Y-104500000D02*
X125000000Y-108500000D01*
X116800000Y-87400000D02*
X122400000Y-87400000D01*
X122400000Y-87400000D02*
X122400000Y-86000000D01*
X116800000Y-81800000D02*
X121000000Y-81800000D01*
X121000000Y-81800000D02*
X122400000Y-83200000D01*
X122400000Y-83200000D02*
X122400000Y-86000000D01*
X122400000Y-86000000D02*
X122400000Y-93000000D01*
X105600000Y-76200000D02*
X112600000Y-76200000D01*
X116800000Y-80400000D02*
X116800000Y-81800000D01*
X112600000Y-76200000D02*
X116800000Y-80400000D01*
X116800000Y-93000000D02*
X122400000Y-93000000D01*
X111200000Y-93000000D02*
X116800000Y-93000000D01*
X105600000Y-93000000D02*
X111200000Y-93000000D01*
X100000000Y-93000000D02*
X105600000Y-93000000D01*
X94400000Y-93000000D02*
X100000000Y-93000000D01*
X88800000Y-93000000D02*
X94400000Y-93000000D01*
X77600000Y-93000000D02*
X83200000Y-93000000D01*
X88800000Y-87400000D02*
X83200000Y-87400000D01*
X94400000Y-87400000D02*
X88800000Y-87400000D01*
X100000000Y-87400000D02*
X94400000Y-87400000D01*
X105600000Y-87400000D02*
X100000000Y-87400000D01*
X111200000Y-87400000D02*
X105600000Y-87400000D01*
X116800000Y-87400000D02*
X111200000Y-87400000D01*
X111200000Y-81800000D02*
X116800000Y-81800000D01*
X105600000Y-81800000D02*
X111200000Y-81800000D01*
X100000000Y-81800000D02*
X105600000Y-81800000D01*
X94400000Y-81800000D02*
X100000000Y-81800000D01*
X88800000Y-81800000D02*
X94400000Y-81800000D01*
X83200000Y-81800000D02*
X88800000Y-81800000D01*
X100000000Y-76200000D02*
X105600000Y-76200000D01*
X94400000Y-76200000D02*
X100000000Y-76200000D01*
X92000000Y-121000000D02*
X91500000Y-121000000D01*
X92000000Y-121000000D02*
X94400000Y-121000000D01*
X91000000Y-121500000D02*
X91000000Y-122000000D01*
X91500000Y-121000000D02*
X91000000Y-121500000D01*
X91000000Y-125000000D02*
X91000000Y-127000000D01*
X107600000Y-126400000D02*
X109000000Y-125000000D01*
X104000000Y-126400000D02*
X107600000Y-126400000D01*
X110000000Y-120000000D02*
X109000000Y-121000000D01*
X110500000Y-120000000D02*
X110000000Y-120000000D01*
X109000000Y-121000000D02*
X105600000Y-121000000D01*
X109000000Y-122000000D02*
X109000000Y-121000000D01*
X94400000Y-123800000D02*
X91300000Y-123800000D01*
X83200000Y-119200000D02*
X83200000Y-118200000D01*
X84000000Y-120000000D02*
X83200000Y-119200000D01*
X87500000Y-120000000D02*
X84000000Y-120000000D01*
X91300000Y-123800000D02*
X87500000Y-120000000D01*
X122400000Y-107000000D02*
X122400000Y-112000000D01*
X80000000Y-84600000D02*
X79000000Y-84600000D01*
X79000000Y-84600000D02*
X79000000Y-84500000D01*
X79000000Y-85500000D02*
X79000000Y-84500000D01*
X79000000Y-90200000D02*
X79000000Y-85500000D01*
X79000000Y-84500000D02*
X79000000Y-81500000D01*
X79000000Y-81500000D02*
X79900000Y-80600000D01*
X81500000Y-79000000D02*
X94400000Y-79000000D01*
X81500000Y-79000000D02*
X79900000Y-80600000D01*
X83200000Y-118200000D02*
X80700000Y-118200000D01*
X80700000Y-118200000D02*
X79000000Y-116500000D01*
X79000000Y-116500000D02*
X79000000Y-113000000D01*
X79000000Y-113000000D02*
X79000000Y-112500000D01*
X105600000Y-95800000D02*
X111200000Y-95800000D01*
X100000000Y-95800000D02*
X105600000Y-95800000D01*
X94400000Y-95800000D02*
X100000000Y-95800000D01*
X88800000Y-95800000D02*
X94400000Y-95800000D01*
X83200000Y-95800000D02*
X88800000Y-95800000D01*
X77600000Y-95800000D02*
X83200000Y-95800000D01*
X94400000Y-90200000D02*
X100000000Y-90200000D01*
X100000000Y-90200000D02*
X105600000Y-90200000D01*
X111200000Y-112600000D02*
X116800000Y-112600000D01*
X105600000Y-112600000D02*
X111200000Y-112600000D01*
X100000000Y-112600000D02*
X105600000Y-112600000D01*
X94400000Y-112600000D02*
X100000000Y-112600000D01*
X88800000Y-112600000D02*
X94400000Y-112600000D01*
X83200000Y-112600000D02*
X88800000Y-112600000D01*
X105600000Y-107000000D02*
X100000000Y-107000000D01*
X116800000Y-101400000D02*
X122400000Y-101400000D01*
X111200000Y-101400000D02*
X116800000Y-101400000D01*
X105600000Y-101400000D02*
X111200000Y-101400000D01*
X100000000Y-101400000D02*
X105600000Y-101400000D01*
X94400000Y-101400000D02*
X100000000Y-101400000D01*
X88800000Y-101400000D02*
X94400000Y-101400000D01*
X111200000Y-107000000D02*
X105600000Y-107000000D01*
X88800000Y-118200000D02*
X83200000Y-118200000D01*
X94400000Y-118200000D02*
X88800000Y-118200000D01*
X100000000Y-118200000D02*
X94400000Y-118200000D01*
X105600000Y-118200000D02*
X100000000Y-118200000D01*
X111200000Y-118200000D02*
X105600000Y-118200000D01*
X116800000Y-118200000D02*
X111200000Y-118200000D01*
X100000000Y-123800000D02*
X94400000Y-123800000D01*
X105600000Y-123800000D02*
X100000000Y-123800000D01*
X79900000Y-84600000D02*
X80000000Y-84600000D01*
X80000000Y-84600000D02*
X83200000Y-84600000D01*
X83200000Y-107000000D02*
X77600000Y-107000000D01*
X88800000Y-107000000D02*
X83200000Y-107000000D01*
X94400000Y-107000000D02*
X88800000Y-107000000D01*
X100000000Y-107000000D02*
X94400000Y-107000000D01*
X116800000Y-107000000D02*
X111200000Y-107000000D01*
X122400000Y-107000000D02*
X116800000Y-107000000D01*
X83200000Y-101400000D02*
X77600000Y-101400000D01*
X88800000Y-101400000D02*
X83200000Y-101400000D01*
X77600000Y-101400000D02*
X75000000Y-101400000D01*
X75000000Y-101400000D02*
X75000000Y-101500000D01*
X77600000Y-95800000D02*
X75000000Y-95800000D01*
X75000000Y-95800000D02*
X75000000Y-96000000D01*
X77600000Y-107000000D02*
X75500000Y-107000000D01*
X75500000Y-107000000D02*
X75000000Y-106500000D01*
X75000000Y-106500000D02*
X75000000Y-101500000D01*
X75000000Y-101500000D02*
X75000000Y-96000000D01*
X76300000Y-90200000D02*
X79000000Y-90200000D01*
X79000000Y-90200000D02*
X83200000Y-90200000D01*
X75000000Y-96000000D02*
X75000000Y-91500000D01*
X75000000Y-91500000D02*
X76300000Y-90200000D01*
X83200000Y-112600000D02*
X79000000Y-112600000D01*
X79000000Y-112600000D02*
X79000000Y-112500000D01*
X79000000Y-112500000D02*
X79000000Y-112000000D01*
X79000000Y-109000000D02*
X77600000Y-107600000D01*
X79000000Y-112000000D02*
X79000000Y-109000000D01*
X77600000Y-107600000D02*
X77600000Y-107000000D01*
X116800000Y-95800000D02*
X111200000Y-95800000D01*
X122400000Y-95800000D02*
X116800000Y-95800000D01*
X111200000Y-90200000D02*
X116800000Y-90200000D01*
X105600000Y-90200000D02*
X111200000Y-90200000D01*
X88800000Y-90200000D02*
X94400000Y-90200000D01*
X83200000Y-90200000D02*
X88800000Y-90200000D01*
X111200000Y-84600000D02*
X116800000Y-84600000D01*
X105600000Y-84600000D02*
X111200000Y-84600000D01*
X100000000Y-84600000D02*
X105600000Y-84600000D01*
X94400000Y-84600000D02*
X100000000Y-84600000D01*
X88800000Y-84600000D02*
X94400000Y-84600000D01*
X83200000Y-84600000D02*
X88800000Y-84600000D01*
X100000000Y-79000000D02*
X105600000Y-79000000D01*
X94400000Y-79000000D02*
X100000000Y-79000000D01*
X104000000Y-129000000D02*
X104000000Y-130000000D01*
X104000000Y-130000000D02*
X104000000Y-131800000D01*
X103000000Y-129000000D02*
X104000000Y-129000000D01*
X96000000Y-126400000D02*
X96000000Y-128000000D01*
X97000000Y-129000000D02*
X103000000Y-129000000D01*
X96000000Y-128000000D02*
X97000000Y-129000000D01*
X114000000Y-129000000D02*
X108000000Y-129000000D01*
X119400000Y-125400000D02*
X114000000Y-129000000D01*
X108000000Y-129000000D02*
X104000000Y-129000000D01*
X119400000Y-121100000D02*
X119400000Y-125400000D01*
X121900000Y-118600000D02*
X119400000Y-121100000D01*
X122400000Y-118600000D02*
X121900000Y-118600000D01*
X122400000Y-116000000D02*
X122400000Y-118600000D01*
M02*
