G04 #@! TF.GenerationSoftware,KiCad,Pcbnew,5.1.5+dfsg1-2build2*
G04 #@! TF.CreationDate,2021-12-15T11:20:51+01:00*
G04 #@! TF.ProjectId,BitBadge,42697442-6164-4676-952e-6b696361645f,rev?*
G04 #@! TF.SameCoordinates,Original*
G04 #@! TF.FileFunction,Legend,Top*
G04 #@! TF.FilePolarity,Positive*
%FSLAX46Y46*%
G04 Gerber Fmt 4.6, Leading zero omitted, Abs format (unit mm)*
G04 Created by KiCad (PCBNEW 5.1.5+dfsg1-2build2) date 2021-12-15 11:20:51*
%MOMM*%
%LPD*%
G04 APERTURE LIST*
%ADD10C,0.150000*%
%ADD11C,0.200000*%
%ADD12C,0.120000*%
G04 APERTURE END LIST*
D10*
X99000000Y-131250000D02*
X101000000Y-131250000D01*
D11*
X80400000Y-119600000D02*
X119600000Y-119600000D01*
X80400000Y-80400000D02*
X119600000Y-80400000D01*
X80400000Y-114000000D02*
X119600000Y-114000000D01*
X74800000Y-108400000D02*
X125200000Y-108400000D01*
X74800000Y-102800000D02*
X125200000Y-102800000D01*
X74800000Y-97200000D02*
X125200000Y-97200000D01*
X74800000Y-91600000D02*
X125200000Y-91600000D01*
X125200000Y-91600000D02*
X74800000Y-91600000D01*
X74800000Y-91600000D02*
X125200000Y-91600000D01*
X80400000Y-86000000D02*
X119600000Y-86000000D01*
D12*
X93500000Y-127350000D02*
X93500000Y-130850000D01*
X106500000Y-127350000D02*
X106500000Y-130850000D01*
X93500000Y-127350000D02*
X106500000Y-127350000D01*
X106500000Y-130850000D02*
X93500000Y-130850000D01*
X123880000Y-113000000D02*
X123880000Y-115000000D01*
X120920000Y-115000000D02*
X120920000Y-113000000D01*
X104000000Y-124400000D02*
X104000000Y-124600000D01*
X104000000Y-124600000D02*
X104200000Y-124600000D01*
X104200000Y-124600000D02*
X104000000Y-124400000D01*
X103900000Y-124200000D02*
X103900000Y-124700000D01*
X103900000Y-124700000D02*
X104400000Y-124700000D01*
D10*
X104400000Y-124700000D02*
X103900000Y-124200000D01*
D12*
X104600000Y-124800000D02*
X103800000Y-124000000D01*
X103800000Y-124000000D02*
X103800000Y-124800000D01*
X103800000Y-124800000D02*
X104600000Y-124800000D01*
X98400000Y-124400000D02*
X98400000Y-124600000D01*
X98400000Y-124600000D02*
X98600000Y-124600000D01*
X98600000Y-124600000D02*
X98400000Y-124400000D01*
X98300000Y-124200000D02*
X98300000Y-124700000D01*
X98300000Y-124700000D02*
X98800000Y-124700000D01*
D10*
X98800000Y-124700000D02*
X98300000Y-124200000D01*
D12*
X99000000Y-124800000D02*
X98200000Y-124000000D01*
X98200000Y-124000000D02*
X98200000Y-124800000D01*
X98200000Y-124800000D02*
X99000000Y-124800000D01*
X92800000Y-124400000D02*
X92800000Y-124600000D01*
X92800000Y-124600000D02*
X93000000Y-124600000D01*
X93000000Y-124600000D02*
X92800000Y-124400000D01*
X92700000Y-124200000D02*
X92700000Y-124700000D01*
X92700000Y-124700000D02*
X93200000Y-124700000D01*
D10*
X93200000Y-124700000D02*
X92700000Y-124200000D01*
D12*
X93400000Y-124800000D02*
X92600000Y-124000000D01*
X92600000Y-124000000D02*
X92600000Y-124800000D01*
X92600000Y-124800000D02*
X93400000Y-124800000D01*
X115200000Y-118800000D02*
X115200000Y-119000000D01*
X115200000Y-119000000D02*
X115400000Y-119000000D01*
X115400000Y-119000000D02*
X115200000Y-118800000D01*
X115100000Y-118600000D02*
X115100000Y-119100000D01*
X115100000Y-119100000D02*
X115600000Y-119100000D01*
D10*
X115600000Y-119100000D02*
X115100000Y-118600000D01*
D12*
X115800000Y-119200000D02*
X115000000Y-118400000D01*
X115000000Y-118400000D02*
X115000000Y-119200000D01*
X115000000Y-119200000D02*
X115800000Y-119200000D01*
X109600000Y-118800000D02*
X109600000Y-119000000D01*
X109600000Y-119000000D02*
X109800000Y-119000000D01*
X109800000Y-119000000D02*
X109600000Y-118800000D01*
X109500000Y-118600000D02*
X109500000Y-119100000D01*
X109500000Y-119100000D02*
X110000000Y-119100000D01*
D10*
X110000000Y-119100000D02*
X109500000Y-118600000D01*
D12*
X110200000Y-119200000D02*
X109400000Y-118400000D01*
X109400000Y-118400000D02*
X109400000Y-119200000D01*
X109400000Y-119200000D02*
X110200000Y-119200000D01*
X104000000Y-118800000D02*
X104000000Y-119000000D01*
X104000000Y-119000000D02*
X104200000Y-119000000D01*
X104200000Y-119000000D02*
X104000000Y-118800000D01*
X103900000Y-118600000D02*
X103900000Y-119100000D01*
X103900000Y-119100000D02*
X104400000Y-119100000D01*
D10*
X104400000Y-119100000D02*
X103900000Y-118600000D01*
D12*
X104600000Y-119200000D02*
X103800000Y-118400000D01*
X103800000Y-118400000D02*
X103800000Y-119200000D01*
X103800000Y-119200000D02*
X104600000Y-119200000D01*
X98400000Y-118800000D02*
X98400000Y-119000000D01*
X98400000Y-119000000D02*
X98600000Y-119000000D01*
X98600000Y-119000000D02*
X98400000Y-118800000D01*
X98300000Y-118600000D02*
X98300000Y-119100000D01*
X98300000Y-119100000D02*
X98800000Y-119100000D01*
D10*
X98800000Y-119100000D02*
X98300000Y-118600000D01*
D12*
X99000000Y-119200000D02*
X98200000Y-118400000D01*
X98200000Y-118400000D02*
X98200000Y-119200000D01*
X98200000Y-119200000D02*
X99000000Y-119200000D01*
X92800000Y-118800000D02*
X92800000Y-119000000D01*
X92800000Y-119000000D02*
X93000000Y-119000000D01*
X93000000Y-119000000D02*
X92800000Y-118800000D01*
X92700000Y-118600000D02*
X92700000Y-119100000D01*
X92700000Y-119100000D02*
X93200000Y-119100000D01*
D10*
X93200000Y-119100000D02*
X92700000Y-118600000D01*
D12*
X93400000Y-119200000D02*
X92600000Y-118400000D01*
X92600000Y-118400000D02*
X92600000Y-119200000D01*
X92600000Y-119200000D02*
X93400000Y-119200000D01*
X87200000Y-118800000D02*
X87200000Y-119000000D01*
X87200000Y-119000000D02*
X87400000Y-119000000D01*
X87400000Y-119000000D02*
X87200000Y-118800000D01*
X87100000Y-118600000D02*
X87100000Y-119100000D01*
X87100000Y-119100000D02*
X87600000Y-119100000D01*
D10*
X87600000Y-119100000D02*
X87100000Y-118600000D01*
D12*
X87800000Y-119200000D02*
X87000000Y-118400000D01*
X87000000Y-118400000D02*
X87000000Y-119200000D01*
X87000000Y-119200000D02*
X87800000Y-119200000D01*
X81600000Y-118800000D02*
X81600000Y-119000000D01*
X81600000Y-119000000D02*
X81800000Y-119000000D01*
X81800000Y-119000000D02*
X81600000Y-118800000D01*
X81500000Y-118600000D02*
X81500000Y-119100000D01*
X81500000Y-119100000D02*
X82000000Y-119100000D01*
D10*
X82000000Y-119100000D02*
X81500000Y-118600000D01*
D12*
X82200000Y-119200000D02*
X81400000Y-118400000D01*
X81400000Y-118400000D02*
X81400000Y-119200000D01*
X81400000Y-119200000D02*
X82200000Y-119200000D01*
X115200000Y-113200000D02*
X115200000Y-113400000D01*
X115200000Y-113400000D02*
X115400000Y-113400000D01*
X115400000Y-113400000D02*
X115200000Y-113200000D01*
X115100000Y-113000000D02*
X115100000Y-113500000D01*
X115100000Y-113500000D02*
X115600000Y-113500000D01*
D10*
X115600000Y-113500000D02*
X115100000Y-113000000D01*
D12*
X115800000Y-113600000D02*
X115000000Y-112800000D01*
X115000000Y-112800000D02*
X115000000Y-113600000D01*
X115000000Y-113600000D02*
X115800000Y-113600000D01*
X109600000Y-113200000D02*
X109600000Y-113400000D01*
X109600000Y-113400000D02*
X109800000Y-113400000D01*
X109800000Y-113400000D02*
X109600000Y-113200000D01*
X109500000Y-113000000D02*
X109500000Y-113500000D01*
X109500000Y-113500000D02*
X110000000Y-113500000D01*
D10*
X110000000Y-113500000D02*
X109500000Y-113000000D01*
D12*
X110200000Y-113600000D02*
X109400000Y-112800000D01*
X109400000Y-112800000D02*
X109400000Y-113600000D01*
X109400000Y-113600000D02*
X110200000Y-113600000D01*
X104000000Y-113200000D02*
X104000000Y-113400000D01*
X104000000Y-113400000D02*
X104200000Y-113400000D01*
X104200000Y-113400000D02*
X104000000Y-113200000D01*
X103900000Y-113000000D02*
X103900000Y-113500000D01*
X103900000Y-113500000D02*
X104400000Y-113500000D01*
D10*
X104400000Y-113500000D02*
X103900000Y-113000000D01*
D12*
X104600000Y-113600000D02*
X103800000Y-112800000D01*
X103800000Y-112800000D02*
X103800000Y-113600000D01*
X103800000Y-113600000D02*
X104600000Y-113600000D01*
X98400000Y-113200000D02*
X98400000Y-113400000D01*
X98400000Y-113400000D02*
X98600000Y-113400000D01*
X98600000Y-113400000D02*
X98400000Y-113200000D01*
X98300000Y-113000000D02*
X98300000Y-113500000D01*
X98300000Y-113500000D02*
X98800000Y-113500000D01*
D10*
X98800000Y-113500000D02*
X98300000Y-113000000D01*
D12*
X99000000Y-113600000D02*
X98200000Y-112800000D01*
X98200000Y-112800000D02*
X98200000Y-113600000D01*
X98200000Y-113600000D02*
X99000000Y-113600000D01*
X92800000Y-113200000D02*
X92800000Y-113400000D01*
X92800000Y-113400000D02*
X93000000Y-113400000D01*
X93000000Y-113400000D02*
X92800000Y-113200000D01*
X92700000Y-113000000D02*
X92700000Y-113500000D01*
X92700000Y-113500000D02*
X93200000Y-113500000D01*
D10*
X93200000Y-113500000D02*
X92700000Y-113000000D01*
D12*
X93400000Y-113600000D02*
X92600000Y-112800000D01*
X92600000Y-112800000D02*
X92600000Y-113600000D01*
X92600000Y-113600000D02*
X93400000Y-113600000D01*
X87200000Y-113200000D02*
X87200000Y-113400000D01*
X87200000Y-113400000D02*
X87400000Y-113400000D01*
X87400000Y-113400000D02*
X87200000Y-113200000D01*
X87100000Y-113000000D02*
X87100000Y-113500000D01*
X87100000Y-113500000D02*
X87600000Y-113500000D01*
D10*
X87600000Y-113500000D02*
X87100000Y-113000000D01*
D12*
X87800000Y-113600000D02*
X87000000Y-112800000D01*
X87000000Y-112800000D02*
X87000000Y-113600000D01*
X87000000Y-113600000D02*
X87800000Y-113600000D01*
X81600000Y-113200000D02*
X81600000Y-113400000D01*
X81600000Y-113400000D02*
X81800000Y-113400000D01*
X81800000Y-113400000D02*
X81600000Y-113200000D01*
X81500000Y-113000000D02*
X81500000Y-113500000D01*
X81500000Y-113500000D02*
X82000000Y-113500000D01*
D10*
X82000000Y-113500000D02*
X81500000Y-113000000D01*
D12*
X82200000Y-113600000D02*
X81400000Y-112800000D01*
X81400000Y-112800000D02*
X81400000Y-113600000D01*
X81400000Y-113600000D02*
X82200000Y-113600000D01*
X120800000Y-107600000D02*
X120800000Y-107800000D01*
X120800000Y-107800000D02*
X121000000Y-107800000D01*
X121000000Y-107800000D02*
X120800000Y-107600000D01*
X120700000Y-107400000D02*
X120700000Y-107900000D01*
X120700000Y-107900000D02*
X121200000Y-107900000D01*
D10*
X121200000Y-107900000D02*
X120700000Y-107400000D01*
D12*
X121400000Y-108000000D02*
X120600000Y-107200000D01*
X120600000Y-107200000D02*
X120600000Y-108000000D01*
X120600000Y-108000000D02*
X121400000Y-108000000D01*
X115200000Y-107600000D02*
X115200000Y-107800000D01*
X115200000Y-107800000D02*
X115400000Y-107800000D01*
X115400000Y-107800000D02*
X115200000Y-107600000D01*
X115100000Y-107400000D02*
X115100000Y-107900000D01*
X115100000Y-107900000D02*
X115600000Y-107900000D01*
D10*
X115600000Y-107900000D02*
X115100000Y-107400000D01*
D12*
X115800000Y-108000000D02*
X115000000Y-107200000D01*
X115000000Y-107200000D02*
X115000000Y-108000000D01*
X115000000Y-108000000D02*
X115800000Y-108000000D01*
X109600000Y-107600000D02*
X109600000Y-107800000D01*
X109600000Y-107800000D02*
X109800000Y-107800000D01*
X109800000Y-107800000D02*
X109600000Y-107600000D01*
X109500000Y-107400000D02*
X109500000Y-107900000D01*
X109500000Y-107900000D02*
X110000000Y-107900000D01*
D10*
X110000000Y-107900000D02*
X109500000Y-107400000D01*
D12*
X110200000Y-108000000D02*
X109400000Y-107200000D01*
X109400000Y-107200000D02*
X109400000Y-108000000D01*
X109400000Y-108000000D02*
X110200000Y-108000000D01*
X104000000Y-107600000D02*
X104000000Y-107800000D01*
X104000000Y-107800000D02*
X104200000Y-107800000D01*
X104200000Y-107800000D02*
X104000000Y-107600000D01*
X103900000Y-107400000D02*
X103900000Y-107900000D01*
X103900000Y-107900000D02*
X104400000Y-107900000D01*
D10*
X104400000Y-107900000D02*
X103900000Y-107400000D01*
D12*
X104600000Y-108000000D02*
X103800000Y-107200000D01*
X103800000Y-107200000D02*
X103800000Y-108000000D01*
X103800000Y-108000000D02*
X104600000Y-108000000D01*
X98400000Y-107600000D02*
X98400000Y-107800000D01*
X98400000Y-107800000D02*
X98600000Y-107800000D01*
X98600000Y-107800000D02*
X98400000Y-107600000D01*
X98300000Y-107400000D02*
X98300000Y-107900000D01*
X98300000Y-107900000D02*
X98800000Y-107900000D01*
D10*
X98800000Y-107900000D02*
X98300000Y-107400000D01*
D12*
X99000000Y-108000000D02*
X98200000Y-107200000D01*
X98200000Y-107200000D02*
X98200000Y-108000000D01*
X98200000Y-108000000D02*
X99000000Y-108000000D01*
X92800000Y-107600000D02*
X92800000Y-107800000D01*
X92800000Y-107800000D02*
X93000000Y-107800000D01*
X93000000Y-107800000D02*
X92800000Y-107600000D01*
X92700000Y-107400000D02*
X92700000Y-107900000D01*
X92700000Y-107900000D02*
X93200000Y-107900000D01*
D10*
X93200000Y-107900000D02*
X92700000Y-107400000D01*
D12*
X93400000Y-108000000D02*
X92600000Y-107200000D01*
X92600000Y-107200000D02*
X92600000Y-108000000D01*
X92600000Y-108000000D02*
X93400000Y-108000000D01*
X87200000Y-107600000D02*
X87200000Y-107800000D01*
X87200000Y-107800000D02*
X87400000Y-107800000D01*
X87400000Y-107800000D02*
X87200000Y-107600000D01*
X87100000Y-107400000D02*
X87100000Y-107900000D01*
X87100000Y-107900000D02*
X87600000Y-107900000D01*
D10*
X87600000Y-107900000D02*
X87100000Y-107400000D01*
D12*
X87800000Y-108000000D02*
X87000000Y-107200000D01*
X87000000Y-107200000D02*
X87000000Y-108000000D01*
X87000000Y-108000000D02*
X87800000Y-108000000D01*
X81600000Y-107600000D02*
X81600000Y-107800000D01*
X81600000Y-107800000D02*
X81800000Y-107800000D01*
X81800000Y-107800000D02*
X81600000Y-107600000D01*
X81500000Y-107400000D02*
X81500000Y-107900000D01*
X81500000Y-107900000D02*
X82000000Y-107900000D01*
D10*
X82000000Y-107900000D02*
X81500000Y-107400000D01*
D12*
X82200000Y-108000000D02*
X81400000Y-107200000D01*
X81400000Y-107200000D02*
X81400000Y-108000000D01*
X81400000Y-108000000D02*
X82200000Y-108000000D01*
X76000000Y-107600000D02*
X76000000Y-107800000D01*
X76000000Y-107800000D02*
X76200000Y-107800000D01*
X76200000Y-107800000D02*
X76000000Y-107600000D01*
X75900000Y-107400000D02*
X75900000Y-107900000D01*
X75900000Y-107900000D02*
X76400000Y-107900000D01*
D10*
X76400000Y-107900000D02*
X75900000Y-107400000D01*
D12*
X76600000Y-108000000D02*
X75800000Y-107200000D01*
X75800000Y-107200000D02*
X75800000Y-108000000D01*
X75800000Y-108000000D02*
X76600000Y-108000000D01*
X120800000Y-102000000D02*
X120800000Y-102200000D01*
X120800000Y-102200000D02*
X121000000Y-102200000D01*
X121000000Y-102200000D02*
X120800000Y-102000000D01*
X120700000Y-101800000D02*
X120700000Y-102300000D01*
X120700000Y-102300000D02*
X121200000Y-102300000D01*
D10*
X121200000Y-102300000D02*
X120700000Y-101800000D01*
D12*
X121400000Y-102400000D02*
X120600000Y-101600000D01*
X120600000Y-101600000D02*
X120600000Y-102400000D01*
X120600000Y-102400000D02*
X121400000Y-102400000D01*
X115200000Y-102000000D02*
X115200000Y-102200000D01*
X115200000Y-102200000D02*
X115400000Y-102200000D01*
X115400000Y-102200000D02*
X115200000Y-102000000D01*
X115100000Y-101800000D02*
X115100000Y-102300000D01*
X115100000Y-102300000D02*
X115600000Y-102300000D01*
D10*
X115600000Y-102300000D02*
X115100000Y-101800000D01*
D12*
X115800000Y-102400000D02*
X115000000Y-101600000D01*
X115000000Y-101600000D02*
X115000000Y-102400000D01*
X115000000Y-102400000D02*
X115800000Y-102400000D01*
X109600000Y-102000000D02*
X109600000Y-102200000D01*
X109600000Y-102200000D02*
X109800000Y-102200000D01*
X109800000Y-102200000D02*
X109600000Y-102000000D01*
X109500000Y-101800000D02*
X109500000Y-102300000D01*
X109500000Y-102300000D02*
X110000000Y-102300000D01*
D10*
X110000000Y-102300000D02*
X109500000Y-101800000D01*
D12*
X110200000Y-102400000D02*
X109400000Y-101600000D01*
X109400000Y-101600000D02*
X109400000Y-102400000D01*
X109400000Y-102400000D02*
X110200000Y-102400000D01*
X104000000Y-102000000D02*
X104000000Y-102200000D01*
X104000000Y-102200000D02*
X104200000Y-102200000D01*
X104200000Y-102200000D02*
X104000000Y-102000000D01*
X103900000Y-101800000D02*
X103900000Y-102300000D01*
X103900000Y-102300000D02*
X104400000Y-102300000D01*
D10*
X104400000Y-102300000D02*
X103900000Y-101800000D01*
D12*
X104600000Y-102400000D02*
X103800000Y-101600000D01*
X103800000Y-101600000D02*
X103800000Y-102400000D01*
X103800000Y-102400000D02*
X104600000Y-102400000D01*
X98400000Y-102000000D02*
X98400000Y-102200000D01*
X98400000Y-102200000D02*
X98600000Y-102200000D01*
X98600000Y-102200000D02*
X98400000Y-102000000D01*
X98300000Y-101800000D02*
X98300000Y-102300000D01*
X98300000Y-102300000D02*
X98800000Y-102300000D01*
D10*
X98800000Y-102300000D02*
X98300000Y-101800000D01*
D12*
X99000000Y-102400000D02*
X98200000Y-101600000D01*
X98200000Y-101600000D02*
X98200000Y-102400000D01*
X98200000Y-102400000D02*
X99000000Y-102400000D01*
X92800000Y-102000000D02*
X92800000Y-102200000D01*
X92800000Y-102200000D02*
X93000000Y-102200000D01*
X93000000Y-102200000D02*
X92800000Y-102000000D01*
X92700000Y-101800000D02*
X92700000Y-102300000D01*
X92700000Y-102300000D02*
X93200000Y-102300000D01*
D10*
X93200000Y-102300000D02*
X92700000Y-101800000D01*
D12*
X93400000Y-102400000D02*
X92600000Y-101600000D01*
X92600000Y-101600000D02*
X92600000Y-102400000D01*
X92600000Y-102400000D02*
X93400000Y-102400000D01*
X87200000Y-102000000D02*
X87200000Y-102200000D01*
X87200000Y-102200000D02*
X87400000Y-102200000D01*
X87400000Y-102200000D02*
X87200000Y-102000000D01*
X87100000Y-101800000D02*
X87100000Y-102300000D01*
X87100000Y-102300000D02*
X87600000Y-102300000D01*
D10*
X87600000Y-102300000D02*
X87100000Y-101800000D01*
D12*
X87800000Y-102400000D02*
X87000000Y-101600000D01*
X87000000Y-101600000D02*
X87000000Y-102400000D01*
X87000000Y-102400000D02*
X87800000Y-102400000D01*
X81600000Y-102000000D02*
X81600000Y-102200000D01*
X81600000Y-102200000D02*
X81800000Y-102200000D01*
X81800000Y-102200000D02*
X81600000Y-102000000D01*
X81500000Y-101800000D02*
X81500000Y-102300000D01*
X81500000Y-102300000D02*
X82000000Y-102300000D01*
D10*
X82000000Y-102300000D02*
X81500000Y-101800000D01*
D12*
X82200000Y-102400000D02*
X81400000Y-101600000D01*
X81400000Y-101600000D02*
X81400000Y-102400000D01*
X81400000Y-102400000D02*
X82200000Y-102400000D01*
X76000000Y-102000000D02*
X76000000Y-102200000D01*
X76000000Y-102200000D02*
X76200000Y-102200000D01*
X76200000Y-102200000D02*
X76000000Y-102000000D01*
X75900000Y-101800000D02*
X75900000Y-102300000D01*
X75900000Y-102300000D02*
X76400000Y-102300000D01*
D10*
X76400000Y-102300000D02*
X75900000Y-101800000D01*
D12*
X76600000Y-102400000D02*
X75800000Y-101600000D01*
X75800000Y-101600000D02*
X75800000Y-102400000D01*
X75800000Y-102400000D02*
X76600000Y-102400000D01*
X120800000Y-96400000D02*
X120800000Y-96600000D01*
X120800000Y-96600000D02*
X121000000Y-96600000D01*
X121000000Y-96600000D02*
X120800000Y-96400000D01*
X120700000Y-96200000D02*
X120700000Y-96700000D01*
X120700000Y-96700000D02*
X121200000Y-96700000D01*
D10*
X121200000Y-96700000D02*
X120700000Y-96200000D01*
D12*
X121400000Y-96800000D02*
X120600000Y-96000000D01*
X120600000Y-96000000D02*
X120600000Y-96800000D01*
X120600000Y-96800000D02*
X121400000Y-96800000D01*
X115200000Y-96400000D02*
X115200000Y-96600000D01*
X115200000Y-96600000D02*
X115400000Y-96600000D01*
X115400000Y-96600000D02*
X115200000Y-96400000D01*
X115100000Y-96200000D02*
X115100000Y-96700000D01*
X115100000Y-96700000D02*
X115600000Y-96700000D01*
D10*
X115600000Y-96700000D02*
X115100000Y-96200000D01*
D12*
X115800000Y-96800000D02*
X115000000Y-96000000D01*
X115000000Y-96000000D02*
X115000000Y-96800000D01*
X115000000Y-96800000D02*
X115800000Y-96800000D01*
X109600000Y-96400000D02*
X109600000Y-96600000D01*
X109600000Y-96600000D02*
X109800000Y-96600000D01*
X109800000Y-96600000D02*
X109600000Y-96400000D01*
X109500000Y-96200000D02*
X109500000Y-96700000D01*
X109500000Y-96700000D02*
X110000000Y-96700000D01*
D10*
X110000000Y-96700000D02*
X109500000Y-96200000D01*
D12*
X110200000Y-96800000D02*
X109400000Y-96000000D01*
X109400000Y-96000000D02*
X109400000Y-96800000D01*
X109400000Y-96800000D02*
X110200000Y-96800000D01*
X104000000Y-96400000D02*
X104000000Y-96600000D01*
X104000000Y-96600000D02*
X104200000Y-96600000D01*
X104200000Y-96600000D02*
X104000000Y-96400000D01*
X103900000Y-96200000D02*
X103900000Y-96700000D01*
X103900000Y-96700000D02*
X104400000Y-96700000D01*
D10*
X104400000Y-96700000D02*
X103900000Y-96200000D01*
D12*
X104600000Y-96800000D02*
X103800000Y-96000000D01*
X103800000Y-96000000D02*
X103800000Y-96800000D01*
X103800000Y-96800000D02*
X104600000Y-96800000D01*
X98400000Y-96400000D02*
X98400000Y-96600000D01*
X98400000Y-96600000D02*
X98600000Y-96600000D01*
X98600000Y-96600000D02*
X98400000Y-96400000D01*
X98300000Y-96200000D02*
X98300000Y-96700000D01*
X98300000Y-96700000D02*
X98800000Y-96700000D01*
D10*
X98800000Y-96700000D02*
X98300000Y-96200000D01*
D12*
X99000000Y-96800000D02*
X98200000Y-96000000D01*
X98200000Y-96000000D02*
X98200000Y-96800000D01*
X98200000Y-96800000D02*
X99000000Y-96800000D01*
X92800000Y-96400000D02*
X92800000Y-96600000D01*
X92800000Y-96600000D02*
X93000000Y-96600000D01*
X93000000Y-96600000D02*
X92800000Y-96400000D01*
X92700000Y-96200000D02*
X92700000Y-96700000D01*
X92700000Y-96700000D02*
X93200000Y-96700000D01*
D10*
X93200000Y-96700000D02*
X92700000Y-96200000D01*
D12*
X93400000Y-96800000D02*
X92600000Y-96000000D01*
X92600000Y-96000000D02*
X92600000Y-96800000D01*
X92600000Y-96800000D02*
X93400000Y-96800000D01*
X87200000Y-96400000D02*
X87200000Y-96600000D01*
X87200000Y-96600000D02*
X87400000Y-96600000D01*
X87400000Y-96600000D02*
X87200000Y-96400000D01*
X87100000Y-96200000D02*
X87100000Y-96700000D01*
X87100000Y-96700000D02*
X87600000Y-96700000D01*
D10*
X87600000Y-96700000D02*
X87100000Y-96200000D01*
D12*
X87800000Y-96800000D02*
X87000000Y-96000000D01*
X87000000Y-96000000D02*
X87000000Y-96800000D01*
X87000000Y-96800000D02*
X87800000Y-96800000D01*
X81600000Y-96400000D02*
X81600000Y-96600000D01*
X81600000Y-96600000D02*
X81800000Y-96600000D01*
X81800000Y-96600000D02*
X81600000Y-96400000D01*
X81500000Y-96200000D02*
X81500000Y-96700000D01*
X81500000Y-96700000D02*
X82000000Y-96700000D01*
D10*
X82000000Y-96700000D02*
X81500000Y-96200000D01*
D12*
X82200000Y-96800000D02*
X81400000Y-96000000D01*
X81400000Y-96000000D02*
X81400000Y-96800000D01*
X81400000Y-96800000D02*
X82200000Y-96800000D01*
X76000000Y-96400000D02*
X76000000Y-96600000D01*
X76000000Y-96600000D02*
X76200000Y-96600000D01*
X76200000Y-96600000D02*
X76000000Y-96400000D01*
X75900000Y-96200000D02*
X75900000Y-96700000D01*
X75900000Y-96700000D02*
X76400000Y-96700000D01*
D10*
X76400000Y-96700000D02*
X75900000Y-96200000D01*
D12*
X76600000Y-96800000D02*
X75800000Y-96000000D01*
X75800000Y-96000000D02*
X75800000Y-96800000D01*
X75800000Y-96800000D02*
X76600000Y-96800000D01*
X115200000Y-90800000D02*
X115200000Y-91000000D01*
X115200000Y-91000000D02*
X115400000Y-91000000D01*
X115400000Y-91000000D02*
X115200000Y-90800000D01*
X115100000Y-90600000D02*
X115100000Y-91100000D01*
X115100000Y-91100000D02*
X115600000Y-91100000D01*
D10*
X115600000Y-91100000D02*
X115100000Y-90600000D01*
D12*
X115800000Y-91200000D02*
X115000000Y-90400000D01*
X115000000Y-90400000D02*
X115000000Y-91200000D01*
X115000000Y-91200000D02*
X115800000Y-91200000D01*
X109600000Y-90800000D02*
X109600000Y-91000000D01*
X109600000Y-91000000D02*
X109800000Y-91000000D01*
X109800000Y-91000000D02*
X109600000Y-90800000D01*
X109500000Y-90600000D02*
X109500000Y-91100000D01*
X109500000Y-91100000D02*
X110000000Y-91100000D01*
D10*
X110000000Y-91100000D02*
X109500000Y-90600000D01*
D12*
X110200000Y-91200000D02*
X109400000Y-90400000D01*
X109400000Y-90400000D02*
X109400000Y-91200000D01*
X109400000Y-91200000D02*
X110200000Y-91200000D01*
X104000000Y-90800000D02*
X104000000Y-91000000D01*
X104000000Y-91000000D02*
X104200000Y-91000000D01*
X104200000Y-91000000D02*
X104000000Y-90800000D01*
X103900000Y-90600000D02*
X103900000Y-91100000D01*
X103900000Y-91100000D02*
X104400000Y-91100000D01*
D10*
X104400000Y-91100000D02*
X103900000Y-90600000D01*
D12*
X104600000Y-91200000D02*
X103800000Y-90400000D01*
X103800000Y-90400000D02*
X103800000Y-91200000D01*
X103800000Y-91200000D02*
X104600000Y-91200000D01*
X98400000Y-90800000D02*
X98400000Y-91000000D01*
X98400000Y-91000000D02*
X98600000Y-91000000D01*
X98600000Y-91000000D02*
X98400000Y-90800000D01*
X98300000Y-90600000D02*
X98300000Y-91100000D01*
X98300000Y-91100000D02*
X98800000Y-91100000D01*
D10*
X98800000Y-91100000D02*
X98300000Y-90600000D01*
D12*
X99000000Y-91200000D02*
X98200000Y-90400000D01*
X98200000Y-90400000D02*
X98200000Y-91200000D01*
X98200000Y-91200000D02*
X99000000Y-91200000D01*
X92800000Y-90800000D02*
X92800000Y-91000000D01*
X92800000Y-91000000D02*
X93000000Y-91000000D01*
X93000000Y-91000000D02*
X92800000Y-90800000D01*
X92700000Y-90600000D02*
X92700000Y-91100000D01*
X92700000Y-91100000D02*
X93200000Y-91100000D01*
D10*
X93200000Y-91100000D02*
X92700000Y-90600000D01*
D12*
X93400000Y-91200000D02*
X92600000Y-90400000D01*
X92600000Y-90400000D02*
X92600000Y-91200000D01*
X92600000Y-91200000D02*
X93400000Y-91200000D01*
X87200000Y-90800000D02*
X87200000Y-91000000D01*
X87200000Y-91000000D02*
X87400000Y-91000000D01*
X87400000Y-91000000D02*
X87200000Y-90800000D01*
X87100000Y-90600000D02*
X87100000Y-91100000D01*
X87100000Y-91100000D02*
X87600000Y-91100000D01*
D10*
X87600000Y-91100000D02*
X87100000Y-90600000D01*
D12*
X87800000Y-91200000D02*
X87000000Y-90400000D01*
X87000000Y-90400000D02*
X87000000Y-91200000D01*
X87000000Y-91200000D02*
X87800000Y-91200000D01*
X81600000Y-90800000D02*
X81600000Y-91000000D01*
X81600000Y-91000000D02*
X81800000Y-91000000D01*
X81800000Y-91000000D02*
X81600000Y-90800000D01*
X81500000Y-90600000D02*
X81500000Y-91100000D01*
X81500000Y-91100000D02*
X82000000Y-91100000D01*
D10*
X82000000Y-91100000D02*
X81500000Y-90600000D01*
D12*
X82200000Y-91200000D02*
X81400000Y-90400000D01*
X81400000Y-90400000D02*
X81400000Y-91200000D01*
X81400000Y-91200000D02*
X82200000Y-91200000D01*
X115200000Y-85200000D02*
X115200000Y-85400000D01*
X115200000Y-85400000D02*
X115400000Y-85400000D01*
X115400000Y-85400000D02*
X115200000Y-85200000D01*
X115100000Y-85000000D02*
X115100000Y-85500000D01*
X115100000Y-85500000D02*
X115600000Y-85500000D01*
D10*
X115600000Y-85500000D02*
X115100000Y-85000000D01*
D12*
X115800000Y-85600000D02*
X115000000Y-84800000D01*
X115000000Y-84800000D02*
X115000000Y-85600000D01*
X115000000Y-85600000D02*
X115800000Y-85600000D01*
X109600000Y-85200000D02*
X109600000Y-85400000D01*
X109600000Y-85400000D02*
X109800000Y-85400000D01*
X109800000Y-85400000D02*
X109600000Y-85200000D01*
X109500000Y-85000000D02*
X109500000Y-85500000D01*
X109500000Y-85500000D02*
X110000000Y-85500000D01*
D10*
X110000000Y-85500000D02*
X109500000Y-85000000D01*
D12*
X110200000Y-85600000D02*
X109400000Y-84800000D01*
X109400000Y-84800000D02*
X109400000Y-85600000D01*
X109400000Y-85600000D02*
X110200000Y-85600000D01*
X104000000Y-85200000D02*
X104000000Y-85400000D01*
X104000000Y-85400000D02*
X104200000Y-85400000D01*
X104200000Y-85400000D02*
X104000000Y-85200000D01*
X103900000Y-85000000D02*
X103900000Y-85500000D01*
X103900000Y-85500000D02*
X104400000Y-85500000D01*
D10*
X104400000Y-85500000D02*
X103900000Y-85000000D01*
D12*
X104600000Y-85600000D02*
X103800000Y-84800000D01*
X103800000Y-84800000D02*
X103800000Y-85600000D01*
X103800000Y-85600000D02*
X104600000Y-85600000D01*
X98400000Y-85200000D02*
X98400000Y-85400000D01*
X98400000Y-85400000D02*
X98600000Y-85400000D01*
X98600000Y-85400000D02*
X98400000Y-85200000D01*
X98300000Y-85000000D02*
X98300000Y-85500000D01*
X98300000Y-85500000D02*
X98800000Y-85500000D01*
D10*
X98800000Y-85500000D02*
X98300000Y-85000000D01*
D12*
X99000000Y-85600000D02*
X98200000Y-84800000D01*
X98200000Y-84800000D02*
X98200000Y-85600000D01*
X98200000Y-85600000D02*
X99000000Y-85600000D01*
X92800000Y-85200000D02*
X92800000Y-85400000D01*
X92800000Y-85400000D02*
X93000000Y-85400000D01*
X93000000Y-85400000D02*
X92800000Y-85200000D01*
X92700000Y-85000000D02*
X92700000Y-85500000D01*
X92700000Y-85500000D02*
X93200000Y-85500000D01*
D10*
X93200000Y-85500000D02*
X92700000Y-85000000D01*
D12*
X93400000Y-85600000D02*
X92600000Y-84800000D01*
X92600000Y-84800000D02*
X92600000Y-85600000D01*
X92600000Y-85600000D02*
X93400000Y-85600000D01*
X87200000Y-85200000D02*
X87200000Y-85400000D01*
X87200000Y-85400000D02*
X87400000Y-85400000D01*
X87400000Y-85400000D02*
X87200000Y-85200000D01*
X87100000Y-85000000D02*
X87100000Y-85500000D01*
X87100000Y-85500000D02*
X87600000Y-85500000D01*
D10*
X87600000Y-85500000D02*
X87100000Y-85000000D01*
D12*
X87800000Y-85600000D02*
X87000000Y-84800000D01*
X87000000Y-84800000D02*
X87000000Y-85600000D01*
X87000000Y-85600000D02*
X87800000Y-85600000D01*
X81600000Y-85200000D02*
X81600000Y-85400000D01*
X81600000Y-85400000D02*
X81800000Y-85400000D01*
X81800000Y-85400000D02*
X81600000Y-85200000D01*
X81500000Y-85000000D02*
X81500000Y-85500000D01*
X81500000Y-85500000D02*
X82000000Y-85500000D01*
D10*
X82000000Y-85500000D02*
X81500000Y-85000000D01*
D12*
X82200000Y-85600000D02*
X81400000Y-84800000D01*
X81400000Y-84800000D02*
X81400000Y-85600000D01*
X81400000Y-85600000D02*
X82200000Y-85600000D01*
X104000000Y-79600000D02*
X104000000Y-79800000D01*
X104000000Y-79800000D02*
X104200000Y-79800000D01*
X104200000Y-79800000D02*
X104000000Y-79600000D01*
X103900000Y-79400000D02*
X103900000Y-79900000D01*
X103900000Y-79900000D02*
X104400000Y-79900000D01*
D10*
X104400000Y-79900000D02*
X103900000Y-79400000D01*
D12*
X104600000Y-80000000D02*
X103800000Y-79200000D01*
X103800000Y-79200000D02*
X103800000Y-80000000D01*
X103800000Y-80000000D02*
X104600000Y-80000000D01*
X98400000Y-79600000D02*
X98400000Y-79800000D01*
X98400000Y-79800000D02*
X98600000Y-79800000D01*
X98600000Y-79800000D02*
X98400000Y-79600000D01*
X98300000Y-79400000D02*
X98300000Y-79900000D01*
X98300000Y-79900000D02*
X98800000Y-79900000D01*
D10*
X98800000Y-79900000D02*
X98300000Y-79400000D01*
D12*
X99000000Y-80000000D02*
X98200000Y-79200000D01*
X98200000Y-79200000D02*
X98200000Y-80000000D01*
X98200000Y-80000000D02*
X99000000Y-80000000D01*
X92800000Y-79600000D02*
X92800000Y-79800000D01*
X92800000Y-79800000D02*
X93000000Y-79800000D01*
X93000000Y-79800000D02*
X92800000Y-79600000D01*
X92700000Y-79400000D02*
X92700000Y-79900000D01*
X92700000Y-79900000D02*
X93200000Y-79900000D01*
D10*
X93200000Y-79900000D02*
X92700000Y-79400000D01*
D12*
X93400000Y-80000000D02*
X92600000Y-79200000D01*
X92600000Y-79200000D02*
X92600000Y-80000000D01*
X92600000Y-80000000D02*
X93400000Y-80000000D01*
D10*
X98666666Y-64452380D02*
X98333333Y-63976190D01*
X98095238Y-64452380D02*
X98095238Y-63452380D01*
X98476190Y-63452380D01*
X98571428Y-63500000D01*
X98619047Y-63547619D01*
X98666666Y-63642857D01*
X98666666Y-63785714D01*
X98619047Y-63880952D01*
X98571428Y-63928571D01*
X98476190Y-63976190D01*
X98095238Y-63976190D01*
X99095238Y-63928571D02*
X99428571Y-63928571D01*
X99571428Y-64452380D02*
X99095238Y-64452380D01*
X99095238Y-63452380D01*
X99571428Y-63452380D01*
X100333333Y-63928571D02*
X100000000Y-63928571D01*
X100000000Y-64452380D02*
X100000000Y-63452380D01*
X100476190Y-63452380D01*
X101000000Y-63452380D02*
X101000000Y-63690476D01*
X100761904Y-63595238D02*
X101000000Y-63690476D01*
X101238095Y-63595238D01*
X100857142Y-63880952D02*
X101000000Y-63690476D01*
X101142857Y-63880952D01*
X101761904Y-63452380D02*
X101761904Y-63690476D01*
X101523809Y-63595238D02*
X101761904Y-63690476D01*
X102000000Y-63595238D01*
X101619047Y-63880952D02*
X101761904Y-63690476D01*
X101904761Y-63880952D01*
X107176666Y-129484761D02*
X107319523Y-129532380D01*
X107557619Y-129532380D01*
X107652857Y-129484761D01*
X107700476Y-129437142D01*
X107748095Y-129341904D01*
X107748095Y-129246666D01*
X107700476Y-129151428D01*
X107652857Y-129103809D01*
X107557619Y-129056190D01*
X107367142Y-129008571D01*
X107271904Y-128960952D01*
X107224285Y-128913333D01*
X107176666Y-128818095D01*
X107176666Y-128722857D01*
X107224285Y-128627619D01*
X107271904Y-128580000D01*
X107367142Y-128532380D01*
X107605238Y-128532380D01*
X107748095Y-128580000D01*
X108081428Y-128532380D02*
X108319523Y-129532380D01*
X108510000Y-128818095D01*
X108700476Y-129532380D01*
X108938571Y-128532380D01*
X109843333Y-129532380D02*
X109271904Y-129532380D01*
X109557619Y-129532380D02*
X109557619Y-128532380D01*
X109462380Y-128675238D01*
X109367142Y-128770476D01*
X109271904Y-128818095D01*
X124953333Y-116392380D02*
X124620000Y-115916190D01*
X124381904Y-116392380D02*
X124381904Y-115392380D01*
X124762857Y-115392380D01*
X124858095Y-115440000D01*
X124905714Y-115487619D01*
X124953333Y-115582857D01*
X124953333Y-115725714D01*
X124905714Y-115820952D01*
X124858095Y-115868571D01*
X124762857Y-115916190D01*
X124381904Y-115916190D01*
X125905714Y-116392380D02*
X125334285Y-116392380D01*
X125620000Y-116392380D02*
X125620000Y-115392380D01*
X125524761Y-115535238D01*
X125429523Y-115630476D01*
X125334285Y-115678095D01*
X120286666Y-130412380D02*
X119953333Y-129936190D01*
X119715238Y-130412380D02*
X119715238Y-129412380D01*
X120096190Y-129412380D01*
X120191428Y-129460000D01*
X120239047Y-129507619D01*
X120286666Y-129602857D01*
X120286666Y-129745714D01*
X120239047Y-129840952D01*
X120191428Y-129888571D01*
X120096190Y-129936190D01*
X119715238Y-129936190D01*
X120715238Y-129888571D02*
X121048571Y-129888571D01*
X121191428Y-130412380D02*
X120715238Y-130412380D01*
X120715238Y-129412380D01*
X121191428Y-129412380D01*
X121953333Y-129888571D02*
X121620000Y-129888571D01*
X121620000Y-130412380D02*
X121620000Y-129412380D01*
X122096190Y-129412380D01*
X122620000Y-129412380D02*
X122620000Y-129650476D01*
X122381904Y-129555238D02*
X122620000Y-129650476D01*
X122858095Y-129555238D01*
X122477142Y-129840952D02*
X122620000Y-129650476D01*
X122762857Y-129840952D01*
X123381904Y-129412380D02*
X123381904Y-129650476D01*
X123143809Y-129555238D02*
X123381904Y-129650476D01*
X123620000Y-129555238D01*
X123239047Y-129840952D02*
X123381904Y-129650476D01*
X123524761Y-129840952D01*
X78536666Y-130722380D02*
X78203333Y-130246190D01*
X77965238Y-130722380D02*
X77965238Y-129722380D01*
X78346190Y-129722380D01*
X78441428Y-129770000D01*
X78489047Y-129817619D01*
X78536666Y-129912857D01*
X78536666Y-130055714D01*
X78489047Y-130150952D01*
X78441428Y-130198571D01*
X78346190Y-130246190D01*
X77965238Y-130246190D01*
X78965238Y-130198571D02*
X79298571Y-130198571D01*
X79441428Y-130722380D02*
X78965238Y-130722380D01*
X78965238Y-129722380D01*
X79441428Y-129722380D01*
X80203333Y-130198571D02*
X79870000Y-130198571D01*
X79870000Y-130722380D02*
X79870000Y-129722380D01*
X80346190Y-129722380D01*
X80870000Y-129722380D02*
X80870000Y-129960476D01*
X80631904Y-129865238D02*
X80870000Y-129960476D01*
X81108095Y-129865238D01*
X80727142Y-130150952D02*
X80870000Y-129960476D01*
X81012857Y-130150952D01*
X81631904Y-129722380D02*
X81631904Y-129960476D01*
X81393809Y-129865238D02*
X81631904Y-129960476D01*
X81870000Y-129865238D01*
X81489047Y-130150952D02*
X81631904Y-129960476D01*
X81774761Y-130150952D01*
M02*
