G04 #@! TF.FileFunction,Legend,Top*
%FSLAX46Y46*%
G04 Gerber Fmt 4.6, Leading zero omitted, Abs format (unit mm)*
G04 Created by KiCad (PCBNEW 4.0.7-e2-6376~58~ubuntu16.04.1) date Sat Jul 28 15:13:10 2018*
%MOMM*%
%LPD*%
G01*
G04 APERTURE LIST*
%ADD10C,0.100000*%
%ADD11C,0.200000*%
%ADD12C,0.120000*%
%ADD13C,0.150000*%
G04 APERTURE END LIST*
D10*
D11*
X80400000Y-119600000D02*
X119600000Y-119600000D01*
X80400000Y-80400000D02*
X119600000Y-80400000D01*
X80400000Y-114000000D02*
X119600000Y-114000000D01*
X74800000Y-108400000D02*
X125200000Y-108400000D01*
X74800000Y-102800000D02*
X125200000Y-102800000D01*
X74800000Y-97200000D02*
X125200000Y-97200000D01*
X74800000Y-91600000D02*
X125200000Y-91600000D01*
X125200000Y-91600000D02*
X74800000Y-91600000D01*
X74800000Y-91600000D02*
X125200000Y-91600000D01*
X80400000Y-86000000D02*
X119600000Y-86000000D01*
D12*
X93500000Y-127350000D02*
X93500000Y-130850000D01*
X106500000Y-127350000D02*
X106500000Y-130850000D01*
X93500000Y-127350000D02*
X106500000Y-127350000D01*
X106500000Y-130850000D02*
X93500000Y-130850000D01*
X92800000Y-79600000D02*
X92800000Y-79800000D01*
X92800000Y-79800000D02*
X93000000Y-79800000D01*
X93000000Y-79800000D02*
X92800000Y-79600000D01*
X92700000Y-79400000D02*
X92700000Y-79900000D01*
X92700000Y-79900000D02*
X93200000Y-79900000D01*
D13*
X93200000Y-79900000D02*
X92700000Y-79400000D01*
D12*
X93400000Y-80000000D02*
X92600000Y-79200000D01*
X92600000Y-79200000D02*
X92600000Y-80000000D01*
X92600000Y-80000000D02*
X93400000Y-80000000D01*
X98400000Y-79600000D02*
X98400000Y-79800000D01*
X98400000Y-79800000D02*
X98600000Y-79800000D01*
X98600000Y-79800000D02*
X98400000Y-79600000D01*
X98300000Y-79400000D02*
X98300000Y-79900000D01*
X98300000Y-79900000D02*
X98800000Y-79900000D01*
D13*
X98800000Y-79900000D02*
X98300000Y-79400000D01*
D12*
X99000000Y-80000000D02*
X98200000Y-79200000D01*
X98200000Y-79200000D02*
X98200000Y-80000000D01*
X98200000Y-80000000D02*
X99000000Y-80000000D01*
X104000000Y-79600000D02*
X104000000Y-79800000D01*
X104000000Y-79800000D02*
X104200000Y-79800000D01*
X104200000Y-79800000D02*
X104000000Y-79600000D01*
X103900000Y-79400000D02*
X103900000Y-79900000D01*
X103900000Y-79900000D02*
X104400000Y-79900000D01*
D13*
X104400000Y-79900000D02*
X103900000Y-79400000D01*
D12*
X104600000Y-80000000D02*
X103800000Y-79200000D01*
X103800000Y-79200000D02*
X103800000Y-80000000D01*
X103800000Y-80000000D02*
X104600000Y-80000000D01*
X81600000Y-85200000D02*
X81600000Y-85400000D01*
X81600000Y-85400000D02*
X81800000Y-85400000D01*
X81800000Y-85400000D02*
X81600000Y-85200000D01*
X81500000Y-85000000D02*
X81500000Y-85500000D01*
X81500000Y-85500000D02*
X82000000Y-85500000D01*
D13*
X82000000Y-85500000D02*
X81500000Y-85000000D01*
D12*
X82200000Y-85600000D02*
X81400000Y-84800000D01*
X81400000Y-84800000D02*
X81400000Y-85600000D01*
X81400000Y-85600000D02*
X82200000Y-85600000D01*
X87200000Y-85200000D02*
X87200000Y-85400000D01*
X87200000Y-85400000D02*
X87400000Y-85400000D01*
X87400000Y-85400000D02*
X87200000Y-85200000D01*
X87100000Y-85000000D02*
X87100000Y-85500000D01*
X87100000Y-85500000D02*
X87600000Y-85500000D01*
D13*
X87600000Y-85500000D02*
X87100000Y-85000000D01*
D12*
X87800000Y-85600000D02*
X87000000Y-84800000D01*
X87000000Y-84800000D02*
X87000000Y-85600000D01*
X87000000Y-85600000D02*
X87800000Y-85600000D01*
X92800000Y-85200000D02*
X92800000Y-85400000D01*
X92800000Y-85400000D02*
X93000000Y-85400000D01*
X93000000Y-85400000D02*
X92800000Y-85200000D01*
X92700000Y-85000000D02*
X92700000Y-85500000D01*
X92700000Y-85500000D02*
X93200000Y-85500000D01*
D13*
X93200000Y-85500000D02*
X92700000Y-85000000D01*
D12*
X93400000Y-85600000D02*
X92600000Y-84800000D01*
X92600000Y-84800000D02*
X92600000Y-85600000D01*
X92600000Y-85600000D02*
X93400000Y-85600000D01*
X98400000Y-85200000D02*
X98400000Y-85400000D01*
X98400000Y-85400000D02*
X98600000Y-85400000D01*
X98600000Y-85400000D02*
X98400000Y-85200000D01*
X98300000Y-85000000D02*
X98300000Y-85500000D01*
X98300000Y-85500000D02*
X98800000Y-85500000D01*
D13*
X98800000Y-85500000D02*
X98300000Y-85000000D01*
D12*
X99000000Y-85600000D02*
X98200000Y-84800000D01*
X98200000Y-84800000D02*
X98200000Y-85600000D01*
X98200000Y-85600000D02*
X99000000Y-85600000D01*
X104000000Y-85200000D02*
X104000000Y-85400000D01*
X104000000Y-85400000D02*
X104200000Y-85400000D01*
X104200000Y-85400000D02*
X104000000Y-85200000D01*
X103900000Y-85000000D02*
X103900000Y-85500000D01*
X103900000Y-85500000D02*
X104400000Y-85500000D01*
D13*
X104400000Y-85500000D02*
X103900000Y-85000000D01*
D12*
X104600000Y-85600000D02*
X103800000Y-84800000D01*
X103800000Y-84800000D02*
X103800000Y-85600000D01*
X103800000Y-85600000D02*
X104600000Y-85600000D01*
X109600000Y-85200000D02*
X109600000Y-85400000D01*
X109600000Y-85400000D02*
X109800000Y-85400000D01*
X109800000Y-85400000D02*
X109600000Y-85200000D01*
X109500000Y-85000000D02*
X109500000Y-85500000D01*
X109500000Y-85500000D02*
X110000000Y-85500000D01*
D13*
X110000000Y-85500000D02*
X109500000Y-85000000D01*
D12*
X110200000Y-85600000D02*
X109400000Y-84800000D01*
X109400000Y-84800000D02*
X109400000Y-85600000D01*
X109400000Y-85600000D02*
X110200000Y-85600000D01*
X115200000Y-85200000D02*
X115200000Y-85400000D01*
X115200000Y-85400000D02*
X115400000Y-85400000D01*
X115400000Y-85400000D02*
X115200000Y-85200000D01*
X115100000Y-85000000D02*
X115100000Y-85500000D01*
X115100000Y-85500000D02*
X115600000Y-85500000D01*
D13*
X115600000Y-85500000D02*
X115100000Y-85000000D01*
D12*
X115800000Y-85600000D02*
X115000000Y-84800000D01*
X115000000Y-84800000D02*
X115000000Y-85600000D01*
X115000000Y-85600000D02*
X115800000Y-85600000D01*
X81600000Y-90800000D02*
X81600000Y-91000000D01*
X81600000Y-91000000D02*
X81800000Y-91000000D01*
X81800000Y-91000000D02*
X81600000Y-90800000D01*
X81500000Y-90600000D02*
X81500000Y-91100000D01*
X81500000Y-91100000D02*
X82000000Y-91100000D01*
D13*
X82000000Y-91100000D02*
X81500000Y-90600000D01*
D12*
X82200000Y-91200000D02*
X81400000Y-90400000D01*
X81400000Y-90400000D02*
X81400000Y-91200000D01*
X81400000Y-91200000D02*
X82200000Y-91200000D01*
X87200000Y-90800000D02*
X87200000Y-91000000D01*
X87200000Y-91000000D02*
X87400000Y-91000000D01*
X87400000Y-91000000D02*
X87200000Y-90800000D01*
X87100000Y-90600000D02*
X87100000Y-91100000D01*
X87100000Y-91100000D02*
X87600000Y-91100000D01*
D13*
X87600000Y-91100000D02*
X87100000Y-90600000D01*
D12*
X87800000Y-91200000D02*
X87000000Y-90400000D01*
X87000000Y-90400000D02*
X87000000Y-91200000D01*
X87000000Y-91200000D02*
X87800000Y-91200000D01*
X92800000Y-90800000D02*
X92800000Y-91000000D01*
X92800000Y-91000000D02*
X93000000Y-91000000D01*
X93000000Y-91000000D02*
X92800000Y-90800000D01*
X92700000Y-90600000D02*
X92700000Y-91100000D01*
X92700000Y-91100000D02*
X93200000Y-91100000D01*
D13*
X93200000Y-91100000D02*
X92700000Y-90600000D01*
D12*
X93400000Y-91200000D02*
X92600000Y-90400000D01*
X92600000Y-90400000D02*
X92600000Y-91200000D01*
X92600000Y-91200000D02*
X93400000Y-91200000D01*
X98400000Y-90800000D02*
X98400000Y-91000000D01*
X98400000Y-91000000D02*
X98600000Y-91000000D01*
X98600000Y-91000000D02*
X98400000Y-90800000D01*
X98300000Y-90600000D02*
X98300000Y-91100000D01*
X98300000Y-91100000D02*
X98800000Y-91100000D01*
D13*
X98800000Y-91100000D02*
X98300000Y-90600000D01*
D12*
X99000000Y-91200000D02*
X98200000Y-90400000D01*
X98200000Y-90400000D02*
X98200000Y-91200000D01*
X98200000Y-91200000D02*
X99000000Y-91200000D01*
X104000000Y-90800000D02*
X104000000Y-91000000D01*
X104000000Y-91000000D02*
X104200000Y-91000000D01*
X104200000Y-91000000D02*
X104000000Y-90800000D01*
X103900000Y-90600000D02*
X103900000Y-91100000D01*
X103900000Y-91100000D02*
X104400000Y-91100000D01*
D13*
X104400000Y-91100000D02*
X103900000Y-90600000D01*
D12*
X104600000Y-91200000D02*
X103800000Y-90400000D01*
X103800000Y-90400000D02*
X103800000Y-91200000D01*
X103800000Y-91200000D02*
X104600000Y-91200000D01*
X109600000Y-90800000D02*
X109600000Y-91000000D01*
X109600000Y-91000000D02*
X109800000Y-91000000D01*
X109800000Y-91000000D02*
X109600000Y-90800000D01*
X109500000Y-90600000D02*
X109500000Y-91100000D01*
X109500000Y-91100000D02*
X110000000Y-91100000D01*
D13*
X110000000Y-91100000D02*
X109500000Y-90600000D01*
D12*
X110200000Y-91200000D02*
X109400000Y-90400000D01*
X109400000Y-90400000D02*
X109400000Y-91200000D01*
X109400000Y-91200000D02*
X110200000Y-91200000D01*
X115200000Y-90800000D02*
X115200000Y-91000000D01*
X115200000Y-91000000D02*
X115400000Y-91000000D01*
X115400000Y-91000000D02*
X115200000Y-90800000D01*
X115100000Y-90600000D02*
X115100000Y-91100000D01*
X115100000Y-91100000D02*
X115600000Y-91100000D01*
D13*
X115600000Y-91100000D02*
X115100000Y-90600000D01*
D12*
X115800000Y-91200000D02*
X115000000Y-90400000D01*
X115000000Y-90400000D02*
X115000000Y-91200000D01*
X115000000Y-91200000D02*
X115800000Y-91200000D01*
X76000000Y-96400000D02*
X76000000Y-96600000D01*
X76000000Y-96600000D02*
X76200000Y-96600000D01*
X76200000Y-96600000D02*
X76000000Y-96400000D01*
X75900000Y-96200000D02*
X75900000Y-96700000D01*
X75900000Y-96700000D02*
X76400000Y-96700000D01*
D13*
X76400000Y-96700000D02*
X75900000Y-96200000D01*
D12*
X76600000Y-96800000D02*
X75800000Y-96000000D01*
X75800000Y-96000000D02*
X75800000Y-96800000D01*
X75800000Y-96800000D02*
X76600000Y-96800000D01*
X81600000Y-96400000D02*
X81600000Y-96600000D01*
X81600000Y-96600000D02*
X81800000Y-96600000D01*
X81800000Y-96600000D02*
X81600000Y-96400000D01*
X81500000Y-96200000D02*
X81500000Y-96700000D01*
X81500000Y-96700000D02*
X82000000Y-96700000D01*
D13*
X82000000Y-96700000D02*
X81500000Y-96200000D01*
D12*
X82200000Y-96800000D02*
X81400000Y-96000000D01*
X81400000Y-96000000D02*
X81400000Y-96800000D01*
X81400000Y-96800000D02*
X82200000Y-96800000D01*
X87200000Y-96400000D02*
X87200000Y-96600000D01*
X87200000Y-96600000D02*
X87400000Y-96600000D01*
X87400000Y-96600000D02*
X87200000Y-96400000D01*
X87100000Y-96200000D02*
X87100000Y-96700000D01*
X87100000Y-96700000D02*
X87600000Y-96700000D01*
D13*
X87600000Y-96700000D02*
X87100000Y-96200000D01*
D12*
X87800000Y-96800000D02*
X87000000Y-96000000D01*
X87000000Y-96000000D02*
X87000000Y-96800000D01*
X87000000Y-96800000D02*
X87800000Y-96800000D01*
X92800000Y-96400000D02*
X92800000Y-96600000D01*
X92800000Y-96600000D02*
X93000000Y-96600000D01*
X93000000Y-96600000D02*
X92800000Y-96400000D01*
X92700000Y-96200000D02*
X92700000Y-96700000D01*
X92700000Y-96700000D02*
X93200000Y-96700000D01*
D13*
X93200000Y-96700000D02*
X92700000Y-96200000D01*
D12*
X93400000Y-96800000D02*
X92600000Y-96000000D01*
X92600000Y-96000000D02*
X92600000Y-96800000D01*
X92600000Y-96800000D02*
X93400000Y-96800000D01*
X98400000Y-96400000D02*
X98400000Y-96600000D01*
X98400000Y-96600000D02*
X98600000Y-96600000D01*
X98600000Y-96600000D02*
X98400000Y-96400000D01*
X98300000Y-96200000D02*
X98300000Y-96700000D01*
X98300000Y-96700000D02*
X98800000Y-96700000D01*
D13*
X98800000Y-96700000D02*
X98300000Y-96200000D01*
D12*
X99000000Y-96800000D02*
X98200000Y-96000000D01*
X98200000Y-96000000D02*
X98200000Y-96800000D01*
X98200000Y-96800000D02*
X99000000Y-96800000D01*
X104000000Y-96400000D02*
X104000000Y-96600000D01*
X104000000Y-96600000D02*
X104200000Y-96600000D01*
X104200000Y-96600000D02*
X104000000Y-96400000D01*
X103900000Y-96200000D02*
X103900000Y-96700000D01*
X103900000Y-96700000D02*
X104400000Y-96700000D01*
D13*
X104400000Y-96700000D02*
X103900000Y-96200000D01*
D12*
X104600000Y-96800000D02*
X103800000Y-96000000D01*
X103800000Y-96000000D02*
X103800000Y-96800000D01*
X103800000Y-96800000D02*
X104600000Y-96800000D01*
X109600000Y-96400000D02*
X109600000Y-96600000D01*
X109600000Y-96600000D02*
X109800000Y-96600000D01*
X109800000Y-96600000D02*
X109600000Y-96400000D01*
X109500000Y-96200000D02*
X109500000Y-96700000D01*
X109500000Y-96700000D02*
X110000000Y-96700000D01*
D13*
X110000000Y-96700000D02*
X109500000Y-96200000D01*
D12*
X110200000Y-96800000D02*
X109400000Y-96000000D01*
X109400000Y-96000000D02*
X109400000Y-96800000D01*
X109400000Y-96800000D02*
X110200000Y-96800000D01*
X115200000Y-96400000D02*
X115200000Y-96600000D01*
X115200000Y-96600000D02*
X115400000Y-96600000D01*
X115400000Y-96600000D02*
X115200000Y-96400000D01*
X115100000Y-96200000D02*
X115100000Y-96700000D01*
X115100000Y-96700000D02*
X115600000Y-96700000D01*
D13*
X115600000Y-96700000D02*
X115100000Y-96200000D01*
D12*
X115800000Y-96800000D02*
X115000000Y-96000000D01*
X115000000Y-96000000D02*
X115000000Y-96800000D01*
X115000000Y-96800000D02*
X115800000Y-96800000D01*
X120800000Y-96400000D02*
X120800000Y-96600000D01*
X120800000Y-96600000D02*
X121000000Y-96600000D01*
X121000000Y-96600000D02*
X120800000Y-96400000D01*
X120700000Y-96200000D02*
X120700000Y-96700000D01*
X120700000Y-96700000D02*
X121200000Y-96700000D01*
D13*
X121200000Y-96700000D02*
X120700000Y-96200000D01*
D12*
X121400000Y-96800000D02*
X120600000Y-96000000D01*
X120600000Y-96000000D02*
X120600000Y-96800000D01*
X120600000Y-96800000D02*
X121400000Y-96800000D01*
X76000000Y-102000000D02*
X76000000Y-102200000D01*
X76000000Y-102200000D02*
X76200000Y-102200000D01*
X76200000Y-102200000D02*
X76000000Y-102000000D01*
X75900000Y-101800000D02*
X75900000Y-102300000D01*
X75900000Y-102300000D02*
X76400000Y-102300000D01*
D13*
X76400000Y-102300000D02*
X75900000Y-101800000D01*
D12*
X76600000Y-102400000D02*
X75800000Y-101600000D01*
X75800000Y-101600000D02*
X75800000Y-102400000D01*
X75800000Y-102400000D02*
X76600000Y-102400000D01*
X81600000Y-102000000D02*
X81600000Y-102200000D01*
X81600000Y-102200000D02*
X81800000Y-102200000D01*
X81800000Y-102200000D02*
X81600000Y-102000000D01*
X81500000Y-101800000D02*
X81500000Y-102300000D01*
X81500000Y-102300000D02*
X82000000Y-102300000D01*
D13*
X82000000Y-102300000D02*
X81500000Y-101800000D01*
D12*
X82200000Y-102400000D02*
X81400000Y-101600000D01*
X81400000Y-101600000D02*
X81400000Y-102400000D01*
X81400000Y-102400000D02*
X82200000Y-102400000D01*
X87200000Y-102000000D02*
X87200000Y-102200000D01*
X87200000Y-102200000D02*
X87400000Y-102200000D01*
X87400000Y-102200000D02*
X87200000Y-102000000D01*
X87100000Y-101800000D02*
X87100000Y-102300000D01*
X87100000Y-102300000D02*
X87600000Y-102300000D01*
D13*
X87600000Y-102300000D02*
X87100000Y-101800000D01*
D12*
X87800000Y-102400000D02*
X87000000Y-101600000D01*
X87000000Y-101600000D02*
X87000000Y-102400000D01*
X87000000Y-102400000D02*
X87800000Y-102400000D01*
X92800000Y-102000000D02*
X92800000Y-102200000D01*
X92800000Y-102200000D02*
X93000000Y-102200000D01*
X93000000Y-102200000D02*
X92800000Y-102000000D01*
X92700000Y-101800000D02*
X92700000Y-102300000D01*
X92700000Y-102300000D02*
X93200000Y-102300000D01*
D13*
X93200000Y-102300000D02*
X92700000Y-101800000D01*
D12*
X93400000Y-102400000D02*
X92600000Y-101600000D01*
X92600000Y-101600000D02*
X92600000Y-102400000D01*
X92600000Y-102400000D02*
X93400000Y-102400000D01*
X98400000Y-102000000D02*
X98400000Y-102200000D01*
X98400000Y-102200000D02*
X98600000Y-102200000D01*
X98600000Y-102200000D02*
X98400000Y-102000000D01*
X98300000Y-101800000D02*
X98300000Y-102300000D01*
X98300000Y-102300000D02*
X98800000Y-102300000D01*
D13*
X98800000Y-102300000D02*
X98300000Y-101800000D01*
D12*
X99000000Y-102400000D02*
X98200000Y-101600000D01*
X98200000Y-101600000D02*
X98200000Y-102400000D01*
X98200000Y-102400000D02*
X99000000Y-102400000D01*
X104000000Y-102000000D02*
X104000000Y-102200000D01*
X104000000Y-102200000D02*
X104200000Y-102200000D01*
X104200000Y-102200000D02*
X104000000Y-102000000D01*
X103900000Y-101800000D02*
X103900000Y-102300000D01*
X103900000Y-102300000D02*
X104400000Y-102300000D01*
D13*
X104400000Y-102300000D02*
X103900000Y-101800000D01*
D12*
X104600000Y-102400000D02*
X103800000Y-101600000D01*
X103800000Y-101600000D02*
X103800000Y-102400000D01*
X103800000Y-102400000D02*
X104600000Y-102400000D01*
X109600000Y-102000000D02*
X109600000Y-102200000D01*
X109600000Y-102200000D02*
X109800000Y-102200000D01*
X109800000Y-102200000D02*
X109600000Y-102000000D01*
X109500000Y-101800000D02*
X109500000Y-102300000D01*
X109500000Y-102300000D02*
X110000000Y-102300000D01*
D13*
X110000000Y-102300000D02*
X109500000Y-101800000D01*
D12*
X110200000Y-102400000D02*
X109400000Y-101600000D01*
X109400000Y-101600000D02*
X109400000Y-102400000D01*
X109400000Y-102400000D02*
X110200000Y-102400000D01*
X115200000Y-102000000D02*
X115200000Y-102200000D01*
X115200000Y-102200000D02*
X115400000Y-102200000D01*
X115400000Y-102200000D02*
X115200000Y-102000000D01*
X115100000Y-101800000D02*
X115100000Y-102300000D01*
X115100000Y-102300000D02*
X115600000Y-102300000D01*
D13*
X115600000Y-102300000D02*
X115100000Y-101800000D01*
D12*
X115800000Y-102400000D02*
X115000000Y-101600000D01*
X115000000Y-101600000D02*
X115000000Y-102400000D01*
X115000000Y-102400000D02*
X115800000Y-102400000D01*
X120800000Y-102000000D02*
X120800000Y-102200000D01*
X120800000Y-102200000D02*
X121000000Y-102200000D01*
X121000000Y-102200000D02*
X120800000Y-102000000D01*
X120700000Y-101800000D02*
X120700000Y-102300000D01*
X120700000Y-102300000D02*
X121200000Y-102300000D01*
D13*
X121200000Y-102300000D02*
X120700000Y-101800000D01*
D12*
X121400000Y-102400000D02*
X120600000Y-101600000D01*
X120600000Y-101600000D02*
X120600000Y-102400000D01*
X120600000Y-102400000D02*
X121400000Y-102400000D01*
X76000000Y-107600000D02*
X76000000Y-107800000D01*
X76000000Y-107800000D02*
X76200000Y-107800000D01*
X76200000Y-107800000D02*
X76000000Y-107600000D01*
X75900000Y-107400000D02*
X75900000Y-107900000D01*
X75900000Y-107900000D02*
X76400000Y-107900000D01*
D13*
X76400000Y-107900000D02*
X75900000Y-107400000D01*
D12*
X76600000Y-108000000D02*
X75800000Y-107200000D01*
X75800000Y-107200000D02*
X75800000Y-108000000D01*
X75800000Y-108000000D02*
X76600000Y-108000000D01*
X81600000Y-107600000D02*
X81600000Y-107800000D01*
X81600000Y-107800000D02*
X81800000Y-107800000D01*
X81800000Y-107800000D02*
X81600000Y-107600000D01*
X81500000Y-107400000D02*
X81500000Y-107900000D01*
X81500000Y-107900000D02*
X82000000Y-107900000D01*
D13*
X82000000Y-107900000D02*
X81500000Y-107400000D01*
D12*
X82200000Y-108000000D02*
X81400000Y-107200000D01*
X81400000Y-107200000D02*
X81400000Y-108000000D01*
X81400000Y-108000000D02*
X82200000Y-108000000D01*
X87200000Y-107600000D02*
X87200000Y-107800000D01*
X87200000Y-107800000D02*
X87400000Y-107800000D01*
X87400000Y-107800000D02*
X87200000Y-107600000D01*
X87100000Y-107400000D02*
X87100000Y-107900000D01*
X87100000Y-107900000D02*
X87600000Y-107900000D01*
D13*
X87600000Y-107900000D02*
X87100000Y-107400000D01*
D12*
X87800000Y-108000000D02*
X87000000Y-107200000D01*
X87000000Y-107200000D02*
X87000000Y-108000000D01*
X87000000Y-108000000D02*
X87800000Y-108000000D01*
X92800000Y-107600000D02*
X92800000Y-107800000D01*
X92800000Y-107800000D02*
X93000000Y-107800000D01*
X93000000Y-107800000D02*
X92800000Y-107600000D01*
X92700000Y-107400000D02*
X92700000Y-107900000D01*
X92700000Y-107900000D02*
X93200000Y-107900000D01*
D13*
X93200000Y-107900000D02*
X92700000Y-107400000D01*
D12*
X93400000Y-108000000D02*
X92600000Y-107200000D01*
X92600000Y-107200000D02*
X92600000Y-108000000D01*
X92600000Y-108000000D02*
X93400000Y-108000000D01*
X98400000Y-107600000D02*
X98400000Y-107800000D01*
X98400000Y-107800000D02*
X98600000Y-107800000D01*
X98600000Y-107800000D02*
X98400000Y-107600000D01*
X98300000Y-107400000D02*
X98300000Y-107900000D01*
X98300000Y-107900000D02*
X98800000Y-107900000D01*
D13*
X98800000Y-107900000D02*
X98300000Y-107400000D01*
D12*
X99000000Y-108000000D02*
X98200000Y-107200000D01*
X98200000Y-107200000D02*
X98200000Y-108000000D01*
X98200000Y-108000000D02*
X99000000Y-108000000D01*
X104000000Y-107600000D02*
X104000000Y-107800000D01*
X104000000Y-107800000D02*
X104200000Y-107800000D01*
X104200000Y-107800000D02*
X104000000Y-107600000D01*
X103900000Y-107400000D02*
X103900000Y-107900000D01*
X103900000Y-107900000D02*
X104400000Y-107900000D01*
D13*
X104400000Y-107900000D02*
X103900000Y-107400000D01*
D12*
X104600000Y-108000000D02*
X103800000Y-107200000D01*
X103800000Y-107200000D02*
X103800000Y-108000000D01*
X103800000Y-108000000D02*
X104600000Y-108000000D01*
X109600000Y-107600000D02*
X109600000Y-107800000D01*
X109600000Y-107800000D02*
X109800000Y-107800000D01*
X109800000Y-107800000D02*
X109600000Y-107600000D01*
X109500000Y-107400000D02*
X109500000Y-107900000D01*
X109500000Y-107900000D02*
X110000000Y-107900000D01*
D13*
X110000000Y-107900000D02*
X109500000Y-107400000D01*
D12*
X110200000Y-108000000D02*
X109400000Y-107200000D01*
X109400000Y-107200000D02*
X109400000Y-108000000D01*
X109400000Y-108000000D02*
X110200000Y-108000000D01*
X115200000Y-107600000D02*
X115200000Y-107800000D01*
X115200000Y-107800000D02*
X115400000Y-107800000D01*
X115400000Y-107800000D02*
X115200000Y-107600000D01*
X115100000Y-107400000D02*
X115100000Y-107900000D01*
X115100000Y-107900000D02*
X115600000Y-107900000D01*
D13*
X115600000Y-107900000D02*
X115100000Y-107400000D01*
D12*
X115800000Y-108000000D02*
X115000000Y-107200000D01*
X115000000Y-107200000D02*
X115000000Y-108000000D01*
X115000000Y-108000000D02*
X115800000Y-108000000D01*
X120800000Y-107600000D02*
X120800000Y-107800000D01*
X120800000Y-107800000D02*
X121000000Y-107800000D01*
X121000000Y-107800000D02*
X120800000Y-107600000D01*
X120700000Y-107400000D02*
X120700000Y-107900000D01*
X120700000Y-107900000D02*
X121200000Y-107900000D01*
D13*
X121200000Y-107900000D02*
X120700000Y-107400000D01*
D12*
X121400000Y-108000000D02*
X120600000Y-107200000D01*
X120600000Y-107200000D02*
X120600000Y-108000000D01*
X120600000Y-108000000D02*
X121400000Y-108000000D01*
X81600000Y-113200000D02*
X81600000Y-113400000D01*
X81600000Y-113400000D02*
X81800000Y-113400000D01*
X81800000Y-113400000D02*
X81600000Y-113200000D01*
X81500000Y-113000000D02*
X81500000Y-113500000D01*
X81500000Y-113500000D02*
X82000000Y-113500000D01*
D13*
X82000000Y-113500000D02*
X81500000Y-113000000D01*
D12*
X82200000Y-113600000D02*
X81400000Y-112800000D01*
X81400000Y-112800000D02*
X81400000Y-113600000D01*
X81400000Y-113600000D02*
X82200000Y-113600000D01*
X87200000Y-113200000D02*
X87200000Y-113400000D01*
X87200000Y-113400000D02*
X87400000Y-113400000D01*
X87400000Y-113400000D02*
X87200000Y-113200000D01*
X87100000Y-113000000D02*
X87100000Y-113500000D01*
X87100000Y-113500000D02*
X87600000Y-113500000D01*
D13*
X87600000Y-113500000D02*
X87100000Y-113000000D01*
D12*
X87800000Y-113600000D02*
X87000000Y-112800000D01*
X87000000Y-112800000D02*
X87000000Y-113600000D01*
X87000000Y-113600000D02*
X87800000Y-113600000D01*
X92800000Y-113200000D02*
X92800000Y-113400000D01*
X92800000Y-113400000D02*
X93000000Y-113400000D01*
X93000000Y-113400000D02*
X92800000Y-113200000D01*
X92700000Y-113000000D02*
X92700000Y-113500000D01*
X92700000Y-113500000D02*
X93200000Y-113500000D01*
D13*
X93200000Y-113500000D02*
X92700000Y-113000000D01*
D12*
X93400000Y-113600000D02*
X92600000Y-112800000D01*
X92600000Y-112800000D02*
X92600000Y-113600000D01*
X92600000Y-113600000D02*
X93400000Y-113600000D01*
X98400000Y-113200000D02*
X98400000Y-113400000D01*
X98400000Y-113400000D02*
X98600000Y-113400000D01*
X98600000Y-113400000D02*
X98400000Y-113200000D01*
X98300000Y-113000000D02*
X98300000Y-113500000D01*
X98300000Y-113500000D02*
X98800000Y-113500000D01*
D13*
X98800000Y-113500000D02*
X98300000Y-113000000D01*
D12*
X99000000Y-113600000D02*
X98200000Y-112800000D01*
X98200000Y-112800000D02*
X98200000Y-113600000D01*
X98200000Y-113600000D02*
X99000000Y-113600000D01*
X104000000Y-113200000D02*
X104000000Y-113400000D01*
X104000000Y-113400000D02*
X104200000Y-113400000D01*
X104200000Y-113400000D02*
X104000000Y-113200000D01*
X103900000Y-113000000D02*
X103900000Y-113500000D01*
X103900000Y-113500000D02*
X104400000Y-113500000D01*
D13*
X104400000Y-113500000D02*
X103900000Y-113000000D01*
D12*
X104600000Y-113600000D02*
X103800000Y-112800000D01*
X103800000Y-112800000D02*
X103800000Y-113600000D01*
X103800000Y-113600000D02*
X104600000Y-113600000D01*
X109600000Y-113200000D02*
X109600000Y-113400000D01*
X109600000Y-113400000D02*
X109800000Y-113400000D01*
X109800000Y-113400000D02*
X109600000Y-113200000D01*
X109500000Y-113000000D02*
X109500000Y-113500000D01*
X109500000Y-113500000D02*
X110000000Y-113500000D01*
D13*
X110000000Y-113500000D02*
X109500000Y-113000000D01*
D12*
X110200000Y-113600000D02*
X109400000Y-112800000D01*
X109400000Y-112800000D02*
X109400000Y-113600000D01*
X109400000Y-113600000D02*
X110200000Y-113600000D01*
X115200000Y-113200000D02*
X115200000Y-113400000D01*
X115200000Y-113400000D02*
X115400000Y-113400000D01*
X115400000Y-113400000D02*
X115200000Y-113200000D01*
X115100000Y-113000000D02*
X115100000Y-113500000D01*
X115100000Y-113500000D02*
X115600000Y-113500000D01*
D13*
X115600000Y-113500000D02*
X115100000Y-113000000D01*
D12*
X115800000Y-113600000D02*
X115000000Y-112800000D01*
X115000000Y-112800000D02*
X115000000Y-113600000D01*
X115000000Y-113600000D02*
X115800000Y-113600000D01*
X81600000Y-118800000D02*
X81600000Y-119000000D01*
X81600000Y-119000000D02*
X81800000Y-119000000D01*
X81800000Y-119000000D02*
X81600000Y-118800000D01*
X81500000Y-118600000D02*
X81500000Y-119100000D01*
X81500000Y-119100000D02*
X82000000Y-119100000D01*
D13*
X82000000Y-119100000D02*
X81500000Y-118600000D01*
D12*
X82200000Y-119200000D02*
X81400000Y-118400000D01*
X81400000Y-118400000D02*
X81400000Y-119200000D01*
X81400000Y-119200000D02*
X82200000Y-119200000D01*
X87200000Y-118800000D02*
X87200000Y-119000000D01*
X87200000Y-119000000D02*
X87400000Y-119000000D01*
X87400000Y-119000000D02*
X87200000Y-118800000D01*
X87100000Y-118600000D02*
X87100000Y-119100000D01*
X87100000Y-119100000D02*
X87600000Y-119100000D01*
D13*
X87600000Y-119100000D02*
X87100000Y-118600000D01*
D12*
X87800000Y-119200000D02*
X87000000Y-118400000D01*
X87000000Y-118400000D02*
X87000000Y-119200000D01*
X87000000Y-119200000D02*
X87800000Y-119200000D01*
X92800000Y-118800000D02*
X92800000Y-119000000D01*
X92800000Y-119000000D02*
X93000000Y-119000000D01*
X93000000Y-119000000D02*
X92800000Y-118800000D01*
X92700000Y-118600000D02*
X92700000Y-119100000D01*
X92700000Y-119100000D02*
X93200000Y-119100000D01*
D13*
X93200000Y-119100000D02*
X92700000Y-118600000D01*
D12*
X93400000Y-119200000D02*
X92600000Y-118400000D01*
X92600000Y-118400000D02*
X92600000Y-119200000D01*
X92600000Y-119200000D02*
X93400000Y-119200000D01*
X98400000Y-118800000D02*
X98400000Y-119000000D01*
X98400000Y-119000000D02*
X98600000Y-119000000D01*
X98600000Y-119000000D02*
X98400000Y-118800000D01*
X98300000Y-118600000D02*
X98300000Y-119100000D01*
X98300000Y-119100000D02*
X98800000Y-119100000D01*
D13*
X98800000Y-119100000D02*
X98300000Y-118600000D01*
D12*
X99000000Y-119200000D02*
X98200000Y-118400000D01*
X98200000Y-118400000D02*
X98200000Y-119200000D01*
X98200000Y-119200000D02*
X99000000Y-119200000D01*
X104000000Y-118800000D02*
X104000000Y-119000000D01*
X104000000Y-119000000D02*
X104200000Y-119000000D01*
X104200000Y-119000000D02*
X104000000Y-118800000D01*
X103900000Y-118600000D02*
X103900000Y-119100000D01*
X103900000Y-119100000D02*
X104400000Y-119100000D01*
D13*
X104400000Y-119100000D02*
X103900000Y-118600000D01*
D12*
X104600000Y-119200000D02*
X103800000Y-118400000D01*
X103800000Y-118400000D02*
X103800000Y-119200000D01*
X103800000Y-119200000D02*
X104600000Y-119200000D01*
X109600000Y-118800000D02*
X109600000Y-119000000D01*
X109600000Y-119000000D02*
X109800000Y-119000000D01*
X109800000Y-119000000D02*
X109600000Y-118800000D01*
X109500000Y-118600000D02*
X109500000Y-119100000D01*
X109500000Y-119100000D02*
X110000000Y-119100000D01*
D13*
X110000000Y-119100000D02*
X109500000Y-118600000D01*
D12*
X110200000Y-119200000D02*
X109400000Y-118400000D01*
X109400000Y-118400000D02*
X109400000Y-119200000D01*
X109400000Y-119200000D02*
X110200000Y-119200000D01*
X115200000Y-118800000D02*
X115200000Y-119000000D01*
X115200000Y-119000000D02*
X115400000Y-119000000D01*
X115400000Y-119000000D02*
X115200000Y-118800000D01*
X115100000Y-118600000D02*
X115100000Y-119100000D01*
X115100000Y-119100000D02*
X115600000Y-119100000D01*
D13*
X115600000Y-119100000D02*
X115100000Y-118600000D01*
D12*
X115800000Y-119200000D02*
X115000000Y-118400000D01*
X115000000Y-118400000D02*
X115000000Y-119200000D01*
X115000000Y-119200000D02*
X115800000Y-119200000D01*
X92800000Y-124400000D02*
X92800000Y-124600000D01*
X92800000Y-124600000D02*
X93000000Y-124600000D01*
X93000000Y-124600000D02*
X92800000Y-124400000D01*
X92700000Y-124200000D02*
X92700000Y-124700000D01*
X92700000Y-124700000D02*
X93200000Y-124700000D01*
D13*
X93200000Y-124700000D02*
X92700000Y-124200000D01*
D12*
X93400000Y-124800000D02*
X92600000Y-124000000D01*
X92600000Y-124000000D02*
X92600000Y-124800000D01*
X92600000Y-124800000D02*
X93400000Y-124800000D01*
X98400000Y-124400000D02*
X98400000Y-124600000D01*
X98400000Y-124600000D02*
X98600000Y-124600000D01*
X98600000Y-124600000D02*
X98400000Y-124400000D01*
X98300000Y-124200000D02*
X98300000Y-124700000D01*
X98300000Y-124700000D02*
X98800000Y-124700000D01*
D13*
X98800000Y-124700000D02*
X98300000Y-124200000D01*
D12*
X99000000Y-124800000D02*
X98200000Y-124000000D01*
X98200000Y-124000000D02*
X98200000Y-124800000D01*
X98200000Y-124800000D02*
X99000000Y-124800000D01*
X104000000Y-124400000D02*
X104000000Y-124600000D01*
X104000000Y-124600000D02*
X104200000Y-124600000D01*
X104200000Y-124600000D02*
X104000000Y-124400000D01*
X103900000Y-124200000D02*
X103900000Y-124700000D01*
X103900000Y-124700000D02*
X104400000Y-124700000D01*
D13*
X104400000Y-124700000D02*
X103900000Y-124200000D01*
D12*
X104600000Y-124800000D02*
X103800000Y-124000000D01*
X103800000Y-124000000D02*
X103800000Y-124800000D01*
X103800000Y-124800000D02*
X104600000Y-124800000D01*
X123880000Y-113000000D02*
X123880000Y-115000000D01*
X120920000Y-115000000D02*
X120920000Y-113000000D01*
D13*
X98666667Y-64452381D02*
X98333333Y-63976190D01*
X98095238Y-64452381D02*
X98095238Y-63452381D01*
X98476191Y-63452381D01*
X98571429Y-63500000D01*
X98619048Y-63547619D01*
X98666667Y-63642857D01*
X98666667Y-63785714D01*
X98619048Y-63880952D01*
X98571429Y-63928571D01*
X98476191Y-63976190D01*
X98095238Y-63976190D01*
X99095238Y-63928571D02*
X99428572Y-63928571D01*
X99571429Y-64452381D02*
X99095238Y-64452381D01*
X99095238Y-63452381D01*
X99571429Y-63452381D01*
X100333334Y-63928571D02*
X100000000Y-63928571D01*
X100000000Y-64452381D02*
X100000000Y-63452381D01*
X100476191Y-63452381D01*
X101000000Y-63452381D02*
X101000000Y-63690476D01*
X100761905Y-63595238D02*
X101000000Y-63690476D01*
X101238096Y-63595238D01*
X100857143Y-63880952D02*
X101000000Y-63690476D01*
X101142858Y-63880952D01*
X101761905Y-63452381D02*
X101761905Y-63690476D01*
X101523810Y-63595238D02*
X101761905Y-63690476D01*
X102000001Y-63595238D01*
X101619048Y-63880952D02*
X101761905Y-63690476D01*
X101904763Y-63880952D01*
X107176667Y-129484762D02*
X107319524Y-129532381D01*
X107557620Y-129532381D01*
X107652858Y-129484762D01*
X107700477Y-129437143D01*
X107748096Y-129341905D01*
X107748096Y-129246667D01*
X107700477Y-129151429D01*
X107652858Y-129103810D01*
X107557620Y-129056190D01*
X107367143Y-129008571D01*
X107271905Y-128960952D01*
X107224286Y-128913333D01*
X107176667Y-128818095D01*
X107176667Y-128722857D01*
X107224286Y-128627619D01*
X107271905Y-128580000D01*
X107367143Y-128532381D01*
X107605239Y-128532381D01*
X107748096Y-128580000D01*
X108081429Y-128532381D02*
X108319524Y-129532381D01*
X108510001Y-128818095D01*
X108700477Y-129532381D01*
X108938572Y-128532381D01*
X109843334Y-129532381D02*
X109271905Y-129532381D01*
X109557619Y-129532381D02*
X109557619Y-128532381D01*
X109462381Y-128675238D01*
X109367143Y-128770476D01*
X109271905Y-128818095D01*
X124953334Y-116392381D02*
X124620000Y-115916190D01*
X124381905Y-116392381D02*
X124381905Y-115392381D01*
X124762858Y-115392381D01*
X124858096Y-115440000D01*
X124905715Y-115487619D01*
X124953334Y-115582857D01*
X124953334Y-115725714D01*
X124905715Y-115820952D01*
X124858096Y-115868571D01*
X124762858Y-115916190D01*
X124381905Y-115916190D01*
X125905715Y-116392381D02*
X125334286Y-116392381D01*
X125620000Y-116392381D02*
X125620000Y-115392381D01*
X125524762Y-115535238D01*
X125429524Y-115630476D01*
X125334286Y-115678095D01*
X120286667Y-130412381D02*
X119953333Y-129936190D01*
X119715238Y-130412381D02*
X119715238Y-129412381D01*
X120096191Y-129412381D01*
X120191429Y-129460000D01*
X120239048Y-129507619D01*
X120286667Y-129602857D01*
X120286667Y-129745714D01*
X120239048Y-129840952D01*
X120191429Y-129888571D01*
X120096191Y-129936190D01*
X119715238Y-129936190D01*
X120715238Y-129888571D02*
X121048572Y-129888571D01*
X121191429Y-130412381D02*
X120715238Y-130412381D01*
X120715238Y-129412381D01*
X121191429Y-129412381D01*
X121953334Y-129888571D02*
X121620000Y-129888571D01*
X121620000Y-130412381D02*
X121620000Y-129412381D01*
X122096191Y-129412381D01*
X122620000Y-129412381D02*
X122620000Y-129650476D01*
X122381905Y-129555238D02*
X122620000Y-129650476D01*
X122858096Y-129555238D01*
X122477143Y-129840952D02*
X122620000Y-129650476D01*
X122762858Y-129840952D01*
X123381905Y-129412381D02*
X123381905Y-129650476D01*
X123143810Y-129555238D02*
X123381905Y-129650476D01*
X123620001Y-129555238D01*
X123239048Y-129840952D02*
X123381905Y-129650476D01*
X123524763Y-129840952D01*
X78536667Y-130722381D02*
X78203333Y-130246190D01*
X77965238Y-130722381D02*
X77965238Y-129722381D01*
X78346191Y-129722381D01*
X78441429Y-129770000D01*
X78489048Y-129817619D01*
X78536667Y-129912857D01*
X78536667Y-130055714D01*
X78489048Y-130150952D01*
X78441429Y-130198571D01*
X78346191Y-130246190D01*
X77965238Y-130246190D01*
X78965238Y-130198571D02*
X79298572Y-130198571D01*
X79441429Y-130722381D02*
X78965238Y-130722381D01*
X78965238Y-129722381D01*
X79441429Y-129722381D01*
X80203334Y-130198571D02*
X79870000Y-130198571D01*
X79870000Y-130722381D02*
X79870000Y-129722381D01*
X80346191Y-129722381D01*
X80870000Y-129722381D02*
X80870000Y-129960476D01*
X80631905Y-129865238D02*
X80870000Y-129960476D01*
X81108096Y-129865238D01*
X80727143Y-130150952D02*
X80870000Y-129960476D01*
X81012858Y-130150952D01*
X81631905Y-129722381D02*
X81631905Y-129960476D01*
X81393810Y-129865238D02*
X81631905Y-129960476D01*
X81870001Y-129865238D01*
X81489048Y-130150952D02*
X81631905Y-129960476D01*
X81774763Y-130150952D01*
M02*
