G04 #@! TF.GenerationSoftware,KiCad,Pcbnew,5.1.5+dfsg1-2build2*
G04 #@! TF.CreationDate,2021-12-15T11:20:51+01:00*
G04 #@! TF.ProjectId,BitBadge,42697442-6164-4676-952e-6b696361645f,rev?*
G04 #@! TF.SameCoordinates,Original*
G04 #@! TF.FileFunction,Soldermask,Bot*
G04 #@! TF.FilePolarity,Negative*
%FSLAX46Y46*%
G04 Gerber Fmt 4.6, Leading zero omitted, Abs format (unit mm)*
G04 Created by KiCad (PCBNEW 5.1.5+dfsg1-2build2) date 2021-12-15 11:20:51*
%MOMM*%
%LPD*%
G04 APERTURE LIST*
%ADD10C,0.100000*%
%ADD11C,0.010000*%
%ADD12O,11.400000X5.400000*%
%ADD13C,1.300000*%
%ADD14R,4.400000X4.400000*%
%ADD15C,3.600000*%
%ADD16R,4.400000X6.400000*%
%ADD17C,2.000000*%
%ADD18C,2.540000*%
G04 APERTURE END LIST*
D10*
G36*
X91500000Y-124000000D02*
G01*
X90500000Y-124000000D01*
X90500000Y-123000000D01*
X91500000Y-123000000D01*
X91500000Y-124000000D01*
G37*
X91500000Y-124000000D02*
X90500000Y-124000000D01*
X90500000Y-123000000D01*
X91500000Y-123000000D01*
X91500000Y-124000000D01*
G36*
X109500000Y-124000000D02*
G01*
X108500000Y-124000000D01*
X108500000Y-123000000D01*
X109500000Y-123000000D01*
X109500000Y-124000000D01*
G37*
X109500000Y-124000000D02*
X108500000Y-124000000D01*
X108500000Y-123000000D01*
X109500000Y-123000000D01*
X109500000Y-124000000D01*
D11*
G36*
X81796806Y-112528185D02*
G01*
X81436151Y-112566363D01*
X81080362Y-112641550D01*
X80732617Y-112753746D01*
X80396094Y-112902951D01*
X80073970Y-113089165D01*
X79788084Y-113297189D01*
X79512542Y-113546887D01*
X79264945Y-113826314D01*
X79047791Y-114131365D01*
X78863580Y-114457935D01*
X78714811Y-114801920D01*
X78603984Y-115159215D01*
X78573555Y-115291752D01*
X78516155Y-115666471D01*
X78499307Y-116037703D01*
X78521395Y-116402972D01*
X78580801Y-116759799D01*
X78675908Y-117105703D01*
X78805099Y-117438208D01*
X78966755Y-117754834D01*
X79159260Y-118053102D01*
X79380995Y-118330535D01*
X79630345Y-118584652D01*
X79905690Y-118812975D01*
X80205415Y-119013026D01*
X80527901Y-119182326D01*
X80871531Y-119318396D01*
X81234687Y-119418758D01*
X81271684Y-119426666D01*
X81346758Y-119440161D01*
X81444835Y-119454753D01*
X81557197Y-119469489D01*
X81675129Y-119483415D01*
X81789912Y-119495578D01*
X81892830Y-119505023D01*
X81975165Y-119510798D01*
X82028200Y-119511950D01*
X82040116Y-119510721D01*
X82065288Y-119507876D01*
X82123275Y-119502498D01*
X82204691Y-119495433D01*
X82275167Y-119489560D01*
X82657006Y-119437625D01*
X83025033Y-119346252D01*
X83377197Y-119216667D01*
X83711446Y-119050100D01*
X84025728Y-118847778D01*
X84317992Y-118610930D01*
X84567026Y-118360083D01*
X84097518Y-118360083D01*
X84006551Y-118442094D01*
X83832196Y-118580835D01*
X83625413Y-118714485D01*
X83396104Y-118837964D01*
X83154176Y-118946193D01*
X82909531Y-119034092D01*
X82779353Y-119071428D01*
X82673401Y-119096190D01*
X82549585Y-119120979D01*
X82421909Y-119143375D01*
X82304380Y-119160955D01*
X82211003Y-119171298D01*
X82195792Y-119172323D01*
X82148167Y-119175000D01*
X82148167Y-117793961D01*
X81830667Y-117793961D01*
X81830407Y-118031471D01*
X81829655Y-118256065D01*
X81828456Y-118464235D01*
X81826854Y-118652473D01*
X81824894Y-118817271D01*
X81822620Y-118955120D01*
X81820077Y-119062512D01*
X81817309Y-119135939D01*
X81814360Y-119171892D01*
X81813185Y-119175000D01*
X81786112Y-119172194D01*
X81726718Y-119164615D01*
X81644581Y-119153517D01*
X81575060Y-119143814D01*
X81270335Y-119085378D01*
X80969747Y-118998248D01*
X80680658Y-118885648D01*
X80410435Y-118750803D01*
X80166441Y-118596938D01*
X79972283Y-118442094D01*
X79881316Y-118360083D01*
X80855992Y-117386502D01*
X81830667Y-116412922D01*
X81830667Y-117793961D01*
X82148167Y-117793961D01*
X82148167Y-116412922D01*
X83122843Y-117386502D01*
X84097518Y-118360083D01*
X84567026Y-118360083D01*
X84586186Y-118340784D01*
X84828258Y-118038568D01*
X84918393Y-117907332D01*
X85105461Y-117585023D01*
X85254026Y-117249357D01*
X85364580Y-116903455D01*
X85437616Y-116550435D01*
X85473627Y-116193419D01*
X85473250Y-115935796D01*
X85150074Y-115935796D01*
X85138413Y-116279278D01*
X85089166Y-116621386D01*
X85003833Y-116956836D01*
X84883915Y-117280343D01*
X84730911Y-117586620D01*
X84546322Y-117870383D01*
X84438197Y-118007471D01*
X84342929Y-118120526D01*
X83245548Y-117023298D01*
X82148167Y-115926069D01*
X82148167Y-114386117D01*
X82148167Y-114385966D01*
X81830667Y-114385966D01*
X81830667Y-115925765D01*
X79639917Y-118118673D01*
X79557906Y-118027711D01*
X79505148Y-117964376D01*
X79442345Y-117882017D01*
X79382180Y-117797328D01*
X79376264Y-117788583D01*
X79188456Y-117472710D01*
X79039514Y-117143153D01*
X78929771Y-116802904D01*
X78859559Y-116454952D01*
X78829211Y-116102290D01*
X78839060Y-115747907D01*
X78889438Y-115394795D01*
X78980678Y-115045944D01*
X79049798Y-114853429D01*
X79203366Y-114520865D01*
X79390229Y-114213065D01*
X79608155Y-113931778D01*
X79854911Y-113678751D01*
X80128262Y-113455731D01*
X80425976Y-113264466D01*
X80745820Y-113106704D01*
X81085560Y-112984192D01*
X81442962Y-112898678D01*
X81575060Y-112877352D01*
X81667828Y-112864462D01*
X81744917Y-112854167D01*
X81796747Y-112847721D01*
X81813185Y-112846166D01*
X81816036Y-112866779D01*
X81818743Y-112926403D01*
X81821267Y-113021714D01*
X81823571Y-113149392D01*
X81825618Y-113306113D01*
X81827369Y-113488554D01*
X81828787Y-113693394D01*
X81829834Y-113917310D01*
X81830473Y-114156979D01*
X81830667Y-114385966D01*
X82148167Y-114385966D01*
X82148401Y-114134988D01*
X82149078Y-113896588D01*
X82150160Y-113674240D01*
X82151610Y-113471266D01*
X82153389Y-113290989D01*
X82155460Y-113136732D01*
X82157785Y-113011815D01*
X82160327Y-112919562D01*
X82163048Y-112863295D01*
X82165649Y-112846166D01*
X82192722Y-112848971D01*
X82252117Y-112856550D01*
X82334253Y-112867649D01*
X82403774Y-112877352D01*
X82766930Y-112949149D01*
X83112304Y-113058209D01*
X83437864Y-113202499D01*
X83741578Y-113379987D01*
X84021413Y-113588641D01*
X84275338Y-113826429D01*
X84501321Y-114091319D01*
X84697330Y-114381278D01*
X84861331Y-114694276D01*
X84991294Y-115028278D01*
X85085186Y-115381254D01*
X85122648Y-115596226D01*
X85150074Y-115935796D01*
X85473250Y-115935796D01*
X85473103Y-115835526D01*
X85436539Y-115479875D01*
X85364426Y-115129587D01*
X85257257Y-114787781D01*
X85115524Y-114457576D01*
X84939720Y-114142094D01*
X84730337Y-113844453D01*
X84487867Y-113567773D01*
X84212803Y-113315175D01*
X84190750Y-113297189D01*
X83884999Y-113076304D01*
X83561871Y-112892428D01*
X83224545Y-112745562D01*
X82876198Y-112635704D01*
X82520007Y-112562855D01*
X82159151Y-112527016D01*
X81796806Y-112528185D01*
G37*
X81796806Y-112528185D02*
X81436151Y-112566363D01*
X81080362Y-112641550D01*
X80732617Y-112753746D01*
X80396094Y-112902951D01*
X80073970Y-113089165D01*
X79788084Y-113297189D01*
X79512542Y-113546887D01*
X79264945Y-113826314D01*
X79047791Y-114131365D01*
X78863580Y-114457935D01*
X78714811Y-114801920D01*
X78603984Y-115159215D01*
X78573555Y-115291752D01*
X78516155Y-115666471D01*
X78499307Y-116037703D01*
X78521395Y-116402972D01*
X78580801Y-116759799D01*
X78675908Y-117105703D01*
X78805099Y-117438208D01*
X78966755Y-117754834D01*
X79159260Y-118053102D01*
X79380995Y-118330535D01*
X79630345Y-118584652D01*
X79905690Y-118812975D01*
X80205415Y-119013026D01*
X80527901Y-119182326D01*
X80871531Y-119318396D01*
X81234687Y-119418758D01*
X81271684Y-119426666D01*
X81346758Y-119440161D01*
X81444835Y-119454753D01*
X81557197Y-119469489D01*
X81675129Y-119483415D01*
X81789912Y-119495578D01*
X81892830Y-119505023D01*
X81975165Y-119510798D01*
X82028200Y-119511950D01*
X82040116Y-119510721D01*
X82065288Y-119507876D01*
X82123275Y-119502498D01*
X82204691Y-119495433D01*
X82275167Y-119489560D01*
X82657006Y-119437625D01*
X83025033Y-119346252D01*
X83377197Y-119216667D01*
X83711446Y-119050100D01*
X84025728Y-118847778D01*
X84317992Y-118610930D01*
X84567026Y-118360083D01*
X84097518Y-118360083D01*
X84006551Y-118442094D01*
X83832196Y-118580835D01*
X83625413Y-118714485D01*
X83396104Y-118837964D01*
X83154176Y-118946193D01*
X82909531Y-119034092D01*
X82779353Y-119071428D01*
X82673401Y-119096190D01*
X82549585Y-119120979D01*
X82421909Y-119143375D01*
X82304380Y-119160955D01*
X82211003Y-119171298D01*
X82195792Y-119172323D01*
X82148167Y-119175000D01*
X82148167Y-117793961D01*
X81830667Y-117793961D01*
X81830407Y-118031471D01*
X81829655Y-118256065D01*
X81828456Y-118464235D01*
X81826854Y-118652473D01*
X81824894Y-118817271D01*
X81822620Y-118955120D01*
X81820077Y-119062512D01*
X81817309Y-119135939D01*
X81814360Y-119171892D01*
X81813185Y-119175000D01*
X81786112Y-119172194D01*
X81726718Y-119164615D01*
X81644581Y-119153517D01*
X81575060Y-119143814D01*
X81270335Y-119085378D01*
X80969747Y-118998248D01*
X80680658Y-118885648D01*
X80410435Y-118750803D01*
X80166441Y-118596938D01*
X79972283Y-118442094D01*
X79881316Y-118360083D01*
X80855992Y-117386502D01*
X81830667Y-116412922D01*
X81830667Y-117793961D01*
X82148167Y-117793961D01*
X82148167Y-116412922D01*
X83122843Y-117386502D01*
X84097518Y-118360083D01*
X84567026Y-118360083D01*
X84586186Y-118340784D01*
X84828258Y-118038568D01*
X84918393Y-117907332D01*
X85105461Y-117585023D01*
X85254026Y-117249357D01*
X85364580Y-116903455D01*
X85437616Y-116550435D01*
X85473627Y-116193419D01*
X85473250Y-115935796D01*
X85150074Y-115935796D01*
X85138413Y-116279278D01*
X85089166Y-116621386D01*
X85003833Y-116956836D01*
X84883915Y-117280343D01*
X84730911Y-117586620D01*
X84546322Y-117870383D01*
X84438197Y-118007471D01*
X84342929Y-118120526D01*
X83245548Y-117023298D01*
X82148167Y-115926069D01*
X82148167Y-114386117D01*
X82148167Y-114385966D01*
X81830667Y-114385966D01*
X81830667Y-115925765D01*
X79639917Y-118118673D01*
X79557906Y-118027711D01*
X79505148Y-117964376D01*
X79442345Y-117882017D01*
X79382180Y-117797328D01*
X79376264Y-117788583D01*
X79188456Y-117472710D01*
X79039514Y-117143153D01*
X78929771Y-116802904D01*
X78859559Y-116454952D01*
X78829211Y-116102290D01*
X78839060Y-115747907D01*
X78889438Y-115394795D01*
X78980678Y-115045944D01*
X79049798Y-114853429D01*
X79203366Y-114520865D01*
X79390229Y-114213065D01*
X79608155Y-113931778D01*
X79854911Y-113678751D01*
X80128262Y-113455731D01*
X80425976Y-113264466D01*
X80745820Y-113106704D01*
X81085560Y-112984192D01*
X81442962Y-112898678D01*
X81575060Y-112877352D01*
X81667828Y-112864462D01*
X81744917Y-112854167D01*
X81796747Y-112847721D01*
X81813185Y-112846166D01*
X81816036Y-112866779D01*
X81818743Y-112926403D01*
X81821267Y-113021714D01*
X81823571Y-113149392D01*
X81825618Y-113306113D01*
X81827369Y-113488554D01*
X81828787Y-113693394D01*
X81829834Y-113917310D01*
X81830473Y-114156979D01*
X81830667Y-114385966D01*
X82148167Y-114385966D01*
X82148401Y-114134988D01*
X82149078Y-113896588D01*
X82150160Y-113674240D01*
X82151610Y-113471266D01*
X82153389Y-113290989D01*
X82155460Y-113136732D01*
X82157785Y-113011815D01*
X82160327Y-112919562D01*
X82163048Y-112863295D01*
X82165649Y-112846166D01*
X82192722Y-112848971D01*
X82252117Y-112856550D01*
X82334253Y-112867649D01*
X82403774Y-112877352D01*
X82766930Y-112949149D01*
X83112304Y-113058209D01*
X83437864Y-113202499D01*
X83741578Y-113379987D01*
X84021413Y-113588641D01*
X84275338Y-113826429D01*
X84501321Y-114091319D01*
X84697330Y-114381278D01*
X84861331Y-114694276D01*
X84991294Y-115028278D01*
X85085186Y-115381254D01*
X85122648Y-115596226D01*
X85150074Y-115935796D01*
X85473250Y-115935796D01*
X85473103Y-115835526D01*
X85436539Y-115479875D01*
X85364426Y-115129587D01*
X85257257Y-114787781D01*
X85115524Y-114457576D01*
X84939720Y-114142094D01*
X84730337Y-113844453D01*
X84487867Y-113567773D01*
X84212803Y-113315175D01*
X84190750Y-113297189D01*
X83884999Y-113076304D01*
X83561871Y-112892428D01*
X83224545Y-112745562D01*
X82876198Y-112635704D01*
X82520007Y-112562855D01*
X82159151Y-112527016D01*
X81796806Y-112528185D01*
G36*
X84654061Y-77739910D02*
G01*
X84573574Y-77764746D01*
X84518905Y-77805527D01*
X84495592Y-77835411D01*
X84485284Y-77885476D01*
X84476731Y-77992676D01*
X84470798Y-78141475D01*
X84468353Y-78316340D01*
X84468339Y-78324122D01*
X84474880Y-78586760D01*
X84496194Y-78783739D01*
X84533710Y-78920839D01*
X84588856Y-79003841D01*
X84643893Y-79034429D01*
X84697412Y-79041623D01*
X84811424Y-79051678D01*
X84973844Y-79063707D01*
X85172584Y-79076825D01*
X85395561Y-79090144D01*
X85430730Y-79092126D01*
X85657871Y-79105400D01*
X85864073Y-79118534D01*
X86036853Y-79130647D01*
X86163728Y-79140856D01*
X86232214Y-79148281D01*
X86236347Y-79149031D01*
X86304161Y-79195241D01*
X86342996Y-79281023D01*
X86345382Y-79376528D01*
X86310606Y-79445711D01*
X86280906Y-79466259D01*
X86233375Y-79478814D01*
X86156461Y-79483646D01*
X86038611Y-79481025D01*
X85868272Y-79471223D01*
X85706524Y-79459862D01*
X85426731Y-79440173D01*
X85209907Y-79427235D01*
X85046627Y-79421407D01*
X84927469Y-79423051D01*
X84843006Y-79432528D01*
X84783815Y-79450200D01*
X84740471Y-79476427D01*
X84716784Y-79497779D01*
X84685586Y-79532829D01*
X84664829Y-79573130D01*
X84653216Y-79631953D01*
X84649452Y-79722575D01*
X84652241Y-79858267D01*
X84660287Y-80052304D01*
X84661033Y-80068848D01*
X84670254Y-80272429D01*
X84682721Y-80432726D01*
X84706435Y-80555307D01*
X84749394Y-80645740D01*
X84819599Y-80709595D01*
X84925050Y-80752440D01*
X85073745Y-80779843D01*
X85273685Y-80797374D01*
X85532869Y-80810601D01*
X85739599Y-80819648D01*
X85943334Y-80830671D01*
X86123041Y-80844131D01*
X86265514Y-80858746D01*
X86357546Y-80873232D01*
X86384592Y-80882364D01*
X86414825Y-80943668D01*
X86429016Y-81048008D01*
X86427618Y-81167642D01*
X86411081Y-81274827D01*
X86379858Y-81341819D01*
X86377078Y-81344333D01*
X86338737Y-81360802D01*
X86266531Y-81369389D01*
X86150828Y-81370165D01*
X85981994Y-81363197D01*
X85753698Y-81348783D01*
X85430710Y-81326874D01*
X85172919Y-81312546D01*
X84973007Y-81308555D01*
X84823656Y-81317653D01*
X84717548Y-81342596D01*
X84647365Y-81386139D01*
X84605790Y-81451035D01*
X84585505Y-81540039D01*
X84579191Y-81655906D01*
X84579448Y-81790772D01*
X84584698Y-82063176D01*
X84599287Y-82271518D01*
X84628749Y-82424310D01*
X84678619Y-82530068D01*
X84754433Y-82597303D01*
X84861723Y-82634530D01*
X85006026Y-82650262D01*
X85140029Y-82653071D01*
X85311139Y-82656363D01*
X85525482Y-82664605D01*
X85753884Y-82676499D01*
X85939456Y-82688669D01*
X86266369Y-82711693D01*
X86586771Y-82732407D01*
X86892019Y-82750405D01*
X87173468Y-82765280D01*
X87422476Y-82776626D01*
X87630399Y-82784036D01*
X87788592Y-82787104D01*
X87888413Y-82785421D01*
X87917470Y-82781730D01*
X87980398Y-82737318D01*
X88047905Y-82655421D01*
X88061343Y-82634011D01*
X88100197Y-82587750D01*
X87858612Y-82587750D01*
X87498605Y-82566309D01*
X87370038Y-82558949D01*
X87181568Y-82548564D01*
X86945872Y-82535834D01*
X86675628Y-82521436D01*
X86383515Y-82506048D01*
X86082209Y-82490351D01*
X85993963Y-82485787D01*
X85713674Y-82471182D01*
X85457844Y-82457584D01*
X85235191Y-82445478D01*
X85054429Y-82435349D01*
X84924274Y-82427681D01*
X84853441Y-82422958D01*
X84842944Y-82421825D01*
X84838522Y-82385904D01*
X84831081Y-82291413D01*
X84821626Y-82152345D01*
X84811165Y-81982693D01*
X84810242Y-81966976D01*
X84783922Y-81517010D01*
X85325352Y-81541051D01*
X85562540Y-81551909D01*
X85817644Y-81564125D01*
X86061359Y-81576267D01*
X86264383Y-81586902D01*
X86279537Y-81587729D01*
X86692293Y-81610366D01*
X86665896Y-81141878D01*
X86655307Y-80965806D01*
X86645164Y-80818181D01*
X86636518Y-80712951D01*
X86630422Y-80664066D01*
X86629738Y-80662388D01*
X86592070Y-80656669D01*
X86494101Y-80647871D01*
X86348092Y-80636932D01*
X86166308Y-80624790D01*
X86025354Y-80616139D01*
X85800736Y-80602529D01*
X85579114Y-80588578D01*
X85380526Y-80575582D01*
X85225014Y-80564840D01*
X85172392Y-80560929D01*
X84914055Y-80540966D01*
X84890776Y-80265572D01*
X84878944Y-80100990D01*
X84870563Y-79937409D01*
X84867496Y-79813973D01*
X84870243Y-79708448D01*
X84885912Y-79656579D01*
X84925648Y-79639368D01*
X84970869Y-79637768D01*
X85048852Y-79640178D01*
X85183811Y-79646765D01*
X85360230Y-79656562D01*
X85562591Y-79668602D01*
X85775377Y-79681917D01*
X85983071Y-79695542D01*
X86170157Y-79708509D01*
X86321118Y-79719852D01*
X86406837Y-79727241D01*
X86583516Y-79744322D01*
X86569519Y-79366198D01*
X86562041Y-79207883D01*
X86552875Y-79078357D01*
X86543342Y-78993696D01*
X86536926Y-78969477D01*
X86496801Y-78962418D01*
X86394634Y-78952901D01*
X86240988Y-78941665D01*
X86046425Y-78929452D01*
X85821508Y-78917000D01*
X85701998Y-78910967D01*
X85461564Y-78898683D01*
X85242151Y-78886476D01*
X85055346Y-78875071D01*
X84912735Y-78865192D01*
X84825906Y-78857565D01*
X84808085Y-78855053D01*
X84765645Y-78833610D01*
X84733980Y-78782843D01*
X84711065Y-78693092D01*
X84694874Y-78554694D01*
X84683383Y-78357986D01*
X84678899Y-78238769D01*
X84669224Y-77948068D01*
X85013639Y-77958342D01*
X85249962Y-77966487D01*
X85513774Y-77977451D01*
X85795761Y-77990668D01*
X86086608Y-78005575D01*
X86377002Y-78021606D01*
X86657627Y-78038196D01*
X86919170Y-78054780D01*
X87152317Y-78070794D01*
X87347752Y-78085673D01*
X87496161Y-78098851D01*
X87588231Y-78109764D01*
X87614670Y-78116092D01*
X87630727Y-78164403D01*
X87646118Y-78279932D01*
X87660368Y-78457221D01*
X87673002Y-78690814D01*
X87679958Y-78865560D01*
X87690579Y-79145279D01*
X87704773Y-79485297D01*
X87721961Y-79873356D01*
X87741567Y-80297201D01*
X87763011Y-80744572D01*
X87785715Y-81203213D01*
X87809103Y-81660866D01*
X87832597Y-82105275D01*
X87833451Y-82121128D01*
X87858612Y-82587750D01*
X88100197Y-82587750D01*
X88134337Y-82547103D01*
X88213530Y-82507780D01*
X88281403Y-82522455D01*
X88302093Y-82545897D01*
X88342093Y-82576037D01*
X88433722Y-82630205D01*
X88563249Y-82700655D01*
X88713036Y-82777685D01*
X89103582Y-82948548D01*
X89510868Y-83081125D01*
X89920918Y-83172946D01*
X90319754Y-83221541D01*
X90693400Y-83224438D01*
X91008555Y-83183419D01*
X91402569Y-83067808D01*
X91746203Y-82900656D01*
X92038549Y-82682733D01*
X92278698Y-82414807D01*
X92465741Y-82097648D01*
X92555487Y-81874129D01*
X92611719Y-81717987D01*
X92657083Y-81618970D01*
X92699110Y-81563894D01*
X92745329Y-81539576D01*
X92746752Y-81539210D01*
X92811105Y-81534037D01*
X92864433Y-81561311D01*
X92913870Y-81630785D01*
X92966555Y-81752211D01*
X93023985Y-81918056D01*
X93177025Y-82270364D01*
X93393853Y-82593952D01*
X93669311Y-82883087D01*
X93998239Y-83132034D01*
X94240712Y-83270824D01*
X94488001Y-83373258D01*
X94803206Y-83464390D01*
X95182332Y-83543411D01*
X95621381Y-83609509D01*
X96116356Y-83661874D01*
X96204835Y-83669275D01*
X96404455Y-83685535D01*
X96594826Y-83701326D01*
X96755560Y-83714937D01*
X96866266Y-83724661D01*
X96873759Y-83725350D01*
X97072859Y-83717085D01*
X97177645Y-83682298D01*
X97259125Y-83648251D01*
X97321461Y-83644364D01*
X97397230Y-83672937D01*
X97453499Y-83701780D01*
X97536707Y-83737140D01*
X97646027Y-83766580D01*
X97794184Y-83792485D01*
X97993907Y-83817241D01*
X98158649Y-83833965D01*
X98399868Y-83856311D01*
X98579852Y-83867621D01*
X98709740Y-83863483D01*
X98800671Y-83839481D01*
X98863782Y-83791203D01*
X98910213Y-83714234D01*
X98951101Y-83604160D01*
X98981504Y-83507889D01*
X99030603Y-83365470D01*
X99079950Y-83247312D01*
X99121078Y-83172959D01*
X99131685Y-83161131D01*
X99166095Y-83143712D01*
X99225053Y-83134171D01*
X99319360Y-83132505D01*
X99459818Y-83138710D01*
X99657226Y-83152784D01*
X99758797Y-83160966D01*
X99960678Y-83179034D01*
X100141760Y-83197947D01*
X100287431Y-83215974D01*
X100383080Y-83231384D01*
X100408711Y-83237978D01*
X100453895Y-83270506D01*
X100496565Y-83339657D01*
X100542860Y-83457777D01*
X100586572Y-83595623D01*
X100652019Y-83793350D01*
X100714545Y-83930340D01*
X100782130Y-84017707D01*
X100862752Y-84066569D01*
X100937668Y-84084792D01*
X101096567Y-84104308D01*
X101281671Y-84121461D01*
X101477939Y-84135527D01*
X101670326Y-84145781D01*
X101843791Y-84151501D01*
X101983291Y-84151962D01*
X102073783Y-84146441D01*
X102097218Y-84140590D01*
X102188806Y-84059472D01*
X102221379Y-83942622D01*
X102219536Y-83930176D01*
X102018855Y-83930176D01*
X101992932Y-83949165D01*
X101912298Y-83956939D01*
X101772657Y-83953396D01*
X101569713Y-83938431D01*
X101310272Y-83913111D01*
X100910558Y-83871101D01*
X100782282Y-83489556D01*
X100728815Y-83331213D01*
X100682951Y-83196666D01*
X100650176Y-83101928D01*
X100636932Y-83065224D01*
X100613824Y-83050346D01*
X100552775Y-83034489D01*
X100448729Y-83017052D01*
X100296633Y-82997430D01*
X100091430Y-82975021D01*
X99828065Y-82949222D01*
X99501485Y-82919431D01*
X99176387Y-82891033D01*
X98968396Y-82873129D01*
X98845306Y-83263102D01*
X98780551Y-83453884D01*
X98726577Y-83582826D01*
X98685094Y-83646093D01*
X98671751Y-83652158D01*
X98533589Y-83647350D01*
X98366997Y-83638099D01*
X98186863Y-83625664D01*
X98008072Y-83611308D01*
X97845509Y-83596293D01*
X97714061Y-83581879D01*
X97628613Y-83569330D01*
X97603451Y-83561612D01*
X97607072Y-83516278D01*
X97632742Y-83422786D01*
X97675097Y-83300283D01*
X97681097Y-83284409D01*
X97745274Y-83110106D01*
X97813508Y-82915478D01*
X97858474Y-82780972D01*
X97895348Y-82670688D01*
X97951865Y-82506228D01*
X98023068Y-82301800D01*
X98103998Y-82071612D01*
X98189698Y-81829873D01*
X98219837Y-81745350D01*
X98306166Y-81502893D01*
X98389672Y-81267029D01*
X98465356Y-81051971D01*
X98528224Y-80871934D01*
X98573278Y-80741132D01*
X98583876Y-80709728D01*
X98635221Y-80558443D01*
X98698029Y-80376975D01*
X98768155Y-80176904D01*
X98841451Y-79969814D01*
X98913773Y-79767286D01*
X98980975Y-79580901D01*
X99038910Y-79422244D01*
X99083432Y-79302894D01*
X99110396Y-79234436D01*
X99116158Y-79222739D01*
X99155207Y-79221746D01*
X99252399Y-79227565D01*
X99393666Y-79238804D01*
X99564942Y-79254067D01*
X99752159Y-79271961D01*
X99941249Y-79291092D01*
X100118146Y-79310064D01*
X100268782Y-79327485D01*
X100379089Y-79341960D01*
X100435001Y-79352094D01*
X100438873Y-79353827D01*
X100455935Y-79392665D01*
X100490153Y-79485889D01*
X100536263Y-79618754D01*
X100579900Y-79748891D01*
X100633272Y-79908020D01*
X100704309Y-80116406D01*
X100786392Y-80354810D01*
X100872900Y-80603993D01*
X100948072Y-80818741D01*
X101032424Y-81059791D01*
X101117737Y-81305645D01*
X101197544Y-81537518D01*
X101265376Y-81736622D01*
X101310924Y-81872532D01*
X101361733Y-82023849D01*
X101431332Y-82227724D01*
X101514179Y-82468235D01*
X101604731Y-82729458D01*
X101697446Y-82995472D01*
X101786781Y-83250354D01*
X101867193Y-83478182D01*
X101933139Y-83663032D01*
X101960794Y-83739404D01*
X101995515Y-83840837D01*
X102016263Y-83913709D01*
X102018855Y-83930176D01*
X102219536Y-83930176D01*
X102199430Y-83794447D01*
X102174849Y-83684579D01*
X102179109Y-83617051D01*
X102200339Y-83580646D01*
X102258469Y-83542826D01*
X102333624Y-83526938D01*
X102396546Y-83535238D01*
X102418569Y-83563814D01*
X102446906Y-83623110D01*
X102522600Y-83709476D01*
X102631677Y-83810992D01*
X102760163Y-83915736D01*
X102894085Y-84011791D01*
X103019466Y-84087235D01*
X103050226Y-84102612D01*
X103195000Y-84167316D01*
X103338761Y-84222395D01*
X103490059Y-84269265D01*
X103657446Y-84309343D01*
X103849472Y-84344045D01*
X104074691Y-84374789D01*
X104341652Y-84402989D01*
X104658907Y-84430064D01*
X105035007Y-84457429D01*
X105297855Y-84474926D01*
X105536894Y-84490036D01*
X105714183Y-84499649D01*
X105840466Y-84503451D01*
X105926483Y-84501130D01*
X105982976Y-84492370D01*
X106020686Y-84476860D01*
X106050355Y-84454286D01*
X106051861Y-84452929D01*
X106068973Y-84435444D01*
X106083185Y-84412466D01*
X106094766Y-84377578D01*
X106103987Y-84324362D01*
X106111114Y-84246399D01*
X106116418Y-84137270D01*
X106120167Y-83990559D01*
X106122630Y-83799846D01*
X106122905Y-83753895D01*
X105937658Y-83753895D01*
X105937335Y-83964735D01*
X105936173Y-84125856D01*
X105934100Y-84229608D01*
X105931310Y-84267865D01*
X105925973Y-84284419D01*
X105919225Y-84297593D01*
X105904090Y-84307029D01*
X105873596Y-84312373D01*
X105820769Y-84313269D01*
X105738634Y-84309361D01*
X105620217Y-84300294D01*
X105458546Y-84285712D01*
X105246645Y-84265258D01*
X104977542Y-84238578D01*
X104644261Y-84205315D01*
X104580658Y-84198974D01*
X104196219Y-84157455D01*
X103875626Y-84114556D01*
X103610065Y-84067410D01*
X103390723Y-84013150D01*
X103208785Y-83948909D01*
X103055438Y-83871822D01*
X102921869Y-83779021D01*
X102799262Y-83667639D01*
X102734207Y-83598421D01*
X102619394Y-83447804D01*
X102529865Y-83287390D01*
X102504968Y-83225027D01*
X102463249Y-83041496D01*
X102442319Y-82818562D01*
X102442777Y-82586634D01*
X102465219Y-82376121D01*
X102486457Y-82282851D01*
X102573392Y-82092363D01*
X102710629Y-81914517D01*
X102876960Y-81774922D01*
X102934758Y-81741543D01*
X103079762Y-81667568D01*
X102929401Y-81538865D01*
X102764198Y-81356180D01*
X102649942Y-81143006D01*
X102585180Y-80910792D01*
X102568461Y-80670983D01*
X102598333Y-80435029D01*
X102673345Y-80214375D01*
X102792046Y-80020469D01*
X102952984Y-79864760D01*
X103154707Y-79758693D01*
X103155138Y-79758543D01*
X103243082Y-79732471D01*
X103342260Y-79714184D01*
X103466711Y-79702552D01*
X103630479Y-79696443D01*
X103847605Y-79694728D01*
X103944750Y-79694983D01*
X104110368Y-79697965D01*
X104312074Y-79705104D01*
X104538577Y-79715634D01*
X104778588Y-79728790D01*
X105020818Y-79743807D01*
X105253976Y-79759921D01*
X105466774Y-79776367D01*
X105647923Y-79792381D01*
X105786132Y-79807196D01*
X105870112Y-79820049D01*
X105890071Y-79826771D01*
X105893816Y-79865442D01*
X105897787Y-79969137D01*
X105901912Y-80130208D01*
X105906122Y-80341004D01*
X105910345Y-80593877D01*
X105914509Y-80881177D01*
X105918545Y-81195254D01*
X105922380Y-81528458D01*
X105925945Y-81873141D01*
X105929167Y-82221651D01*
X105931975Y-82566341D01*
X105934300Y-82899560D01*
X105936069Y-83213658D01*
X105937212Y-83500986D01*
X105937658Y-83753895D01*
X106122905Y-83753895D01*
X106124076Y-83558713D01*
X106124774Y-83260742D01*
X106124993Y-82899515D01*
X106125007Y-82707115D01*
X106124942Y-82298327D01*
X106125290Y-81956491D01*
X106126864Y-81675885D01*
X106130478Y-81450786D01*
X106136946Y-81275471D01*
X106147079Y-81144220D01*
X106161694Y-81051308D01*
X106181601Y-80991015D01*
X106207617Y-80957617D01*
X106240552Y-80945392D01*
X106281222Y-80948618D01*
X106330440Y-80961573D01*
X106371439Y-80973659D01*
X106457471Y-80991064D01*
X106598022Y-81011610D01*
X106775141Y-81032979D01*
X106970877Y-81052850D01*
X107015279Y-81056845D01*
X107202242Y-81075198D01*
X107364404Y-81094776D01*
X107487379Y-81113567D01*
X107556786Y-81129562D01*
X107565241Y-81133690D01*
X107576368Y-81169325D01*
X107586667Y-81259955D01*
X107596243Y-81408293D01*
X107605204Y-81617051D01*
X107613657Y-81888941D01*
X107621706Y-82226677D01*
X107629460Y-82632969D01*
X107633395Y-82871289D01*
X107639608Y-83280359D01*
X107644988Y-83622842D01*
X107650688Y-83904797D01*
X107657862Y-84132284D01*
X107667662Y-84311364D01*
X107681242Y-84448096D01*
X107699754Y-84548540D01*
X107724352Y-84618757D01*
X107756189Y-84664807D01*
X107796418Y-84692749D01*
X107846193Y-84708645D01*
X107906666Y-84718553D01*
X107978990Y-84728535D01*
X107987036Y-84729789D01*
X108103316Y-84744415D01*
X108267852Y-84760177D01*
X108456300Y-84774917D01*
X108598880Y-84784015D01*
X108729858Y-84793484D01*
X108839579Y-84801888D01*
X108929911Y-84803460D01*
X109002721Y-84792430D01*
X109059875Y-84763032D01*
X109103240Y-84709497D01*
X109134682Y-84626058D01*
X109156069Y-84506946D01*
X109169267Y-84346394D01*
X109176144Y-84138633D01*
X109178565Y-83877896D01*
X109178397Y-83558415D01*
X109177507Y-83174421D01*
X109177368Y-82996596D01*
X109177618Y-82602953D01*
X109178507Y-82275789D01*
X109180236Y-82008909D01*
X109183011Y-81796120D01*
X109187034Y-81631225D01*
X109192509Y-81508030D01*
X109199641Y-81420340D01*
X109208633Y-81361961D01*
X109219688Y-81326698D01*
X109232889Y-81308456D01*
X109280983Y-81287000D01*
X109366335Y-81278158D01*
X109501543Y-81281402D01*
X109641688Y-81291321D01*
X109841453Y-81305687D01*
X110058023Y-81318120D01*
X110252119Y-81326433D01*
X110295542Y-81327687D01*
X110437295Y-81334117D01*
X110550144Y-81344697D01*
X110615132Y-81357465D01*
X110622581Y-81361545D01*
X110628120Y-81402153D01*
X110633676Y-81508206D01*
X110639097Y-81672474D01*
X110644233Y-81887726D01*
X110648933Y-82146733D01*
X110653047Y-82442263D01*
X110656423Y-82767087D01*
X110658844Y-83101822D01*
X110668646Y-84815663D01*
X110749688Y-84896078D01*
X110788529Y-84927384D01*
X110841719Y-84952343D01*
X110920977Y-84973407D01*
X111038022Y-84993030D01*
X111204572Y-85013664D01*
X111421217Y-85036630D01*
X111642527Y-85058601D01*
X111803625Y-85072492D01*
X111916521Y-85078316D01*
X111993225Y-85076082D01*
X112045749Y-85065802D01*
X112086103Y-85047486D01*
X112102547Y-85037246D01*
X112143879Y-85006208D01*
X112170302Y-84968123D01*
X112185142Y-84907463D01*
X112191721Y-84808702D01*
X112193362Y-84656312D01*
X112193390Y-84612796D01*
X112197724Y-84405867D01*
X112212822Y-84261533D01*
X112241829Y-84170117D01*
X112287892Y-84121939D01*
X112354154Y-84107320D01*
X112357665Y-84107296D01*
X112414801Y-84120255D01*
X112466649Y-84168406D01*
X112526172Y-84265657D01*
X112552417Y-84316237D01*
X112736148Y-84601757D01*
X112972303Y-84837915D01*
X113258052Y-85022559D01*
X113590563Y-85153536D01*
X113686980Y-85179175D01*
X113769086Y-85194075D01*
X113911788Y-85214785D01*
X114103355Y-85239985D01*
X114332060Y-85268353D01*
X114586173Y-85298570D01*
X114853965Y-85329315D01*
X115123706Y-85359267D01*
X115383668Y-85387105D01*
X115622121Y-85411510D01*
X115827337Y-85431160D01*
X115987585Y-85444734D01*
X116091138Y-85450913D01*
X116102435Y-85451135D01*
X116180646Y-85426100D01*
X116253505Y-85370028D01*
X116269012Y-85351732D01*
X116282325Y-85329219D01*
X116293688Y-85296952D01*
X116303343Y-85249393D01*
X116311533Y-85181003D01*
X116318503Y-85086246D01*
X116324494Y-84959582D01*
X116329750Y-84795474D01*
X116334515Y-84588384D01*
X116339031Y-84332774D01*
X116343542Y-84023106D01*
X116348291Y-83653842D01*
X116353521Y-83219445D01*
X116355574Y-83045584D01*
X116361140Y-82567395D01*
X116365512Y-82156575D01*
X116368349Y-81807824D01*
X116369177Y-81557262D01*
X116133825Y-81557262D01*
X116133463Y-81865764D01*
X116132231Y-82209124D01*
X116130119Y-82581039D01*
X116127117Y-82975209D01*
X116126810Y-83010771D01*
X116107362Y-85239139D01*
X115940004Y-85217379D01*
X115858339Y-85208084D01*
X115716155Y-85193321D01*
X115525307Y-85174262D01*
X115297649Y-85152076D01*
X115045033Y-85127934D01*
X114827868Y-85107527D01*
X114476836Y-85073099D01*
X114188378Y-85040199D01*
X113952494Y-85006525D01*
X113759186Y-84969778D01*
X113598454Y-84927658D01*
X113460297Y-84877863D01*
X113334717Y-84818093D01*
X113211712Y-84746049D01*
X113186503Y-84729941D01*
X112973299Y-84551194D01*
X112801909Y-84324371D01*
X112685599Y-84068226D01*
X112664100Y-83991283D01*
X112633543Y-83771039D01*
X112636591Y-83530598D01*
X112670720Y-83297617D01*
X112733404Y-83099756D01*
X112748341Y-83068402D01*
X112848311Y-82911009D01*
X112971386Y-82773639D01*
X113100005Y-82673506D01*
X113193342Y-82632208D01*
X113260901Y-82608893D01*
X113283519Y-82590842D01*
X113258443Y-82558770D01*
X113193419Y-82494738D01*
X113122170Y-82430084D01*
X112967460Y-82251494D01*
X112866520Y-82032890D01*
X112817156Y-81768547D01*
X112811130Y-81618168D01*
X112834320Y-81330476D01*
X112905962Y-81093458D01*
X113029169Y-80903795D01*
X113207050Y-80758165D01*
X113442717Y-80653250D01*
X113739280Y-80585728D01*
X113784527Y-80579245D01*
X113883384Y-80568260D01*
X113988095Y-80562370D01*
X114109089Y-80562039D01*
X114256797Y-80567731D01*
X114441648Y-80579911D01*
X114674073Y-80599042D01*
X114964502Y-80625588D01*
X115086596Y-80637176D01*
X115350385Y-80663142D01*
X115590240Y-80688199D01*
X115796721Y-80711244D01*
X115960387Y-80731175D01*
X116071800Y-80746890D01*
X116121520Y-80757285D01*
X116122971Y-80758201D01*
X116126795Y-80797880D01*
X116129803Y-80903928D01*
X116131984Y-81070042D01*
X116133328Y-81289921D01*
X116133825Y-81557262D01*
X116369177Y-81557262D01*
X116369315Y-81515839D01*
X116368072Y-81275320D01*
X116364281Y-81080967D01*
X116357606Y-80927476D01*
X116347707Y-80809549D01*
X116334247Y-80721883D01*
X116316889Y-80659178D01*
X116295294Y-80616132D01*
X116269125Y-80587444D01*
X116238043Y-80567814D01*
X116201710Y-80551940D01*
X116196496Y-80549840D01*
X116104011Y-80525610D01*
X115950925Y-80500376D01*
X115749286Y-80475128D01*
X115511141Y-80450858D01*
X115248536Y-80428558D01*
X114973520Y-80409217D01*
X114698140Y-80393829D01*
X114434442Y-80383382D01*
X114194475Y-80378870D01*
X114118501Y-80378875D01*
X113481808Y-80382689D01*
X113241224Y-80501138D01*
X113001180Y-80648962D01*
X112820805Y-80830147D01*
X112691078Y-81054320D01*
X112667156Y-81113772D01*
X112609481Y-81344202D01*
X112590695Y-81604455D01*
X112609750Y-81868182D01*
X112665598Y-82109036D01*
X112711202Y-82221361D01*
X112778615Y-82374690D01*
X112803935Y-82491220D01*
X112786158Y-82594098D01*
X112724280Y-82706468D01*
X112687925Y-82757935D01*
X112606365Y-82880272D01*
X112535198Y-83005249D01*
X112508091Y-83062589D01*
X112457974Y-83155830D01*
X112400047Y-83194536D01*
X112360042Y-83198855D01*
X112271038Y-83171300D01*
X112231007Y-83128569D01*
X112220335Y-83071331D01*
X112211290Y-82944443D01*
X112203951Y-82750911D01*
X112200574Y-82594522D01*
X112011702Y-82594522D01*
X112011702Y-82617453D01*
X112011275Y-83014631D01*
X112010044Y-83389452D01*
X112008083Y-83735741D01*
X112005467Y-84047324D01*
X112002271Y-84318025D01*
X111998570Y-84541672D01*
X111994438Y-84712088D01*
X111989950Y-84823100D01*
X111985181Y-84868533D01*
X111984449Y-84869310D01*
X111940236Y-84865362D01*
X111837573Y-84855260D01*
X111690296Y-84840393D01*
X111512239Y-84822148D01*
X111448469Y-84815559D01*
X111263230Y-84796518D01*
X111104162Y-84780431D01*
X110985099Y-84768677D01*
X110919874Y-84762634D01*
X110912489Y-84762128D01*
X110907683Y-84726685D01*
X110903147Y-84624749D01*
X110898956Y-84462503D01*
X110895185Y-84246129D01*
X110891909Y-83981810D01*
X110889202Y-83675728D01*
X110887139Y-83334066D01*
X110885795Y-82963006D01*
X110885245Y-82568730D01*
X110885236Y-82509349D01*
X110885236Y-80257324D01*
X110985164Y-80274095D01*
X111065568Y-80284781D01*
X111196089Y-80299208D01*
X111357488Y-80315564D01*
X111530522Y-80332036D01*
X111695951Y-80346812D01*
X111834533Y-80358081D01*
X111927026Y-80364030D01*
X111945338Y-80364520D01*
X111958906Y-80367091D01*
X111970490Y-80378346D01*
X111980246Y-80403596D01*
X111988331Y-80448154D01*
X111994901Y-80517332D01*
X112000113Y-80616442D01*
X112004122Y-80750796D01*
X112007086Y-80925706D01*
X112009161Y-81146484D01*
X112010504Y-81418443D01*
X112011271Y-81746894D01*
X112011618Y-82137149D01*
X112011702Y-82594522D01*
X112200574Y-82594522D01*
X112198397Y-82493745D01*
X112194708Y-82175952D01*
X112192964Y-81800540D01*
X112192834Y-81684148D01*
X112192024Y-81374223D01*
X112189958Y-81086645D01*
X112186795Y-80829636D01*
X112182692Y-80611416D01*
X112177808Y-80440205D01*
X112172303Y-80324226D01*
X112166333Y-80271699D01*
X112165581Y-80270032D01*
X112123892Y-80227422D01*
X110376509Y-80227422D01*
X110376509Y-80677516D01*
X110374485Y-80877965D01*
X110367859Y-81014054D01*
X110355801Y-81094002D01*
X110337483Y-81126025D01*
X110331087Y-81127522D01*
X110260163Y-81124497D01*
X110133698Y-81116443D01*
X109968548Y-81104678D01*
X109781569Y-81090520D01*
X109589618Y-81075284D01*
X109409550Y-81060288D01*
X109258224Y-81046849D01*
X109152493Y-81036283D01*
X109131946Y-81033840D01*
X108959342Y-81011778D01*
X108959342Y-84599606D01*
X108420028Y-84548014D01*
X107880714Y-84496423D01*
X107856859Y-83384334D01*
X107850512Y-83064108D01*
X107844795Y-82729014D01*
X107839945Y-82396632D01*
X107836195Y-82084544D01*
X107833782Y-81810329D01*
X107832939Y-81595597D01*
X107832875Y-80918948D01*
X107660272Y-80897505D01*
X107559896Y-80886413D01*
X107406284Y-80871104D01*
X107218621Y-80853421D01*
X107016091Y-80835207D01*
X106969857Y-80831174D01*
X106452046Y-80786286D01*
X106451646Y-80493643D01*
X106449046Y-80335813D01*
X106442554Y-80189535D01*
X106433498Y-80083447D01*
X106432159Y-80073819D01*
X106426812Y-79977449D01*
X106439083Y-79910858D01*
X106441644Y-79906614D01*
X106475095Y-79896250D01*
X106558223Y-79893555D01*
X106695420Y-79898782D01*
X106891074Y-79912184D01*
X107149575Y-79934014D01*
X107475315Y-79964524D01*
X107516311Y-79968505D01*
X107835656Y-79998969D01*
X108177703Y-80030472D01*
X108522361Y-80061240D01*
X108849540Y-80089501D01*
X109139147Y-80113481D01*
X109315023Y-80127244D01*
X109552159Y-80145628D01*
X109774238Y-80163734D01*
X109967498Y-80180371D01*
X110118174Y-80194348D01*
X110212504Y-80204474D01*
X110222074Y-80205744D01*
X110376509Y-80227422D01*
X112123892Y-80227422D01*
X112123426Y-80226946D01*
X112054167Y-80191755D01*
X111947763Y-80162019D01*
X111794174Y-80135293D01*
X111583361Y-80109136D01*
X111444425Y-80094612D01*
X111230173Y-80074097D01*
X111075035Y-80062221D01*
X110965965Y-80058965D01*
X110889920Y-80064305D01*
X110833857Y-80078220D01*
X110798538Y-80093537D01*
X110709868Y-80132703D01*
X110639902Y-80141558D01*
X110559076Y-80118591D01*
X110467353Y-80076591D01*
X110420857Y-80058860D01*
X110352149Y-80041225D01*
X110255308Y-80022956D01*
X110124410Y-80003324D01*
X109953532Y-79981600D01*
X109736753Y-79957053D01*
X109468148Y-79928954D01*
X109141796Y-79896574D01*
X108751774Y-79859182D01*
X108541459Y-79839358D01*
X108081666Y-79796536D01*
X107689014Y-79760810D01*
X107358348Y-79731880D01*
X107084511Y-79709446D01*
X106862347Y-79693208D01*
X106686699Y-79682867D01*
X106552412Y-79678122D01*
X106454329Y-79678673D01*
X106387295Y-79684222D01*
X106346151Y-79694467D01*
X106325744Y-79709110D01*
X106324864Y-79710443D01*
X106266675Y-79742839D01*
X106172155Y-79739960D01*
X106066951Y-79704479D01*
X106023607Y-79679037D01*
X105952677Y-79652596D01*
X105820243Y-79624141D01*
X105637414Y-79594683D01*
X105415299Y-79565232D01*
X105165005Y-79536800D01*
X104897642Y-79510396D01*
X104624318Y-79487030D01*
X104356142Y-79467715D01*
X104104222Y-79453460D01*
X103879667Y-79445275D01*
X103693585Y-79444172D01*
X103557086Y-79451161D01*
X103540346Y-79453129D01*
X103208965Y-79520842D01*
X102935044Y-79630519D01*
X102715310Y-79784205D01*
X102546492Y-79983948D01*
X102470316Y-80122356D01*
X102430192Y-80218161D01*
X102404424Y-80311593D01*
X102389995Y-80422944D01*
X102383885Y-80572503D01*
X102382942Y-80709728D01*
X102385065Y-80898024D01*
X102393434Y-81033961D01*
X102411045Y-81137781D01*
X102440895Y-81229727D01*
X102469696Y-81295762D01*
X102524220Y-81402632D01*
X102572956Y-81480949D01*
X102596523Y-81506847D01*
X102634130Y-81564595D01*
X102609424Y-81654300D01*
X102524251Y-81775047D01*
X102376920Y-81999185D01*
X102275038Y-82268972D01*
X102216447Y-82590746D01*
X102206318Y-82708297D01*
X102194704Y-82873238D01*
X102183215Y-82979271D01*
X102167558Y-83040032D01*
X102143437Y-83069153D01*
X102106558Y-83080269D01*
X102088420Y-83082595D01*
X102004247Y-83074268D01*
X101958162Y-83046257D01*
X101938625Y-83002197D01*
X101898668Y-82897111D01*
X101841079Y-82738843D01*
X101768645Y-82535237D01*
X101684153Y-82294139D01*
X101590392Y-82023392D01*
X101490148Y-81730841D01*
X101476522Y-81690844D01*
X101369546Y-81377496D01*
X101263623Y-81068874D01*
X101162511Y-80775816D01*
X101069971Y-80509160D01*
X100989763Y-80279743D01*
X100925647Y-80098402D01*
X100884248Y-79983733D01*
X100820892Y-79807301D01*
X100763237Y-79638817D01*
X100718462Y-79499714D01*
X100696752Y-79424033D01*
X100668172Y-79329480D01*
X100629774Y-79256011D01*
X100572026Y-79199675D01*
X100485397Y-79156525D01*
X100360356Y-79122611D01*
X100187370Y-79093984D01*
X99956908Y-79066695D01*
X99793976Y-79050007D01*
X99534740Y-79025715D01*
X99338464Y-79011064D01*
X99196115Y-79005745D01*
X99098661Y-79009447D01*
X99037071Y-79021862D01*
X99031656Y-79023925D01*
X98989571Y-79044335D01*
X98954718Y-79074397D01*
X98921516Y-79125326D01*
X98884383Y-79208334D01*
X98837740Y-79334634D01*
X98776005Y-79515441D01*
X98753281Y-79583261D01*
X98719458Y-79682126D01*
X98665897Y-79835921D01*
X98597342Y-80031151D01*
X98518539Y-80254318D01*
X98434232Y-80491927D01*
X98401972Y-80582546D01*
X98319557Y-80814921D01*
X98243545Y-81031305D01*
X98178014Y-81219926D01*
X98127040Y-81369012D01*
X98094703Y-81466789D01*
X98087297Y-81490987D01*
X98060372Y-81575216D01*
X98014432Y-81708641D01*
X97956074Y-81872446D01*
X97896252Y-82036051D01*
X97825789Y-82228945D01*
X97755356Y-82426254D01*
X97694143Y-82602006D01*
X97658422Y-82708297D01*
X97603947Y-82866951D01*
X97559348Y-82968169D01*
X97515184Y-83024575D01*
X97462012Y-83048793D01*
X97400220Y-83053505D01*
X97317427Y-83037235D01*
X97280631Y-82978914D01*
X97278985Y-82971745D01*
X97275419Y-82920631D01*
X97271567Y-82803872D01*
X97267540Y-82628497D01*
X97263447Y-82401535D01*
X97259399Y-82130015D01*
X97255506Y-81820966D01*
X97251877Y-81481417D01*
X97251656Y-81456744D01*
X97048418Y-81456744D01*
X97048288Y-81801992D01*
X97047398Y-82136031D01*
X97045736Y-82451300D01*
X97043288Y-82740237D01*
X97040044Y-82995281D01*
X97035990Y-83208872D01*
X97031114Y-83373447D01*
X97025404Y-83481446D01*
X97018847Y-83525307D01*
X97017943Y-83525904D01*
X96971553Y-83522275D01*
X96863516Y-83512098D01*
X96704460Y-83496428D01*
X96505014Y-83476321D01*
X96275807Y-83452833D01*
X96127671Y-83437479D01*
X95697961Y-83389593D01*
X95332305Y-83340723D01*
X95022109Y-83287976D01*
X94758777Y-83228458D01*
X94533715Y-83159275D01*
X94338327Y-83077534D01*
X94164017Y-82980340D01*
X94002191Y-82864800D01*
X93844253Y-82728021D01*
X93750342Y-82637115D01*
X93522559Y-82382770D01*
X93346871Y-82121595D01*
X93216969Y-81839139D01*
X93126546Y-81520950D01*
X93069294Y-81152575D01*
X93063453Y-81092663D01*
X92491890Y-81092663D01*
X92442592Y-81479345D01*
X92340595Y-81834366D01*
X92187437Y-82149930D01*
X92004301Y-82396889D01*
X91751773Y-82631716D01*
X91468850Y-82807041D01*
X91147190Y-82926969D01*
X90790529Y-82994225D01*
X90626888Y-83001793D01*
X90414525Y-82994970D01*
X90175567Y-82975547D01*
X89932144Y-82945313D01*
X89710242Y-82906849D01*
X89299072Y-82794364D01*
X88884309Y-82627730D01*
X88664778Y-82516710D01*
X88483090Y-82417409D01*
X88464921Y-81345543D01*
X88460916Y-81073453D01*
X88458423Y-80825188D01*
X88457443Y-80609969D01*
X88457976Y-80437018D01*
X88460022Y-80315558D01*
X88463580Y-80254810D01*
X88464921Y-80249831D01*
X88502437Y-80248746D01*
X88599964Y-80253715D01*
X88745190Y-80263666D01*
X88925803Y-80277527D01*
X89129488Y-80294227D01*
X89343933Y-80312693D01*
X89556825Y-80331855D01*
X89755850Y-80350641D01*
X89928696Y-80367979D01*
X90063050Y-80382797D01*
X90146598Y-80394024D01*
X90164935Y-80397791D01*
X90168231Y-80432942D01*
X90169178Y-80525747D01*
X90167777Y-80661223D01*
X90164935Y-80791424D01*
X90154621Y-81181990D01*
X90009270Y-81172250D01*
X89878252Y-81161352D01*
X89730077Y-81146142D01*
X89690132Y-81141487D01*
X89516344Y-81120465D01*
X89526613Y-81547412D01*
X89536881Y-81974359D01*
X89682232Y-82028738D01*
X89810645Y-82059289D01*
X89997870Y-82079196D01*
X90209127Y-82086837D01*
X90384280Y-82087146D01*
X90507469Y-82081521D01*
X90599372Y-82066216D01*
X90680665Y-82037486D01*
X90772028Y-81991587D01*
X90790529Y-81981545D01*
X90999051Y-81828798D01*
X91157238Y-81625132D01*
X91265431Y-81369818D01*
X91323972Y-81062130D01*
X91335594Y-80819780D01*
X91308087Y-80437899D01*
X91226631Y-80104302D01*
X91092818Y-79820406D01*
X90908244Y-79587629D01*
X90674503Y-79407386D01*
X90393188Y-79281096D01*
X90065895Y-79210175D01*
X89694217Y-79196040D01*
X89521897Y-79207701D01*
X89334877Y-79235340D01*
X89131745Y-79279976D01*
X88964978Y-79329188D01*
X88829803Y-79376779D01*
X88716095Y-79416573D01*
X88645818Y-79440886D01*
X88640646Y-79442634D01*
X88615096Y-79444084D01*
X88597074Y-79421020D01*
X88584686Y-79362463D01*
X88576035Y-79257437D01*
X88569226Y-79094963D01*
X88566681Y-79014366D01*
X88563667Y-78803720D01*
X88568472Y-78645628D01*
X88580715Y-78547713D01*
X88591432Y-78521064D01*
X88642721Y-78491196D01*
X88745107Y-78451473D01*
X88879074Y-78409217D01*
X88919761Y-78397882D01*
X89052034Y-78365626D01*
X89181058Y-78343469D01*
X89325076Y-78329772D01*
X89502331Y-78322900D01*
X89731064Y-78321215D01*
X89773076Y-78321316D01*
X90095553Y-78328776D01*
X90365464Y-78351615D01*
X90602055Y-78394057D01*
X90824574Y-78460332D01*
X91052269Y-78554665D01*
X91226829Y-78640580D01*
X91407140Y-78740758D01*
X91554249Y-78842325D01*
X91694893Y-78965745D01*
X91824498Y-79097974D01*
X92058948Y-79379717D01*
X92233171Y-79668851D01*
X92358264Y-79986720D01*
X92426248Y-80255508D01*
X92486955Y-80682118D01*
X92491890Y-81092663D01*
X93063453Y-81092663D01*
X93059774Y-81054935D01*
X93056283Y-80797462D01*
X93084020Y-80513166D01*
X93138280Y-80230203D01*
X93214357Y-79976732D01*
X93257169Y-79873962D01*
X93395222Y-79640727D01*
X93578796Y-79417962D01*
X93785453Y-79231360D01*
X93870052Y-79172281D01*
X94045505Y-79074116D01*
X94233764Y-78997541D01*
X94443088Y-78941726D01*
X94681735Y-78905840D01*
X94957963Y-78889055D01*
X95280030Y-78890539D01*
X95656193Y-78909464D01*
X96094712Y-78944999D01*
X96113991Y-78946785D01*
X96358325Y-78970346D01*
X96578270Y-78993157D01*
X96763581Y-79014023D01*
X96904010Y-79031752D01*
X96989310Y-79045150D01*
X97010631Y-79051212D01*
X97017423Y-79092688D01*
X97023578Y-79198566D01*
X97029084Y-79361285D01*
X97033928Y-79573285D01*
X97038099Y-79827004D01*
X97041584Y-80114881D01*
X97044371Y-80429355D01*
X97046447Y-80762864D01*
X97047801Y-81107847D01*
X97048418Y-81456744D01*
X97251656Y-81456744D01*
X97248622Y-81118397D01*
X97247285Y-80945922D01*
X97244083Y-80575327D01*
X97240159Y-80225653D01*
X97235651Y-79903831D01*
X97230700Y-79616788D01*
X97225445Y-79371453D01*
X97220027Y-79174756D01*
X97214585Y-79033624D01*
X97209258Y-78954987D01*
X97206838Y-78941596D01*
X97182779Y-78904891D01*
X97139949Y-78873897D01*
X97070231Y-78846934D01*
X96965502Y-78822320D01*
X96817644Y-78798377D01*
X96618536Y-78773424D01*
X96360058Y-78745780D01*
X96168498Y-78726755D01*
X95726181Y-78688314D01*
X95345750Y-78666454D01*
X95018133Y-78662058D01*
X94734256Y-78676009D01*
X94485047Y-78709190D01*
X94261431Y-78762485D01*
X94054337Y-78836776D01*
X93854690Y-78932947D01*
X93812783Y-78956049D01*
X93552859Y-79140402D01*
X93321030Y-79379289D01*
X93131188Y-79655970D01*
X93005921Y-79928469D01*
X92947900Y-80083790D01*
X92901144Y-80181264D01*
X92856424Y-80232767D01*
X92804510Y-80250176D01*
X92757426Y-80248260D01*
X92711425Y-80235613D01*
X92673612Y-80201332D01*
X92636090Y-80132209D01*
X92590963Y-80015035D01*
X92554459Y-79908773D01*
X92420454Y-79569403D01*
X92260574Y-79281120D01*
X92062804Y-79023670D01*
X91971502Y-78925913D01*
X91658512Y-78650135D01*
X91315115Y-78432378D01*
X90936223Y-78270714D01*
X90516749Y-78163212D01*
X90051605Y-78107945D01*
X89791245Y-78099218D01*
X89490249Y-78106382D01*
X89206936Y-78131173D01*
X88950721Y-78171381D01*
X88731016Y-78224799D01*
X88557237Y-78289222D01*
X88438796Y-78362440D01*
X88389416Y-78427901D01*
X88374073Y-78507197D01*
X88363579Y-78639472D01*
X88357824Y-78806790D01*
X88356697Y-78991214D01*
X88360088Y-79174808D01*
X88367887Y-79339635D01*
X88379984Y-79467759D01*
X88396253Y-79541207D01*
X88451630Y-79628995D01*
X88525236Y-79673154D01*
X88628523Y-79674609D01*
X88772941Y-79634284D01*
X88903546Y-79582160D01*
X89226488Y-79471245D01*
X89550743Y-79410746D01*
X89866119Y-79399558D01*
X90162424Y-79436579D01*
X90429466Y-79520705D01*
X90657052Y-79650835D01*
X90804332Y-79787867D01*
X90921481Y-79944151D01*
X91004741Y-80106785D01*
X91058778Y-80291863D01*
X91088255Y-80515480D01*
X91097839Y-80793733D01*
X91097862Y-80800572D01*
X91097332Y-80993728D01*
X91092745Y-81131611D01*
X91081474Y-81231611D01*
X91060890Y-81311115D01*
X91028367Y-81387512D01*
X91001113Y-81440831D01*
X90925561Y-81563552D01*
X90840001Y-81673042D01*
X90794441Y-81718314D01*
X90641625Y-81807174D01*
X90442821Y-81864055D01*
X90219475Y-81884082D01*
X90093933Y-81877619D01*
X89928448Y-81854981D01*
X89822847Y-81822693D01*
X89764340Y-81771577D01*
X89740135Y-81692458D01*
X89736738Y-81621339D01*
X89752286Y-81486876D01*
X89804768Y-81411678D01*
X89902938Y-81388020D01*
X89992042Y-81396078D01*
X90122370Y-81397508D01*
X90240625Y-81366059D01*
X90326198Y-81310244D01*
X90358337Y-81244775D01*
X90359322Y-81185148D01*
X90359123Y-81069716D01*
X90357830Y-80915339D01*
X90355643Y-80746065D01*
X90351167Y-80554130D01*
X90343203Y-80421092D01*
X90329760Y-80333186D01*
X90308846Y-80276651D01*
X90282702Y-80241942D01*
X90245599Y-80215382D01*
X90184165Y-80192523D01*
X90088232Y-80171453D01*
X89947630Y-80150262D01*
X89752192Y-80127037D01*
X89567728Y-80107566D01*
X89235031Y-80074155D01*
X88966931Y-80049373D01*
X88755810Y-80033671D01*
X88594050Y-80027505D01*
X88474033Y-80031327D01*
X88388142Y-80045593D01*
X88328760Y-80070754D01*
X88288268Y-80107266D01*
X88259049Y-80155582D01*
X88245444Y-80186338D01*
X88183488Y-80276135D01*
X88102819Y-80317823D01*
X88023700Y-80301873D01*
X88014464Y-80294968D01*
X87996127Y-80253172D01*
X87977621Y-80156406D01*
X87958716Y-80001970D01*
X87939180Y-79787166D01*
X87918786Y-79509294D01*
X87897302Y-79165654D01*
X87874499Y-78753547D01*
X87861267Y-78495826D01*
X87847839Y-78267196D01*
X87828015Y-78101024D01*
X87792862Y-77987137D01*
X87733449Y-77915363D01*
X87640845Y-77875528D01*
X87506118Y-77857461D01*
X87320335Y-77850988D01*
X87294685Y-77850516D01*
X87129711Y-77847178D01*
X86986203Y-77843582D01*
X86883505Y-77840248D01*
X86847897Y-77838476D01*
X86787439Y-77834976D01*
X86668932Y-77828858D01*
X86506929Y-77820849D01*
X86315978Y-77811674D01*
X86211988Y-77806773D01*
X85963042Y-77794206D01*
X85688603Y-77778868D01*
X85420142Y-77762600D01*
X85189130Y-77747244D01*
X85165924Y-77745586D01*
X84938685Y-77731877D01*
X84771914Y-77729469D01*
X84654061Y-77739910D01*
G37*
X84654061Y-77739910D02*
X84573574Y-77764746D01*
X84518905Y-77805527D01*
X84495592Y-77835411D01*
X84485284Y-77885476D01*
X84476731Y-77992676D01*
X84470798Y-78141475D01*
X84468353Y-78316340D01*
X84468339Y-78324122D01*
X84474880Y-78586760D01*
X84496194Y-78783739D01*
X84533710Y-78920839D01*
X84588856Y-79003841D01*
X84643893Y-79034429D01*
X84697412Y-79041623D01*
X84811424Y-79051678D01*
X84973844Y-79063707D01*
X85172584Y-79076825D01*
X85395561Y-79090144D01*
X85430730Y-79092126D01*
X85657871Y-79105400D01*
X85864073Y-79118534D01*
X86036853Y-79130647D01*
X86163728Y-79140856D01*
X86232214Y-79148281D01*
X86236347Y-79149031D01*
X86304161Y-79195241D01*
X86342996Y-79281023D01*
X86345382Y-79376528D01*
X86310606Y-79445711D01*
X86280906Y-79466259D01*
X86233375Y-79478814D01*
X86156461Y-79483646D01*
X86038611Y-79481025D01*
X85868272Y-79471223D01*
X85706524Y-79459862D01*
X85426731Y-79440173D01*
X85209907Y-79427235D01*
X85046627Y-79421407D01*
X84927469Y-79423051D01*
X84843006Y-79432528D01*
X84783815Y-79450200D01*
X84740471Y-79476427D01*
X84716784Y-79497779D01*
X84685586Y-79532829D01*
X84664829Y-79573130D01*
X84653216Y-79631953D01*
X84649452Y-79722575D01*
X84652241Y-79858267D01*
X84660287Y-80052304D01*
X84661033Y-80068848D01*
X84670254Y-80272429D01*
X84682721Y-80432726D01*
X84706435Y-80555307D01*
X84749394Y-80645740D01*
X84819599Y-80709595D01*
X84925050Y-80752440D01*
X85073745Y-80779843D01*
X85273685Y-80797374D01*
X85532869Y-80810601D01*
X85739599Y-80819648D01*
X85943334Y-80830671D01*
X86123041Y-80844131D01*
X86265514Y-80858746D01*
X86357546Y-80873232D01*
X86384592Y-80882364D01*
X86414825Y-80943668D01*
X86429016Y-81048008D01*
X86427618Y-81167642D01*
X86411081Y-81274827D01*
X86379858Y-81341819D01*
X86377078Y-81344333D01*
X86338737Y-81360802D01*
X86266531Y-81369389D01*
X86150828Y-81370165D01*
X85981994Y-81363197D01*
X85753698Y-81348783D01*
X85430710Y-81326874D01*
X85172919Y-81312546D01*
X84973007Y-81308555D01*
X84823656Y-81317653D01*
X84717548Y-81342596D01*
X84647365Y-81386139D01*
X84605790Y-81451035D01*
X84585505Y-81540039D01*
X84579191Y-81655906D01*
X84579448Y-81790772D01*
X84584698Y-82063176D01*
X84599287Y-82271518D01*
X84628749Y-82424310D01*
X84678619Y-82530068D01*
X84754433Y-82597303D01*
X84861723Y-82634530D01*
X85006026Y-82650262D01*
X85140029Y-82653071D01*
X85311139Y-82656363D01*
X85525482Y-82664605D01*
X85753884Y-82676499D01*
X85939456Y-82688669D01*
X86266369Y-82711693D01*
X86586771Y-82732407D01*
X86892019Y-82750405D01*
X87173468Y-82765280D01*
X87422476Y-82776626D01*
X87630399Y-82784036D01*
X87788592Y-82787104D01*
X87888413Y-82785421D01*
X87917470Y-82781730D01*
X87980398Y-82737318D01*
X88047905Y-82655421D01*
X88061343Y-82634011D01*
X88100197Y-82587750D01*
X87858612Y-82587750D01*
X87498605Y-82566309D01*
X87370038Y-82558949D01*
X87181568Y-82548564D01*
X86945872Y-82535834D01*
X86675628Y-82521436D01*
X86383515Y-82506048D01*
X86082209Y-82490351D01*
X85993963Y-82485787D01*
X85713674Y-82471182D01*
X85457844Y-82457584D01*
X85235191Y-82445478D01*
X85054429Y-82435349D01*
X84924274Y-82427681D01*
X84853441Y-82422958D01*
X84842944Y-82421825D01*
X84838522Y-82385904D01*
X84831081Y-82291413D01*
X84821626Y-82152345D01*
X84811165Y-81982693D01*
X84810242Y-81966976D01*
X84783922Y-81517010D01*
X85325352Y-81541051D01*
X85562540Y-81551909D01*
X85817644Y-81564125D01*
X86061359Y-81576267D01*
X86264383Y-81586902D01*
X86279537Y-81587729D01*
X86692293Y-81610366D01*
X86665896Y-81141878D01*
X86655307Y-80965806D01*
X86645164Y-80818181D01*
X86636518Y-80712951D01*
X86630422Y-80664066D01*
X86629738Y-80662388D01*
X86592070Y-80656669D01*
X86494101Y-80647871D01*
X86348092Y-80636932D01*
X86166308Y-80624790D01*
X86025354Y-80616139D01*
X85800736Y-80602529D01*
X85579114Y-80588578D01*
X85380526Y-80575582D01*
X85225014Y-80564840D01*
X85172392Y-80560929D01*
X84914055Y-80540966D01*
X84890776Y-80265572D01*
X84878944Y-80100990D01*
X84870563Y-79937409D01*
X84867496Y-79813973D01*
X84870243Y-79708448D01*
X84885912Y-79656579D01*
X84925648Y-79639368D01*
X84970869Y-79637768D01*
X85048852Y-79640178D01*
X85183811Y-79646765D01*
X85360230Y-79656562D01*
X85562591Y-79668602D01*
X85775377Y-79681917D01*
X85983071Y-79695542D01*
X86170157Y-79708509D01*
X86321118Y-79719852D01*
X86406837Y-79727241D01*
X86583516Y-79744322D01*
X86569519Y-79366198D01*
X86562041Y-79207883D01*
X86552875Y-79078357D01*
X86543342Y-78993696D01*
X86536926Y-78969477D01*
X86496801Y-78962418D01*
X86394634Y-78952901D01*
X86240988Y-78941665D01*
X86046425Y-78929452D01*
X85821508Y-78917000D01*
X85701998Y-78910967D01*
X85461564Y-78898683D01*
X85242151Y-78886476D01*
X85055346Y-78875071D01*
X84912735Y-78865192D01*
X84825906Y-78857565D01*
X84808085Y-78855053D01*
X84765645Y-78833610D01*
X84733980Y-78782843D01*
X84711065Y-78693092D01*
X84694874Y-78554694D01*
X84683383Y-78357986D01*
X84678899Y-78238769D01*
X84669224Y-77948068D01*
X85013639Y-77958342D01*
X85249962Y-77966487D01*
X85513774Y-77977451D01*
X85795761Y-77990668D01*
X86086608Y-78005575D01*
X86377002Y-78021606D01*
X86657627Y-78038196D01*
X86919170Y-78054780D01*
X87152317Y-78070794D01*
X87347752Y-78085673D01*
X87496161Y-78098851D01*
X87588231Y-78109764D01*
X87614670Y-78116092D01*
X87630727Y-78164403D01*
X87646118Y-78279932D01*
X87660368Y-78457221D01*
X87673002Y-78690814D01*
X87679958Y-78865560D01*
X87690579Y-79145279D01*
X87704773Y-79485297D01*
X87721961Y-79873356D01*
X87741567Y-80297201D01*
X87763011Y-80744572D01*
X87785715Y-81203213D01*
X87809103Y-81660866D01*
X87832597Y-82105275D01*
X87833451Y-82121128D01*
X87858612Y-82587750D01*
X88100197Y-82587750D01*
X88134337Y-82547103D01*
X88213530Y-82507780D01*
X88281403Y-82522455D01*
X88302093Y-82545897D01*
X88342093Y-82576037D01*
X88433722Y-82630205D01*
X88563249Y-82700655D01*
X88713036Y-82777685D01*
X89103582Y-82948548D01*
X89510868Y-83081125D01*
X89920918Y-83172946D01*
X90319754Y-83221541D01*
X90693400Y-83224438D01*
X91008555Y-83183419D01*
X91402569Y-83067808D01*
X91746203Y-82900656D01*
X92038549Y-82682733D01*
X92278698Y-82414807D01*
X92465741Y-82097648D01*
X92555487Y-81874129D01*
X92611719Y-81717987D01*
X92657083Y-81618970D01*
X92699110Y-81563894D01*
X92745329Y-81539576D01*
X92746752Y-81539210D01*
X92811105Y-81534037D01*
X92864433Y-81561311D01*
X92913870Y-81630785D01*
X92966555Y-81752211D01*
X93023985Y-81918056D01*
X93177025Y-82270364D01*
X93393853Y-82593952D01*
X93669311Y-82883087D01*
X93998239Y-83132034D01*
X94240712Y-83270824D01*
X94488001Y-83373258D01*
X94803206Y-83464390D01*
X95182332Y-83543411D01*
X95621381Y-83609509D01*
X96116356Y-83661874D01*
X96204835Y-83669275D01*
X96404455Y-83685535D01*
X96594826Y-83701326D01*
X96755560Y-83714937D01*
X96866266Y-83724661D01*
X96873759Y-83725350D01*
X97072859Y-83717085D01*
X97177645Y-83682298D01*
X97259125Y-83648251D01*
X97321461Y-83644364D01*
X97397230Y-83672937D01*
X97453499Y-83701780D01*
X97536707Y-83737140D01*
X97646027Y-83766580D01*
X97794184Y-83792485D01*
X97993907Y-83817241D01*
X98158649Y-83833965D01*
X98399868Y-83856311D01*
X98579852Y-83867621D01*
X98709740Y-83863483D01*
X98800671Y-83839481D01*
X98863782Y-83791203D01*
X98910213Y-83714234D01*
X98951101Y-83604160D01*
X98981504Y-83507889D01*
X99030603Y-83365470D01*
X99079950Y-83247312D01*
X99121078Y-83172959D01*
X99131685Y-83161131D01*
X99166095Y-83143712D01*
X99225053Y-83134171D01*
X99319360Y-83132505D01*
X99459818Y-83138710D01*
X99657226Y-83152784D01*
X99758797Y-83160966D01*
X99960678Y-83179034D01*
X100141760Y-83197947D01*
X100287431Y-83215974D01*
X100383080Y-83231384D01*
X100408711Y-83237978D01*
X100453895Y-83270506D01*
X100496565Y-83339657D01*
X100542860Y-83457777D01*
X100586572Y-83595623D01*
X100652019Y-83793350D01*
X100714545Y-83930340D01*
X100782130Y-84017707D01*
X100862752Y-84066569D01*
X100937668Y-84084792D01*
X101096567Y-84104308D01*
X101281671Y-84121461D01*
X101477939Y-84135527D01*
X101670326Y-84145781D01*
X101843791Y-84151501D01*
X101983291Y-84151962D01*
X102073783Y-84146441D01*
X102097218Y-84140590D01*
X102188806Y-84059472D01*
X102221379Y-83942622D01*
X102219536Y-83930176D01*
X102018855Y-83930176D01*
X101992932Y-83949165D01*
X101912298Y-83956939D01*
X101772657Y-83953396D01*
X101569713Y-83938431D01*
X101310272Y-83913111D01*
X100910558Y-83871101D01*
X100782282Y-83489556D01*
X100728815Y-83331213D01*
X100682951Y-83196666D01*
X100650176Y-83101928D01*
X100636932Y-83065224D01*
X100613824Y-83050346D01*
X100552775Y-83034489D01*
X100448729Y-83017052D01*
X100296633Y-82997430D01*
X100091430Y-82975021D01*
X99828065Y-82949222D01*
X99501485Y-82919431D01*
X99176387Y-82891033D01*
X98968396Y-82873129D01*
X98845306Y-83263102D01*
X98780551Y-83453884D01*
X98726577Y-83582826D01*
X98685094Y-83646093D01*
X98671751Y-83652158D01*
X98533589Y-83647350D01*
X98366997Y-83638099D01*
X98186863Y-83625664D01*
X98008072Y-83611308D01*
X97845509Y-83596293D01*
X97714061Y-83581879D01*
X97628613Y-83569330D01*
X97603451Y-83561612D01*
X97607072Y-83516278D01*
X97632742Y-83422786D01*
X97675097Y-83300283D01*
X97681097Y-83284409D01*
X97745274Y-83110106D01*
X97813508Y-82915478D01*
X97858474Y-82780972D01*
X97895348Y-82670688D01*
X97951865Y-82506228D01*
X98023068Y-82301800D01*
X98103998Y-82071612D01*
X98189698Y-81829873D01*
X98219837Y-81745350D01*
X98306166Y-81502893D01*
X98389672Y-81267029D01*
X98465356Y-81051971D01*
X98528224Y-80871934D01*
X98573278Y-80741132D01*
X98583876Y-80709728D01*
X98635221Y-80558443D01*
X98698029Y-80376975D01*
X98768155Y-80176904D01*
X98841451Y-79969814D01*
X98913773Y-79767286D01*
X98980975Y-79580901D01*
X99038910Y-79422244D01*
X99083432Y-79302894D01*
X99110396Y-79234436D01*
X99116158Y-79222739D01*
X99155207Y-79221746D01*
X99252399Y-79227565D01*
X99393666Y-79238804D01*
X99564942Y-79254067D01*
X99752159Y-79271961D01*
X99941249Y-79291092D01*
X100118146Y-79310064D01*
X100268782Y-79327485D01*
X100379089Y-79341960D01*
X100435001Y-79352094D01*
X100438873Y-79353827D01*
X100455935Y-79392665D01*
X100490153Y-79485889D01*
X100536263Y-79618754D01*
X100579900Y-79748891D01*
X100633272Y-79908020D01*
X100704309Y-80116406D01*
X100786392Y-80354810D01*
X100872900Y-80603993D01*
X100948072Y-80818741D01*
X101032424Y-81059791D01*
X101117737Y-81305645D01*
X101197544Y-81537518D01*
X101265376Y-81736622D01*
X101310924Y-81872532D01*
X101361733Y-82023849D01*
X101431332Y-82227724D01*
X101514179Y-82468235D01*
X101604731Y-82729458D01*
X101697446Y-82995472D01*
X101786781Y-83250354D01*
X101867193Y-83478182D01*
X101933139Y-83663032D01*
X101960794Y-83739404D01*
X101995515Y-83840837D01*
X102016263Y-83913709D01*
X102018855Y-83930176D01*
X102219536Y-83930176D01*
X102199430Y-83794447D01*
X102174849Y-83684579D01*
X102179109Y-83617051D01*
X102200339Y-83580646D01*
X102258469Y-83542826D01*
X102333624Y-83526938D01*
X102396546Y-83535238D01*
X102418569Y-83563814D01*
X102446906Y-83623110D01*
X102522600Y-83709476D01*
X102631677Y-83810992D01*
X102760163Y-83915736D01*
X102894085Y-84011791D01*
X103019466Y-84087235D01*
X103050226Y-84102612D01*
X103195000Y-84167316D01*
X103338761Y-84222395D01*
X103490059Y-84269265D01*
X103657446Y-84309343D01*
X103849472Y-84344045D01*
X104074691Y-84374789D01*
X104341652Y-84402989D01*
X104658907Y-84430064D01*
X105035007Y-84457429D01*
X105297855Y-84474926D01*
X105536894Y-84490036D01*
X105714183Y-84499649D01*
X105840466Y-84503451D01*
X105926483Y-84501130D01*
X105982976Y-84492370D01*
X106020686Y-84476860D01*
X106050355Y-84454286D01*
X106051861Y-84452929D01*
X106068973Y-84435444D01*
X106083185Y-84412466D01*
X106094766Y-84377578D01*
X106103987Y-84324362D01*
X106111114Y-84246399D01*
X106116418Y-84137270D01*
X106120167Y-83990559D01*
X106122630Y-83799846D01*
X106122905Y-83753895D01*
X105937658Y-83753895D01*
X105937335Y-83964735D01*
X105936173Y-84125856D01*
X105934100Y-84229608D01*
X105931310Y-84267865D01*
X105925973Y-84284419D01*
X105919225Y-84297593D01*
X105904090Y-84307029D01*
X105873596Y-84312373D01*
X105820769Y-84313269D01*
X105738634Y-84309361D01*
X105620217Y-84300294D01*
X105458546Y-84285712D01*
X105246645Y-84265258D01*
X104977542Y-84238578D01*
X104644261Y-84205315D01*
X104580658Y-84198974D01*
X104196219Y-84157455D01*
X103875626Y-84114556D01*
X103610065Y-84067410D01*
X103390723Y-84013150D01*
X103208785Y-83948909D01*
X103055438Y-83871822D01*
X102921869Y-83779021D01*
X102799262Y-83667639D01*
X102734207Y-83598421D01*
X102619394Y-83447804D01*
X102529865Y-83287390D01*
X102504968Y-83225027D01*
X102463249Y-83041496D01*
X102442319Y-82818562D01*
X102442777Y-82586634D01*
X102465219Y-82376121D01*
X102486457Y-82282851D01*
X102573392Y-82092363D01*
X102710629Y-81914517D01*
X102876960Y-81774922D01*
X102934758Y-81741543D01*
X103079762Y-81667568D01*
X102929401Y-81538865D01*
X102764198Y-81356180D01*
X102649942Y-81143006D01*
X102585180Y-80910792D01*
X102568461Y-80670983D01*
X102598333Y-80435029D01*
X102673345Y-80214375D01*
X102792046Y-80020469D01*
X102952984Y-79864760D01*
X103154707Y-79758693D01*
X103155138Y-79758543D01*
X103243082Y-79732471D01*
X103342260Y-79714184D01*
X103466711Y-79702552D01*
X103630479Y-79696443D01*
X103847605Y-79694728D01*
X103944750Y-79694983D01*
X104110368Y-79697965D01*
X104312074Y-79705104D01*
X104538577Y-79715634D01*
X104778588Y-79728790D01*
X105020818Y-79743807D01*
X105253976Y-79759921D01*
X105466774Y-79776367D01*
X105647923Y-79792381D01*
X105786132Y-79807196D01*
X105870112Y-79820049D01*
X105890071Y-79826771D01*
X105893816Y-79865442D01*
X105897787Y-79969137D01*
X105901912Y-80130208D01*
X105906122Y-80341004D01*
X105910345Y-80593877D01*
X105914509Y-80881177D01*
X105918545Y-81195254D01*
X105922380Y-81528458D01*
X105925945Y-81873141D01*
X105929167Y-82221651D01*
X105931975Y-82566341D01*
X105934300Y-82899560D01*
X105936069Y-83213658D01*
X105937212Y-83500986D01*
X105937658Y-83753895D01*
X106122905Y-83753895D01*
X106124076Y-83558713D01*
X106124774Y-83260742D01*
X106124993Y-82899515D01*
X106125007Y-82707115D01*
X106124942Y-82298327D01*
X106125290Y-81956491D01*
X106126864Y-81675885D01*
X106130478Y-81450786D01*
X106136946Y-81275471D01*
X106147079Y-81144220D01*
X106161694Y-81051308D01*
X106181601Y-80991015D01*
X106207617Y-80957617D01*
X106240552Y-80945392D01*
X106281222Y-80948618D01*
X106330440Y-80961573D01*
X106371439Y-80973659D01*
X106457471Y-80991064D01*
X106598022Y-81011610D01*
X106775141Y-81032979D01*
X106970877Y-81052850D01*
X107015279Y-81056845D01*
X107202242Y-81075198D01*
X107364404Y-81094776D01*
X107487379Y-81113567D01*
X107556786Y-81129562D01*
X107565241Y-81133690D01*
X107576368Y-81169325D01*
X107586667Y-81259955D01*
X107596243Y-81408293D01*
X107605204Y-81617051D01*
X107613657Y-81888941D01*
X107621706Y-82226677D01*
X107629460Y-82632969D01*
X107633395Y-82871289D01*
X107639608Y-83280359D01*
X107644988Y-83622842D01*
X107650688Y-83904797D01*
X107657862Y-84132284D01*
X107667662Y-84311364D01*
X107681242Y-84448096D01*
X107699754Y-84548540D01*
X107724352Y-84618757D01*
X107756189Y-84664807D01*
X107796418Y-84692749D01*
X107846193Y-84708645D01*
X107906666Y-84718553D01*
X107978990Y-84728535D01*
X107987036Y-84729789D01*
X108103316Y-84744415D01*
X108267852Y-84760177D01*
X108456300Y-84774917D01*
X108598880Y-84784015D01*
X108729858Y-84793484D01*
X108839579Y-84801888D01*
X108929911Y-84803460D01*
X109002721Y-84792430D01*
X109059875Y-84763032D01*
X109103240Y-84709497D01*
X109134682Y-84626058D01*
X109156069Y-84506946D01*
X109169267Y-84346394D01*
X109176144Y-84138633D01*
X109178565Y-83877896D01*
X109178397Y-83558415D01*
X109177507Y-83174421D01*
X109177368Y-82996596D01*
X109177618Y-82602953D01*
X109178507Y-82275789D01*
X109180236Y-82008909D01*
X109183011Y-81796120D01*
X109187034Y-81631225D01*
X109192509Y-81508030D01*
X109199641Y-81420340D01*
X109208633Y-81361961D01*
X109219688Y-81326698D01*
X109232889Y-81308456D01*
X109280983Y-81287000D01*
X109366335Y-81278158D01*
X109501543Y-81281402D01*
X109641688Y-81291321D01*
X109841453Y-81305687D01*
X110058023Y-81318120D01*
X110252119Y-81326433D01*
X110295542Y-81327687D01*
X110437295Y-81334117D01*
X110550144Y-81344697D01*
X110615132Y-81357465D01*
X110622581Y-81361545D01*
X110628120Y-81402153D01*
X110633676Y-81508206D01*
X110639097Y-81672474D01*
X110644233Y-81887726D01*
X110648933Y-82146733D01*
X110653047Y-82442263D01*
X110656423Y-82767087D01*
X110658844Y-83101822D01*
X110668646Y-84815663D01*
X110749688Y-84896078D01*
X110788529Y-84927384D01*
X110841719Y-84952343D01*
X110920977Y-84973407D01*
X111038022Y-84993030D01*
X111204572Y-85013664D01*
X111421217Y-85036630D01*
X111642527Y-85058601D01*
X111803625Y-85072492D01*
X111916521Y-85078316D01*
X111993225Y-85076082D01*
X112045749Y-85065802D01*
X112086103Y-85047486D01*
X112102547Y-85037246D01*
X112143879Y-85006208D01*
X112170302Y-84968123D01*
X112185142Y-84907463D01*
X112191721Y-84808702D01*
X112193362Y-84656312D01*
X112193390Y-84612796D01*
X112197724Y-84405867D01*
X112212822Y-84261533D01*
X112241829Y-84170117D01*
X112287892Y-84121939D01*
X112354154Y-84107320D01*
X112357665Y-84107296D01*
X112414801Y-84120255D01*
X112466649Y-84168406D01*
X112526172Y-84265657D01*
X112552417Y-84316237D01*
X112736148Y-84601757D01*
X112972303Y-84837915D01*
X113258052Y-85022559D01*
X113590563Y-85153536D01*
X113686980Y-85179175D01*
X113769086Y-85194075D01*
X113911788Y-85214785D01*
X114103355Y-85239985D01*
X114332060Y-85268353D01*
X114586173Y-85298570D01*
X114853965Y-85329315D01*
X115123706Y-85359267D01*
X115383668Y-85387105D01*
X115622121Y-85411510D01*
X115827337Y-85431160D01*
X115987585Y-85444734D01*
X116091138Y-85450913D01*
X116102435Y-85451135D01*
X116180646Y-85426100D01*
X116253505Y-85370028D01*
X116269012Y-85351732D01*
X116282325Y-85329219D01*
X116293688Y-85296952D01*
X116303343Y-85249393D01*
X116311533Y-85181003D01*
X116318503Y-85086246D01*
X116324494Y-84959582D01*
X116329750Y-84795474D01*
X116334515Y-84588384D01*
X116339031Y-84332774D01*
X116343542Y-84023106D01*
X116348291Y-83653842D01*
X116353521Y-83219445D01*
X116355574Y-83045584D01*
X116361140Y-82567395D01*
X116365512Y-82156575D01*
X116368349Y-81807824D01*
X116369177Y-81557262D01*
X116133825Y-81557262D01*
X116133463Y-81865764D01*
X116132231Y-82209124D01*
X116130119Y-82581039D01*
X116127117Y-82975209D01*
X116126810Y-83010771D01*
X116107362Y-85239139D01*
X115940004Y-85217379D01*
X115858339Y-85208084D01*
X115716155Y-85193321D01*
X115525307Y-85174262D01*
X115297649Y-85152076D01*
X115045033Y-85127934D01*
X114827868Y-85107527D01*
X114476836Y-85073099D01*
X114188378Y-85040199D01*
X113952494Y-85006525D01*
X113759186Y-84969778D01*
X113598454Y-84927658D01*
X113460297Y-84877863D01*
X113334717Y-84818093D01*
X113211712Y-84746049D01*
X113186503Y-84729941D01*
X112973299Y-84551194D01*
X112801909Y-84324371D01*
X112685599Y-84068226D01*
X112664100Y-83991283D01*
X112633543Y-83771039D01*
X112636591Y-83530598D01*
X112670720Y-83297617D01*
X112733404Y-83099756D01*
X112748341Y-83068402D01*
X112848311Y-82911009D01*
X112971386Y-82773639D01*
X113100005Y-82673506D01*
X113193342Y-82632208D01*
X113260901Y-82608893D01*
X113283519Y-82590842D01*
X113258443Y-82558770D01*
X113193419Y-82494738D01*
X113122170Y-82430084D01*
X112967460Y-82251494D01*
X112866520Y-82032890D01*
X112817156Y-81768547D01*
X112811130Y-81618168D01*
X112834320Y-81330476D01*
X112905962Y-81093458D01*
X113029169Y-80903795D01*
X113207050Y-80758165D01*
X113442717Y-80653250D01*
X113739280Y-80585728D01*
X113784527Y-80579245D01*
X113883384Y-80568260D01*
X113988095Y-80562370D01*
X114109089Y-80562039D01*
X114256797Y-80567731D01*
X114441648Y-80579911D01*
X114674073Y-80599042D01*
X114964502Y-80625588D01*
X115086596Y-80637176D01*
X115350385Y-80663142D01*
X115590240Y-80688199D01*
X115796721Y-80711244D01*
X115960387Y-80731175D01*
X116071800Y-80746890D01*
X116121520Y-80757285D01*
X116122971Y-80758201D01*
X116126795Y-80797880D01*
X116129803Y-80903928D01*
X116131984Y-81070042D01*
X116133328Y-81289921D01*
X116133825Y-81557262D01*
X116369177Y-81557262D01*
X116369315Y-81515839D01*
X116368072Y-81275320D01*
X116364281Y-81080967D01*
X116357606Y-80927476D01*
X116347707Y-80809549D01*
X116334247Y-80721883D01*
X116316889Y-80659178D01*
X116295294Y-80616132D01*
X116269125Y-80587444D01*
X116238043Y-80567814D01*
X116201710Y-80551940D01*
X116196496Y-80549840D01*
X116104011Y-80525610D01*
X115950925Y-80500376D01*
X115749286Y-80475128D01*
X115511141Y-80450858D01*
X115248536Y-80428558D01*
X114973520Y-80409217D01*
X114698140Y-80393829D01*
X114434442Y-80383382D01*
X114194475Y-80378870D01*
X114118501Y-80378875D01*
X113481808Y-80382689D01*
X113241224Y-80501138D01*
X113001180Y-80648962D01*
X112820805Y-80830147D01*
X112691078Y-81054320D01*
X112667156Y-81113772D01*
X112609481Y-81344202D01*
X112590695Y-81604455D01*
X112609750Y-81868182D01*
X112665598Y-82109036D01*
X112711202Y-82221361D01*
X112778615Y-82374690D01*
X112803935Y-82491220D01*
X112786158Y-82594098D01*
X112724280Y-82706468D01*
X112687925Y-82757935D01*
X112606365Y-82880272D01*
X112535198Y-83005249D01*
X112508091Y-83062589D01*
X112457974Y-83155830D01*
X112400047Y-83194536D01*
X112360042Y-83198855D01*
X112271038Y-83171300D01*
X112231007Y-83128569D01*
X112220335Y-83071331D01*
X112211290Y-82944443D01*
X112203951Y-82750911D01*
X112200574Y-82594522D01*
X112011702Y-82594522D01*
X112011702Y-82617453D01*
X112011275Y-83014631D01*
X112010044Y-83389452D01*
X112008083Y-83735741D01*
X112005467Y-84047324D01*
X112002271Y-84318025D01*
X111998570Y-84541672D01*
X111994438Y-84712088D01*
X111989950Y-84823100D01*
X111985181Y-84868533D01*
X111984449Y-84869310D01*
X111940236Y-84865362D01*
X111837573Y-84855260D01*
X111690296Y-84840393D01*
X111512239Y-84822148D01*
X111448469Y-84815559D01*
X111263230Y-84796518D01*
X111104162Y-84780431D01*
X110985099Y-84768677D01*
X110919874Y-84762634D01*
X110912489Y-84762128D01*
X110907683Y-84726685D01*
X110903147Y-84624749D01*
X110898956Y-84462503D01*
X110895185Y-84246129D01*
X110891909Y-83981810D01*
X110889202Y-83675728D01*
X110887139Y-83334066D01*
X110885795Y-82963006D01*
X110885245Y-82568730D01*
X110885236Y-82509349D01*
X110885236Y-80257324D01*
X110985164Y-80274095D01*
X111065568Y-80284781D01*
X111196089Y-80299208D01*
X111357488Y-80315564D01*
X111530522Y-80332036D01*
X111695951Y-80346812D01*
X111834533Y-80358081D01*
X111927026Y-80364030D01*
X111945338Y-80364520D01*
X111958906Y-80367091D01*
X111970490Y-80378346D01*
X111980246Y-80403596D01*
X111988331Y-80448154D01*
X111994901Y-80517332D01*
X112000113Y-80616442D01*
X112004122Y-80750796D01*
X112007086Y-80925706D01*
X112009161Y-81146484D01*
X112010504Y-81418443D01*
X112011271Y-81746894D01*
X112011618Y-82137149D01*
X112011702Y-82594522D01*
X112200574Y-82594522D01*
X112198397Y-82493745D01*
X112194708Y-82175952D01*
X112192964Y-81800540D01*
X112192834Y-81684148D01*
X112192024Y-81374223D01*
X112189958Y-81086645D01*
X112186795Y-80829636D01*
X112182692Y-80611416D01*
X112177808Y-80440205D01*
X112172303Y-80324226D01*
X112166333Y-80271699D01*
X112165581Y-80270032D01*
X112123892Y-80227422D01*
X110376509Y-80227422D01*
X110376509Y-80677516D01*
X110374485Y-80877965D01*
X110367859Y-81014054D01*
X110355801Y-81094002D01*
X110337483Y-81126025D01*
X110331087Y-81127522D01*
X110260163Y-81124497D01*
X110133698Y-81116443D01*
X109968548Y-81104678D01*
X109781569Y-81090520D01*
X109589618Y-81075284D01*
X109409550Y-81060288D01*
X109258224Y-81046849D01*
X109152493Y-81036283D01*
X109131946Y-81033840D01*
X108959342Y-81011778D01*
X108959342Y-84599606D01*
X108420028Y-84548014D01*
X107880714Y-84496423D01*
X107856859Y-83384334D01*
X107850512Y-83064108D01*
X107844795Y-82729014D01*
X107839945Y-82396632D01*
X107836195Y-82084544D01*
X107833782Y-81810329D01*
X107832939Y-81595597D01*
X107832875Y-80918948D01*
X107660272Y-80897505D01*
X107559896Y-80886413D01*
X107406284Y-80871104D01*
X107218621Y-80853421D01*
X107016091Y-80835207D01*
X106969857Y-80831174D01*
X106452046Y-80786286D01*
X106451646Y-80493643D01*
X106449046Y-80335813D01*
X106442554Y-80189535D01*
X106433498Y-80083447D01*
X106432159Y-80073819D01*
X106426812Y-79977449D01*
X106439083Y-79910858D01*
X106441644Y-79906614D01*
X106475095Y-79896250D01*
X106558223Y-79893555D01*
X106695420Y-79898782D01*
X106891074Y-79912184D01*
X107149575Y-79934014D01*
X107475315Y-79964524D01*
X107516311Y-79968505D01*
X107835656Y-79998969D01*
X108177703Y-80030472D01*
X108522361Y-80061240D01*
X108849540Y-80089501D01*
X109139147Y-80113481D01*
X109315023Y-80127244D01*
X109552159Y-80145628D01*
X109774238Y-80163734D01*
X109967498Y-80180371D01*
X110118174Y-80194348D01*
X110212504Y-80204474D01*
X110222074Y-80205744D01*
X110376509Y-80227422D01*
X112123892Y-80227422D01*
X112123426Y-80226946D01*
X112054167Y-80191755D01*
X111947763Y-80162019D01*
X111794174Y-80135293D01*
X111583361Y-80109136D01*
X111444425Y-80094612D01*
X111230173Y-80074097D01*
X111075035Y-80062221D01*
X110965965Y-80058965D01*
X110889920Y-80064305D01*
X110833857Y-80078220D01*
X110798538Y-80093537D01*
X110709868Y-80132703D01*
X110639902Y-80141558D01*
X110559076Y-80118591D01*
X110467353Y-80076591D01*
X110420857Y-80058860D01*
X110352149Y-80041225D01*
X110255308Y-80022956D01*
X110124410Y-80003324D01*
X109953532Y-79981600D01*
X109736753Y-79957053D01*
X109468148Y-79928954D01*
X109141796Y-79896574D01*
X108751774Y-79859182D01*
X108541459Y-79839358D01*
X108081666Y-79796536D01*
X107689014Y-79760810D01*
X107358348Y-79731880D01*
X107084511Y-79709446D01*
X106862347Y-79693208D01*
X106686699Y-79682867D01*
X106552412Y-79678122D01*
X106454329Y-79678673D01*
X106387295Y-79684222D01*
X106346151Y-79694467D01*
X106325744Y-79709110D01*
X106324864Y-79710443D01*
X106266675Y-79742839D01*
X106172155Y-79739960D01*
X106066951Y-79704479D01*
X106023607Y-79679037D01*
X105952677Y-79652596D01*
X105820243Y-79624141D01*
X105637414Y-79594683D01*
X105415299Y-79565232D01*
X105165005Y-79536800D01*
X104897642Y-79510396D01*
X104624318Y-79487030D01*
X104356142Y-79467715D01*
X104104222Y-79453460D01*
X103879667Y-79445275D01*
X103693585Y-79444172D01*
X103557086Y-79451161D01*
X103540346Y-79453129D01*
X103208965Y-79520842D01*
X102935044Y-79630519D01*
X102715310Y-79784205D01*
X102546492Y-79983948D01*
X102470316Y-80122356D01*
X102430192Y-80218161D01*
X102404424Y-80311593D01*
X102389995Y-80422944D01*
X102383885Y-80572503D01*
X102382942Y-80709728D01*
X102385065Y-80898024D01*
X102393434Y-81033961D01*
X102411045Y-81137781D01*
X102440895Y-81229727D01*
X102469696Y-81295762D01*
X102524220Y-81402632D01*
X102572956Y-81480949D01*
X102596523Y-81506847D01*
X102634130Y-81564595D01*
X102609424Y-81654300D01*
X102524251Y-81775047D01*
X102376920Y-81999185D01*
X102275038Y-82268972D01*
X102216447Y-82590746D01*
X102206318Y-82708297D01*
X102194704Y-82873238D01*
X102183215Y-82979271D01*
X102167558Y-83040032D01*
X102143437Y-83069153D01*
X102106558Y-83080269D01*
X102088420Y-83082595D01*
X102004247Y-83074268D01*
X101958162Y-83046257D01*
X101938625Y-83002197D01*
X101898668Y-82897111D01*
X101841079Y-82738843D01*
X101768645Y-82535237D01*
X101684153Y-82294139D01*
X101590392Y-82023392D01*
X101490148Y-81730841D01*
X101476522Y-81690844D01*
X101369546Y-81377496D01*
X101263623Y-81068874D01*
X101162511Y-80775816D01*
X101069971Y-80509160D01*
X100989763Y-80279743D01*
X100925647Y-80098402D01*
X100884248Y-79983733D01*
X100820892Y-79807301D01*
X100763237Y-79638817D01*
X100718462Y-79499714D01*
X100696752Y-79424033D01*
X100668172Y-79329480D01*
X100629774Y-79256011D01*
X100572026Y-79199675D01*
X100485397Y-79156525D01*
X100360356Y-79122611D01*
X100187370Y-79093984D01*
X99956908Y-79066695D01*
X99793976Y-79050007D01*
X99534740Y-79025715D01*
X99338464Y-79011064D01*
X99196115Y-79005745D01*
X99098661Y-79009447D01*
X99037071Y-79021862D01*
X99031656Y-79023925D01*
X98989571Y-79044335D01*
X98954718Y-79074397D01*
X98921516Y-79125326D01*
X98884383Y-79208334D01*
X98837740Y-79334634D01*
X98776005Y-79515441D01*
X98753281Y-79583261D01*
X98719458Y-79682126D01*
X98665897Y-79835921D01*
X98597342Y-80031151D01*
X98518539Y-80254318D01*
X98434232Y-80491927D01*
X98401972Y-80582546D01*
X98319557Y-80814921D01*
X98243545Y-81031305D01*
X98178014Y-81219926D01*
X98127040Y-81369012D01*
X98094703Y-81466789D01*
X98087297Y-81490987D01*
X98060372Y-81575216D01*
X98014432Y-81708641D01*
X97956074Y-81872446D01*
X97896252Y-82036051D01*
X97825789Y-82228945D01*
X97755356Y-82426254D01*
X97694143Y-82602006D01*
X97658422Y-82708297D01*
X97603947Y-82866951D01*
X97559348Y-82968169D01*
X97515184Y-83024575D01*
X97462012Y-83048793D01*
X97400220Y-83053505D01*
X97317427Y-83037235D01*
X97280631Y-82978914D01*
X97278985Y-82971745D01*
X97275419Y-82920631D01*
X97271567Y-82803872D01*
X97267540Y-82628497D01*
X97263447Y-82401535D01*
X97259399Y-82130015D01*
X97255506Y-81820966D01*
X97251877Y-81481417D01*
X97251656Y-81456744D01*
X97048418Y-81456744D01*
X97048288Y-81801992D01*
X97047398Y-82136031D01*
X97045736Y-82451300D01*
X97043288Y-82740237D01*
X97040044Y-82995281D01*
X97035990Y-83208872D01*
X97031114Y-83373447D01*
X97025404Y-83481446D01*
X97018847Y-83525307D01*
X97017943Y-83525904D01*
X96971553Y-83522275D01*
X96863516Y-83512098D01*
X96704460Y-83496428D01*
X96505014Y-83476321D01*
X96275807Y-83452833D01*
X96127671Y-83437479D01*
X95697961Y-83389593D01*
X95332305Y-83340723D01*
X95022109Y-83287976D01*
X94758777Y-83228458D01*
X94533715Y-83159275D01*
X94338327Y-83077534D01*
X94164017Y-82980340D01*
X94002191Y-82864800D01*
X93844253Y-82728021D01*
X93750342Y-82637115D01*
X93522559Y-82382770D01*
X93346871Y-82121595D01*
X93216969Y-81839139D01*
X93126546Y-81520950D01*
X93069294Y-81152575D01*
X93063453Y-81092663D01*
X92491890Y-81092663D01*
X92442592Y-81479345D01*
X92340595Y-81834366D01*
X92187437Y-82149930D01*
X92004301Y-82396889D01*
X91751773Y-82631716D01*
X91468850Y-82807041D01*
X91147190Y-82926969D01*
X90790529Y-82994225D01*
X90626888Y-83001793D01*
X90414525Y-82994970D01*
X90175567Y-82975547D01*
X89932144Y-82945313D01*
X89710242Y-82906849D01*
X89299072Y-82794364D01*
X88884309Y-82627730D01*
X88664778Y-82516710D01*
X88483090Y-82417409D01*
X88464921Y-81345543D01*
X88460916Y-81073453D01*
X88458423Y-80825188D01*
X88457443Y-80609969D01*
X88457976Y-80437018D01*
X88460022Y-80315558D01*
X88463580Y-80254810D01*
X88464921Y-80249831D01*
X88502437Y-80248746D01*
X88599964Y-80253715D01*
X88745190Y-80263666D01*
X88925803Y-80277527D01*
X89129488Y-80294227D01*
X89343933Y-80312693D01*
X89556825Y-80331855D01*
X89755850Y-80350641D01*
X89928696Y-80367979D01*
X90063050Y-80382797D01*
X90146598Y-80394024D01*
X90164935Y-80397791D01*
X90168231Y-80432942D01*
X90169178Y-80525747D01*
X90167777Y-80661223D01*
X90164935Y-80791424D01*
X90154621Y-81181990D01*
X90009270Y-81172250D01*
X89878252Y-81161352D01*
X89730077Y-81146142D01*
X89690132Y-81141487D01*
X89516344Y-81120465D01*
X89526613Y-81547412D01*
X89536881Y-81974359D01*
X89682232Y-82028738D01*
X89810645Y-82059289D01*
X89997870Y-82079196D01*
X90209127Y-82086837D01*
X90384280Y-82087146D01*
X90507469Y-82081521D01*
X90599372Y-82066216D01*
X90680665Y-82037486D01*
X90772028Y-81991587D01*
X90790529Y-81981545D01*
X90999051Y-81828798D01*
X91157238Y-81625132D01*
X91265431Y-81369818D01*
X91323972Y-81062130D01*
X91335594Y-80819780D01*
X91308087Y-80437899D01*
X91226631Y-80104302D01*
X91092818Y-79820406D01*
X90908244Y-79587629D01*
X90674503Y-79407386D01*
X90393188Y-79281096D01*
X90065895Y-79210175D01*
X89694217Y-79196040D01*
X89521897Y-79207701D01*
X89334877Y-79235340D01*
X89131745Y-79279976D01*
X88964978Y-79329188D01*
X88829803Y-79376779D01*
X88716095Y-79416573D01*
X88645818Y-79440886D01*
X88640646Y-79442634D01*
X88615096Y-79444084D01*
X88597074Y-79421020D01*
X88584686Y-79362463D01*
X88576035Y-79257437D01*
X88569226Y-79094963D01*
X88566681Y-79014366D01*
X88563667Y-78803720D01*
X88568472Y-78645628D01*
X88580715Y-78547713D01*
X88591432Y-78521064D01*
X88642721Y-78491196D01*
X88745107Y-78451473D01*
X88879074Y-78409217D01*
X88919761Y-78397882D01*
X89052034Y-78365626D01*
X89181058Y-78343469D01*
X89325076Y-78329772D01*
X89502331Y-78322900D01*
X89731064Y-78321215D01*
X89773076Y-78321316D01*
X90095553Y-78328776D01*
X90365464Y-78351615D01*
X90602055Y-78394057D01*
X90824574Y-78460332D01*
X91052269Y-78554665D01*
X91226829Y-78640580D01*
X91407140Y-78740758D01*
X91554249Y-78842325D01*
X91694893Y-78965745D01*
X91824498Y-79097974D01*
X92058948Y-79379717D01*
X92233171Y-79668851D01*
X92358264Y-79986720D01*
X92426248Y-80255508D01*
X92486955Y-80682118D01*
X92491890Y-81092663D01*
X93063453Y-81092663D01*
X93059774Y-81054935D01*
X93056283Y-80797462D01*
X93084020Y-80513166D01*
X93138280Y-80230203D01*
X93214357Y-79976732D01*
X93257169Y-79873962D01*
X93395222Y-79640727D01*
X93578796Y-79417962D01*
X93785453Y-79231360D01*
X93870052Y-79172281D01*
X94045505Y-79074116D01*
X94233764Y-78997541D01*
X94443088Y-78941726D01*
X94681735Y-78905840D01*
X94957963Y-78889055D01*
X95280030Y-78890539D01*
X95656193Y-78909464D01*
X96094712Y-78944999D01*
X96113991Y-78946785D01*
X96358325Y-78970346D01*
X96578270Y-78993157D01*
X96763581Y-79014023D01*
X96904010Y-79031752D01*
X96989310Y-79045150D01*
X97010631Y-79051212D01*
X97017423Y-79092688D01*
X97023578Y-79198566D01*
X97029084Y-79361285D01*
X97033928Y-79573285D01*
X97038099Y-79827004D01*
X97041584Y-80114881D01*
X97044371Y-80429355D01*
X97046447Y-80762864D01*
X97047801Y-81107847D01*
X97048418Y-81456744D01*
X97251656Y-81456744D01*
X97248622Y-81118397D01*
X97247285Y-80945922D01*
X97244083Y-80575327D01*
X97240159Y-80225653D01*
X97235651Y-79903831D01*
X97230700Y-79616788D01*
X97225445Y-79371453D01*
X97220027Y-79174756D01*
X97214585Y-79033624D01*
X97209258Y-78954987D01*
X97206838Y-78941596D01*
X97182779Y-78904891D01*
X97139949Y-78873897D01*
X97070231Y-78846934D01*
X96965502Y-78822320D01*
X96817644Y-78798377D01*
X96618536Y-78773424D01*
X96360058Y-78745780D01*
X96168498Y-78726755D01*
X95726181Y-78688314D01*
X95345750Y-78666454D01*
X95018133Y-78662058D01*
X94734256Y-78676009D01*
X94485047Y-78709190D01*
X94261431Y-78762485D01*
X94054337Y-78836776D01*
X93854690Y-78932947D01*
X93812783Y-78956049D01*
X93552859Y-79140402D01*
X93321030Y-79379289D01*
X93131188Y-79655970D01*
X93005921Y-79928469D01*
X92947900Y-80083790D01*
X92901144Y-80181264D01*
X92856424Y-80232767D01*
X92804510Y-80250176D01*
X92757426Y-80248260D01*
X92711425Y-80235613D01*
X92673612Y-80201332D01*
X92636090Y-80132209D01*
X92590963Y-80015035D01*
X92554459Y-79908773D01*
X92420454Y-79569403D01*
X92260574Y-79281120D01*
X92062804Y-79023670D01*
X91971502Y-78925913D01*
X91658512Y-78650135D01*
X91315115Y-78432378D01*
X90936223Y-78270714D01*
X90516749Y-78163212D01*
X90051605Y-78107945D01*
X89791245Y-78099218D01*
X89490249Y-78106382D01*
X89206936Y-78131173D01*
X88950721Y-78171381D01*
X88731016Y-78224799D01*
X88557237Y-78289222D01*
X88438796Y-78362440D01*
X88389416Y-78427901D01*
X88374073Y-78507197D01*
X88363579Y-78639472D01*
X88357824Y-78806790D01*
X88356697Y-78991214D01*
X88360088Y-79174808D01*
X88367887Y-79339635D01*
X88379984Y-79467759D01*
X88396253Y-79541207D01*
X88451630Y-79628995D01*
X88525236Y-79673154D01*
X88628523Y-79674609D01*
X88772941Y-79634284D01*
X88903546Y-79582160D01*
X89226488Y-79471245D01*
X89550743Y-79410746D01*
X89866119Y-79399558D01*
X90162424Y-79436579D01*
X90429466Y-79520705D01*
X90657052Y-79650835D01*
X90804332Y-79787867D01*
X90921481Y-79944151D01*
X91004741Y-80106785D01*
X91058778Y-80291863D01*
X91088255Y-80515480D01*
X91097839Y-80793733D01*
X91097862Y-80800572D01*
X91097332Y-80993728D01*
X91092745Y-81131611D01*
X91081474Y-81231611D01*
X91060890Y-81311115D01*
X91028367Y-81387512D01*
X91001113Y-81440831D01*
X90925561Y-81563552D01*
X90840001Y-81673042D01*
X90794441Y-81718314D01*
X90641625Y-81807174D01*
X90442821Y-81864055D01*
X90219475Y-81884082D01*
X90093933Y-81877619D01*
X89928448Y-81854981D01*
X89822847Y-81822693D01*
X89764340Y-81771577D01*
X89740135Y-81692458D01*
X89736738Y-81621339D01*
X89752286Y-81486876D01*
X89804768Y-81411678D01*
X89902938Y-81388020D01*
X89992042Y-81396078D01*
X90122370Y-81397508D01*
X90240625Y-81366059D01*
X90326198Y-81310244D01*
X90358337Y-81244775D01*
X90359322Y-81185148D01*
X90359123Y-81069716D01*
X90357830Y-80915339D01*
X90355643Y-80746065D01*
X90351167Y-80554130D01*
X90343203Y-80421092D01*
X90329760Y-80333186D01*
X90308846Y-80276651D01*
X90282702Y-80241942D01*
X90245599Y-80215382D01*
X90184165Y-80192523D01*
X90088232Y-80171453D01*
X89947630Y-80150262D01*
X89752192Y-80127037D01*
X89567728Y-80107566D01*
X89235031Y-80074155D01*
X88966931Y-80049373D01*
X88755810Y-80033671D01*
X88594050Y-80027505D01*
X88474033Y-80031327D01*
X88388142Y-80045593D01*
X88328760Y-80070754D01*
X88288268Y-80107266D01*
X88259049Y-80155582D01*
X88245444Y-80186338D01*
X88183488Y-80276135D01*
X88102819Y-80317823D01*
X88023700Y-80301873D01*
X88014464Y-80294968D01*
X87996127Y-80253172D01*
X87977621Y-80156406D01*
X87958716Y-80001970D01*
X87939180Y-79787166D01*
X87918786Y-79509294D01*
X87897302Y-79165654D01*
X87874499Y-78753547D01*
X87861267Y-78495826D01*
X87847839Y-78267196D01*
X87828015Y-78101024D01*
X87792862Y-77987137D01*
X87733449Y-77915363D01*
X87640845Y-77875528D01*
X87506118Y-77857461D01*
X87320335Y-77850988D01*
X87294685Y-77850516D01*
X87129711Y-77847178D01*
X86986203Y-77843582D01*
X86883505Y-77840248D01*
X86847897Y-77838476D01*
X86787439Y-77834976D01*
X86668932Y-77828858D01*
X86506929Y-77820849D01*
X86315978Y-77811674D01*
X86211988Y-77806773D01*
X85963042Y-77794206D01*
X85688603Y-77778868D01*
X85420142Y-77762600D01*
X85189130Y-77747244D01*
X85165924Y-77745586D01*
X84938685Y-77731877D01*
X84771914Y-77729469D01*
X84654061Y-77739910D01*
G36*
X114136549Y-83153228D02*
G01*
X113995447Y-83193451D01*
X113893057Y-83265423D01*
X113867825Y-83294262D01*
X113787704Y-83452431D01*
X113763740Y-83642649D01*
X113789020Y-83815185D01*
X113841764Y-83956131D01*
X113921341Y-84065056D01*
X114036866Y-84146641D01*
X114197453Y-84205567D01*
X114412216Y-84246514D01*
X114681472Y-84273524D01*
X115027725Y-84298941D01*
X115027725Y-83748898D01*
X115027565Y-83711555D01*
X114809699Y-83711555D01*
X114807018Y-83868729D01*
X114790509Y-83966036D01*
X114747472Y-84016275D01*
X114665210Y-84032245D01*
X114531024Y-84026746D01*
X114499329Y-84024385D01*
X114351065Y-84006503D01*
X114217028Y-83978902D01*
X114128137Y-83948354D01*
X114037521Y-83864374D01*
X113983110Y-83739932D01*
X113969910Y-83600205D01*
X114002931Y-83470372D01*
X114025610Y-83432911D01*
X114060006Y-83398445D01*
X114112085Y-83377826D01*
X114198295Y-83368127D01*
X114335082Y-83366423D01*
X114395397Y-83367135D01*
X114574333Y-83374415D01*
X114692966Y-83396641D01*
X114763508Y-83443968D01*
X114798175Y-83526549D01*
X114809178Y-83654537D01*
X114809699Y-83711555D01*
X115027565Y-83711555D01*
X115026807Y-83535157D01*
X115023360Y-83383881D01*
X115016349Y-83284874D01*
X115004736Y-83227941D01*
X114987484Y-83202886D01*
X114971787Y-83198855D01*
X114912626Y-83194987D01*
X114800574Y-83184615D01*
X114654936Y-83169590D01*
X114573635Y-83160696D01*
X114326050Y-83142921D01*
X114136549Y-83153228D01*
G37*
X114136549Y-83153228D02*
X113995447Y-83193451D01*
X113893057Y-83265423D01*
X113867825Y-83294262D01*
X113787704Y-83452431D01*
X113763740Y-83642649D01*
X113789020Y-83815185D01*
X113841764Y-83956131D01*
X113921341Y-84065056D01*
X114036866Y-84146641D01*
X114197453Y-84205567D01*
X114412216Y-84246514D01*
X114681472Y-84273524D01*
X115027725Y-84298941D01*
X115027725Y-83748898D01*
X115027565Y-83711555D01*
X114809699Y-83711555D01*
X114807018Y-83868729D01*
X114790509Y-83966036D01*
X114747472Y-84016275D01*
X114665210Y-84032245D01*
X114531024Y-84026746D01*
X114499329Y-84024385D01*
X114351065Y-84006503D01*
X114217028Y-83978902D01*
X114128137Y-83948354D01*
X114037521Y-83864374D01*
X113983110Y-83739932D01*
X113969910Y-83600205D01*
X114002931Y-83470372D01*
X114025610Y-83432911D01*
X114060006Y-83398445D01*
X114112085Y-83377826D01*
X114198295Y-83368127D01*
X114335082Y-83366423D01*
X114395397Y-83367135D01*
X114574333Y-83374415D01*
X114692966Y-83396641D01*
X114763508Y-83443968D01*
X114798175Y-83526549D01*
X114809178Y-83654537D01*
X114809699Y-83711555D01*
X115027565Y-83711555D01*
X115026807Y-83535157D01*
X115023360Y-83383881D01*
X115016349Y-83284874D01*
X115004736Y-83227941D01*
X114987484Y-83202886D01*
X114971787Y-83198855D01*
X114912626Y-83194987D01*
X114800574Y-83184615D01*
X114654936Y-83169590D01*
X114573635Y-83160696D01*
X114326050Y-83142921D01*
X114136549Y-83153228D01*
G36*
X114275612Y-81428046D02*
G01*
X114125739Y-81454737D01*
X114023812Y-81508704D01*
X113962203Y-81593618D01*
X113933284Y-81713150D01*
X113928568Y-81836894D01*
X113945513Y-81988960D01*
X113996512Y-82105722D01*
X114089598Y-82192796D01*
X114232804Y-82255799D01*
X114434162Y-82300347D01*
X114626361Y-82324841D01*
X114782555Y-82340736D01*
X114909498Y-82353401D01*
X114991338Y-82361272D01*
X115013407Y-82363090D01*
X115018861Y-82329060D01*
X115023358Y-82236198D01*
X115026457Y-82098344D01*
X115027717Y-81929340D01*
X115027725Y-81914202D01*
X115027725Y-81885640D01*
X114808219Y-81885640D01*
X114797719Y-81995233D01*
X114764277Y-82068198D01*
X114694827Y-82097299D01*
X114582090Y-82105394D01*
X114451599Y-82094828D01*
X114328889Y-82067945D01*
X114239494Y-82027089D01*
X114229659Y-82019115D01*
X114174133Y-81932628D01*
X114153132Y-81823058D01*
X114166859Y-81717803D01*
X114215516Y-81644262D01*
X114226825Y-81637125D01*
X114311034Y-81617953D01*
X114434028Y-81617748D01*
X114568020Y-81633284D01*
X114685221Y-81661338D01*
X114757842Y-81698684D01*
X114757921Y-81698763D01*
X114794756Y-81775369D01*
X114808219Y-81885640D01*
X115027725Y-81885640D01*
X115027725Y-81465313D01*
X114749711Y-81441812D01*
X114481060Y-81424961D01*
X114275612Y-81428046D01*
G37*
X114275612Y-81428046D02*
X114125739Y-81454737D01*
X114023812Y-81508704D01*
X113962203Y-81593618D01*
X113933284Y-81713150D01*
X113928568Y-81836894D01*
X113945513Y-81988960D01*
X113996512Y-82105722D01*
X114089598Y-82192796D01*
X114232804Y-82255799D01*
X114434162Y-82300347D01*
X114626361Y-82324841D01*
X114782555Y-82340736D01*
X114909498Y-82353401D01*
X114991338Y-82361272D01*
X115013407Y-82363090D01*
X115018861Y-82329060D01*
X115023358Y-82236198D01*
X115026457Y-82098344D01*
X115027717Y-81929340D01*
X115027725Y-81914202D01*
X115027725Y-81885640D01*
X114808219Y-81885640D01*
X114797719Y-81995233D01*
X114764277Y-82068198D01*
X114694827Y-82097299D01*
X114582090Y-82105394D01*
X114451599Y-82094828D01*
X114328889Y-82067945D01*
X114239494Y-82027089D01*
X114229659Y-82019115D01*
X114174133Y-81932628D01*
X114153132Y-81823058D01*
X114166859Y-81717803D01*
X114215516Y-81644262D01*
X114226825Y-81637125D01*
X114311034Y-81617953D01*
X114434028Y-81617748D01*
X114568020Y-81633284D01*
X114685221Y-81661338D01*
X114757842Y-81698684D01*
X114757921Y-81698763D01*
X114794756Y-81775369D01*
X114808219Y-81885640D01*
X115027725Y-81885640D01*
X115027725Y-81465313D01*
X114749711Y-81441812D01*
X114481060Y-81424961D01*
X114275612Y-81428046D01*
G36*
X103685663Y-82351507D02*
G01*
X103591643Y-82492791D01*
X103548878Y-82663844D01*
X103555637Y-82844691D01*
X103610190Y-83015359D01*
X103710809Y-83155874D01*
X103758790Y-83195814D01*
X103872083Y-83257639D01*
X104022823Y-83304671D01*
X104222955Y-83339767D01*
X104462561Y-83364093D01*
X104780515Y-83389139D01*
X104780515Y-82838636D01*
X104780025Y-82760308D01*
X104563540Y-82760308D01*
X104560831Y-82894471D01*
X104551436Y-83016130D01*
X104535708Y-83104419D01*
X104517067Y-83137882D01*
X104444605Y-83145084D01*
X104323981Y-83136257D01*
X104177320Y-83113844D01*
X104050449Y-83086368D01*
X103907570Y-83024303D01*
X103817685Y-82918102D01*
X103773736Y-82759230D01*
X103772686Y-82750357D01*
X103768017Y-82637200D01*
X103791813Y-82561824D01*
X103836490Y-82507687D01*
X103883662Y-82466850D01*
X103935932Y-82444503D01*
X104012835Y-82437488D01*
X104133905Y-82442645D01*
X104205975Y-82447940D01*
X104345806Y-82460945D01*
X104457903Y-82475480D01*
X104522155Y-82488829D01*
X104528013Y-82491422D01*
X104547484Y-82537920D01*
X104559209Y-82634503D01*
X104563540Y-82760308D01*
X104780025Y-82760308D01*
X104779128Y-82617123D01*
X104774422Y-82458854D01*
X104765576Y-82354442D01*
X104751771Y-82294500D01*
X104732187Y-82269641D01*
X104730776Y-82269047D01*
X104676569Y-82261063D01*
X104565862Y-82253469D01*
X104414829Y-82247130D01*
X104241383Y-82242934D01*
X103801728Y-82235908D01*
X103685663Y-82351507D01*
G37*
X103685663Y-82351507D02*
X103591643Y-82492791D01*
X103548878Y-82663844D01*
X103555637Y-82844691D01*
X103610190Y-83015359D01*
X103710809Y-83155874D01*
X103758790Y-83195814D01*
X103872083Y-83257639D01*
X104022823Y-83304671D01*
X104222955Y-83339767D01*
X104462561Y-83364093D01*
X104780515Y-83389139D01*
X104780515Y-82838636D01*
X104780025Y-82760308D01*
X104563540Y-82760308D01*
X104560831Y-82894471D01*
X104551436Y-83016130D01*
X104535708Y-83104419D01*
X104517067Y-83137882D01*
X104444605Y-83145084D01*
X104323981Y-83136257D01*
X104177320Y-83113844D01*
X104050449Y-83086368D01*
X103907570Y-83024303D01*
X103817685Y-82918102D01*
X103773736Y-82759230D01*
X103772686Y-82750357D01*
X103768017Y-82637200D01*
X103791813Y-82561824D01*
X103836490Y-82507687D01*
X103883662Y-82466850D01*
X103935932Y-82444503D01*
X104012835Y-82437488D01*
X104133905Y-82442645D01*
X104205975Y-82447940D01*
X104345806Y-82460945D01*
X104457903Y-82475480D01*
X104522155Y-82488829D01*
X104528013Y-82491422D01*
X104547484Y-82537920D01*
X104559209Y-82634503D01*
X104563540Y-82760308D01*
X104780025Y-82760308D01*
X104779128Y-82617123D01*
X104774422Y-82458854D01*
X104765576Y-82354442D01*
X104751771Y-82294500D01*
X104732187Y-82269641D01*
X104730776Y-82269047D01*
X104676569Y-82261063D01*
X104565862Y-82253469D01*
X104414829Y-82247130D01*
X104241383Y-82242934D01*
X103801728Y-82235908D01*
X103685663Y-82351507D01*
G36*
X103963583Y-80527272D02*
G01*
X103853997Y-80562740D01*
X103836852Y-80574336D01*
X103760448Y-80678729D01*
X103722537Y-80821302D01*
X103722639Y-80978892D01*
X103760275Y-81128338D01*
X103834966Y-81246477D01*
X103851073Y-81261573D01*
X103944738Y-81324074D01*
X104068239Y-81370746D01*
X104235122Y-81405205D01*
X104458933Y-81431067D01*
X104498898Y-81434481D01*
X104780515Y-81457680D01*
X104780515Y-80980510D01*
X104562489Y-80980510D01*
X104553366Y-81098660D01*
X104528646Y-81168163D01*
X104517067Y-81177791D01*
X104457133Y-81184832D01*
X104352139Y-81182411D01*
X104228764Y-81172681D01*
X104113688Y-81157795D01*
X104033591Y-81139907D01*
X104029583Y-81138445D01*
X103978248Y-81083169D01*
X103950442Y-80978074D01*
X103950997Y-80850385D01*
X103961527Y-80793186D01*
X103988351Y-80760861D01*
X104049173Y-80744853D01*
X104161697Y-80736608D01*
X104189217Y-80735268D01*
X104358771Y-80734340D01*
X104468991Y-80756102D01*
X104531666Y-80808302D01*
X104558583Y-80898682D01*
X104562489Y-80980510D01*
X104780515Y-80980510D01*
X104780515Y-80556332D01*
X104589742Y-80533417D01*
X104342389Y-80512016D01*
X104130025Y-80510166D01*
X103963583Y-80527272D01*
G37*
X103963583Y-80527272D02*
X103853997Y-80562740D01*
X103836852Y-80574336D01*
X103760448Y-80678729D01*
X103722537Y-80821302D01*
X103722639Y-80978892D01*
X103760275Y-81128338D01*
X103834966Y-81246477D01*
X103851073Y-81261573D01*
X103944738Y-81324074D01*
X104068239Y-81370746D01*
X104235122Y-81405205D01*
X104458933Y-81431067D01*
X104498898Y-81434481D01*
X104780515Y-81457680D01*
X104780515Y-80980510D01*
X104562489Y-80980510D01*
X104553366Y-81098660D01*
X104528646Y-81168163D01*
X104517067Y-81177791D01*
X104457133Y-81184832D01*
X104352139Y-81182411D01*
X104228764Y-81172681D01*
X104113688Y-81157795D01*
X104033591Y-81139907D01*
X104029583Y-81138445D01*
X103978248Y-81083169D01*
X103950442Y-80978074D01*
X103950997Y-80850385D01*
X103961527Y-80793186D01*
X103988351Y-80760861D01*
X104049173Y-80744853D01*
X104161697Y-80736608D01*
X104189217Y-80735268D01*
X104358771Y-80734340D01*
X104468991Y-80756102D01*
X104531666Y-80808302D01*
X104558583Y-80898682D01*
X104562489Y-80980510D01*
X104780515Y-80980510D01*
X104780515Y-80556332D01*
X104589742Y-80533417D01*
X104342389Y-80512016D01*
X104130025Y-80510166D01*
X103963583Y-80527272D01*
G36*
X99516650Y-81214013D02*
G01*
X99442489Y-81440590D01*
X99377385Y-81642954D01*
X99324390Y-81811323D01*
X99286560Y-81935914D01*
X99266948Y-82006947D01*
X99265097Y-82019727D01*
X99303392Y-82027617D01*
X99398544Y-82040562D01*
X99535078Y-82056589D01*
X99657140Y-82069635D01*
X99835009Y-82088339D01*
X100003109Y-82106762D01*
X100137392Y-82122235D01*
X100191771Y-82128998D01*
X100345088Y-82149182D01*
X100295167Y-81992688D01*
X100268482Y-81910118D01*
X100223441Y-81771950D01*
X100211982Y-81736925D01*
X99945884Y-81736925D01*
X99922990Y-81814946D01*
X99852037Y-81847291D01*
X99775299Y-81847490D01*
X99685766Y-81834499D01*
X99644768Y-81800115D01*
X99629375Y-81721080D01*
X99627312Y-81697392D01*
X99636555Y-81562183D01*
X99690023Y-81482607D01*
X99786216Y-81460717D01*
X99799150Y-81461896D01*
X99868690Y-81486093D01*
X99910180Y-81551794D01*
X99925786Y-81605070D01*
X99945884Y-81736925D01*
X100211982Y-81736925D01*
X100164439Y-81591609D01*
X100095869Y-81382520D01*
X100022123Y-81158109D01*
X100012089Y-81127611D01*
X99778932Y-80419027D01*
X99516650Y-81214013D01*
G37*
X99516650Y-81214013D02*
X99442489Y-81440590D01*
X99377385Y-81642954D01*
X99324390Y-81811323D01*
X99286560Y-81935914D01*
X99266948Y-82006947D01*
X99265097Y-82019727D01*
X99303392Y-82027617D01*
X99398544Y-82040562D01*
X99535078Y-82056589D01*
X99657140Y-82069635D01*
X99835009Y-82088339D01*
X100003109Y-82106762D01*
X100137392Y-82122235D01*
X100191771Y-82128998D01*
X100345088Y-82149182D01*
X100295167Y-81992688D01*
X100268482Y-81910118D01*
X100223441Y-81771950D01*
X100211982Y-81736925D01*
X99945884Y-81736925D01*
X99922990Y-81814946D01*
X99852037Y-81847291D01*
X99775299Y-81847490D01*
X99685766Y-81834499D01*
X99644768Y-81800115D01*
X99629375Y-81721080D01*
X99627312Y-81697392D01*
X99636555Y-81562183D01*
X99690023Y-81482607D01*
X99786216Y-81460717D01*
X99799150Y-81461896D01*
X99868690Y-81486093D01*
X99910180Y-81551794D01*
X99925786Y-81605070D01*
X99945884Y-81736925D01*
X100211982Y-81736925D01*
X100164439Y-81591609D01*
X100095869Y-81382520D01*
X100022123Y-81158109D01*
X100012089Y-81127611D01*
X99778932Y-80419027D01*
X99516650Y-81214013D01*
G36*
X95122244Y-79812231D02*
G01*
X95022294Y-79825674D01*
X94933174Y-79851414D01*
X94834277Y-79892839D01*
X94784333Y-79915980D01*
X94631832Y-79999557D01*
X94513238Y-80087992D01*
X94465043Y-80140297D01*
X94328609Y-80389783D01*
X94244807Y-80670655D01*
X94212634Y-80968629D01*
X94231081Y-81269423D01*
X94299144Y-81558754D01*
X94415816Y-81822340D01*
X94580091Y-82045899D01*
X94600764Y-82067173D01*
X94790360Y-82222346D01*
X95015824Y-82340410D01*
X95287219Y-82425238D01*
X95614612Y-82480701D01*
X95699230Y-82489744D01*
X95938545Y-82512948D01*
X95922354Y-81193455D01*
X95920304Y-81053933D01*
X95699494Y-81053933D01*
X95699234Y-81297153D01*
X95696686Y-81533895D01*
X95691861Y-81753045D01*
X95684768Y-81943485D01*
X95675416Y-82094100D01*
X95663815Y-82193774D01*
X95650687Y-82231170D01*
X95567122Y-82239958D01*
X95426864Y-82223039D01*
X95240582Y-82181976D01*
X95151044Y-82157868D01*
X94940656Y-82063081D01*
X94753583Y-81911349D01*
X94604836Y-81717927D01*
X94512612Y-81509156D01*
X94475336Y-81334401D01*
X94453100Y-81128782D01*
X94446433Y-80916181D01*
X94455866Y-80720480D01*
X94481928Y-80565559D01*
X94491032Y-80536201D01*
X94593831Y-80335375D01*
X94742880Y-80187234D01*
X94940709Y-80090272D01*
X95189848Y-80042980D01*
X95328477Y-80037482D01*
X95486558Y-80043287D01*
X95600244Y-80059381D01*
X95652503Y-80081087D01*
X95666162Y-80129735D01*
X95677478Y-80238602D01*
X95686459Y-80396571D01*
X95693116Y-80592526D01*
X95697458Y-80815352D01*
X95699494Y-81053933D01*
X95920304Y-81053933D01*
X95917900Y-80890380D01*
X95912369Y-80610190D01*
X95906034Y-80361205D01*
X95899166Y-80151746D01*
X95892039Y-79990133D01*
X95884924Y-79884686D01*
X95878201Y-79843832D01*
X95832625Y-79831406D01*
X95730131Y-79820536D01*
X95586478Y-79812477D01*
X95437051Y-79808689D01*
X95253628Y-79807698D01*
X95122244Y-79812231D01*
G37*
X95122244Y-79812231D02*
X95022294Y-79825674D01*
X94933174Y-79851414D01*
X94834277Y-79892839D01*
X94784333Y-79915980D01*
X94631832Y-79999557D01*
X94513238Y-80087992D01*
X94465043Y-80140297D01*
X94328609Y-80389783D01*
X94244807Y-80670655D01*
X94212634Y-80968629D01*
X94231081Y-81269423D01*
X94299144Y-81558754D01*
X94415816Y-81822340D01*
X94580091Y-82045899D01*
X94600764Y-82067173D01*
X94790360Y-82222346D01*
X95015824Y-82340410D01*
X95287219Y-82425238D01*
X95614612Y-82480701D01*
X95699230Y-82489744D01*
X95938545Y-82512948D01*
X95922354Y-81193455D01*
X95920304Y-81053933D01*
X95699494Y-81053933D01*
X95699234Y-81297153D01*
X95696686Y-81533895D01*
X95691861Y-81753045D01*
X95684768Y-81943485D01*
X95675416Y-82094100D01*
X95663815Y-82193774D01*
X95650687Y-82231170D01*
X95567122Y-82239958D01*
X95426864Y-82223039D01*
X95240582Y-82181976D01*
X95151044Y-82157868D01*
X94940656Y-82063081D01*
X94753583Y-81911349D01*
X94604836Y-81717927D01*
X94512612Y-81509156D01*
X94475336Y-81334401D01*
X94453100Y-81128782D01*
X94446433Y-80916181D01*
X94455866Y-80720480D01*
X94481928Y-80565559D01*
X94491032Y-80536201D01*
X94593831Y-80335375D01*
X94742880Y-80187234D01*
X94940709Y-80090272D01*
X95189848Y-80042980D01*
X95328477Y-80037482D01*
X95486558Y-80043287D01*
X95600244Y-80059381D01*
X95652503Y-80081087D01*
X95666162Y-80129735D01*
X95677478Y-80238602D01*
X95686459Y-80396571D01*
X95693116Y-80592526D01*
X95697458Y-80815352D01*
X95699494Y-81053933D01*
X95920304Y-81053933D01*
X95917900Y-80890380D01*
X95912369Y-80610190D01*
X95906034Y-80361205D01*
X95899166Y-80151746D01*
X95892039Y-79990133D01*
X95884924Y-79884686D01*
X95878201Y-79843832D01*
X95832625Y-79831406D01*
X95730131Y-79820536D01*
X95586478Y-79812477D01*
X95437051Y-79808689D01*
X95253628Y-79807698D01*
X95122244Y-79812231D01*
G36*
X117606538Y-112140008D02*
G01*
X117060938Y-112232200D01*
X116531913Y-112397557D01*
X116028859Y-112633866D01*
X115561170Y-112938911D01*
X115160767Y-113287767D01*
X114782111Y-113724307D01*
X114475228Y-114201188D01*
X114241824Y-114711224D01*
X114083602Y-115247228D01*
X114002267Y-115802014D01*
X113999524Y-116368396D01*
X114077077Y-116939189D01*
X114191521Y-117373870D01*
X114386794Y-117853715D01*
X114653525Y-118311436D01*
X114981350Y-118736157D01*
X115359907Y-119117005D01*
X115778833Y-119443103D01*
X116227766Y-119703576D01*
X116536237Y-119834537D01*
X116684216Y-119885091D01*
X116777871Y-119905494D01*
X116841009Y-119898217D01*
X116889742Y-119871220D01*
X116920432Y-119844546D01*
X116943245Y-119805507D01*
X116959674Y-119741767D01*
X116971209Y-119640989D01*
X116979344Y-119490836D01*
X116985570Y-119278974D01*
X116990539Y-119037849D01*
X116996276Y-118762429D01*
X117002807Y-118557124D01*
X117012014Y-118407391D01*
X117025780Y-118298686D01*
X117045985Y-118216465D01*
X117074513Y-118146184D01*
X117113244Y-118073300D01*
X117115971Y-118068459D01*
X117226776Y-117872085D01*
X117016232Y-117844156D01*
X116754659Y-117786789D01*
X116476628Y-117688430D01*
X116218409Y-117563675D01*
X116052617Y-117456317D01*
X115827044Y-117232311D01*
X115650131Y-116945563D01*
X115525653Y-116605120D01*
X115457388Y-116220032D01*
X115445294Y-116001184D01*
X115466737Y-115632278D01*
X115545489Y-115317117D01*
X115684398Y-115044616D01*
X115695333Y-115028470D01*
X115774128Y-114907257D01*
X115809910Y-114822356D01*
X115810818Y-114742610D01*
X115791514Y-114660185D01*
X115767627Y-114485622D01*
X115772312Y-114269082D01*
X115803011Y-114047322D01*
X115845185Y-113889122D01*
X115882575Y-113799597D01*
X115930279Y-113763260D01*
X116019119Y-113763712D01*
X116069063Y-113769982D01*
X116183385Y-113799308D01*
X116345508Y-113858681D01*
X116528779Y-113937838D01*
X116624167Y-113983700D01*
X117005167Y-114174181D01*
X117301500Y-114114980D01*
X117615593Y-114072745D01*
X117970257Y-114058187D01*
X118326043Y-114071317D01*
X118643503Y-114112145D01*
X118656167Y-114114616D01*
X118952500Y-114173453D01*
X119348436Y-113978809D01*
X119616279Y-113858903D01*
X119820559Y-113793737D01*
X119917828Y-113780832D01*
X120029426Y-113784382D01*
X120089089Y-113815854D01*
X120127636Y-113897964D01*
X120143055Y-113946833D01*
X120178535Y-114118242D01*
X120195378Y-114318619D01*
X120192883Y-114514481D01*
X120170351Y-114672348D01*
X120158983Y-114708879D01*
X120140221Y-114796360D01*
X120167425Y-114879293D01*
X120221213Y-114957382D01*
X120390815Y-115247828D01*
X120495686Y-115583692D01*
X120533842Y-115953554D01*
X120503302Y-116345992D01*
X120481915Y-116459563D01*
X120368854Y-116833414D01*
X120199899Y-117146774D01*
X119971947Y-117402552D01*
X119681894Y-117603656D01*
X119326635Y-117752992D01*
X119016000Y-117832678D01*
X118886120Y-117860007D01*
X118795030Y-117881464D01*
X118767755Y-117890017D01*
X118777298Y-117928911D01*
X118820128Y-118012582D01*
X118836400Y-118040356D01*
X118901124Y-118167319D01*
X118945932Y-118288873D01*
X118948244Y-118298080D01*
X118998040Y-118396207D01*
X119099421Y-118459018D01*
X119263298Y-118491018D01*
X119431506Y-118497508D01*
X119630714Y-118479522D01*
X119795079Y-118417932D01*
X119945072Y-118300854D01*
X120101169Y-118116402D01*
X120111171Y-118102939D01*
X120224897Y-117966127D01*
X120347131Y-117845140D01*
X120433181Y-117778609D01*
X120560633Y-117720472D01*
X120701625Y-117686004D01*
X120826475Y-117679706D01*
X120905503Y-117706077D01*
X120906317Y-117706872D01*
X120892559Y-117748059D01*
X120828748Y-117829729D01*
X120727814Y-117935784D01*
X120703886Y-117958909D01*
X120479675Y-118219700D01*
X120340870Y-118455600D01*
X120250656Y-118618991D01*
X120152241Y-118755263D01*
X120080496Y-118825861D01*
X119896547Y-118919153D01*
X119655095Y-118979201D01*
X119378291Y-119001468D01*
X119242327Y-118997594D01*
X118970892Y-118980311D01*
X118982863Y-119400692D01*
X118990468Y-119597624D01*
X119002184Y-119727321D01*
X119021551Y-119807211D01*
X119052109Y-119854721D01*
X119079500Y-119876397D01*
X119144148Y-119905123D01*
X119223309Y-119902597D01*
X119345456Y-119866880D01*
X119375833Y-119856196D01*
X119874363Y-119634334D01*
X120335809Y-119341576D01*
X120753453Y-118986060D01*
X121120575Y-118575923D01*
X121430456Y-118119305D01*
X121676376Y-117624343D01*
X121851616Y-117099176D01*
X121919662Y-116775253D01*
X121973464Y-116199223D01*
X121946702Y-115635298D01*
X121843296Y-115090008D01*
X121667163Y-114569883D01*
X121422225Y-114081455D01*
X121112398Y-113631255D01*
X120741603Y-113225813D01*
X120313759Y-112871660D01*
X119832785Y-112575326D01*
X119302599Y-112343344D01*
X119248833Y-112324555D01*
X118709881Y-112183971D01*
X118159317Y-112123193D01*
X117606538Y-112140008D01*
G37*
X117606538Y-112140008D02*
X117060938Y-112232200D01*
X116531913Y-112397557D01*
X116028859Y-112633866D01*
X115561170Y-112938911D01*
X115160767Y-113287767D01*
X114782111Y-113724307D01*
X114475228Y-114201188D01*
X114241824Y-114711224D01*
X114083602Y-115247228D01*
X114002267Y-115802014D01*
X113999524Y-116368396D01*
X114077077Y-116939189D01*
X114191521Y-117373870D01*
X114386794Y-117853715D01*
X114653525Y-118311436D01*
X114981350Y-118736157D01*
X115359907Y-119117005D01*
X115778833Y-119443103D01*
X116227766Y-119703576D01*
X116536237Y-119834537D01*
X116684216Y-119885091D01*
X116777871Y-119905494D01*
X116841009Y-119898217D01*
X116889742Y-119871220D01*
X116920432Y-119844546D01*
X116943245Y-119805507D01*
X116959674Y-119741767D01*
X116971209Y-119640989D01*
X116979344Y-119490836D01*
X116985570Y-119278974D01*
X116990539Y-119037849D01*
X116996276Y-118762429D01*
X117002807Y-118557124D01*
X117012014Y-118407391D01*
X117025780Y-118298686D01*
X117045985Y-118216465D01*
X117074513Y-118146184D01*
X117113244Y-118073300D01*
X117115971Y-118068459D01*
X117226776Y-117872085D01*
X117016232Y-117844156D01*
X116754659Y-117786789D01*
X116476628Y-117688430D01*
X116218409Y-117563675D01*
X116052617Y-117456317D01*
X115827044Y-117232311D01*
X115650131Y-116945563D01*
X115525653Y-116605120D01*
X115457388Y-116220032D01*
X115445294Y-116001184D01*
X115466737Y-115632278D01*
X115545489Y-115317117D01*
X115684398Y-115044616D01*
X115695333Y-115028470D01*
X115774128Y-114907257D01*
X115809910Y-114822356D01*
X115810818Y-114742610D01*
X115791514Y-114660185D01*
X115767627Y-114485622D01*
X115772312Y-114269082D01*
X115803011Y-114047322D01*
X115845185Y-113889122D01*
X115882575Y-113799597D01*
X115930279Y-113763260D01*
X116019119Y-113763712D01*
X116069063Y-113769982D01*
X116183385Y-113799308D01*
X116345508Y-113858681D01*
X116528779Y-113937838D01*
X116624167Y-113983700D01*
X117005167Y-114174181D01*
X117301500Y-114114980D01*
X117615593Y-114072745D01*
X117970257Y-114058187D01*
X118326043Y-114071317D01*
X118643503Y-114112145D01*
X118656167Y-114114616D01*
X118952500Y-114173453D01*
X119348436Y-113978809D01*
X119616279Y-113858903D01*
X119820559Y-113793737D01*
X119917828Y-113780832D01*
X120029426Y-113784382D01*
X120089089Y-113815854D01*
X120127636Y-113897964D01*
X120143055Y-113946833D01*
X120178535Y-114118242D01*
X120195378Y-114318619D01*
X120192883Y-114514481D01*
X120170351Y-114672348D01*
X120158983Y-114708879D01*
X120140221Y-114796360D01*
X120167425Y-114879293D01*
X120221213Y-114957382D01*
X120390815Y-115247828D01*
X120495686Y-115583692D01*
X120533842Y-115953554D01*
X120503302Y-116345992D01*
X120481915Y-116459563D01*
X120368854Y-116833414D01*
X120199899Y-117146774D01*
X119971947Y-117402552D01*
X119681894Y-117603656D01*
X119326635Y-117752992D01*
X119016000Y-117832678D01*
X118886120Y-117860007D01*
X118795030Y-117881464D01*
X118767755Y-117890017D01*
X118777298Y-117928911D01*
X118820128Y-118012582D01*
X118836400Y-118040356D01*
X118901124Y-118167319D01*
X118945932Y-118288873D01*
X118948244Y-118298080D01*
X118998040Y-118396207D01*
X119099421Y-118459018D01*
X119263298Y-118491018D01*
X119431506Y-118497508D01*
X119630714Y-118479522D01*
X119795079Y-118417932D01*
X119945072Y-118300854D01*
X120101169Y-118116402D01*
X120111171Y-118102939D01*
X120224897Y-117966127D01*
X120347131Y-117845140D01*
X120433181Y-117778609D01*
X120560633Y-117720472D01*
X120701625Y-117686004D01*
X120826475Y-117679706D01*
X120905503Y-117706077D01*
X120906317Y-117706872D01*
X120892559Y-117748059D01*
X120828748Y-117829729D01*
X120727814Y-117935784D01*
X120703886Y-117958909D01*
X120479675Y-118219700D01*
X120340870Y-118455600D01*
X120250656Y-118618991D01*
X120152241Y-118755263D01*
X120080496Y-118825861D01*
X119896547Y-118919153D01*
X119655095Y-118979201D01*
X119378291Y-119001468D01*
X119242327Y-118997594D01*
X118970892Y-118980311D01*
X118982863Y-119400692D01*
X118990468Y-119597624D01*
X119002184Y-119727321D01*
X119021551Y-119807211D01*
X119052109Y-119854721D01*
X119079500Y-119876397D01*
X119144148Y-119905123D01*
X119223309Y-119902597D01*
X119345456Y-119866880D01*
X119375833Y-119856196D01*
X119874363Y-119634334D01*
X120335809Y-119341576D01*
X120753453Y-118986060D01*
X121120575Y-118575923D01*
X121430456Y-118119305D01*
X121676376Y-117624343D01*
X121851616Y-117099176D01*
X121919662Y-116775253D01*
X121973464Y-116199223D01*
X121946702Y-115635298D01*
X121843296Y-115090008D01*
X121667163Y-114569883D01*
X121422225Y-114081455D01*
X121112398Y-113631255D01*
X120741603Y-113225813D01*
X120313759Y-112871660D01*
X119832785Y-112575326D01*
X119302599Y-112343344D01*
X119248833Y-112324555D01*
X118709881Y-112183971D01*
X118159317Y-112123193D01*
X117606538Y-112140008D01*
D12*
X100000000Y-71000000D03*
D13*
X104500000Y-71000000D03*
X104000000Y-72250000D03*
X96000000Y-72250000D03*
X95500000Y-71000000D03*
X96000000Y-69750000D03*
X104000000Y-69750000D03*
D14*
X84000000Y-100000000D03*
X116000000Y-100000000D03*
D15*
X115000000Y-124000000D03*
X85000000Y-124000000D03*
D16*
X70500000Y-105450000D03*
X129500000Y-105450000D03*
X70500000Y-94550000D03*
X129500000Y-94550000D03*
D17*
X76750000Y-110475000D03*
D18*
X121500000Y-122000000D03*
X78500000Y-78000000D03*
M02*
