G04 #@! TF.GenerationSoftware,KiCad,Pcbnew,5.1.5+dfsg1-2build2*
G04 #@! TF.CreationDate,2021-12-15T11:20:51+01:00*
G04 #@! TF.ProjectId,BitBadge,42697442-6164-4676-952e-6b696361645f,rev?*
G04 #@! TF.SameCoordinates,Original*
G04 #@! TF.FileFunction,Copper,L2,Bot*
G04 #@! TF.FilePolarity,Positive*
%FSLAX46Y46*%
G04 Gerber Fmt 4.6, Leading zero omitted, Abs format (unit mm)*
G04 Created by KiCad (PCBNEW 5.1.5+dfsg1-2build2) date 2021-12-15 11:20:51*
%MOMM*%
%LPD*%
G04 APERTURE LIST*
%ADD10O,11.000000X5.000000*%
%ADD11C,0.900000*%
%ADD12R,4.000000X4.000000*%
%ADD13R,4.000000X6.000000*%
%ADD14C,1.000000*%
%ADD15C,0.600000*%
%ADD16C,0.300000*%
G04 APERTURE END LIST*
D10*
X100000000Y-71000000D03*
D11*
X104500000Y-71000000D03*
X104000000Y-72250000D03*
X96000000Y-72250000D03*
X95500000Y-71000000D03*
X96000000Y-69750000D03*
X104000000Y-69750000D03*
D12*
X84000000Y-100000000D03*
X116000000Y-100000000D03*
D13*
X70500000Y-105450000D03*
X129500000Y-105450000D03*
X70500000Y-94550000D03*
X129500000Y-94550000D03*
D14*
X121500000Y-122000000D03*
X78500000Y-78000000D03*
D15*
X100000000Y-130500000D03*
X100000000Y-126000000D03*
X91000000Y-122000000D03*
X91000000Y-125000000D03*
X109000000Y-122000000D03*
X109000000Y-125000000D03*
D16*
X70500000Y-94550000D02*
X70500000Y-105450000D01*
X100000000Y-130500000D02*
X101500000Y-129000000D01*
X101500000Y-108000000D02*
X104050000Y-105450000D01*
X101500000Y-129000000D02*
X101500000Y-108000000D01*
X116000000Y-100000000D02*
X116000000Y-105450000D01*
X116000000Y-105450000D02*
X116000000Y-105500000D01*
X116000000Y-105500000D02*
X116000000Y-105450000D01*
X104050000Y-105450000D02*
X116000000Y-105450000D01*
X116000000Y-105450000D02*
X129500000Y-105450000D01*
X97000000Y-100000000D02*
X98500000Y-100000000D01*
X129500000Y-94550000D02*
X103950000Y-94550000D01*
X103950000Y-94550000D02*
X98500000Y-100000000D01*
X98500000Y-100000000D02*
X98500000Y-101500000D01*
X97000000Y-100000000D02*
X84000000Y-100000000D01*
X98500000Y-124500000D02*
X98500000Y-101500000D01*
X100000000Y-126000000D02*
X98500000Y-124500000D01*
X91000000Y-122000000D02*
X91000000Y-125000000D01*
X109000000Y-122000000D02*
X109000000Y-125000000D01*
M02*
